<?xml version="1.0" encoding="utf-8"?>
<!-- Generator: Adobe Illustrator 25.2.0, SVG Export Plug-In . SVG Version: 6.00 Build 0)  -->
<svg version="1.1" id="Layer_1" xmlns="http://www.w3.org/2000/svg" xmlns:xlink="http://www.w3.org/1999/xlink" x="0px" y="0px"
	 viewBox="0 0 20.5 24.2" style="enable-background:new 0 0 20.5 24.2;" xml:space="preserve">
<style type="text/css">
	.st0{fill:#B1D9DB;}
</style>
<path class="st0" d="M10.3,0C4.6,0,0,4.6,0,10.3C0,15.7,8.6,23.2,9.6,24c0.2,0.2,0.4,0.2,0.6,0.2c0.2,0,0.5-0.1,0.6-0.2
	c1-0.8,9.6-8.3,9.6-13.8C20.5,4.6,15.9,0,10.3,0z M10.3,15.3c-2.8,0-5-2.2-5-5c0-2.8,2.2-5,5-5c2.8,0,5,2.2,5,5
	C15.3,13,13,15.3,10.3,15.3z"/>
</svg>
