<?xml version="1.0" encoding="utf-8"?>
<!-- Generator: Adobe Illustrator 24.3.0, SVG Export Plug-In . SVG Version: 6.00 Build 0)  -->
<svg version="1.1" id="Calque_1" xmlns="http://www.w3.org/2000/svg" xmlns:xlink="http://www.w3.org/1999/xlink" x="0px" y="0px"
	 viewBox="0 0 24 24" style="enable-background:new 0 0 24 24;" xml:space="preserve">
<path d="M12,24c-3,0-6-0.2-8.9-0.7C2,23.1,1,22,0.9,20.8c-0.1-0.8-0.2-1.7-0.2-2.5c-0.1-1.1,0.6-2.5,1.6-3c1.9-0.9,3.9-1.5,6-1.9
	l0-0.2c-0.6-0.5-0.9-1.1-1-1.7c0-0.2,0-0.4-0.1-0.6c-0.5-0.2-0.8-0.6-0.9-1.2L6.1,7.4c0-0.4,0.1-0.8,0.3-1.1
	c0.1-0.1,0.2-0.2,0.2-0.2L6.6,5.4C6.5,4.6,6.3,2.8,7.7,1.5C8.7,0.6,10.3,0,12,0c1.7,0,3.3,0.6,4.3,1.5c1.4,1.3,1.2,3.1,1.2,3.9
	l0,0.2c0,0.2,0,0.3-0.1,0.5c0.1,0.1,0.2,0.1,0.2,0.2c0.2,0.3,0.4,0.7,0.3,1.1l-0.2,2.3c-0.1,0.5-0.4,1-0.9,1.2l-0.1,0.6
	c0,0.6-0.4,1.2-1,1.7l0,0.2c2.1,0.3,4.1,1,6,1.9c1.1,0.6,1.8,1.9,1.7,3l-0.2,2.5C23,22,22,23.1,20.9,23.3C18,23.8,15,24,12,24L12,24
	z M8.3,8.9c0,0,0.1,0,0.1,0C8.8,9.1,9,9.4,9.1,9.8c0.1,0.5,0.1,1,0.2,1.5c0,0.1,0.2,0.3,0.5,0.5c0.3,0.2,0.4,0.4,0.5,0.7l0.2,1.6
	c0,0.3,0,0.5-0.2,0.8c-0.2,0.2-0.4,0.4-0.7,0.4c-2.2,0.3-4.4,0.9-6.4,1.8c-0.3,0.2-0.5,0.7-0.5,1c0.1,0.8,0.2,1.7,0.2,2.5
	c0,0.3,0.3,0.6,0.6,0.7c5.6,0.9,11.5,0.9,17.1,0c0.2,0,0.5-0.4,0.5-0.7l0.2-2.5c0-0.3-0.2-0.8-0.6-1c-2-0.9-4.1-1.5-6.3-1.8
	c-0.3,0-0.5-0.2-0.7-0.4c-0.2-0.2-0.2-0.5-0.2-0.8l0.2-1.6c0-0.3,0.2-0.5,0.5-0.7c0.3-0.2,0.4-0.4,0.5-0.5l0.2-1.5
	c0-0.4,0.3-0.7,0.7-0.8c0,0,0.1,0,0.1,0l0.1-1.1c-0.1,0-0.1-0.1-0.2-0.1c-0.3-0.2-0.5-0.6-0.4-1l0-0.1c0-0.4,0.1-0.8,0.1-1.2l0-0.2
	c0.1-0.8,0.1-1.7-0.5-2.2c-0.7-0.6-1.7-1-2.9-1c-1.2,0-2.3,0.4-2.9,1C8.5,3.6,8.5,4.5,8.6,5.2l0.2,1.5c0,0.4-0.1,0.7-0.4,1
	c0,0-0.1,0.1-0.2,0.1L8.3,8.9L8.3,8.9z"/>
</svg>
