<?xml version="1.0" encoding="utf-8"?>
<!-- Generator: Adobe Illustrator 25.0.0, SVG Export Plug-In . SVG Version: 6.00 Build 0)  -->
<svg version="1.1" id="Calque_1" xmlns="http://www.w3.org/2000/svg" xmlns:xlink="http://www.w3.org/1999/xlink" x="0px" y="0px"
	 viewBox="0 0 24 24" style="enable-background:new 0 0 24 24;" xml:space="preserve">
<g>
	<path d="M21.5,0.2H4.3c-0.6,0-1,0.4-1,1v3H2.5c-0.6,0-1,0.4-1,1c0,0.6,0.4,1,1,1h0.8v2.5H2.5c-0.6,0-1,0.4-1,1c0,0.6,0.4,1,1,1h0.8
		v2.5H2.5c-0.6,0-1,0.4-1,1c0,0.6,0.4,1,1,1h0.8v2.5H2.5c-0.6,0-1,0.4-1,1s0.4,1,1,1h0.8v3.2c0,0.6,0.4,1,1,1h17.3c0.6,0,1-0.4,1-1
		V1.2C22.5,0.6,22.1,0.2,21.5,0.2z M20.5,21.8H5.3v-2.2H6c0.6,0,1-0.4,1-1s-0.4-1-1-1H5.3v-2.5H6c0.6,0,1-0.4,1-1c0-0.6-0.4-1-1-1
		H5.3v-2.5H6c0.6,0,1-0.4,1-1c0-0.6-0.4-1-1-1H5.3V6.2H6c0.6,0,1-0.4,1-1c0-0.6-0.4-1-1-1H5.3v-2h15.3V21.8z"/>
	<path d="M13.5,12.2c1.8,0,3.3-1.6,3.3-3.7c0-2-1.5-3.7-3.3-3.7c-1.8,0-3.3,1.6-3.3,3.7C10.2,10.5,11.7,12.2,13.5,12.2z M13.5,6.9
		c0.7,0,1.3,0.7,1.3,1.7c0,0.9-0.6,1.7-1.3,1.7c-0.7,0-1.3-0.7-1.3-1.7C12.2,7.6,12.8,6.9,13.5,6.9z"/>
	<path d="M9.1,20H18c0.5,0,1-0.4,1-0.9l0.2-2.9c0.1-1.2-0.8-2.6-2.1-3.1c-2.3-0.8-4.8-0.8-7.2,0c-1.2,0.4-2.1,1.8-2,3.1l0.2,2.9
		C8.1,19.6,8.6,20,9.1,20z M10.6,15.1c1.9-0.7,3.9-0.7,5.8,0c0.4,0.2,0.8,0.7,0.7,1L17,18h-7l-0.1-1.9C9.9,15.8,10.2,15.2,10.6,15.1
		z"/>
</g>
</svg>
