<?xml version="1.0" encoding="utf-8"?>
<!-- Generator: Adobe Illustrator 25.0.0, SVG Export Plug-In . SVG Version: 6.00 Build 0)  -->
<svg version="1.1" id="Calque_1" xmlns="http://www.w3.org/2000/svg" xmlns:xlink="http://www.w3.org/1999/xlink" x="0px" y="0px"
	 viewBox="0 0 24 24" style="enable-background:new 0 0 24 24;" xml:space="preserve">
<g>
	<path d="M9.6,10.1h7.7c0.3,0,0.5-0.2,0.5-0.5V5.2c0-0.3-0.2-0.5-0.5-0.5H9.6C9.3,4.7,9.1,5,9.1,5.2v4.3C9.1,9.8,9.3,10.1,9.6,10.1z
		 M10.1,5.7h6.7v3.3h-6.7V5.7z"/>
	<path d="M21.5,0.2H4.3c-0.6,0-1,0.4-1,1v3H2.5c-0.6,0-1,0.4-1,1s0.4,1,1,1h0.8v2.5H2.5c-0.6,0-1,0.4-1,1c0,0.6,0.4,1,1,1h0.8v2.5
		H2.5c-0.6,0-1,0.4-1,1c0,0.6,0.4,1,1,1h0.8v2.5H2.5c-0.6,0-1,0.4-1,1c0,0.6,0.4,1,1,1h0.8v3.1c0,0.6,0.4,1,1,1h17.2
		c0.6,0,1-0.4,1-1V1.2C22.5,0.7,22,0.2,21.5,0.2z M20.5,21.8H5.3v-2.1H6c0.6,0,1-0.4,1-1c0-0.6-0.4-1-1-1H5.3v-2.5H6
		c0.6,0,1-0.4,1-1c0-0.6-0.4-1-1-1H5.3v-2.5H6c0.6,0,1-0.4,1-1c0-0.6-0.4-1-1-1H5.3V6.2H6c0.6,0,1-0.4,1-1s-0.4-1-1-1H5.3v-2h15.2
		V21.8z"/>
</g>
</svg>
