<?xml version="1.0" encoding="utf-8"?>
<!-- Generator: Adobe Illustrator 24.3.0, SVG Export Plug-In . SVG Version: 6.00 Build 0)  -->
<svg version="1.1" id="Calque_1" xmlns="http://www.w3.org/2000/svg" xmlns:xlink="http://www.w3.org/1999/xlink" x="0px" y="0px"
	 viewBox="0 0 24 24" style="enable-background:new 0 0 24 24;" xml:space="preserve">
<path d="M20.7,2.2c0.3,0,0.6,0.1,0.8,0.3c1,1-0.6,3.8-3.7,6.8l0.8,1.9c0.2-0.2,0.5-0.3,0.7-0.3c0.1,0,0.2,0,0.3,0.1
	c0.3,0.3,0.1,0.8-0.5,1.2l0.9,2c0.2-0.2,0.4-0.3,0.6-0.3c0.1,0,0.2,0,0.3,0.1c0.3,0.3,0.1,0.8-0.5,1.2l1.1,2.6l0.2,2.5L15,11.8
	c-0.1,0.1-0.1,0.1-0.2,0.2c-2.4,1.9-4.6,3.5-6.2,4.7l-0.2,5.2l-2.1-3.6c-0.4,0.3-0.7,0.4-0.8,0.4c0,0,0,0,0,0
	c-0.1-0.1,0.1-0.4,0.4-0.8l-3.6-2.1l5.2-0.2c1.2-1.7,2.8-3.9,4.7-6.2c0.1-0.1,0.1-0.1,0.2-0.2L3.7,2.3l2.5,0.2l2.6,1.1
	C9,3.2,9.4,2.9,9.6,2.9c0.1,0,0.2,0,0.3,0.1c0.2,0.2,0.1,0.6-0.2,0.9l2,0.9c0.3-0.4,0.6-0.6,0.9-0.6c0.1,0,0.2,0,0.3,0.1
	c0.2,0.2,0.1,0.6-0.2,1l1.9,0.8C17.1,3.7,19.4,2.2,20.7,2.2 M20.7,0.2c-1.9,0-4.1,1.5-6,3.2c-0.1-0.1-0.2-0.3-0.3-0.4
	c-0.5-0.5-1.1-0.7-1.7-0.7c-0.3,0-0.6,0-0.8,0.1c-0.1-0.3-0.3-0.5-0.5-0.8c-0.5-0.5-1.1-0.7-1.7-0.7C9.2,0.9,8.8,1,8.4,1.2L7,0.6
	C6.8,0.5,6.5,0.5,6.3,0.4L3.8,0.3c0,0-0.1,0-0.1,0c-0.8,0-1.6,0.5-1.9,1.3C1.5,2.4,1.7,3.3,2.4,3.8l7,5.5c-1.1,1.5-2.2,2.9-3.1,4.1
	l-4.2,0.2c-0.9,0-1.6,0.7-1.9,1.5C0,16,0.4,16.9,1.2,17.4l2.2,1.3c0,0.4,0.2,0.9,0.6,1.3c0.3,0.4,0.9,0.6,1.4,0.6l1.3,2.2
	c0.4,0.6,1,1,1.7,1c0.2,0,0.3,0,0.5-0.1c0.9-0.2,1.5-1,1.5-1.9l0.2-4.2c1.2-0.9,2.7-2,4.1-3.1l5.5,7c0.4,0.5,1,0.8,1.6,0.8
	c0.2,0,0.5,0,0.7-0.1c0.8-0.3,1.3-1.1,1.3-2l-0.2-2.5c0-0.2-0.1-0.5-0.2-0.7l-0.6-1.5c0.2-0.3,0.3-0.7,0.3-1
	c0.1-0.7-0.2-1.4-0.7-1.9c-0.2-0.2-0.5-0.4-0.8-0.5c0.1-0.2,0.1-0.4,0.1-0.6c0.1-0.7-0.2-1.4-0.7-1.9c-0.1-0.1-0.3-0.2-0.4-0.3
	c1.7-1.8,3.2-4.1,3.2-5.9c0-1.1-0.5-1.8-0.9-2.2C22.5,0.7,21.8,0.2,20.7,0.2L20.7,0.2z"/>
</svg>
