<?xml version="1.0" encoding="utf-8"?>
<!-- Generator: Adobe Illustrator 25.0.0, SVG Export Plug-In . SVG Version: 6.00 Build 0)  -->
<svg version="1.1" id="Calque_1" xmlns="http://www.w3.org/2000/svg" xmlns:xlink="http://www.w3.org/1999/xlink" x="0px" y="0px"
	 viewBox="0 0 24 24" style="enable-background:new 0 0 24 24;" xml:space="preserve">
<g>
	<path d="M22.4,12.2c0-5.8-4.7-10.4-10.4-10.4C6.2,1.8,1.6,6.5,1.6,12.2c0,3.1,1.4,5.9,3.6,7.9l-1.9,1.9c-0.4,0.4-0.4,1,0,1.4
		c0.2,0.2,0.4,0.3,0.7,0.3s0.5-0.1,0.7-0.3l2.1-2.1c1.5,0.9,3.3,1.4,5.3,1.4c1.9,0,3.7-0.5,5.3-1.4l2.1,2.1c0.2,0.2,0.4,0.3,0.7,0.3
		c0.2,0,0.5-0.1,0.7-0.3c0.4-0.4,0.4-1,0-1.4l-1.9-1.9C21,18.1,22.4,15.3,22.4,12.2z M3.5,12.2c0-4.7,3.8-8.5,8.5-8.5
		c4.7,0,8.5,3.8,8.5,8.5s-3.8,8.5-8.5,8.5C7.3,20.7,3.5,16.9,3.5,12.2z"/>
	<path d="M12,4.8c-0.5,0-1,0.4-1,1v6l-2.4,2.4c-0.4,0.4-0.4,1,0,1.4c0.2,0.2,0.4,0.3,0.7,0.3c0.2,0,0.5-0.1,0.7-0.3l2.5-2.5
		c0.2-0.2,0.4-0.4,0.4-0.8V5.8C13,5.3,12.5,4.8,12,4.8z"/>
	<path d="M2,5.8c-0.2-1,0.1-1.9,0.8-2.6c0.7-0.7,1.6-1,2.6-0.8c0.5,0.1,1-0.3,1.1-0.8c0.1-0.5-0.3-1-0.8-1.1
		C4.1,0.2,2.5,0.7,1.4,1.9C0.3,3-0.2,4.6,0.1,6.1C0.2,6.6,0.6,6.9,1,6.9c0.1,0,0.1,0,0.2,0C1.7,6.8,2.1,6.3,2,5.8z"/>
	<path d="M22.6,1.9c-1.1-1.1-2.7-1.6-4.3-1.4c-0.5,0.1-0.9,0.6-0.8,1.1c0.1,0.5,0.6,0.9,1.1,0.8c1-0.2,1.9,0.1,2.6,0.8
		c0.7,0.7,1,1.6,0.8,2.6c-0.1,0.5,0.3,1,0.8,1.1c0.1,0,0.1,0,0.2,0c0.5,0,0.9-0.3,0.9-0.8C24.2,4.6,23.7,3,22.6,1.9z"/>
</g>
</svg>
