<?xml version="1.0" encoding="utf-8"?>
<!-- Generator: Adobe Illustrator 25.0.0, SVG Export Plug-In . SVG Version: 6.00 Build 0)  -->
<svg version="1.1" id="Calque_1" xmlns="http://www.w3.org/2000/svg" xmlns:xlink="http://www.w3.org/1999/xlink" x="0px" y="0px"
	 viewBox="0 0 24 24" style="enable-background:new 0 0 24 24;" xml:space="preserve">
<path d="M23.7,14.7l-2.3-2.3c-0.4-0.4-1-0.4-1.3,0l-2.3,2.3c-0.4,0.4-0.4,1,0,1.3c0.2,0.2,0.4,0.3,0.7,0.3c0.2,0,0.5-0.1,0.7-0.3
	l0.7-0.7c-0.6,3.4-3.4,6-6.8,6.4V10h2.5c0.5,0,0.9-0.4,0.9-0.9c0-0.5-0.4-0.9-0.9-0.9h-2.5V5.7c1.1-0.4,1.8-1.4,1.8-2.6
	c0-1.5-1.2-2.8-2.8-2.8S9.2,1.6,9.2,3.1c0,1.2,0.8,2.2,1.8,2.6v2.4H8.6C8,8.1,7.6,8.6,7.6,9.1C7.6,9.6,8,10,8.6,10h2.5v11.7
	c-3.4-0.4-6.2-3-6.8-6.4L5,16c0.4,0.4,1,0.4,1.3,0c0.4-0.4,0.4-1,0-1.3L4,12.3c-0.4-0.4-1-0.4-1.3,0l-2.3,2.3c-0.4,0.4-0.4,1,0,1.3
	c0.2,0.2,0.4,0.3,0.7,0.3s0.5-0.1,0.7-0.3l0.7-0.7C3,20,7.1,23.7,12,23.7c4.9,0,9-3.6,9.7-8.4l0.7,0.7c0.4,0.4,1,0.4,1.3,0
	C24.1,15.6,24.1,15,23.7,14.7z M12,2.2c0.5,0,0.9,0.4,0.9,0.9S12.5,4,12,4s-0.9-0.4-0.9-0.9S11.5,2.2,12,2.2z"/>
</svg>
