<?xml version="1.0" encoding="utf-8"?>
<!-- Generator: Adobe Illustrator 25.0.0, SVG Export Plug-In . SVG Version: 6.00 Build 0)  -->
<svg version="1.1" id="Calque_1" xmlns="http://www.w3.org/2000/svg" xmlns:xlink="http://www.w3.org/1999/xlink" x="0px" y="0px"
	 viewBox="0 0 24 24" style="enable-background:new 0 0 24 24;" xml:space="preserve">
<g>
	<path d="M22.6,10.5c-0.7-2-2.1-3.5-3.9-4c-2.2-0.7-4.8,0.2-6.7,2.3c-1.9-2.1-4.5-3-6.8-2.3C1.7,7.6,0,12.3,1.4,16.9
		c1.2,3.9,4.3,6.6,7.5,6.6c0.5,0,1.1-0.1,1.6-0.2c0.5-0.2,1-0.4,1.5-0.7c0.5,0.3,0.9,0.6,1.5,0.7c0.5,0.2,1.1,0.2,1.6,0.2
		c3.2,0,6.3-2.7,7.5-6.6C23.3,14.7,23.3,12.5,22.6,10.5z M20.7,16.3c-1,3-3.3,5.2-5.6,5.2c-0.3,0-0.7-0.1-1-0.2
		c-0.5-0.2-1-0.4-1.4-0.8c-0.2-0.2-0.4-0.3-0.7-0.3c-0.3,0-0.5,0.1-0.7,0.3c-0.4,0.4-0.9,0.7-1.4,0.8c-0.3,0.1-0.7,0.2-1,0.2
		c-2.3,0-4.6-2.2-5.6-5.2c-1.1-3.6,0-7.1,2.5-7.9c1.8-0.6,3.9,0.5,5.3,2.5c0.4,0.5,1.3,0.5,1.6,0c1.5-2.1,3.6-3.1,5.3-2.5
		c1.2,0.4,2.1,1.4,2.6,2.8C21.2,12.7,21.2,14.5,20.7,16.3z"/>
	<path d="M12.1,7c0.1,0,0.3,0,0.4,0c0.2,0,0.5,0,0.7-0.1c0.4-0.1,0.8-0.4,0.8-0.8c0.3-1.9-0.2-3.5-1.4-4.6c-1.1-1-2.6-1.3-4.3-1
		C7.9,0.7,7.5,1.2,7.6,1.7C8,4.6,9.8,6.7,12.1,7z M11.3,3c0.5,0.5,0.8,1.1,0.8,1.9c-1.1-0.2-1.9-1.2-2.3-2.5
		C10.3,2.5,10.8,2.6,11.3,3z"/>
</g>
</svg>
