<?xml version="1.0" encoding="utf-8"?>
<!-- Generator: Adobe Illustrator 25.0.0, SVG Export Plug-In . SVG Version: 6.00 Build 0)  -->
<svg version="1.1" id="Calque_1" xmlns="http://www.w3.org/2000/svg" xmlns:xlink="http://www.w3.org/1999/xlink" x="0px" y="0px"
	 viewBox="0 0 24 24" style="enable-background:new 0 0 24 24;" xml:space="preserve">
<g>
	<path d="M12,0.7C5.8,0.7,0.7,5.8,0.7,12S5.8,23.3,12,23.3c6.2,0,11.3-5.1,11.3-11.3S18.2,0.7,12,0.7z M12,21.3
		c-5.1,0-9.3-4.2-9.3-9.3c0-5.1,4.2-9.3,9.3-9.3c5.1,0,9.3,4.2,9.3,9.3C21.3,17.1,17.1,21.3,12,21.3z"/>
	<path d="M12.1,7.4c-0.4-0.4-1-0.4-1.4,0c-0.4,0.4-0.4,1,0,1.4l2.2,2.2H7.3c-0.6,0-1,0.4-1,1c0,0.6,0.4,1,1,1h5.6l-2.2,2.2
		c-0.4,0.4-0.4,1,0,1.4c0.2,0.2,0.5,0.3,0.7,0.3c0.3,0,0.5-0.1,0.7-0.3l3.9-3.9c0.4-0.4,0.4-1,0-1.4L12.1,7.4z"/>
</g>
</svg>
