<?xml version="1.0" encoding="utf-8"?>
<!-- Generator: Adobe Illustrator 25.0.0, SVG Export Plug-In . SVG Version: 6.00 Build 0)  -->
<svg version="1.1" id="Calque_1" xmlns="http://www.w3.org/2000/svg" xmlns:xlink="http://www.w3.org/1999/xlink" x="0px" y="0px"
	 viewBox="0 0 24 24" style="enable-background:new 0 0 24 24;" xml:space="preserve">
<path d="M23.3,11.2L12.1,2.3c-0.3-0.2-0.7-0.3-1-0.1c-0.3,0.2-0.6,0.5-0.6,0.9v3.7H1.3c-0.5,0-1,0.4-1,1v8.5c0,0.5,0.4,1,1,1h9.3
	v3.7c0,0.4,0.2,0.7,0.6,0.9c0.1,0.1,0.3,0.1,0.4,0.1c0.2,0,0.4-0.1,0.6-0.2l11.2-8.9c0.2-0.2,0.4-0.5,0.4-0.8
	C23.7,11.7,23.5,11.4,23.3,11.2z M12.5,18.9v-2.7c0-0.5-0.4-1-1-1H2.3V8.7h9.3c0.5,0,1-0.4,1-1V5.1l8.6,6.9L12.5,18.9z"/>
</svg>
