<?xml version="1.0" encoding="utf-8"?>
<!-- Generator: Adobe Illustrator 25.0.0, SVG Export Plug-In . SVG Version: 6.00 Build 0)  -->
<svg version="1.1" id="Calque_1" xmlns="http://www.w3.org/2000/svg" xmlns:xlink="http://www.w3.org/1999/xlink" x="0px" y="0px"
	 viewBox="0 0 24 24" style="enable-background:new 0 0 24 24;" xml:space="preserve">
<g>
	<path d="M12,23.3c6.2,0,11.3-5.1,11.3-11.3S18.2,0.7,12,0.7C5.8,0.7,0.7,5.8,0.7,12S5.8,23.3,12,23.3z M12,2.7
		c5.1,0,9.3,4.2,9.3,9.3c0,5.1-4.2,9.3-9.3,9.3c-5.1,0-9.3-4.2-9.3-9.3C2.7,6.9,6.9,2.7,12,2.7z"/>
	<path d="M11.9,16.6c0.4,0.4,1,0.4,1.4,0c0.4-0.4,0.4-1,0-1.4L11.1,13h5.6c0.6,0,1-0.4,1-1c0-0.6-0.4-1-1-1h-5.6l2.2-2.2
		c0.4-0.4,0.4-1,0-1.4c-0.2-0.2-0.5-0.3-0.7-0.3c-0.3,0-0.5,0.1-0.7,0.3L8,11.3c-0.4,0.4-0.4,1,0,1.4L11.9,16.6z"/>
</g>
</svg>
