<?xml version="1.0" encoding="utf-8"?>
<!-- Generator: Adobe Illustrator 25.0.0, SVG Export Plug-In . SVG Version: 6.00 Build 0)  -->
<svg version="1.1" id="Calque_1" xmlns="http://www.w3.org/2000/svg" xmlns:xlink="http://www.w3.org/1999/xlink" x="0px" y="0px"
	 viewBox="0 0 24 24" style="enable-background:new 0 0 24 24;" xml:space="preserve">
<path d="M12.8,23.3l8.9-11.2c0.2-0.3,0.3-0.7,0.1-1c-0.2-0.3-0.5-0.6-0.9-0.6h-3.7V1.3c0-0.5-0.4-1-1-1H7.8c-0.5,0-1,0.4-1,1v9.3
	H3.1c-0.4,0-0.7,0.2-0.9,0.6c-0.1,0.1-0.1,0.3-0.1,0.4c0,0.2,0.1,0.4,0.2,0.6l8.9,11.2c0.2,0.2,0.5,0.4,0.8,0.4
	C12.3,23.7,12.6,23.5,12.8,23.3z M5.1,12.5h2.7c0.5,0,1-0.4,1-1V2.3h6.5v9.3c0,0.5,0.4,1,1,1h2.7L12,21.2L5.1,12.5z"/>
</svg>
