<?xml version="1.0" encoding="utf-8"?>
<!-- Generator: Adobe Illustrator 25.0.0, SVG Export Plug-In . SVG Version: 6.00 Build 0)  -->
<svg version="1.1" id="Calque_1" xmlns="http://www.w3.org/2000/svg" xmlns:xlink="http://www.w3.org/1999/xlink" x="0px" y="0px"
	 viewBox="0 0 24 24" style="enable-background:new 0 0 24 24;" xml:space="preserve">
<path d="M11.2,0.7L2.3,11.9c-0.2,0.3-0.3,0.7-0.1,1c0.2,0.3,0.5,0.6,0.9,0.6h3.7v9.3c0,0.5,0.4,1,1,1h8.5c0.5,0,1-0.4,1-1v-9.3h3.7
	c0.4,0,0.7-0.2,0.9-0.6c0.1-0.1,0.1-0.3,0.1-0.4c0-0.2-0.1-0.4-0.2-0.6L12.8,0.7c-0.2-0.2-0.5-0.4-0.8-0.4
	C11.7,0.3,11.4,0.5,11.2,0.7z M18.9,11.5h-2.7c-0.5,0-1,0.4-1,1v9.3H8.7v-9.3c0-0.5-0.4-1-1-1H5.1L12,2.8L18.9,11.5z"/>
</svg>
