<?xml version="1.0" encoding="utf-8"?>
<!-- Generator: Adobe Illustrator 25.0.0, SVG Export Plug-In . SVG Version: 6.00 Build 0)  -->
<svg version="1.1" id="Calque_1" xmlns="http://www.w3.org/2000/svg" xmlns:xlink="http://www.w3.org/1999/xlink" x="0px" y="0px"
	 viewBox="0 0 24 24" style="enable-background:new 0 0 24 24;" xml:space="preserve">
<path d="M0.7,12.8l11.2,8.9c0.3,0.2,0.7,0.3,1,0.1c0.3-0.2,0.6-0.5,0.6-0.9v-3.7h9.3c0.5,0,1-0.4,1-1V7.8c0-0.5-0.4-1-1-1h-9.3V3.1
	c0-0.4-0.2-0.7-0.6-0.9c-0.1-0.1-0.3-0.1-0.4-0.1c-0.2,0-0.4,0.1-0.6,0.2L0.7,11.2c-0.2,0.2-0.4,0.5-0.4,0.8
	C0.3,12.3,0.5,12.6,0.7,12.8z M11.5,5.1v2.7c0,0.5,0.4,1,1,1h9.3v6.5h-9.3c-0.5,0-1,0.4-1,1v2.7L2.8,12L11.5,5.1z"/>
</svg>
