<?xml version="1.0" encoding="utf-8"?>
<!-- Generator: Adobe Illustrator 25.0.0, SVG Export Plug-In . SVG Version: 6.00 Build 0)  -->
<svg version="1.1" id="Calque_1" xmlns="http://www.w3.org/2000/svg" xmlns:xlink="http://www.w3.org/1999/xlink" x="0px" y="0px"
	 viewBox="0 0 24 24" style="enable-background:new 0 0 24 24;" xml:space="preserve">
<g>
	<path d="M0.7,12c0,6.2,5.1,11.3,11.3,11.3S23.3,18.2,23.3,12c0-6.2-5.1-11.3-11.3-11.3S0.7,5.8,0.7,12z M21.3,12
		c0,5.1-4.2,9.3-9.3,9.3c-5.1,0-9.3-4.2-9.3-9.3c0-5.1,4.2-9.3,9.3-9.3C17.1,2.7,21.3,6.9,21.3,12z"/>
	<path d="M7.4,11.9c-0.4,0.4-0.4,1,0,1.4c0.4,0.4,1,0.4,1.4,0l2.2-2.2v5.6c0,0.6,0.4,1,1,1c0.6,0,1-0.4,1-1v-5.6l2.2,2.2
		c0.4,0.4,1,0.4,1.4,0c0.2-0.2,0.3-0.5,0.3-0.7c0-0.3-0.1-0.5-0.3-0.7L12.7,8c-0.4-0.4-1-0.4-1.4,0L7.4,11.9z"/>
</g>
</svg>
