<?xml version="1.0" encoding="utf-8"?>
<!-- Generator: Adobe Illustrator 25.0.0, SVG Export Plug-In . SVG Version: 6.00 Build 0)  -->
<svg version="1.1" id="Calque_1" xmlns="http://www.w3.org/2000/svg" xmlns:xlink="http://www.w3.org/1999/xlink" x="0px" y="0px"
	 viewBox="0 0 24 24" style="enable-background:new 0 0 24 24;" xml:space="preserve">
<g>
	<path d="M23.3,12c0-6.2-5.1-11.3-11.3-11.3S0.7,5.8,0.7,12c0,6.2,5.1,11.3,11.3,11.3S23.3,18.2,23.3,12z M2.7,12
		c0-5.1,4.2-9.3,9.3-9.3c5.1,0,9.3,4.2,9.3,9.3c0,5.1-4.2,9.3-9.3,9.3C6.9,21.3,2.7,17.1,2.7,12z"/>
	<path d="M16.6,12.1c0.4-0.4,0.4-1,0-1.4c-0.4-0.4-1-0.4-1.4,0L13,12.9V7.3c0-0.6-0.4-1-1-1c-0.6,0-1,0.4-1,1v5.6l-2.2-2.2
		c-0.4-0.4-1-0.4-1.4,0c-0.2,0.2-0.3,0.5-0.3,0.7c0,0.3,0.1,0.5,0.3,0.7l3.9,3.9c0.4,0.4,1,0.4,1.4,0L16.6,12.1z"/>
</g>
</svg>
