<?xml version="1.0" encoding="utf-8"?>
<!-- Generator: Adobe Illustrator 25.0.0, SVG Export Plug-In . SVG Version: 6.00 Build 0)  -->
<svg version="1.1" id="Calque_1" xmlns="http://www.w3.org/2000/svg" xmlns:xlink="http://www.w3.org/1999/xlink" x="0px" y="0px"
	 viewBox="0 0 24 24" style="enable-background:new 0 0 24 24;" xml:space="preserve">
<g>
	<path d="M23.9,8.8c-0.5-1.7-2.6-2.6-6-2.7c0-0.4,0-0.8,0-1.2c-0.3-3.5-1.6-4.6-2.6-4.9c-1.7-0.4-3.6,1-5.3,3.9
		C9.5,3.8,9.2,3.6,8.8,3.4C5.6,1.9,4.1,2.5,3.3,3.3C2.1,4.5,2.3,6.9,4,9.8c-1.7,1-2.9,2.1-3.5,3.1c-0.6,1-0.5,1.7-0.4,2.2
		c0.5,1.7,2.6,2.6,6,2.7c0,0.4,0,0.8,0,1.2c0.3,3.5,1.6,4.6,2.6,4.9C9,24,9.2,24,9.4,24c1.5,0,3.2-1.4,4.7-4c1.7,1,3.2,1.5,4.5,1.5
		c1.1,0,1.8-0.4,2.1-0.8c1.2-1.2,1-3.6-0.7-6.5c0.4-0.2,0.7-0.4,1-0.6C23.9,11.5,24.2,9.9,23.9,8.8z M22,9.3
		c0.1,0.5-0.5,1.5-2.1,2.6c-0.9,0.6-1.9,1.2-3.1,1.7c0-0.1,0-0.1,0.1-0.2c0.5-1.8,0.8-3.6,0.9-5.3C20.6,8.1,21.9,8.8,22,9.3z
		 M11.1,15.4c-0.5-0.4-0.9-0.8-1.4-1.3c-0.4-0.4-0.8-0.8-1.1-1.2c0.1-0.6,0.3-1.2,0.4-1.8c0.1-0.5,0.3-1.1,0.5-1.6
		c0.6-0.2,1.2-0.4,1.8-0.5c0.5-0.1,1.1-0.3,1.6-0.4c0.5,0.4,0.9,0.8,1.4,1.3c0.4,0.4,0.8,0.8,1.1,1.2c-0.1,0.6-0.3,1.2-0.4,1.8
		c-0.1,0.5-0.3,1.1-0.5,1.6c-0.6,0.2-1.2,0.4-1.8,0.5C12.2,15.2,11.6,15.3,11.1,15.4z M14.7,2c0.5,0.1,1,1.1,1.2,3.1
		c0.1,1.1,0,2.3-0.1,3.5c-0.1-0.1-0.1-0.1-0.2-0.2C14.3,7.1,12.9,6,11.5,5C13,2.6,14.2,1.8,14.7,2z M4.7,4.6C5,4.3,6.2,4.3,8,5.2
		c1,0.5,2,1.1,3,1.9c-0.1,0-0.1,0-0.2,0C8.9,7.6,7.2,8.2,5.7,8.9C4.3,6.5,4.3,5,4.7,4.6z M2,14.7c-0.1-0.2,0.1-0.5,0.2-0.8
		c0.6-1,2.3-2.3,5-3.5c0,0.1,0,0.1-0.1,0.2c-0.5,1.8-0.8,3.6-0.9,5.3C3.3,15.9,2.1,15.2,2,14.7z M9.3,22c-0.5-0.1-1-1.1-1.2-3.1
		c-0.1-1.1,0-2.3,0.1-3.5c0.1,0.1,0.1,0.1,0.2,0.2c1.4,1.4,2.8,2.5,4.1,3.5C11,21.4,9.8,22.2,9.3,22z M19.3,19.4
		c-0.2,0.2-0.5,0.2-0.7,0.2c-1.1,0-3.2-0.8-5.6-2.6c0.1,0,0.1,0,0.2,0c1.8-0.5,3.6-1.1,5.1-1.8C19.7,17.5,19.7,19,19.3,19.4z"/>
	<path d="M12,10.8c-0.7,0-1.2,0.5-1.2,1.2c0,0.7,0.5,1.2,1.2,1.2c0.7,0,1.2-0.5,1.2-1.2C13.2,11.3,12.7,10.8,12,10.8z"/>
</g>
</svg>
