<?xml version="1.0" encoding="utf-8"?>
<!-- Generator: Adobe Illustrator 25.0.0, SVG Export Plug-In . SVG Version: 6.00 Build 0)  -->
<svg version="1.1" id="Calque_1" xmlns="http://www.w3.org/2000/svg" xmlns:xlink="http://www.w3.org/1999/xlink" x="0px" y="0px"
	 viewBox="0 0 24 24" style="enable-background:new 0 0 24 24;" xml:space="preserve">
<g>
	<path d="M22.1,22.7L22.1,22.7c-0.4,0-0.8-0.1-1.2-0.4l-3.6-2.3v0.5c0,1.6-1,2.3-1.9,2.3c-0.4,0-0.8-0.1-1.2-0.4L1.2,13.9
		c-0.7-0.5-1.1-1.1-1.1-1.9c0-0.7,0.4-1.4,1.1-1.9l12.9-8.4c0.4-0.3,0.8-0.4,1.2-0.4c0.9,0,1.9,0.7,1.9,2.3v0.5l3.6-2.3
		c0.4-0.3,0.8-0.4,1.2-0.4c0.9,0,1.9,0.7,1.9,2.3v16.8c0,0.6-0.1,1.1-0.4,1.5C23.2,22.4,22.6,22.7,22.1,22.7L22.1,22.7z M15.2,3.4
		C15.2,3.4,15.2,3.4,15.2,3.4L2.3,11.8C2.1,11.9,2.1,12,2.1,12c0,0,0.1,0.1,0.2,0.2l12.9,8.4c0,0,0,0,0,0c0-0.1,0-0.1,0-0.2v-2.3
		c0-0.4,0.2-0.7,0.5-0.9c0.3-0.2,0.7-0.2,1,0l5.1,3.3c0,0,0,0,0,0c0-0.1,0-0.1,0-0.2V3.6c0-0.1,0-0.2,0-0.2c0,0,0,0,0,0l-5.1,3.3
		c-0.3,0.2-0.7,0.2-1,0c-0.3-0.2-0.5-0.5-0.5-0.9V3.6C15.2,3.5,15.2,3.5,15.2,3.4L15.2,3.4z"/>
</g>
</svg>
