<?xml version="1.0" encoding="utf-8"?>
<!-- Generator: Adobe Illustrator 24.3.0, SVG Export Plug-In . SVG Version: 6.00 Build 0)  -->
<svg version="1.1" id="Calque_1" xmlns="http://www.w3.org/2000/svg" xmlns:xlink="http://www.w3.org/1999/xlink" x="0px" y="0px"
	 viewBox="0 0 24 24" style="enable-background:new 0 0 24 24;" xml:space="preserve">
<path d="M12,0.2C5.5,0.2,0.2,5.5,0.2,12c0,3.1,1.2,6.1,3.4,8.3s5.2,3.5,8.3,3.5c6.5,0,11.8-5.3,11.8-11.8C23.8,5.5,18.5,0.2,12,0.2z
	 M12,2.2c2.3,0,4.5,0.8,6.2,2.2L4.4,18.2C3,16.4,2.2,14.3,2.2,12C2.2,6.6,6.6,2.2,12,2.2z M12,21.8c-2.3,0-4.4-0.8-6.2-2.2L19.6,5.9
	c1.4,1.7,2.2,3.8,2.2,6.1C21.8,17.4,17.4,21.8,12,21.8z"/>
</svg>
