<?xml version="1.0" encoding="utf-8"?>
<!-- Generator: Adobe Illustrator 25.0.0, SVG Export Plug-In . SVG Version: 6.00 Build 0)  -->
<svg version="1.1" id="Calque_1" xmlns="http://www.w3.org/2000/svg" xmlns:xlink="http://www.w3.org/1999/xlink" x="0px" y="0px"
	 viewBox="0 0 24 24" style="enable-background:new 0 0 24 24;" xml:space="preserve">
<path d="M12,0.2C5.5,0.2,0.2,5.5,0.2,12c0,6.5,5.3,11.8,11.8,11.8c6.5,0,11.8-5.3,11.8-11.8C23.8,5.5,18.5,0.2,12,0.2z M21.7,12.6
	c-2.7,0-5.1-1-6.9-2.7l4.5-4.5c1.6,1.7,2.5,4,2.5,6.5C21.8,12.2,21.8,12.4,21.7,12.6C21.7,12.6,21.7,12.6,21.7,12.6z M11.4,2.3
	c0.2,0,0.4,0,0.6,0c2.5,0,4.8,1,6.5,2.5l-4.5,4.5C12.4,7.4,11.4,5,11.4,2.3C11.4,2.3,11.4,2.3,11.4,2.3z M5.1,5.1
	c1.5-1.5,3.3-2.4,5.3-2.7c0,2.9,1.1,5.6,3,7.6l-3.4,3.4c-2-1.8-4.7-3-7.6-3C2.7,8.4,3.6,6.5,5.1,5.1z M12.6,21.7c-0.2,0-0.4,0-0.6,0
	c-2.5,0-4.8-1-6.5-2.5l4.5-4.5C11.6,16.6,12.6,19,12.6,21.7C12.6,21.7,12.6,21.7,12.6,21.7z M2.3,11.4c2.7,0,5.1,1,6.9,2.7l-4.5,4.5
	c-1.6-1.7-2.5-4-2.5-6.5C2.2,11.8,2.2,11.6,2.3,11.4C2.3,11.4,2.3,11.4,2.3,11.4z M13.6,21.6c0-2.9-1.1-5.6-3-7.6l3.4-3.4
	c2,1.8,4.7,3,7.6,3C20.9,17.7,17.7,20.9,13.6,21.6z"/>
</svg>
