<?xml version="1.0" encoding="utf-8"?>
<!-- Generator: Adobe Illustrator 25.0.0, SVG Export Plug-In . SVG Version: 6.00 Build 0)  -->
<svg version="1.1" id="Calque_1" xmlns="http://www.w3.org/2000/svg" xmlns:xlink="http://www.w3.org/1999/xlink" x="0px" y="0px"
	 viewBox="0 0 24 24" style="enable-background:new 0 0 24 24;" xml:space="preserve">
<g>
	<path d="M22.7,8.4c-0.4,0-0.7,0.2-0.8,0.5V6.2c0-0.6-0.4-1-1-1H1.3c-0.6,0-1,0.4-1,1v11.7c0,0.6,0.4,1,1,1h19.6c0.6,0,1-0.4,1-1
		v-2.7c0.2,0.3,0.5,0.5,0.8,0.5c0.6,0,1-0.4,1-1V9.4C23.7,8.8,23.3,8.4,22.7,8.4z M19.9,16.8H2.3V7.2h17.6V16.8z"/>
	<path d="M7.9,14.7C8.1,14.9,8.4,15,8.6,15c0.3,0,0.5-0.1,0.7-0.3l1.2-1.2l1.2,1.2c0.2,0.2,0.5,0.3,0.7,0.3c0.3,0,0.5-0.1,0.7-0.3
		c0.4-0.4,0.4-1,0-1.4L12,12l1.2-1.2c0.4-0.4,0.4-1,0-1.4c-0.4-0.4-1-0.4-1.4,0l-1.2,1.2L9.3,9.3c-0.4-0.4-1-0.4-1.4,0
		c-0.4,0.4-0.4,1,0,1.4L9.2,12l-1.2,1.2C7.5,13.6,7.5,14.3,7.9,14.7z"/>
</g>
</svg>
