<?xml version="1.0" encoding="utf-8"?>
<!-- Generator: Adobe Illustrator 25.0.0, SVG Export Plug-In . SVG Version: 6.00 Build 0)  -->
<svg version="1.1" id="Calque_1" xmlns="http://www.w3.org/2000/svg" xmlns:xlink="http://www.w3.org/1999/xlink" x="0px" y="0px"
	 viewBox="0 0 24 24" style="enable-background:new 0 0 24 24;" xml:space="preserve">
<g>
	<path d="M22.7,8.4c-0.4,0-0.7,0.2-0.8,0.5V6.2c0-0.6-0.4-1-1-1H1.3c-0.6,0-1,0.4-1,1v11.7c0,0.6,0.4,1,1,1h19.6c0.6,0,1-0.4,1-1
		v-2.7c0.2,0.3,0.5,0.5,0.8,0.5c0.6,0,1-0.4,1-1V9.4C23.7,8.8,23.3,8.4,22.7,8.4z M19.9,16.8H2.3V7.2h17.6V16.8z"/>
	<path d="M5.1,15.6c0.6,0,1-0.4,1-1V9.4c0-0.6-0.4-1-1-1c-0.6,0-1,0.4-1,1v5.2C4.1,15.2,4.5,15.6,5.1,15.6z"/>
	<path d="M9.1,15.6c0.6,0,1-0.4,1-1V9.4c0-0.6-0.4-1-1-1c-0.6,0-1,0.4-1,1v5.2C8.1,15.2,8.5,15.6,9.1,15.6z"/>
	<path d="M13.1,15.6c0.6,0,1-0.4,1-1V9.4c0-0.6-0.4-1-1-1c-0.6,0-1,0.4-1,1v5.2C12.1,15.2,12.5,15.6,13.1,15.6z"/>
	<path d="M17.1,15.6c0.6,0,1-0.4,1-1V9.4c0-0.6-0.4-1-1-1c-0.6,0-1,0.4-1,1v5.2C16.1,15.2,16.5,15.6,17.1,15.6z"/>
</g>
</svg>
