<?xml version="1.0" encoding="utf-8"?>
<!-- Generator: Adobe Illustrator 25.0.0, SVG Export Plug-In . SVG Version: 6.00 Build 0)  -->
<svg version="1.1" id="Calque_1" xmlns="http://www.w3.org/2000/svg" xmlns:xlink="http://www.w3.org/1999/xlink" x="0px" y="0px"
	 viewBox="0 0 24 24" style="enable-background:new 0 0 24 24;" xml:space="preserve">
<path d="M23.3,20l-0.1-0.2c-0.9-1.7-1.1-2.2-1.6-7.8c-0.4-5.3-3.9-9.1-8.6-9.5V1.3c0-0.6-0.4-1-1-1s-1,0.4-1,1v1.3
	C6.3,2.9,2.8,6.7,2.4,12c-0.4,5.6-0.7,6.1-1.6,7.8L0.7,20c-0.3,0.2-0.5,0.6-0.4,1C0.4,21.6,1,22,1.5,21.9c2.5-0.5,5-0.8,7.5-1
	c0.1,1.6,1.4,2.9,3,2.9c1.6,0,2.9-1.3,3-2.9c2.5,0.1,5,0.5,7.5,1c0.1,0,0.1,0,0.2,0c0.5,0,0.9-0.3,1-0.8
	C23.8,20.7,23.6,20.3,23.3,20z M11.8,4.5C11.8,4.5,11.8,4.5,11.8,4.5h0.4h0c4.1,0,7,3.1,7.4,7.7c0.3,4.5,0.6,6,1.2,7.3
	c-5.8-1-11.7-1-17.5,0c0.6-1.4,0.8-2.8,1.2-7.3C4.8,7.6,7.7,4.5,11.8,4.5z M12,21.7c-0.5,0-1-0.4-1-0.9c0.7,0,1.3,0,2,0
	C13,21.3,12.5,21.7,12,21.7z"/>
</svg>
