<?xml version="1.0" encoding="utf-8"?>
<!-- Generator: Adobe Illustrator 25.0.0, SVG Export Plug-In . SVG Version: 6.00 Build 0)  -->
<svg version="1.1" id="Calque_1" xmlns="http://www.w3.org/2000/svg" xmlns:xlink="http://www.w3.org/1999/xlink" x="0px" y="0px"
	 viewBox="0 0 24 24" style="enable-background:new 0 0 24 24;" xml:space="preserve">
<g>
	<path d="M18.9,9.7c-0.6,0-1.1,0.1-1.6,0.3l-1.4-3c-0.1-0.3-0.4-0.4-0.7-0.4H9.4l0.4-0.9h1.3c0.4,0,0.8-0.4,0.8-0.8
		c0-0.4-0.4-0.8-0.8-0.8H9.3C9,4.1,8.7,4.3,8.5,4.6L6.2,9.8C5.8,9.8,5.5,9.7,5.1,9.7C2.3,9.7,0,12,0,14.8s2.3,5.1,5.1,5.1
		c2.8,0,5.1-2.3,5.1-5.1c0-1.9-1-3.5-2.6-4.4L8.3,9l3,6.3c0.1,0.3,0.4,0.4,0.7,0.4h1.9c0.4,2.4,2.5,4.2,5,4.2c2.8,0,5.1-2.3,5.1-5.1
		S21.7,9.7,18.9,9.7z M8.6,14.8c0,1.9-1.6,3.5-3.5,3.5c-1.9,0-3.5-1.6-3.5-3.5c0-1.9,1.6-3.5,3.5-3.5c0.1,0,0.3,0,0.4,0L4,14.6
		c-0.2,0.4,0,0.9,0.4,1c0.1,0,0.2,0.1,0.3,0.1c0.3,0,0.6-0.2,0.7-0.5L7,11.8C8,12.5,8.6,13.6,8.6,14.8z M15.9,10.7
		c-1.1,0.8-1.8,2-2,3.4h-0.8l2-5L15.9,10.7z M17.5,14.2h-2.1c0.1-0.8,0.6-1.5,1.1-2L17.5,14.2z M13.8,8.2l-1.9,4.8L9.6,8.2H13.8z
		 M18.9,18.3c-1.6,0-3-1.1-3.4-2.6h3.3c0.3,0,0.5-0.1,0.7-0.4c0.1-0.2,0.2-0.5,0-0.8L18,11.4c0.3-0.1,0.6-0.1,1-0.1
		c1.9,0,3.5,1.6,3.5,3.5C22.4,16.7,20.9,18.3,18.9,18.3z"/>
	<path d="M14.2,5.7h2.2c0.4,0,0.8-0.4,0.8-0.8c0-0.4-0.4-0.8-0.8-0.8h-2.2c-0.4,0-0.8,0.3-0.8,0.8C13.4,5.3,13.7,5.7,14.2,5.7z"/>
</g>
</svg>
