<?xml version="1.0" encoding="utf-8"?>
<!-- Generator: Adobe Illustrator 25.0.0, SVG Export Plug-In . SVG Version: 6.00 Build 0)  -->
<svg version="1.1" id="Calque_1" xmlns="http://www.w3.org/2000/svg" xmlns:xlink="http://www.w3.org/1999/xlink" x="0px" y="0px"
	 viewBox="0 0 24 24" style="enable-background:new 0 0 24 24;" xml:space="preserve">
<g>
	<path d="M8,6.9c-0.1,0-0.2,0-0.2,0.1c0,0-0.1,0.2-0.3,0.3C7.4,7.5,7.3,7.6,7.1,7.8C7,7.9,6.7,8.1,6.5,8.2C6.3,8.3,6.1,8.4,6.1,8.4
		C6,8.5,6,8.6,6,8.7c0,0.1,0,0.2,0.1,0.3C6.1,9,6.2,9.1,6.3,9.1c0.2,0,0.6-0.2,1.2-0.7v3.1c0,0.2,0,0.3,0.1,0.4
		C7.7,12,7.8,12.1,8,12.1c0.3,0,0.5-0.2,0.5-0.7v-4c0-0.2,0-0.3-0.1-0.4C8.3,7,8.2,6.9,8,6.9z"/>
	<polygon points="13.2,10 13.2,9.1 11.9,9.1 11.9,7.7 11,7.7 11,9.1 9.7,9.1 9.7,10 11,10 11,11.3 11.9,11.3 11.9,10 	"/>
	<path d="M15.7,9.2c-0.1,0.1-0.3,0.3-0.5,0.4c-0.1,0.1-0.3,0.2-0.5,0.4c-0.2,0.2-0.5,0.5-0.8,0.8c-0.1,0.1-0.1,0.2-0.2,0.3
		c-0.1,0.1-0.1,0.2-0.1,0.3c0,0.1,0,0.2,0.1,0.3c0.1,0.1,0.2,0.1,0.4,0.1h2.5c0.2,0,0.3,0,0.3-0.1c0.1-0.1,0.1-0.2,0.1-0.3
		c0-0.1,0-0.2-0.1-0.3c-0.1-0.1-0.2-0.1-0.4-0.1h-1.8c0.1-0.1,0.1-0.2,0.2-0.2c0.1-0.2,0.4-0.4,0.7-0.7c0.3-0.3,0.6-0.5,0.7-0.6
		c0.1-0.1,0.3-0.3,0.4-0.6C16.9,8.9,17,8.6,17,8.4c0-0.2,0-0.4-0.1-0.5c-0.1-0.2-0.2-0.3-0.3-0.4c-0.1-0.1-0.3-0.2-0.4-0.3
		c-0.2-0.1-0.5-0.2-0.9-0.2c-0.3,0-0.5,0-0.8,0.1c-0.2,0.1-0.4,0.2-0.5,0.3c-0.1,0.1-0.2,0.3-0.3,0.5c-0.1,0.2-0.1,0.3-0.1,0.5
		c0,0.1,0,0.2,0.1,0.3c0.1,0.1,0.2,0.1,0.3,0.1c0.1,0,0.2,0,0.3-0.1c0.1-0.1,0.1-0.2,0.2-0.4C14.5,8.1,14.5,8,14.5,8
		c0.2-0.3,0.4-0.4,0.7-0.4c0.1,0,0.3,0,0.4,0.1c0.1,0.1,0.2,0.2,0.3,0.3C16,8.1,16,8.2,16,8.4c0,0.1,0,0.3-0.1,0.4
		C15.9,8.9,15.8,9.1,15.7,9.2z"/>
	<path d="M22.2,0H1.8C1.2,0,0.8,0.4,0.8,0.9v17.2c0,0.5,0.4,0.9,0.9,0.9h8.4l-3.3,3.3c-0.4,0.4-0.4,1,0,1.3c0.4,0.4,1,0.4,1.3,0
		l2.9-2.9v0.8c0,0.5,0.4,0.9,0.9,0.9c0.5,0,0.9-0.4,0.9-0.9v-0.8l2.9,2.9c0.2,0.2,0.4,0.3,0.7,0.3c0.2,0,0.5-0.1,0.7-0.3
		c0.4-0.4,0.4-1,0-1.3l-3.3-3.3h8.4c0.5,0,0.9-0.4,0.9-0.9V0.9C23.2,0.4,22.8,0,22.2,0z M21.3,17.2H2.7V1.9h18.6V17.2z"/>
	<path d="M4.6,15.8h8.2c0.2,0.3,0.5,0.5,0.8,0.5h2.1c0.3,0,0.6-0.2,0.8-0.5h3c0.3,0,0.5-0.2,0.5-0.5V3.8c0-0.3-0.2-0.5-0.5-0.5H4.6
		c-0.3,0-0.5,0.2-0.5,0.5v11.6C4.1,15.6,4.3,15.8,4.6,15.8z M5,4.2H19v10.6h-2.5c-0.2-0.3-0.5-0.5-0.8-0.5h-2.1
		c-0.3,0-0.6,0.2-0.8,0.5H5V4.2z"/>
</g>
</svg>
