<?xml version="1.0" encoding="utf-8"?>
<!-- Generator: Adobe Illustrator 25.0.0, SVG Export Plug-In . SVG Version: 6.00 Build 0)  -->
<svg version="1.1" id="Calque_1" xmlns="http://www.w3.org/2000/svg" xmlns:xlink="http://www.w3.org/1999/xlink" x="0px" y="0px"
	 viewBox="0 0 24 24" style="enable-background:new 0 0 24 24;" xml:space="preserve">
<path d="M16.6,11c1.5-1.1,2.4-2.8,2.4-4.7c0-3.3-2.9-6.1-6.6-6.1h-2.2H3.9c-0.6,0-1,0.4-1,1c0,0.6,0.4,1,1,1h0.2v19.6H3.9
	c-0.6,0-1,0.4-1,1c0,0.6,0.4,1,1,1h7.8h2.7c3.6,0,6.6-3,6.6-6.6C21.1,14.3,19.2,11.9,16.6,11z M17.1,6.3c0,1.7-1.1,3.1-2.7,3.7
	c0.7-1,1.1-2.3,1.1-3.7c0-1.4-0.4-2.7-1.1-3.7C15.9,3.2,17.1,4.6,17.1,6.3z M13.4,6.3c0,2.2-1.4,4.1-3.1,4.1H9.7V2.2h0.6
	C12,2.2,13.4,4,13.4,6.3z M6.2,2.2h1.6v19.6H6.2V2.2z M9.7,21.8v-9.2h2c1.7,0,3.2,2.1,3.2,4.6c0,2.5-1.4,4.6-3.2,4.6H9.7z
	 M15.5,21.7c0.8-1.2,1.4-2.7,1.4-4.5c0-1.7-0.5-3.3-1.4-4.5c2,0.5,3.5,2.3,3.5,4.5C19.1,19.4,17.6,21.2,15.5,21.7z"/>
</svg>
