<?xml version="1.0" encoding="utf-8"?>
<!-- Generator: Adobe Illustrator 24.3.0, SVG Export Plug-In . SVG Version: 6.00 Build 0)  -->
<svg version="1.1" id="Calque_1" xmlns="http://www.w3.org/2000/svg" xmlns:xlink="http://www.w3.org/1999/xlink" x="0px" y="0px"
	 viewBox="0 0 24 24" style="enable-background:new 0 0 24 24;" xml:space="preserve">
<path d="M22.7,5.3C22,4.6,21,4.1,19.9,4.1c0-1.1-0.5-2.1-1.2-2.8c-0.8-0.8-1.9-1.3-3-1.3c-1.1,0-2.2,0.4-3,1.3
	c-1.4,1.4-1.6,3.4-0.7,5.1l-5.5,5.5c-0.6-0.3-1.3-0.5-2.1-0.5c-1.1,0-2.2,0.4-3,1.2c-0.8,0.8-1.3,1.9-1.3,3c0,1.1,0.4,2.2,1.3,3
	C2,19.4,3,19.9,4.1,19.9c0,1.1,0.5,2.1,1.2,2.8c0.8,0.8,1.9,1.3,3,1.3c1.1,0,2.2-0.4,3-1.3c1.4-1.4,1.6-3.4,0.7-5.1l5.5-5.5
	c0.6,0.3,1.3,0.5,2.1,0.5c1.1,0,2.2-0.4,3-1.2c0.8-0.8,1.3-1.9,1.3-3C24,7.2,23.6,6.1,22.7,5.3z M21.4,10.1
	c-0.8,0.8-2.3,0.9-3.2,0.1c-0.4-0.3-0.9-0.3-1.3,0.1l-6.7,6.7c-0.4,0.4-0.4,0.9-0.1,1.3c0.8,1,0.8,2.3-0.1,3.2
	c-0.9,0.9-2.5,0.9-3.4,0c-0.6-0.6-0.8-1.5-0.6-2.3c0.1-0.3,0-0.7-0.2-0.9c-0.2-0.2-0.4-0.3-0.7-0.3c-0.1,0-0.2,0-0.3,0
	c-0.8,0.2-1.7,0-2.3-0.6c-0.4-0.4-0.7-1-0.7-1.7c0-0.6,0.2-1.2,0.7-1.7c0.8-0.8,2.3-0.9,3.2-0.1c0.4,0.3,0.9,0.3,1.3-0.1l6.7-6.7
	c0.4-0.4,0.4-0.9,0.1-1.3c-0.8-0.9-0.8-2.4,0.1-3.2c0.9-0.9,2.5-0.9,3.4,0c0.6,0.6,0.8,1.5,0.6,2.3c-0.1,0.3,0,0.7,0.2,0.9
	c0.2,0.2,0.6,0.3,0.9,0.2c0.8-0.2,1.7,0,2.3,0.6c0.4,0.4,0.7,1,0.7,1.7S21.8,9.6,21.4,10.1z"/>
</svg>
