<?xml version="1.0" encoding="utf-8"?>
<!-- Generator: Adobe Illustrator 25.0.0, SVG Export Plug-In . SVG Version: 6.00 Build 0)  -->
<svg version="1.1" id="Calque_1" xmlns="http://www.w3.org/2000/svg" xmlns:xlink="http://www.w3.org/1999/xlink" x="0px" y="0px"
	 viewBox="0 0 24 24" style="enable-background:new 0 0 24 24;" xml:space="preserve">
<g>
	<path d="M17.6,16.3c0.1,0,0.3,0,0.4-0.1c0,0,0,0,0.1-0.1c0.1-0.1,0.2-0.1,0.2-0.2c0,0,0,0,0,0l5.4-6.4c0.2-0.2,0.2-0.5,0.2-0.8
		c0-0.3-0.1-0.6-0.3-0.9c-0.4-0.3-1-0.3-1.4,0.1l-4.8,6H4c-1.1,0-1.9-0.9-1.9-1.9V11c0-0.3,0.1-0.7,0.3-0.9l0.4-0.5
		C3,9.3,3.5,9.1,4,9.1h13.6c0.1,0,0.3,0,0.4-0.1C18,9,18,9,18,9c0.1-0.1,0.2-0.1,0.2-0.2c0,0,0,0,0,0l5.4-6.4c0,0,0-0.1,0.1-0.1
		c0-0.1,0.1-0.1,0.1-0.2c0-0.1,0-0.1,0-0.2c0,0,0-0.1,0-0.1c0,0,0,0,0,0c0-0.1,0-0.1,0-0.2c0-0.1,0-0.1,0-0.2c0-0.1-0.1-0.1-0.1-0.1
		c0-0.1-0.1-0.1-0.1-0.2c0,0,0,0,0,0c0,0-0.1,0-0.1-0.1c-0.1,0-0.1-0.1-0.2-0.1c-0.1,0-0.1,0-0.2,0c0,0-0.1,0-0.1,0l-13.8,0
		c-1.7-0.1-2.6,1-3.3,1.9c0,0,0,0,0,0L1.3,8.3C1.1,8.5,0.9,8.7,0.7,9l0,0.1C0.6,9.1,0.5,9.3,0.5,9.4c-0.2,0.5-0.4,1-0.4,1.6v1.1
		c0,1.2,0.6,2.3,1.5,3l-0.3,0.3c-0.2,0.2-0.4,0.5-0.6,0.7l0,0.1c-0.1,0.1-0.1,0.2-0.2,0.4c-0.2,0.5-0.4,1-0.4,1.6v1.1
		c0,2.1,1.7,3.8,3.8,3.8h13.6c0,0,0,0,0.1,0c0.1,0,0.1,0,0.2,0c0.3,0,0.6-0.1,0.7-0.4l5.1-6.4c0.3-0.4,0.3-1-0.1-1.4
		c-0.4-0.3-1-0.3-1.4,0.1l-4.8,6H4c-1.1,0-1.9-0.9-1.9-1.9v-1.1c0-0.3,0.1-0.7,0.3-0.9l0.4-0.5C3,16.5,3.5,16.3,4,16.3H17.6z
		 M9.1,2.7h11.8l-3.7,4.5H4.6L7.2,4c0,0,0,0,0,0C8,3,8.3,2.7,9.1,2.7z"/>
	<path d="M16.9,17.4H3.8c-0.3,0-0.5,0.2-0.5,0.5c0,0.3,0.2,0.5,0.5,0.5h13.1c0.3,0,0.5-0.2,0.5-0.5C17.4,17.6,17.2,17.4,16.9,17.4z"
		/>
	<path d="M16.9,19.2H3.8c-0.3,0-0.5,0.2-0.5,0.5c0,0.3,0.2,0.5,0.5,0.5h13.1c0.3,0,0.5-0.2,0.5-0.5C17.4,19.4,17.2,19.2,16.9,19.2z"
		/>
	<path d="M16.9,10.2H3.8c-0.3,0-0.5,0.2-0.5,0.5c0,0.3,0.2,0.5,0.5,0.5h13.1c0.3,0,0.5-0.2,0.5-0.5C17.4,10.4,17.2,10.2,16.9,10.2z"
		/>
	<path d="M16.9,12H3.8c-0.3,0-0.5,0.2-0.5,0.5c0,0.3,0.2,0.5,0.5,0.5h13.1c0.3,0,0.5-0.2,0.5-0.5C17.4,12.2,17.2,12,16.9,12z"/>
</g>
</svg>
