<?xml version="1.0" encoding="utf-8"?>
<!-- Generator: Adobe Illustrator 25.0.0, SVG Export Plug-In . SVG Version: 6.00 Build 0)  -->
<svg version="1.1" id="Calque_1" xmlns="http://www.w3.org/2000/svg" xmlns:xlink="http://www.w3.org/1999/xlink" x="0px" y="0px"
	 viewBox="0 0 24 24" style="enable-background:new 0 0 24 24;" xml:space="preserve">
<path d="M6,19.9h12.6c0,0,0.1,0,0.1,0c0,0,0.1,0,0.1,0c1.2,0,2.2-1,2.2-2.2V2.3C21,1,20,0,18.8,0H5.2C4,0,3,1,3,2.3v18.2
	c0,0.1,0,0.1,0,0.2c0,0.1,0,0.2,0,0.3c0,1.7,1.4,3,3,3h14c0.5,0,1-0.4,1-1c0-0.5-0.4-1-1-1H6c-0.6,0-1.1-0.5-1.1-1.1
	C4.9,20.4,5.4,19.9,6,19.9z M19.1,2.3v15.4c0,0.1-0.1,0.3-0.3,0.3c0,0-0.1,0-0.1,0c0,0-0.1,0-0.1,0H7.8V2h11
	C18.9,2,19.1,2.1,19.1,2.3z M5.2,2h1.6v15.9H6c-0.4,0-0.7,0.1-1.1,0.2V2.3C4.9,2.1,5.1,2,5.2,2z"/>
</svg>
