<?xml version="1.0" encoding="utf-8"?>
<!-- Generator: Adobe Illustrator 24.3.0, SVG Export Plug-In . SVG Version: 6.00 Build 0)  -->
<svg version="1.1" id="Calque_1" xmlns="http://www.w3.org/2000/svg" xmlns:xlink="http://www.w3.org/1999/xlink" x="0px" y="0px"
	 viewBox="0 0 24 24" style="enable-background:new 0 0 24 24;" xml:space="preserve">
<path d="M22.6,6.4L12.4,1.8c-0.3-0.1-0.6-0.1-0.8,0L1.4,6.4C1,6.6,0.8,7,0.8,7.4v9.3c0,0.4,0.2,0.7,0.6,0.9l10.2,4.6
	c0.1,0.1,0.3,0.1,0.4,0.1s0.3,0,0.4-0.1l10.2-4.6c0.4-0.2,0.6-0.5,0.6-0.9V7.4C23.2,7,23,6.6,22.6,6.4z M12,3.8l8.1,3.7L16.6,9
	L8.6,5.4L12,3.8z M12,11.2L3.9,7.5l3.4-1.6l8.1,3.7L12,11.2z M2.8,9.2l8.3,3.8c0,0.1-0.1,0.2-0.1,0.3v6.5L2.8,16V9.2z M13,19.7v-6.5
	c0-0.1,0-0.2-0.1-0.3l8.3-3.8V16L13,19.7z"/>
</svg>
