<?xml version="1.0" encoding="utf-8"?>
<!-- Generator: Adobe Illustrator 25.0.0, SVG Export Plug-In . SVG Version: 6.00 Build 0)  -->
<svg version="1.1" id="Calque_1" xmlns="http://www.w3.org/2000/svg" xmlns:xlink="http://www.w3.org/1999/xlink" x="0px" y="0px"
	 viewBox="0 0 24 24" style="enable-background:new 0 0 24 24;" xml:space="preserve">
<path d="M21.8,4.9H17V3.3c0-1.2-0.9-2.1-2.1-2.1H9.1C7.9,1.2,7,2.2,7,3.3v1.6H2.2C1.1,4.9,0.1,5.9,0.1,7v13.6c0,1.2,0.9,2.1,2.1,2.1
	h19.5c1.2,0,2.1-0.9,2.1-2.1V7C23.9,5.9,22.9,4.9,21.8,4.9z M9,3.3c0-0.1,0-0.1,0.1-0.1h5.8c0.1,0,0.1,0,0.1,0.1v1.6H9V3.3z
	 M2.2,6.9h19.5c0.1,0,0.1,0,0.1,0.1V12h-8v-0.9c0-0.3-0.2-0.5-0.5-0.5h-2.8c-0.3,0-0.5,0.2-0.5,0.5v1C10,12,9.9,12,9.8,12H2.1V7
	C2.1,7,2.2,6.9,2.2,6.9z M12.9,11.6v3.1h-1.8v-3.1H12.9z M21.8,20.8H2.2c-0.1,0-0.1,0-0.1-0.1V13h7.7c0.1,0,0.2,0,0.3-0.1v2.4
	c0,0.3,0.2,0.5,0.5,0.5h2.8c0.3,0,0.5-0.2,0.5-0.5V13h8v7.7C21.9,20.7,21.8,20.8,21.8,20.8z"/>
</svg>
