<?xml version="1.0" encoding="utf-8"?>
<!-- Generator: Adobe Illustrator 25.0.0, SVG Export Plug-In . SVG Version: 6.00 Build 0)  -->
<svg version="1.1" id="Calque_1" xmlns="http://www.w3.org/2000/svg" xmlns:xlink="http://www.w3.org/1999/xlink" x="0px" y="0px"
	 viewBox="0 0 24 24" style="enable-background:new 0 0 24 24;" xml:space="preserve">
<g>
	<g>
		<g>
			<path d="M12,4.4c-0.6,0-1-0.4-1-1v-2c0-0.6,0.4-1,1-1s1,0.4,1,1v2C13,3.9,12.6,4.4,12,4.4L12,4.4z"/>
		</g>
		<g>
			<path d="M12,23.6c-0.6,0-1-0.4-1-1v-2c0-0.6,0.4-1,1-1s1,0.4,1,1v2C13,23.1,12.6,23.6,12,23.6L12,23.6z"/>
		</g>
	</g>
	<g>
		<g>
			<path d="M22.6,13h-2c-0.6,0-1-0.4-1-1c0-0.6,0.4-1,1-1h2c0.6,0,1,0.4,1,1C23.6,12.6,23.1,13,22.6,13L22.6,13z"/>
		</g>
		<g>
			<path d="M3.4,13h-2c-0.6,0-1-0.4-1-1c0-0.6,0.4-1,1-1h2c0.6,0,1,0.4,1,1C4.4,12.6,3.9,13,3.4,13L3.4,13z"/>
		</g>
	</g>
	<g>
		<g>
			<path d="M18.1,6.9c-0.3,0-0.5-0.1-0.7-0.3c-0.4-0.4-0.4-1,0-1.4l1.4-1.4c0.4-0.4,1-0.4,1.4,0c0.4,0.4,0.4,1,0,1.4l-1.4,1.4
				C18.6,6.8,18.3,6.9,18.1,6.9L18.1,6.9z"/>
		</g>
		<g>
			<path d="M4.5,20.5c-0.3,0-0.5-0.1-0.7-0.3c-0.4-0.4-0.4-1,0-1.4l1.4-1.4c0.4-0.4,1-0.4,1.4,0c0.4,0.4,0.4,1,0,1.4l-1.4,1.4
				C5,20.4,4.8,20.5,4.5,20.5L4.5,20.5z"/>
		</g>
	</g>
	<g>
		<g>
			<path d="M19.5,20.5c-0.3,0-0.5-0.1-0.7-0.3l-1.4-1.4c-0.4-0.4-0.4-1,0-1.4c0.4-0.4,1-0.4,1.4,0l1.4,1.4c0.4,0.4,0.4,1,0,1.4
				C20,20.4,19.7,20.5,19.5,20.5L19.5,20.5z"/>
		</g>
		<g>
			<path d="M5.9,6.9c-0.3,0-0.5-0.1-0.7-0.3L3.8,5.2c-0.4-0.4-0.4-1,0-1.4c0.4-0.4,1-0.4,1.4,0l1.4,1.4c0.4,0.4,0.4,1,0,1.4
				C6.4,6.8,6.2,6.9,5.9,6.9L5.9,6.9z"/>
		</g>
	</g>
	<g>
		<path d="M12,18.1c-3.4,0-6.1-2.7-6.1-6.1S8.6,5.9,12,5.9c3.4,0,6.1,2.7,6.1,6.1S15.4,18.1,12,18.1L12,18.1z M12,7.9
			c-2.3,0-4.1,1.8-4.1,4.1c0,2.3,1.8,4.1,4.1,4.1c2.3,0,4.1-1.8,4.1-4.1C16.1,9.7,14.3,7.9,12,7.9L12,7.9z"/>
	</g>
</g>
</svg>
