<?xml version="1.0" encoding="utf-8"?>
<!-- Generator: Adobe Illustrator 25.0.0, SVG Export Plug-In . SVG Version: 6.00 Build 0)  -->
<svg version="1.1" id="Calque_1" xmlns="http://www.w3.org/2000/svg" xmlns:xlink="http://www.w3.org/1999/xlink" x="0px" y="0px"
	 viewBox="0 0 24 24" style="enable-background:new 0 0 24 24;" xml:space="preserve">
<g>
	<path d="M22.9,0.1H1.1c-0.6,0-1,0.4-1,1v21.8c0,0.6,0.4,1,1,1h21.8c0.6,0,1-0.4,1-1V1.1C23.9,0.6,23.4,0.1,22.9,0.1z M21.9,2.1v4.3
		H2.1V2.1H21.9z M2.1,21.9V7.4h19.8v14.4H2.1z"/>
	<path d="M4.7,5.6c0.7,0,1.3-0.6,1.3-1.3c0-0.7-0.6-1.3-1.3-1.3C4,3.1,3.4,3.6,3.4,4.3C3.4,5,4,5.6,4.7,5.6z"/>
	<path d="M8.1,5.6c0.7,0,1.3-0.6,1.3-1.3c0-0.7-0.6-1.3-1.3-1.3c-0.7,0-1.3,0.6-1.3,1.3C6.8,5,7.4,5.6,8.1,5.6z"/>
	<path d="M11.5,5.6c0.7,0,1.3-0.6,1.3-1.3c0-0.7-0.6-1.3-1.3-1.3c-0.7,0-1.3,0.6-1.3,1.3C10.2,5,10.8,5.6,11.5,5.6z"/>
</g>
</svg>
