<?xml version="1.0" encoding="utf-8"?>
<!-- Generator: Adobe Illustrator 25.0.0, SVG Export Plug-In . SVG Version: 6.00 Build 0)  -->
<svg version="1.1" id="Calque_1" xmlns="http://www.w3.org/2000/svg" xmlns:xlink="http://www.w3.org/1999/xlink" x="0px" y="0px"
	 viewBox="0 0 24 24" style="enable-background:new 0 0 24 24;" xml:space="preserve">
<g>
	<path d="M22.8,0.9c-0.9-0.9-2.5-0.9-3.8,0c-3.7,2.7-7,6-9.7,9.7c-0.2,0-0.5,0.1-0.7,0.3c-0.1,0.1-0.2,0.3-0.3,0.5
		c-0.2,0-0.4,0.1-0.5,0.3c-0.4,0.4-0.4,1,0,1.4l2.9,2.9c0.2,0.2,0.5,0.3,0.7,0.3s0.5-0.1,0.7-0.3c0.1-0.1,0.2-0.3,0.3-0.5
		c0.2,0,0.4-0.1,0.5-0.3c0.2-0.2,0.3-0.4,0.3-0.7c3.7-2.7,7-6,9.7-9.7C23.7,3.5,23.6,1.8,22.8,0.9z M21.2,3.6
		c-2.5,3.5-5.7,6.7-9.2,9.3l-1.1-1.1c2.6-3.5,5.8-6.7,9.2-9.2c0.6-0.4,1.2-0.3,1.3-0.2C21.5,2.5,21.5,3.1,21.2,3.6z"/>
	<path d="M7.6,13.5c-0.3-0.3-0.7-0.4-1.1-0.2c-1,0.4-1.9,0.9-2.8,1.5c-2.9,1.7-3.5,5.4-2.8,8.2c0.1,0.4,0.4,0.6,0.7,0.7
		c0.1,0,0.2,0,0.2,0c0.3,0,0.5-0.1,0.7-0.3c1.1-1.1,1.9-1.3,3.1-1.4c0.9-0.1,2-0.3,3.1-1c1.4-0.8,1.8-2.4,2.1-3.6
		c0.1-0.3,0-0.7-0.3-0.9L7.6,13.5z M7.7,19.3c-0.8,0.5-1.6,0.6-2.4,0.7c-0.9,0.1-1.8,0.2-2.8,0.8c0-1.7,0.6-3.5,2.1-4.3
		c0.6-0.4,1.3-0.7,2-1.1l2.1,2.1C8.5,18.5,8.2,19.1,7.7,19.3z"/>
</g>
</svg>
