<?xml version="1.0" encoding="utf-8"?>
<!-- Generator: Adobe Illustrator 25.0.0, SVG Export Plug-In . SVG Version: 6.00 Build 0)  -->
<svg version="1.1" id="Calque_1" xmlns="http://www.w3.org/2000/svg" xmlns:xlink="http://www.w3.org/1999/xlink" x="0px" y="0px"
	 viewBox="0 0 24 24" style="enable-background:new 0 0 24 24;" xml:space="preserve">
<path d="M23.1,15.8l-2.5-0.4c0.1-0.4,0.1-0.9,0.1-1.3c0-0.3,0-0.7-0.1-1l2.5-0.5c0.5-0.1,0.9-0.6,0.8-1.2c-0.1-0.5-0.6-0.9-1.2-0.8
	l-2.5,0.5c-0.3-0.7-0.6-1.4-1.1-2.1L21.4,8c0.5-0.2,0.7-0.8,0.5-1.3c-0.2-0.5-0.8-0.7-1.3-0.5l-2.8,1.3c0,0-0.1,0-0.1,0.1
	c-0.4-0.3-0.7-0.6-1.1-0.8c-0.1-1-0.5-1.9-1-2.6c0,0,0,0,0,0l0.9-1.3c0.3-0.4,0.2-1.1-0.2-1.4c-0.4-0.3-1.1-0.2-1.4,0.2l-0.9,1.3
	c-0.6-0.3-1.3-0.5-2-0.5c-0.7,0-1.4,0.2-2,0.5L9.1,1.6c-0.3-0.4-1-0.5-1.4-0.2c-0.4,0.3-0.5,1-0.2,1.4l0.9,1.3c0,0,0,0,0,0
	c-0.6,0.7-1,1.6-1,2.6C7,7,6.7,7.2,6.3,7.5c0,0-0.1,0-0.1-0.1L3.4,6.2c-0.5-0.2-1.1,0-1.3,0.5C1.9,7.2,2.1,7.8,2.6,8l2.3,1.1
	c-0.5,0.6-0.8,1.3-1.1,2.1l-2.5-0.5c-0.5-0.1-1.1,0.2-1.2,0.8C0,12,0.4,12.5,0.9,12.6l2.5,0.5c0,0.3-0.1,0.7-0.1,1
	c0,0.4,0,0.9,0.1,1.3l-2.5,0.4c-0.5,0.1-0.9,0.6-0.8,1.1c0.1,0.5,0.5,0.9,1,0.9c0,0,0.1,0,0.1,0l2.7-0.4c0.3,0.8,0.8,1.5,1.3,2.2
	l-2.2,1c-0.5,0.2-0.7,0.8-0.5,1.3c0.2,0.4,0.5,0.6,0.9,0.6c0.1,0,0.3,0,0.4-0.1l2.8-1.3c0,0,0.1,0,0.1-0.1c1.5,1.1,3.3,1.8,5.3,1.8
	c2,0,3.8-0.7,5.3-1.8c0,0,0.1,0,0.1,0.1l2.8,1.3c0.1,0.1,0.3,0.1,0.4,0.1c0.4,0,0.7-0.2,0.9-0.6c0.2-0.5,0-1.1-0.5-1.3l-2.2-1
	c0.5-0.7,1-1.4,1.3-2.2l2.7,0.4c0,0,0.1,0,0.1,0c0.5,0,0.9-0.4,1-0.9C24,16.4,23.6,15.8,23.1,15.8z M12,4.4c0.9,0,1.7,0.5,2.2,1.3
	c-0.7-0.2-1.4-0.3-2.2-0.3c-0.8,0-1.5,0.1-2.2,0.3C10.3,4.9,11.1,4.4,12,4.4z M5.3,14.1c0-3.4,2.5-6.1,5.7-6.6v13.2
	C7.8,20.2,5.3,17.5,5.3,14.1z M13,20.7V7.5c3.2,0.5,5.7,3.3,5.7,6.6C18.7,17.5,16.2,20.2,13,20.7z"/>
</svg>
