<?xml version="1.0" encoding="utf-8"?>
<!-- Generator: Adobe Illustrator 25.0.0, SVG Export Plug-In . SVG Version: 6.00 Build 0)  -->
<svg version="1.1" id="Calque_1" xmlns="http://www.w3.org/2000/svg" xmlns:xlink="http://www.w3.org/1999/xlink" x="0px" y="0px"
	 viewBox="0 0 24 24" style="enable-background:new 0 0 24 24;" xml:space="preserve">
<g>
	<path d="M15.9,0.2H8.1c-3.9,0-7,3.1-7,7v12.6c0,0.6,0.4,1,1,1h1v1.3c0,1,1.1,1.6,3,1.6s3-0.6,3-1.6v-1.3h5.7v1.3c0,1,1.1,1.6,3,1.6
		s3-0.6,3-1.6v-1.3h1c0.6,0,1-0.4,1-1V7.2C22.9,3.4,19.7,0.2,15.9,0.2z M7.2,21.6c-0.2,0.1-0.6,0.1-1,0.1s-0.8-0.1-1-0.1v-0.8h2
		V21.6z M18.8,21.6c-0.2,0.1-0.6,0.1-1,0.1s-0.8-0.1-1-0.1v-0.8h2V21.6z M20.9,18.8H3.1V7.2c0-2.8,2.2-5,5-5h7.8c2.8,0,5,2.2,5,5
		V18.8z"/>
	<path d="M7.2,5.2h9.7c0.6,0,1-0.4,1-1c0-0.6-0.4-1-1-1H7.2c-0.6,0-1,0.4-1,1C6.2,4.7,6.6,5.2,7.2,5.2z"/>
	<path d="M7.2,13.8c-0.8,0-1.5,0.7-1.5,1.5c0,0.8,0.7,1.5,1.5,1.5c0.8,0,1.5-0.7,1.5-1.5C8.7,14.5,8.1,13.8,7.2,13.8z"/>
	<path d="M16.8,13.8c-0.8,0-1.5,0.7-1.5,1.5c0,0.8,0.7,1.5,1.5,1.5c0.8,0,1.5-0.7,1.5-1.5C18.2,14.5,17.6,13.8,16.8,13.8z"/>
	<path d="M5.1,5.7c-0.8,0-1.5,0.7-1.5,1.5v4.4c0,0.8,0.7,1.5,1.5,1.5h13.8c0.8,0,1.5-0.7,1.5-1.5V7.2c0-0.8-0.7-1.5-1.5-1.5H5.1z
		 M19.4,7.2v4.4c0,0.3-0.2,0.5-0.5,0.5H5.1c-0.3,0-0.5-0.2-0.5-0.5V7.2c0-0.3,0.2-0.5,0.5-0.5h13.8C19.2,6.7,19.4,7,19.4,7.2z"/>
</g>
</svg>
