<?xml version="1.0" encoding="utf-8"?>
<!-- Generator: Adobe Illustrator 25.0.0, SVG Export Plug-In . SVG Version: 6.00 Build 0)  -->
<svg version="1.1" id="Calque_1" xmlns="http://www.w3.org/2000/svg" xmlns:xlink="http://www.w3.org/1999/xlink" x="0px" y="0px"
	 viewBox="0 0 24 24" style="enable-background:new 0 0 24 24;" xml:space="preserve">
<path d="M24,6.4C24,5.7,24,5,23.9,4.2c0-0.3-0.2-0.6-0.5-0.7c-0.8-0.4-1.7-0.6-2.6-0.7c-3-0.3-5.9,1.2-7.7,3.7
	C13.1,6.4,13,6.3,13,6.3c0.7-1.5,1.8-2.8,3.1-3.6c0.2-0.1,0.3-0.4,0.1-0.6c-0.1-0.2-0.4-0.3-0.6-0.1c-1.5,0.9-2.7,2.4-3.5,4.1
	c0,0-0.1,0-0.1,0c0,0-0.1,0-0.1,0c-0.8-1.7-2-3.1-3.5-4.1C8.2,1.8,7.9,1.8,7.8,2.1C7.7,2.3,7.7,2.6,7.9,2.7c1.3,0.8,2.4,2.1,3.1,3.6
	c-0.1,0.1-0.1,0.1-0.2,0.2C9,4,6.2,2.5,3.2,2.8C2.3,2.9,1.4,3.1,0.6,3.5C0.3,3.6,0.1,3.9,0.1,4.2C0,5,0,5.7,0,6.4
	c0.3,3,1.8,5.6,3.9,7.2c-0.9,1.7-1.3,3.7-1.1,5.7C3,20,3.1,20.8,3.4,21.5c0.1,0.4,0.5,0.6,0.9,0.6c0.2,0,0.5,0,0.7,0
	c2.4-0.2,4.5-1.4,6-3.4c0.4-0.6,0.8-1.2,1.1-1.9c1.3,2.9,3.9,5.1,7,5.4c0.2,0,0.5,0,0.7,0h0c0.4,0,0.8-0.3,0.9-0.6
	c0.2-0.7,0.4-1.5,0.5-2.2c0.2-2-0.2-4-1.1-5.7C22.2,12,23.7,9.4,24,6.4z M20.7,4.6c0.5,0,1,0.2,1.5,0.3c0,0.4,0,0.9,0,1.3
	c-0.2,2.4-1.4,4.5-3.1,5.8c-1.3-1.7-3.2-2.8-5.2-3.2C15.1,6.2,17.8,4.4,20.7,4.6z M10.8,10.8c0.1,0.4,0.1,0.7,0.2,1.1c0,0,0,0,0,0
	c0,0.4,0,0.8,0,1.2c0,0,0,0,0,0c-0.5,0.2-1,0.3-1.5,0.3c-0.2,0-0.4,0-0.6,0c-0.8,0-1.6-0.2-2.4-0.5C7.7,11.7,9.2,10.9,10.8,10.8
	C10.8,10.7,10.8,10.7,10.8,10.8z M13,13.1c0-0.4,0-0.8,0-1.2c0,0,0,0,0,0c0-0.4,0.1-0.7,0.2-1.1c0,0,0,0,0-0.1
	c1.6,0.2,3.1,1,4.2,2.3c-0.9,0.4-1.9,0.5-2.9,0.4C14,13.4,13.5,13.3,13,13.1C13,13.1,13,13.1,13,13.1z M1.9,6.3c0-0.4,0-0.8,0-1.3
	c0.5-0.2,1-0.3,1.5-0.3c2.9-0.3,5.5,1.5,6.8,4.3c-2,0.3-3.9,1.4-5.2,3.2C3.3,10.8,2.1,8.7,1.9,6.3z M9.4,17.6
	c-1.1,1.5-2.7,2.5-4.5,2.7c-0.1-0.4-0.2-0.8-0.2-1.2c-0.1-1.6,0.1-3.2,0.8-4.6c1,0.5,2.2,0.8,3.4,0.8c0.2,0,0.5,0,0.7,0
	c0.3,0,0.7-0.1,1-0.2C10.4,16,10,16.8,9.4,17.6z M19.3,19.1c0,0.4-0.1,0.8-0.2,1.2c-2.7-0.3-4.9-2.4-5.7-5.2c0.3,0.1,0.7,0.1,1,0.2
	c0.2,0,0.5,0,0.7,0c1.2,0,2.3-0.3,3.4-0.8C19.1,15.9,19.4,17.5,19.3,19.1z"/>
</svg>
