<?xml version="1.0" encoding="utf-8"?>
<!-- Generator: Adobe Illustrator 25.0.0, SVG Export Plug-In . SVG Version: 6.00 Build 0)  -->
<svg version="1.1" id="Calque_1" xmlns="http://www.w3.org/2000/svg" xmlns:xlink="http://www.w3.org/1999/xlink" x="0px" y="0px"
	 viewBox="0 0 24 24" style="enable-background:new 0 0 24 24;" xml:space="preserve">
<path d="M18.7,1.5c-1.4,0-2.5,1.1-2.5,2.5v3.2h-1.2V3c0-1.7-1.3-3-3-3s-3,1.3-3,3v8.1H7.8V7.9c0-1.4-1.1-2.5-2.5-2.5
	c-1.4,0-2.5,1.1-2.5,2.5v5.7c0,1.4,1.1,2.5,2.5,2.5h3.6V23c0,0.6,0.4,1,1,1h4c0.6,0,1-0.4,1-1V12.2h3.7c1.2,0,2.2-0.8,2.4-2
	c0-0.2,0.1-0.3,0.1-0.5V4C21.2,2.7,20.1,1.5,18.7,1.5z M19.2,9.8l0,0.1c0,0.2-0.3,0.4-0.5,0.4h-4.7c-0.6,0-1,0.4-1,1V22h-2v-6.9
	c0-0.6-0.4-1-1-1H5.3c-0.3,0-0.5-0.2-0.5-0.5V7.9c0-0.3,0.2-0.5,0.5-0.5c0.3,0,0.5,0.2,0.5,0.5v4.2c0,0.6,0.4,1,1,1h3.1
	c0.6,0,1-0.4,1-1V3c0-0.6,0.4-1,1-1c0.6,0,1,0.4,1,1v5.2c0,0.6,0.4,1,1,1h3.2c0.6,0,1-0.4,1-1V4c0-0.3,0.2-0.5,0.5-0.5
	c0.3,0,0.5,0.2,0.5,0.5V9.8z"/>
</svg>
