<?xml version="1.0" encoding="utf-8"?>
<!-- Generator: Adobe Illustrator 25.0.0, SVG Export Plug-In . SVG Version: 6.00 Build 0)  -->
<svg version="1.1" id="Calque_1" xmlns="http://www.w3.org/2000/svg" xmlns:xlink="http://www.w3.org/1999/xlink" x="0px" y="0px"
	 viewBox="0 0 24 24" style="enable-background:new 0 0 24 24;" xml:space="preserve">
<g>
	<path d="M18.1,0.3H5.9c-1.3,0-2.4,1.1-2.4,2.4v18.6c0,1.3,1.1,2.4,2.4,2.4h12.2c1.3,0,2.4-1.1,2.4-2.4V2.7
		C20.5,1.4,19.4,0.3,18.1,0.3z M18.5,21.3c0,0.2-0.2,0.4-0.4,0.4H5.9c-0.2,0-0.4-0.2-0.4-0.4V2.7c0-0.2,0.2-0.4,0.4-0.4h12.2
		c0.2,0,0.4,0.2,0.4,0.4V21.3z"/>
	<rect x="7.7" y="5.3" width="8.7" height="2"/>
	<rect x="7.7" y="9.7" width="2.3" height="2"/>
	<rect x="10.9" y="9.7" width="2.3" height="2"/>
	<rect x="14.1" y="9.7" width="2.3" height="2"/>
	<rect x="7.7" y="12.6" width="2.3" height="2"/>
	<rect x="10.9" y="12.6" width="2.3" height="2"/>
	<rect x="14.1" y="12.6" width="2.3" height="2"/>
	<rect x="7.7" y="15.4" width="2.3" height="2"/>
	<rect x="10.9" y="15.4" width="2.3" height="2"/>
	<rect x="14.1" y="15.4" width="2.3" height="2"/>
</g>
</svg>
