<?xml version="1.0" encoding="utf-8"?>
<!-- Generator: Adobe Illustrator 25.0.0, SVG Export Plug-In . SVG Version: 6.00 Build 0)  -->
<svg version="1.1" id="Calque_1" xmlns="http://www.w3.org/2000/svg" xmlns:xlink="http://www.w3.org/1999/xlink" x="0px" y="0px"
	 viewBox="0 0 24 24" style="enable-background:new 0 0 24 24;" xml:space="preserve">
<g>
	<path d="M22.3,3.7h-2.9V3c0-0.6-0.4-1-1-1c-0.6,0-1,0.4-1,1v0.7H6.6V3c0-0.6-0.4-1-1-1c-0.6,0-1,0.4-1,1v0.7H1.7c-0.6,0-1,0.4-1,1
		V21c0,0.6,0.4,1,1,1h20.5c0.6,0,1-0.4,1-1V4.7C23.3,4.1,22.8,3.7,22.3,3.7z M4.6,5.7v0.7c0,0.6,0.4,1,1,1c0.6,0,1-0.4,1-1V5.7h10.8
		v0.7c0,0.6,0.4,1,1,1c0.6,0,1-0.4,1-1V5.7h1.9v3.9H2.7V5.7H4.6z M2.7,20v-9.4h18.5V20H2.7z"/>
	<path d="M11.2,17.4H8.7c0.1-0.1,0.2-0.2,0.2-0.3c0.2-0.2,0.5-0.5,1-0.9c0.5-0.4,0.8-0.7,1-0.9c0.2-0.2,0.4-0.4,0.6-0.8
		c0.2-0.3,0.3-0.7,0.3-1.1c0-0.3,0-0.5-0.1-0.7c-0.1-0.2-0.2-0.4-0.4-0.6c-0.2-0.2-0.4-0.3-0.6-0.4c-0.3-0.2-0.8-0.2-1.3-0.2
		c-0.4,0-0.8,0.1-1.1,0.2c-0.3,0.1-0.6,0.3-0.8,0.5c-0.2,0.2-0.3,0.4-0.4,0.7C7.1,13,7,13.3,7,13.5c0,0.2,0.1,0.3,0.2,0.4
		c0.1,0.1,0.2,0.2,0.4,0.2c0.2,0,0.3-0.1,0.4-0.2c0.1-0.1,0.2-0.3,0.3-0.5c0.1-0.2,0.1-0.3,0.2-0.4c0.2-0.4,0.6-0.6,1-0.6
		c0.2,0,0.4,0,0.6,0.1c0.2,0.1,0.3,0.2,0.4,0.4c0.1,0.2,0.1,0.3,0.1,0.6c0,0.2,0,0.4-0.1,0.6c-0.1,0.2-0.2,0.4-0.4,0.6
		c-0.2,0.2-0.4,0.4-0.7,0.6c-0.1,0.1-0.4,0.3-0.7,0.6c-0.3,0.3-0.7,0.7-1.2,1.1c-0.1,0.1-0.2,0.3-0.3,0.5C7.1,17.6,7,17.8,7,17.9
		c0,0.2,0.1,0.3,0.2,0.5c0.1,0.1,0.3,0.2,0.6,0.2h3.5c0.2,0,0.4-0.1,0.5-0.2c0.1-0.1,0.2-0.2,0.2-0.4c0-0.2-0.1-0.3-0.2-0.4
		C11.6,17.5,11.4,17.4,11.2,17.4z"/>
	<path d="M17.3,16.1C17.1,16,16.9,16,16.7,16h-0.2v-3.7c0-0.6-0.2-0.8-0.7-0.8c-0.2,0-0.3,0-0.4,0.2c-0.1,0.1-0.2,0.3-0.4,0.5
		l-2.5,3.4c-0.1,0.1-0.1,0.2-0.2,0.2c0,0.1-0.1,0.1-0.1,0.2c0,0.1-0.1,0.1-0.1,0.2c0,0.1,0,0.1,0,0.2c0,0.2,0.1,0.4,0.2,0.6
		c0.2,0.1,0.4,0.2,0.7,0.2h2.4V18c0,0.2,0.1,0.4,0.2,0.5c0.1,0.1,0.3,0.2,0.4,0.2c0.2,0,0.3-0.1,0.4-0.2c0.1-0.1,0.2-0.3,0.2-0.6
		v-0.9h0.3c0.2,0,0.4,0,0.5-0.1c0.1-0.1,0.2-0.2,0.2-0.4C17.5,16.3,17.4,16.2,17.3,16.1z M15.3,16h-2.1l2.1-2.8V16z"/>
</g>
</svg>
