<?xml version="1.0" encoding="utf-8"?>
<!-- Generator: Adobe Illustrator 25.0.0, SVG Export Plug-In . SVG Version: 6.00 Build 0)  -->
<svg version="1.1" id="Calque_1" xmlns="http://www.w3.org/2000/svg" xmlns:xlink="http://www.w3.org/1999/xlink" x="0px" y="0px"
	 viewBox="0 0 24 24" style="enable-background:new 0 0 24 24;" xml:space="preserve">
<path d="M23.3,9.3c-0.3-0.2-0.7-0.2-1,0l-3.9,2v-0.2c0-1.1-0.9-2-2-2h-0.6c0.6-0.8,1-1.7,1-2.8c0-2.4-2-4.4-4.4-4.4
	c-1.5,0-2.9,0.8-3.7,2c-0.8-1.2-2.1-2-3.7-2c-2.4,0-4.4,2-4.4,4.4c0,1.1,0.4,2.1,1.1,2.9c-0.9,0.2-1.6,1-1.6,1.9v9.1
	c0,1.1,0.9,2,2,2h14.2c1.1,0,2-0.9,2-2V20l3.9,2c0.1,0.1,0.3,0.1,0.4,0.1c0.2,0,0.4-0.1,0.5-0.1c0.3-0.2,0.5-0.5,0.5-0.9V10.2
	C23.8,9.8,23.6,9.5,23.3,9.3z M12.4,3.8c1.3,0,2.4,1.1,2.4,2.4s-1.1,2.4-2.4,2.4c-1.3,0-2.4-1.1-2.4-2.4S11.1,3.8,12.4,3.8z M9,9.1
	H8.5c0.1-0.1,0.2-0.2,0.3-0.3C8.8,8.8,8.9,8.9,9,9.1z M5.1,3.8c1.3,0,2.4,1.1,2.4,2.4S6.4,8.7,5.1,8.7c-1.3,0-2.4-1.1-2.4-2.4
	S3.8,3.8,5.1,3.8z M2.2,20.2v-9.1h14.2l0,1.4c-0.1,0.1-0.1,0.3-0.1,0.4v5.4c0,0.1,0,0.3,0.1,0.4l0,1.4H2.2z M21.8,19.4l-3.4-1.7
	v-4.3l3.4-1.7V19.4z"/>
</svg>
