<?xml version="1.0" encoding="utf-8"?>
<!-- Generator: Adobe Illustrator 25.0.0, SVG Export Plug-In . SVG Version: 6.00 Build 0)  -->
<svg version="1.1" id="Calque_1" xmlns="http://www.w3.org/2000/svg" xmlns:xlink="http://www.w3.org/1999/xlink" x="0px" y="0px"
	 viewBox="0 0 24 24" style="enable-background:new 0 0 24 24;" xml:space="preserve">
<g>
	<path d="M14.4,7.8c-3,0-5.5,2.4-5.5,5.5c0,3,2.4,5.5,5.5,5.5c3,0,5.5-2.4,5.5-5.5C19.8,10.2,17.4,7.8,14.4,7.8z M14.4,17.7
		c-2.5,0-4.5-2-4.5-4.5c0-2.5,2-4.5,4.5-4.5s4.5,2,4.5,4.5C18.8,15.7,16.8,17.7,14.4,17.7z"/>
	<path d="M21.3,4.8H20l-1.7-2.1c-0.2-0.2-0.5-0.4-0.8-0.4h-6.3c-0.3,0-0.6,0.1-0.8,0.4L8.8,4.8h-6c-1.3,0-2.4,1.1-2.4,2.4v12.1
		c0,1.3,1.1,2.4,2.4,2.4h18.5c1.3,0,2.4-1.1,2.4-2.4V7.2C23.7,5.9,22.6,4.8,21.3,4.8z M2.3,19.3V7.2c0-0.2,0.2-0.4,0.4-0.4h3.5v12.9
		H2.7C2.5,19.7,2.3,19.5,2.3,19.3z M21.7,19.3c0,0.2-0.2,0.4-0.4,0.4h-14V6.8h2c0.3,0,0.6-0.1,0.8-0.4l1.7-2.1H17l1.7,2.1
		c0.2,0.2,0.5,0.4,0.8,0.4h1.8c0.2,0,0.4,0.2,0.4,0.4V19.3z"/>
</g>
</svg>
