<?xml version="1.0" encoding="utf-8"?>
<!-- Generator: Adobe Illustrator 25.0.0, SVG Export Plug-In . SVG Version: 6.00 Build 0)  -->
<svg version="1.1" id="Calque_1" xmlns="http://www.w3.org/2000/svg" xmlns:xlink="http://www.w3.org/1999/xlink" x="0px" y="0px"
	 viewBox="0 0 24 24" style="enable-background:new 0 0 24 24;" xml:space="preserve">
<path d="M20.3,3.7c-2.2-2.2-5.2-3.4-8.3-3.4c-3.1,0-6.1,1.2-8.3,3.4C1.5,5.9,0.2,8.9,0.2,12c0,3.1,1.2,6.1,3.4,8.3
	c2.2,2.2,5.2,3.4,8.3,3.4c3.1,0,6.1-1.2,8.3-3.5C24.9,15.7,24.9,8.3,20.3,3.7z M21.3,14.9h-6.8L19.7,6C21.7,8.5,22.3,11.9,21.3,14.9
	z M10.3,14.9l-1.5-2.6c0,0,0,0,0,0l1.5-2.6c0,0,0,0,0,0h3c0,0,0,0,0,0l1.5,2.6c0,0,0,0,0,0l-1.5,2.6c0,0,0,0,0,0L10.3,14.9
	C10.4,14.9,10.4,14.9,10.3,14.9z M18.9,5.1C18.9,5.1,19,5.1,18.9,5.1l-3.4,6.2l-5.1-8.9c0.5-0.1,1.1-0.1,1.6-0.1
	C14.6,2.2,17.1,3.2,18.9,5.1z M5.1,5.1c1.2-1.2,2.7-2,4.3-2.5l3.5,6h-10C3.3,7.3,4.1,6.1,5.1,5.1z M2.5,9.6h6.6L4.3,18
	c-1.3-1.7-2.1-3.8-2.1-6C2.2,11.2,2.3,10.4,2.5,9.6z M5.1,18.9C5.1,18.9,5,18.9,5.1,18.9l3.1-5.7l4.9,8.5c-0.4,0-0.7,0.1-1.1,0.1
	C9.4,21.8,6.9,20.8,5.1,18.9z M18.9,18.9c-1.3,1.3-3,2.2-4.8,2.6l-3.3-5.6H21C20.5,17,19.8,18,18.9,18.9z"/>
</svg>
