<?xml version="1.0" encoding="utf-8"?>
<!-- Generator: Adobe Illustrator 24.3.0, SVG Export Plug-In . SVG Version: 6.00 Build 0)  -->
<svg version="1.1" id="Calque_1" xmlns="http://www.w3.org/2000/svg" xmlns:xlink="http://www.w3.org/1999/xlink" x="0px" y="0px"
	 viewBox="0 0 24 24" style="enable-background:new 0 0 24 24;" xml:space="preserve">
<path d="M23.7,9.7c-0.2-1.4-1.6-2.3-3-2.1c0,0-0.2,0-0.5,0.1c0.7-0.5,1.2-1,1.3-1c0.6-0.6,0.9-1.3,0.9-2.1c0-0.8-0.3-1.5-0.9-2.1
	c-1.1-1.1-3-1.1-4.2,0c0,0-0.5,0.5-1,1.2c0.1-0.3,0.1-0.5,0.1-0.5c0.1-0.7,0-1.4-0.4-1.9c-0.4-0.6-1-0.9-1.7-1.1
	c-1.4-0.3-2.7,0.7-3,2.1c0,0-0.3,2.5-0.2,4.7l-0.9-0.9C9.7,5.6,9.1,5.3,8.5,5.3c-0.9,0-1.7,0.6-2.2,1.6L6,7.8
	c-0.1,0.3-0.1,0.7,0.1,1l0,0c0,0-0.1,0-0.1,0C5.7,8.9,5.4,9.1,5.3,9.4l-1.2,2.9c-0.1,0.2-0.1,0.4,0,0.7c-0.2,0.1-0.3,0.3-0.4,0.5
	l-1.4,3.3c0,0.1-0.1,0.2-0.1,0.4C2.1,17.2,2,17.3,2,17.4l-1.5,3.7c-0.4,1-0.2,1.6,0,2c0.3,0.4,0.8,0.7,1.4,0.7h0
	c0.3,0,0.7-0.1,1.1-0.2l14.2-5.9c0.8-0.3,1.4-1,1.5-1.7c0.2-0.8-0.1-1.6-0.8-2.2L17,12.8c0.4,0,0.8,0,1.3,0c1.4,0,2.9-0.1,3.4-0.2
	c0.7-0.1,1.3-0.5,1.7-1.1C23.7,11,23.8,10.4,23.7,9.7z M1.9,22.8v-1h0L1.9,22.8z M18.7,4c0.2-0.2,0.4-0.3,0.7-0.3
	c0.2,0,0.5,0.1,0.7,0.3c0.2,0.2,0.3,0.4,0.3,0.7c0,0.3-0.1,0.5-0.3,0.7c-0.7,0.7-3.2,2.6-4.8,3.5C16.2,7.2,18.1,4.6,18.7,4z
	 M13.3,2.7c0-0.3,0.3-0.5,0.6-0.5c0,0,0.1,0,0.1,0c0.1,0,0.3,0.1,0.4,0.2c0.1,0.1,0.1,0.3,0.1,0.4c-0.1,0.6-0.7,2.4-1.2,3.7
	C13.1,5.2,13.2,3.3,13.3,2.7z M16.3,15.8L2.4,21.6l0.9-2.2L4.2,20c0.4,0.3,1,0.3,1.3-0.1c0.4-0.4,0.4-0.9,0.1-1.3L4.3,17L5,15.4
	L7.2,17c0.4,0.3,1,0.3,1.3-0.1c0.4-0.4,0.4-0.9,0.1-1.3l-2.4-3.1l0.5-1.1l3.5,2.7c0.4,0.3,1,0.3,1.3-0.1c0.4-0.4,0.4-0.9,0.1-1.3
	L8,8l0.1-0.4c0.1-0.4,0.3-0.5,0.7-0.1l7.6,7.6c0.2,0.2,0.2,0.3,0.2,0.4C16.7,15.6,16.6,15.7,16.3,15.8z M21.7,10.5
	c-0.1,0.1-0.2,0.2-0.4,0.2c-0.3,0.1-1.6,0.2-3,0.2c-0.4,0-0.7,0-0.9,0c1.3-0.6,3.2-1.1,3.7-1.2c0.3-0.1,0.6,0.2,0.7,0.5
	C21.8,10.2,21.7,10.3,21.7,10.5z"/>
</svg>
