<?xml version="1.0" encoding="utf-8"?>
<!-- Generator: Adobe Illustrator 24.3.0, SVG Export Plug-In . SVG Version: 6.00 Build 0)  -->
<svg version="1.1" id="Calque_1" xmlns="http://www.w3.org/2000/svg" xmlns:xlink="http://www.w3.org/1999/xlink" x="0px" y="0px"
	 viewBox="0 0 24 24" style="enable-background:new 0 0 24 24;" xml:space="preserve">
<path d="M23.8,6c-0.2-0.2-0.5-0.4-0.8-0.4H6.2L5.5,2.9C5.4,2.5,5,2.2,4.6,2.2L1,2.1C0.4,2,0,2.4,0,3c0,0.5,0.4,1,0.9,1l2.9,0.1
	l0.7,2.7c0,0,0,0,0,0.1l2.3,8.4L7,15.6c0,0.1,0.1,0.1,0.1,0.2c0,0,0,0.1,0,0.1c0,0,0.1,0.1,0.1,0.1c0,0,0.1,0.1,0.1,0.1
	c0,0,0.1,0,0.1,0.1c0,0,0.1,0.1,0.1,0.1c0.1,0,0.2,0.1,0.3,0.1c0,0,0,0,0,0c0,0,0,0,0,0h12.7c0.4,0,0.8-0.3,0.9-0.7L24,6.8
	C24,6.5,24,6.2,23.8,6z M19.9,14.4H8.6L6.7,7.5h15.1L19.9,14.4z"/>
<path d="M10.2,16.7c-1.4,0-2.6,1.2-2.6,2.6c0,1.4,1.2,2.6,2.6,2.6c1.4,0,2.6-1.2,2.6-2.6C12.8,17.9,11.6,16.7,10.2,16.7z M10.2,20
	c-0.4,0-0.7-0.3-0.7-0.7c0-0.4,0.3-0.7,0.7-0.7c0.4,0,0.7,0.3,0.7,0.7C10.9,19.7,10.6,20,10.2,20z"/>
<path d="M18.1,16.7c-1.4,0-2.6,1.2-2.6,2.6c0,1.4,1.2,2.6,2.6,2.6s2.6-1.2,2.6-2.6C20.7,17.9,19.5,16.7,18.1,16.7z M18.1,20
	c-0.4,0-0.7-0.3-0.7-0.7c0-0.4,0.3-0.7,0.7-0.7c0.4,0,0.7,0.3,0.7,0.7C18.8,19.7,18.4,20,18.1,20z"/>
</svg>
