<?xml version="1.0" encoding="utf-8"?>
<!-- Generator: Adobe Illustrator 25.0.0, SVG Export Plug-In . SVG Version: 6.00 Build 0)  -->
<svg version="1.1" id="Calque_1" xmlns="http://www.w3.org/2000/svg" xmlns:xlink="http://www.w3.org/1999/xlink" x="0px" y="0px"
	 viewBox="0 0 24 24" style="enable-background:new 0 0 24 24;" xml:space="preserve">
<g>
	<path d="M6.6,8.9c-0.3,0-0.5,0.2-0.5,0.5c0,0.3,0.2,0.5,0.5,0.5h10.5c0.3,0,0.5-0.2,0.5-0.5c0-0.3-0.2-0.5-0.5-0.5H6.6z"/>
	<path d="M6.6,11.9h8.2c0.3,0,0.5-0.2,0.5-0.5c0-0.3-0.2-0.5-0.5-0.5H6.6c-0.3,0-0.5,0.2-0.5,0.5C6.1,11.7,6.4,11.9,6.6,11.9z"/>
	<path d="M11.2,15.6H6.6c-0.3,0-0.5,0.2-0.5,0.5c0,0.3,0.2,0.5,0.5,0.5h4.5c0.3,0,0.5-0.2,0.5-0.5C11.7,15.8,11.5,15.6,11.2,15.6z"
		/>
	<path d="M11.2,17.5H6.6c-0.3,0-0.5,0.2-0.5,0.5c0,0.3,0.2,0.5,0.5,0.5h4.5c0.3,0,0.5-0.2,0.5-0.5C11.7,17.7,11.5,17.5,11.2,17.5z"
		/>
	<path d="M17.4,14.9l0-0.2c0-0.2-0.1-0.4-0.3-0.5l-0.2-0.1c-0.2-0.2-0.4-0.3-0.6-0.4l-0.1-0.2c-0.1-0.2-0.3-0.2-0.5-0.2l-0.2,0.1
		c-0.1,0-0.2,0-0.4,0c-0.1,0-0.2,0-0.4,0l-0.2-0.1c-0.2-0.1-0.4,0-0.5,0.2l-0.1,0.2c-0.2,0.1-0.4,0.3-0.6,0.4l-0.2,0.1
		c-0.2,0.1-0.3,0.2-0.3,0.5l0,0.2c-0.1,0.2-0.2,0.5-0.2,0.7l-0.1,0.2c-0.1,0.2-0.1,0.4,0,0.6l0.1,0.2c0,0.2,0.1,0.5,0.2,0.7l0,0.2
		c0,0.2,0.1,0.4,0.3,0.5l0.2,0.1c0.1,0.1,0.3,0.3,0.5,0.4l-0.7,0.9c-0.2,0.2-0.1,0.5,0.1,0.7c0.1,0.1,0.2,0.1,0.3,0.1
		c0.2,0,0.3-0.1,0.4-0.2l0.8-1.1c0,0,0,0,0-0.1l0,0c0.1,0,0.2,0,0.4,0c0.1,0,0.2,0,0.4,0l0,0c0,0,0,0,0,0.1l0.8,1.1
		c0.1,0.1,0.2,0.2,0.4,0.2c0.1,0,0.2,0,0.3-0.1c0.2-0.2,0.3-0.5,0.1-0.7l-0.7-0.9c0.2-0.1,0.4-0.2,0.5-0.4l0.2-0.1
		c0.2-0.1,0.3-0.2,0.3-0.5l0-0.2c0.1-0.2,0.2-0.5,0.2-0.7l0.1-0.2c0.1-0.2,0.1-0.4,0-0.6l-0.1-0.2C17.6,15.3,17.5,15.1,17.4,14.9z
		 M16.5,16.4c-0.1,0.1-0.1,0.2-0.1,0.3l0,0.3c0,0.1-0.1,0.1-0.1,0.2L16,17.2c-0.1,0-0.2,0.1-0.2,0.2l-0.2,0.2c-0.1,0-0.1,0-0.2,0.1
		l-0.3-0.1c-0.1,0-0.2,0-0.3,0l-0.3,0.1c-0.1,0-0.1,0-0.2-0.1l-0.2-0.2c-0.1-0.1-0.1-0.1-0.2-0.2l-0.3-0.1c0-0.1-0.1-0.1-0.1-0.2
		l0-0.3c0-0.1,0-0.2-0.1-0.3l-0.2-0.2c0,0,0-0.1,0-0.1c0,0,0-0.1,0-0.1l0.2-0.2c0.1-0.1,0.1-0.2,0.1-0.3l0-0.3
		c0-0.1,0.1-0.1,0.1-0.2l0.3-0.1c0.1,0,0.2-0.1,0.2-0.2l0.2-0.2c0.1,0,0.1,0,0.2-0.1l0.3,0.1c0.1,0,0.2,0,0.3,0l0.3-0.1
		c0.1,0,0.1,0,0.2,0.1l0.2,0.2c0.1,0.1,0.1,0.1,0.2,0.2l0.3,0.1c0,0.1,0.1,0.1,0.1,0.2l0,0.3c0,0.1,0,0.2,0.1,0.3l0.2,0.2
		c0,0,0,0.1,0,0.1s0,0.1,0,0.1L16.5,16.4z"/>
	<path d="M20.2,0.7H9.8C9.6,0.7,9.3,0.8,9.1,1l-6,6C2.9,7.2,2.8,7.5,2.8,7.7v14.5c0,0.6,0.4,1,1,1h16.3c0.6,0,1-0.4,1-1V1.7
		C21.2,1.2,20.7,0.7,20.2,0.7z M9.3,3.6v3.6H5.7L9.3,3.6z M19.2,21.3H4.8v-13h5c0.3,0,0.5-0.2,0.5-0.5v-5h8.8V21.3z"/>
</g>
</svg>
