<?xml version="1.0" encoding="utf-8"?>
<!-- Generator: Adobe Illustrator 25.0.0, SVG Export Plug-In . SVG Version: 6.00 Build 0)  -->
<svg version="1.1" id="Calque_1" xmlns="http://www.w3.org/2000/svg" xmlns:xlink="http://www.w3.org/1999/xlink" x="0px" y="0px"
	 viewBox="0 0 24 24" style="enable-background:new 0 0 24 24;" xml:space="preserve">
<g>
	<path d="M22.9,2.1H1.1c-0.6,0-1,0.4-1,1v17.8c0,0.6,0.4,1,1,1h21.8c0.6,0,1-0.4,1-1V3.1C23.9,2.5,23.5,2.1,22.9,2.1z M21.9,19.9
		H2.1V4.1h19.8V19.9z"/>
	<path d="M4.3,7h15.4c0.3,0,0.5-0.2,0.5-0.5C20.2,6.2,20,6,19.7,6H4.3C4,6,3.8,6.2,3.8,6.5C3.8,6.8,4,7,4.3,7z"/>
	<path d="M7.7,9.9c-0.3,0-0.5,0.2-0.5,0.5s0.2,0.5,0.5,0.5h8.6c0.3,0,0.5-0.2,0.5-0.5s-0.2-0.5-0.5-0.5H7.7z"/>
	<path d="M18.8,8.5c0-0.3-0.2-0.5-0.5-0.5H5.7C5.4,8,5.2,8.2,5.2,8.5C5.2,8.8,5.4,9,5.7,9h12.6C18.6,9,18.8,8.8,18.8,8.5z"/>
	<path d="M12,14.4H4.7c-0.3,0-0.5,0.2-0.5,0.5c0,0.3,0.2,0.5,0.5,0.5H12c0.3,0,0.5-0.2,0.5-0.5C12.5,14.6,12.3,14.4,12,14.4z"/>
	<path d="M9.2,16.3H4.7c-0.3,0-0.5,0.2-0.5,0.5c0,0.3,0.2,0.5,0.5,0.5h4.5c0.3,0,0.5-0.2,0.5-0.5C9.7,16.5,9.5,16.3,9.2,16.3z"/>
	<path d="M19.8,14.3c0-0.2-0.1-0.5-0.2-0.7l0-0.2c0-0.2-0.1-0.4-0.3-0.5L19,12.9c-0.2-0.2-0.4-0.3-0.6-0.4l-0.1-0.2
		c-0.1-0.2-0.3-0.2-0.5-0.2l-0.2,0.1c-0.1,0-0.2,0-0.4,0c-0.1,0-0.2,0-0.4,0l-0.2-0.1c-0.2-0.1-0.4,0-0.5,0.2l-0.1,0.2
		c-0.2,0.1-0.4,0.3-0.6,0.4L15,12.9c-0.2,0.1-0.3,0.2-0.3,0.5l0,0.2c-0.1,0.2-0.2,0.5-0.2,0.7l-0.1,0.2c-0.1,0.2-0.1,0.4,0,0.6
		l0.1,0.2c0,0.3,0.1,0.5,0.2,0.7l0,0.2c0,0.2,0.1,0.4,0.3,0.5l0.2,0.1c0.2,0.1,0.3,0.3,0.5,0.4L15.1,18c-0.2,0.2-0.1,0.5,0.1,0.7
		c0.1,0.1,0.2,0.1,0.3,0.1c0.2,0,0.3-0.1,0.4-0.2l0.8-1.1c0,0,0,0,0-0.1l0,0c0.1,0,0.2,0,0.4,0c0.1,0,0.2,0,0.4,0l0,0c0,0,0,0,0,0.1
		l0.8,1.1c0.1,0.1,0.2,0.2,0.4,0.2c0.1,0,0.2,0,0.3-0.1c0.2-0.2,0.3-0.5,0.1-0.7l-0.7-0.9c0.2-0.1,0.4-0.2,0.5-0.4l0.2-0.1
		c0.2-0.1,0.3-0.2,0.3-0.5l0-0.2c0.1-0.2,0.2-0.5,0.2-0.7l0.1-0.2c0.1-0.2,0.1-0.4,0-0.6L19.8,14.3z M18.6,15.1
		c-0.1,0.1-0.1,0.2-0.1,0.3l0,0.3c0,0.1-0.1,0.1-0.1,0.2L18.1,16c-0.1,0-0.2,0.1-0.2,0.2l-0.2,0.2c-0.1,0-0.1,0-0.2,0.1l-0.3-0.1
		c-0.1,0-0.2,0-0.3,0l-0.3,0.1c-0.1,0-0.1,0-0.2-0.1l-0.2-0.2C16.3,16,16.2,16,16.1,16l-0.3-0.1c0-0.1-0.1-0.1-0.1-0.2l0-0.3
		c0-0.1,0-0.2-0.1-0.3l-0.2-0.2c0,0,0-0.1,0-0.1s0-0.1,0-0.1l0.2-0.2c0.1-0.1,0.1-0.2,0.1-0.3l0-0.3c0-0.1,0.1-0.1,0.1-0.2l0.3-0.1
		c0.1,0,0.2-0.1,0.2-0.2l0.2-0.2c0.1,0,0.1,0,0.2-0.1l0.3,0.1c0.1,0,0.2,0,0.3,0l0.3-0.1c0.1,0,0.1,0,0.2,0.1l0.2,0.2
		c0.1,0.1,0.1,0.1,0.2,0.2l0.3,0.1c0,0.1,0.1,0.1,0.1,0.2l0,0.3c0,0.1,0,0.2,0.1,0.3l0.2,0.2c0,0,0,0.1,0,0.1s0,0.1,0,0.1L18.6,15.1
		z"/>
</g>
</svg>
