<?xml version="1.0" encoding="utf-8"?>
<!-- Generator: Adobe Illustrator 25.0.0, SVG Export Plug-In . SVG Version: 6.00 Build 0)  -->
<svg version="1.1" id="Calque_1" xmlns="http://www.w3.org/2000/svg" xmlns:xlink="http://www.w3.org/1999/xlink" x="0px" y="0px"
	 viewBox="0 0 24 24" style="enable-background:new 0 0 24 24;" xml:space="preserve">
<g>
	<path d="M22.9,21.9H2.1V1.1c0-0.6-0.4-1-1-1c-0.6,0-1,0.4-1,1v21.8c0,0.6,0.4,1,1,1h21.8c0.6,0,1-0.4,1-1
		C23.9,22.4,23.5,21.9,22.9,21.9z"/>
	<path d="M4.7,20.3h3.7c0.5,0,0.9-0.4,0.9-0.9v-5.2c0-0.5-0.4-0.9-0.9-0.9H4.7c-0.5,0-0.9,0.4-0.9,0.9v5.2
		C3.8,19.9,4.2,20.3,4.7,20.3z M5.6,15.1h1.8v3.3H5.6V15.1z"/>
	<path d="M18.9,20.3h3.7c0.5,0,0.9-0.4,0.9-0.9V1.1c0-0.5-0.4-0.9-0.9-0.9h-3.7c-0.5,0-0.9,0.4-0.9,0.9v18.3
		C18,19.9,18.4,20.3,18.9,20.3z M19.9,2h1.8v16.4h-1.8V2z"/>
	<path d="M11.8,20.3h3.7c0.5,0,0.9-0.4,0.9-0.9V7.8c0-0.5-0.4-0.9-0.9-0.9h-3.7c-0.5,0-0.9,0.4-0.9,0.9v11.6
		C10.9,19.9,11.3,20.3,11.8,20.3z M12.7,8.7h1.8v9.7h-1.8V8.7z"/>
</g>
</svg>
