<?xml version="1.0" encoding="utf-8"?>
<!-- Generator: Adobe Illustrator 24.3.0, SVG Export Plug-In . SVG Version: 6.00 Build 0)  -->
<svg version="1.1" id="Calque_1" xmlns="http://www.w3.org/2000/svg" xmlns:xlink="http://www.w3.org/1999/xlink" x="0px" y="0px"
	 viewBox="0 0 24 24" style="enable-background:new 0 0 24 24;" xml:space="preserve">
<g>
	<g>
		<path d="M0.2,12L0.2,12c0-3.1,1.2-6.1,3.4-8.3c4.6-4.6,12.1-4.6,16.7,0c2.2,2.2,3.4,5.2,3.4,8.3c0,3.1-1.2,6.1-3.4,8.3
			c-2.2,2.2-5.2,3.5-8.3,3.5s-6.1-1.2-8.3-3.4C1.4,18.1,0.2,15.1,0.2,12L0.2,12z M21.8,12c0-2.6-1-5.1-2.9-6.9
			c-3.8-3.8-10-3.8-13.8,0C3.2,6.9,2.2,9.4,2.2,12v0c0,2.6,1,5.1,2.9,6.9c1.8,1.8,4.3,2.9,6.9,2.9s5.1-1,6.9-2.9
			C20.8,17.1,21.8,14.6,21.8,12L21.8,12z"/>
	</g>
	<g>
		<path d="M6.2,14.4c0-0.3,0.1-0.5,0.3-0.7l4.8-4.8c0.2-0.2,0.4-0.3,0.7-0.3c0.3,0,0.5,0.1,0.7,0.3l4.8,4.8c0.4,0.4,0.4,1,0,1.4
			c-0.4,0.4-1,0.4-1.4,0L12,11l-4.1,4.1c-0.4,0.4-1,0.4-1.4,0C6.3,14.9,6.2,14.7,6.2,14.4L6.2,14.4z"/>
	</g>
</g>
</svg>
