<?xml version="1.0" encoding="utf-8"?>
<!-- Generator: Adobe Illustrator 24.3.0, SVG Export Plug-In . SVG Version: 6.00 Build 0)  -->
<svg version="1.1" id="Calque_1" xmlns="http://www.w3.org/2000/svg" xmlns:xlink="http://www.w3.org/1999/xlink" x="0px" y="0px"
	 viewBox="0 0 24 24" style="enable-background:new 0 0 24 24;" xml:space="preserve">
<g>
	<g>
		<path d="M12,0.2L12,0.2c3.1,0,6.1,1.2,8.3,3.4c4.6,4.6,4.6,12.1,0,16.7c-2.2,2.2-5.2,3.4-8.3,3.4c-3.1,0-6.1-1.2-8.3-3.4
			c-2.2-2.2-3.5-5.2-3.5-8.3s1.2-6.1,3.4-8.3C5.9,1.4,8.9,0.2,12,0.2L12,0.2z M12,21.8c2.6,0,5.1-1,6.9-2.9c3.8-3.8,3.8-10,0-13.8
			c-1.8-1.8-4.3-2.9-6.9-2.9h0c-2.6,0-5.1,1-6.9,2.9C3.2,6.9,2.2,9.4,2.2,12s1,5.1,2.9,6.9C6.9,20.8,9.4,21.8,12,21.8L12,21.8z"/>
	</g>
	<g>
		<path d="M9.6,6.2c0.3,0,0.5,0.1,0.7,0.3l4.8,4.8c0.2,0.2,0.3,0.4,0.3,0.7c0,0.3-0.1,0.5-0.3,0.7l-4.8,4.8c-0.4,0.4-1,0.4-1.4,0
			c-0.4-0.4-0.4-1,0-1.4L13,12L8.9,7.9c-0.4-0.4-0.4-1,0-1.4C9.1,6.3,9.3,6.2,9.6,6.2L9.6,6.2z"/>
	</g>
</g>
</svg>
