<?xml version="1.0" encoding="utf-8"?>
<!-- Generator: Adobe Illustrator 24.3.0, SVG Export Plug-In . SVG Version: 6.00 Build 0)  -->
<svg version="1.1" id="Calque_1" xmlns="http://www.w3.org/2000/svg" xmlns:xlink="http://www.w3.org/1999/xlink" x="0px" y="0px"
	 viewBox="0 0 24 24" style="enable-background:new 0 0 24 24;" xml:space="preserve">
<g>
	<g>
		<path d="M12,23.8L12,23.8c-3.1,0-6.1-1.2-8.3-3.4c-4.6-4.6-4.6-12.1,0-16.7C5.9,1.4,8.9,0.2,12,0.2c3.1,0,6.1,1.2,8.3,3.4
			c2.2,2.2,3.5,5.2,3.5,8.3s-1.2,6.1-3.4,8.3C18.1,22.6,15.1,23.8,12,23.8L12,23.8z M12,2.2c-2.6,0-5.1,1-6.9,2.9
			c-3.8,3.8-3.8,10,0,13.8c1.8,1.8,4.3,2.9,6.9,2.9h0c2.6,0,5.1-1,6.9-2.9c1.8-1.8,2.9-4.3,2.9-6.9s-1-5.1-2.9-6.9
			C17.1,3.2,14.6,2.2,12,2.2L12,2.2z"/>
	</g>
	<g>
		<path d="M14.4,17.8c-0.3,0-0.5-0.1-0.7-0.3l-4.8-4.8c-0.2-0.2-0.3-0.4-0.3-0.7c0-0.3,0.1-0.5,0.3-0.7l4.8-4.8c0.4-0.4,1-0.4,1.4,0
			c0.4,0.4,0.4,1,0,1.4L11,12l4.1,4.1c0.4,0.4,0.4,1,0,1.4C14.9,17.7,14.7,17.8,14.4,17.8L14.4,17.8z"/>
	</g>
</g>
</svg>
