<?xml version="1.0" encoding="utf-8"?>
<!-- Generator: Adobe Illustrator 24.3.0, SVG Export Plug-In . SVG Version: 6.00 Build 0)  -->
<svg version="1.1" id="Calque_1" xmlns="http://www.w3.org/2000/svg" xmlns:xlink="http://www.w3.org/1999/xlink" x="0px" y="0px"
	 viewBox="0 0 24 24" style="enable-background:new 0 0 24 24;" xml:space="preserve">
<g>
	<g>
		<path d="M23.8,12L23.8,12c0,3.1-1.2,6.1-3.4,8.3c-4.6,4.6-12.1,4.6-16.7,0c-2.2-2.2-3.4-5.2-3.4-8.3c0-3.1,1.2-6.1,3.4-8.3
			C5.9,1.5,8.9,0.2,12,0.2s6.1,1.2,8.3,3.4C22.6,5.9,23.8,8.9,23.8,12L23.8,12z M2.2,12c0,2.6,1,5.1,2.9,6.9c3.8,3.8,10,3.8,13.8,0
			c1.8-1.8,2.9-4.3,2.9-6.9v0c0-2.6-1-5.1-2.9-6.9c-1.8-1.8-4.3-2.9-6.9-2.9s-5.1,1-6.9,2.9C3.2,6.9,2.2,9.4,2.2,12L2.2,12z"/>
	</g>
	<g>
		<path d="M17.8,9.6c0,0.3-0.1,0.5-0.3,0.7l-4.8,4.8c-0.2,0.2-0.4,0.3-0.7,0.3c-0.3,0-0.5-0.1-0.7-0.3l-4.8-4.8
			c-0.4-0.4-0.4-1,0-1.4c0.4-0.4,1-0.4,1.4,0L12,13l4.1-4.1c0.4-0.4,1-0.4,1.4,0C17.7,9.1,17.8,9.3,17.8,9.6L17.8,9.6z"/>
	</g>
</g>
</svg>
