<?xml version="1.0" encoding="utf-8"?>
<!-- Generator: Adobe Illustrator 25.0.0, SVG Export Plug-In . SVG Version: 6.00 Build 0)  -->
<svg version="1.1" id="Calque_1" xmlns="http://www.w3.org/2000/svg" xmlns:xlink="http://www.w3.org/1999/xlink" x="0px" y="0px"
	 viewBox="0 0 24 24" style="enable-background:new 0 0 24 24;" xml:space="preserve">
<path d="M23.6,4.9c0.1-0.5-0.1-1-0.4-1.4c-0.3-0.4-0.8-0.7-1.3-0.8L3.2,0C2.1-0.2,1.1,0.6,1,1.6L0.4,5.5C0.4,6,0.5,6.5,0.8,6.9
	c0.3,0.4,0.8,0.7,1.3,0.8l11.1,1.6H2.3c-1.1,0-1.9,0.9-1.9,1.9v10.8c0,1.1,0.9,1.9,1.9,1.9h19c1.1,0,1.9-0.9,1.9-1.9V11.3
	c0-0.6-0.3-1.1-0.7-1.4c0.3-0.3,0.4-0.6,0.5-1L23.6,4.9z M6.5,6.1L4.8,2.2l3.3,0.5l1.8,4.1L6.5,6.3C6.5,6.3,6.5,6.2,6.5,6.1z
	 M11,6.7L9.2,2.9l3.3,0.5l1.8,4.1L11,7C11,6.9,11,6.8,11,6.7z M15.4,7.4l-1.7-3.9L17.1,4l1.8,4.1l-3.4-0.5
	C15.5,7.6,15.5,7.5,15.4,7.4z M19.9,8.1l-1.7-3.9l3.4,0.5l-0.6,3.8L20,8.3C20,8.2,20,8.1,19.9,8.1z M2.9,2l0.7,0.1l1.8,4.1l-3-0.4
	L2.9,2z M9.6,11.3l-2.1,3.3c0,0,0,0.1,0,0.1H4.1l2.1-3.4L9.6,11.3z M10.7,11.3l3.4,0L12,14.6c0,0,0,0.1,0,0.1H8.6L10.7,11.3z
	 M15.3,11.3l3.4,0l-2.1,3.3c0,0,0,0.1,0,0.1h-3.4L15.3,11.3z M19.9,11.3l1.4,0v3.5h-3.5L19.9,11.3z M5,11.3l-2.1,3.3
	c0,0,0,0.1,0,0.1H2.3l0-3.4L5,11.3z M2.4,22.1l0-6.4h18.9V22L2.4,22.1z"/>
</svg>
