<?xml version="1.0" encoding="utf-8"?>
<!-- Generator: Adobe Illustrator 25.0.0, SVG Export Plug-In . SVG Version: 6.00 Build 0)  -->
<svg version="1.1" id="Calque_1" xmlns="http://www.w3.org/2000/svg" xmlns:xlink="http://www.w3.org/1999/xlink" x="0px" y="0px"
	 viewBox="0 0 24 24" style="enable-background:new 0 0 24 24;" xml:space="preserve">
<g>
	<path d="M12,3.8c-0.6,0-1,0.4-1,1v6.8l-2.7,2.7c-0.4,0.4-0.4,1,0,1.4C8.5,15.9,8.7,16,9,16c0.3,0,0.5-0.1,0.7-0.3l2.9-2.9
		c0,0,0,0,0-0.1c0.2-0.2,0.4-0.4,0.4-0.8V4.8C13,4.2,12.6,3.8,12,3.8z"/>
	<path d="M23.7,12C23.7,12,23.7,12,23.7,12c0-6.4-5.2-11.7-11.7-11.7C5.6,0.3,0.3,5.6,0.3,12c0,0,0,0,0,0c0,0,0,0,0,0c0,0,0,0,0,0
		c0,6.4,5.2,11.7,11.7,11.7C18.4,23.7,23.7,18.4,23.7,12C23.7,12,23.7,12,23.7,12C23.7,12,23.7,12,23.7,12z M17.3,20.1L17,19.6
		c-0.1-0.2-0.4-0.3-0.7-0.2c-0.2,0.1-0.3,0.4-0.2,0.7l0.3,0.5c-1.1,0.5-2.2,0.9-3.5,1C12.8,21.3,12.4,21,12,21s-0.8,0.2-0.9,0.6
		c-1.2-0.1-2.4-0.5-3.5-1l0.3-0.5c0.1-0.2,0.1-0.5-0.2-0.7c-0.2-0.1-0.5-0.1-0.7,0.2l-0.3,0.5c-1.1-0.7-2.1-1.7-2.8-2.8L4.4,17
		c0.2-0.1,0.3-0.4,0.2-0.7c-0.1-0.2-0.4-0.3-0.7-0.2l-0.5,0.3c-0.5-1.1-0.9-2.2-1-3.5C2.7,12.8,3,12.4,3,12c0-0.4-0.2-0.8-0.6-0.9
		c0.1-1.2,0.5-2.4,1-3.5l0.5,0.3C4,7.9,4,7.9,4.1,7.9c0.2,0,0.3-0.1,0.4-0.3C4.7,7.5,4.6,7.2,4.4,7L3.9,6.7c0.7-1.1,1.7-2.1,2.8-2.8
		L7,4.4c0.1,0.2,0.3,0.3,0.4,0.3c0.1,0,0.2,0,0.2-0.1C7.9,4.4,8,4.1,7.9,3.9L7.6,3.4c1.1-0.5,2.2-0.9,3.5-1C11.2,2.7,11.6,3,12,3
		s0.8-0.2,0.9-0.6c1.2,0.1,2.4,0.5,3.5,1l-0.3,0.5c-0.1,0.2-0.1,0.5,0.2,0.7c0.1,0,0.2,0.1,0.2,0.1c0.2,0,0.3-0.1,0.4-0.3l0.3-0.5
		c1.1,0.7,2.1,1.7,2.8,2.8L19.6,7c-0.2,0.1-0.3,0.4-0.2,0.7c0.1,0.2,0.3,0.2,0.4,0.2c0.1,0,0.2,0,0.2-0.1l0.5-0.3
		c0.5,1.1,0.9,2.2,1,3.5C21.3,11.2,21,11.6,21,12c0,0.4,0.2,0.8,0.6,0.9c-0.1,1.2-0.5,2.4-1,3.5l-0.5-0.3c-0.2-0.1-0.5-0.1-0.7,0.2
		c-0.1,0.2-0.1,0.5,0.2,0.7l0.5,0.3C19.4,18.4,18.4,19.4,17.3,20.1z"/>
</g>
</svg>
