<?xml version="1.0" encoding="utf-8"?>
<!-- Generator: Adobe Illustrator 25.0.0, SVG Export Plug-In . SVG Version: 6.00 Build 0)  -->
<svg version="1.1" id="Calque_1" xmlns="http://www.w3.org/2000/svg" xmlns:xlink="http://www.w3.org/1999/xlink" x="0px" y="0px"
	 viewBox="0 0 24 24" style="enable-background:new 0 0 24 24;" xml:space="preserve">
<path d="M19.8,6.8c-0.2,0-0.4,0-0.6,0C18.5,5.1,16.8,4,14.9,4c-2.1,0-3.9,1.4-4.5,3.4c-0.3-0.1-0.7-0.1-1-0.1
	c-2.6,0-4.8,1.9-5.3,4.4c-2.3,0-4.1,1.9-4.1,4.2c0,1.8,1.2,3.5,2.9,4C3.3,19.9,3.7,20,4.1,20h11.3c0.4,0,0.9-0.1,1.2-0.2
	c2-0.6,3.3-2.4,3.3-4.5c0-0.1,0-0.1,0-0.2H20c0.4,0,0.8-0.1,1.1-0.2c1.7-0.5,2.9-2.1,2.9-4C24,8.7,22.1,6.8,19.8,6.8z M16.1,18.3
	c-0.2,0.1-0.5,0.1-0.7,0.1H4.1c-0.2,0-0.4,0-0.7-0.1C2.4,18,1.6,17,1.6,15.8c0-1.4,1.1-2.6,2.6-2.6c0.2,0,0.3,0,0.5,0.1l0.9,0.2l0-1
	c0-2,1.7-3.7,3.8-3.7c1.8,0,3.3,1.2,3.7,2.9l0.2,0.9l0.8-0.3c0.3-0.1,0.7-0.2,1.1-0.2c1.7,0,3.1,1.4,3.1,3.1
	C18.3,16.6,17.4,17.8,16.1,18.3z M20.6,13.4c-0.2,0.1-0.4,0.1-0.6,0.1h-0.4c-0.7-1.7-2.4-3-4.4-3c-0.3,0-0.5,0-0.8,0.1
	c-0.5-1.2-1.4-2.1-2.5-2.7c0.4-1.3,1.6-2.3,3-2.3c1.4,0,2.7,1,3,2.4l0.2,0.9L19,8.6c0.3-0.1,0.6-0.2,0.9-0.2c1.4,0,2.5,1.1,2.5,2.5
	C22.4,12.1,21.7,13.1,20.6,13.4z"/>
</svg>
