<?xml version="1.0" encoding="utf-8"?>
<!-- Generator: Adobe Illustrator 24.3.0, SVG Export Plug-In . SVG Version: 6.00 Build 0)  -->
<svg version="1.1" id="Calque_1" xmlns="http://www.w3.org/2000/svg" xmlns:xlink="http://www.w3.org/1999/xlink" x="0px" y="0px"
	 viewBox="0 0 24 24" style="enable-background:new 0 0 24 24;" xml:space="preserve">
<g>
	<g>
		<path d="M18.9,20H4.6C2,20,0,18,0,15.5c0-2.5,2-4.6,4.6-4.6h0c0-0.1,0-0.1,0-0.2C4.6,7,7.6,4,11.3,4c3.1,0,5.8,2.1,6.5,5
			c0.2,0,0.4,0,0.6,0c3,0,5.5,2.5,5.5,5.5c0,1.5-0.7,3-1.8,4.1C21.4,19.5,20.2,20,18.9,20L18.9,20z M4.6,12.9
			c-1.4,0-2.6,1.2-2.6,2.6c0,1.4,1.2,2.6,2.6,2.6h14.3c0.7,0,1.4-0.3,1.9-0.9c0.8-0.8,1.2-1.7,1.2-2.7c0-2-1.6-3.6-3.6-3.6
			c-0.4,0-0.7,0.1-1.1,0.2c-0.3,0.1-0.6,0-0.8-0.1c-0.2-0.2-0.4-0.4-0.4-0.7c-0.2-2.5-2.3-4.4-4.8-4.4c-2.7,0-4.8,2.2-4.8,4.8
			c0,0.3,0,0.6,0.1,0.9c0.1,0.3,0,0.6-0.2,0.8c-0.2,0.2-0.5,0.4-0.7,0.4H4.6L4.6,12.9z"/>
	</g>
</g>
</svg>
