<?xml version="1.0" encoding="utf-8"?>
<!-- Generator: Adobe Illustrator 25.0.0, SVG Export Plug-In . SVG Version: 6.00 Build 0)  -->
<svg version="1.1" id="Calque_1" xmlns="http://www.w3.org/2000/svg" xmlns:xlink="http://www.w3.org/1999/xlink" x="0px" y="0px"
	 viewBox="0 0 24 24" style="enable-background:new 0 0 24 24;" xml:space="preserve">
<path d="M22.9,14.1c0-2.9-2.1-5.4-4.9-6c0.2-0.6,0.3-1.2,0.3-1.8c0-3.4-2.8-6.1-6.3-6.1C8.5,0.2,5.7,3,5.7,6.3
	c0,0.6,0.1,1.2,0.3,1.8c-2.8,0.6-4.9,3.1-4.9,6c0,3.4,2.8,6.1,6.3,6.1c1,0,2-0.3,2.9-0.7c-0.7,1.1-1.7,2-3,2.4
	c-0.4,0.2-0.7,0.6-0.6,1.1c0.1,0.5,0.5,0.8,0.9,0.8h8.8c0.5,0,0.9-0.3,0.9-0.8c0.1-0.5-0.2-0.9-0.6-1.1c-1.2-0.4-2.3-1.3-3-2.4
	c0.9,0.5,1.9,0.7,2.9,0.7C20.1,20.2,22.9,17.5,22.9,14.1z M3,14.1C3,11.8,5,9.9,7.3,9.9c0.4,0,0.7-0.2,0.9-0.5c0.2-0.3,0.2-0.7,0-1
	C7.9,7.8,7.7,7.1,7.7,6.3C7.7,4,9.6,2.1,12,2.1c2.4,0,4.3,1.9,4.3,4.2c0,0.7-0.2,1.5-0.6,2.1c-0.2,0.3-0.2,0.7,0,1
	c0.2,0.3,0.5,0.5,0.9,0.5c2.4,0,4.3,1.9,4.3,4.2c0,2.3-1.9,4.2-4.3,4.2c-1.6,0-3-0.8-3.8-2.1c-0.2-0.3-0.5-0.5-0.8-0.5
	c-0.3,0-0.7,0.2-0.8,0.5c-0.8,1.3-2.2,2.1-3.8,2.1C5,18.3,3,16.4,3,14.1z M10.9,21.9c0.4-0.4,0.8-0.9,1.1-1.5c0.3,0.5,0.7,1,1.1,1.5
	H10.9z"/>
</svg>
