<?xml version="1.0" encoding="utf-8"?>
<!-- Generator: Adobe Illustrator 25.0.0, SVG Export Plug-In . SVG Version: 6.00 Build 0)  -->
<svg version="1.1" id="Calque_1" xmlns="http://www.w3.org/2000/svg" xmlns:xlink="http://www.w3.org/1999/xlink" x="0px" y="0px"
	 viewBox="0 0 24 24" style="enable-background:new 0 0 24 24;" xml:space="preserve">
<g>
	<g>
		<g>
			<path d="M18.4,17.6c-0.3,0-0.5-0.1-0.7-0.3c-0.4-0.4-0.4-1,0-1.4l3.9-3.9l-3.9-3.9c-0.4-0.4-0.4-1,0-1.4c0.4-0.4,1-0.4,1.4,0
				l4.6,4.6c0.4,0.4,0.4,1,0,1.4l-4.6,4.6C18.9,17.5,18.6,17.6,18.4,17.6L18.4,17.6z"/>
		</g>
		<g>
			<path d="M5.6,17.6c-0.3,0-0.5-0.1-0.7-0.3l-4.6-4.6c-0.4-0.4-0.4-1,0-1.4l4.6-4.6c0.4-0.4,1-0.4,1.4,0c0.4,0.4,0.4,1,0,1.4
				L2.5,12l3.9,3.9c0.4,0.4,0.4,1,0,1.4C6.1,17.5,5.9,17.6,5.6,17.6L5.6,17.6z"/>
		</g>
	</g>
	<g>
		<path d="M8.3,23.1c-0.1,0-0.2,0-0.3-0.1c-0.5-0.2-0.8-0.8-0.6-1.3l7.5-20.2C15,1.1,15.6,0.8,16.1,1c0.5,0.2,0.8,0.8,0.6,1.3
			L9.2,22.4C9,22.8,8.7,23.1,8.3,23.1L8.3,23.1z"/>
	</g>
</g>
</svg>
