<?xml version="1.0" encoding="utf-8"?>
<!-- Generator: Adobe Illustrator 25.0.0, SVG Export Plug-In . SVG Version: 6.00 Build 0)  -->
<svg version="1.1" id="Calque_1" xmlns="http://www.w3.org/2000/svg" xmlns:xlink="http://www.w3.org/1999/xlink" x="0px" y="0px"
	 viewBox="0 0 24 24" style="enable-background:new 0 0 24 24;" xml:space="preserve">
<g>
	<path d="M21.1,2.5H2.9c-1.1,0-2,0.9-2,2v11.2c0,1.1,0.9,2,2,2h2.3v2.7c0,0.4,0.2,0.7,0.6,0.9c0.1,0.1,0.3,0.1,0.4,0.1
		c0.2,0,0.4-0.1,0.6-0.2l4.5-3.5h9.9c1.1,0,2-0.9,2-2V4.5C23.1,3.4,22.2,2.5,21.1,2.5z M21.1,15.8H10.9c-0.2,0-0.4,0.1-0.6,0.2
		l-3.1,2.5v-1.7c0-0.6-0.4-1-1-1H2.9V4.5h18.2V15.8z"/>
	<path d="M6.6,9h11.2c0.3,0,0.5-0.2,0.5-0.5c0-0.3-0.2-0.5-0.5-0.5H6.6C6.3,8,6.1,8.2,6.1,8.5C6.1,8.8,6.3,9,6.6,9z"/>
	<path d="M6.6,12.1h11.2c0.3,0,0.5-0.2,0.5-0.5c0-0.3-0.2-0.5-0.5-0.5H6.6c-0.3,0-0.5,0.2-0.5,0.5C6.1,11.9,6.3,12.1,6.6,12.1z"/>
</g>
</svg>
