<?xml version="1.0" encoding="utf-8"?>
<!-- Generator: Adobe Illustrator 25.0.0, SVG Export Plug-In . SVG Version: 6.00 Build 0)  -->
<svg version="1.1" id="Calque_1" xmlns="http://www.w3.org/2000/svg" xmlns:xlink="http://www.w3.org/1999/xlink" x="0px" y="0px"
	 viewBox="0 0 24 24" style="enable-background:new 0 0 24 24;" xml:space="preserve">
<path d="M20.3,3.7c-2.2-2.2-5.2-3.4-8.3-3.4c-3.1,0-6.1,1.2-8.3,3.4C1.5,5.9,0.2,8.9,0.2,12c0,3.1,1.2,6.1,3.4,8.3
	c2.2,2.2,5.2,3.4,8.3,3.4c3.1,0,6.1-1.2,8.3-3.5C24.9,15.7,24.9,8.3,20.3,3.7z M14.5,21.4l-1.4-6.7c0.2-0.1,0.4-0.2,0.6-0.3l4.8,4.8
	C17.4,20.3,16,21.1,14.5,21.4z M12.7,12.7c-0.4,0.4-1,0.4-1.3,0c-0.4-0.4-0.4-1,0-1.3c0.2-0.2,0.4-0.3,0.7-0.3
	c0.3,0,0.5,0.1,0.7,0.3C13,11.7,13,12.3,12.7,12.7z M10.3,9.6L5.5,4.8c1.2-1.1,2.6-1.8,4.1-2.2L11,9.3C10.7,9.4,10.5,9.5,10.3,9.6z
	 M5.1,18.9c-1.8-1.8-2.9-4.3-2.9-6.9c0-2.4,0.9-4.7,2.5-6.5l4.8,4.8c-0.8,1.1-0.7,2.7,0.3,3.8c0.6,0.6,1.3,0.9,2.1,0.9
	c0,0,0.1,0,0.1,0l1.4,6.7c-0.5,0.1-1,0.1-1.5,0.1C9.4,21.8,6.9,20.8,5.1,18.9z M19.3,18.5l-4.9-4.8c0.8-1.1,0.7-2.7-0.3-3.8
	c-0.6-0.6-1.4-0.8-2.1-0.8l-1.4-6.7c0.5-0.1,1-0.1,1.4-0.1c2.6,0,5.1,1,6.9,2.9C22.6,8.8,22.7,14.7,19.3,18.5z"/>
</svg>
