<?xml version="1.0" encoding="utf-8"?>
<!-- Generator: Adobe Illustrator 24.3.0, SVG Export Plug-In . SVG Version: 6.00 Build 0)  -->
<svg version="1.1" id="Calque_1" xmlns="http://www.w3.org/2000/svg" xmlns:xlink="http://www.w3.org/1999/xlink" x="0px" y="0px"
	 viewBox="0 0 24 24" style="enable-background:new 0 0 24 24;" xml:space="preserve">
<path d="M12,0.2C5.5,0.2,0.2,5.5,0.2,12S5.5,23.8,12,23.8c6.5,0,11.8-5.3,11.8-11.8S18.5,0.2,12,0.2z M12.5,21.7V20
	c0-0.3-0.2-0.5-0.5-0.5c-0.3,0-0.5,0.2-0.5,0.5v1.7c-4.9-0.3-8.9-4.2-9.2-9.2H4c0.3,0,0.5-0.2,0.5-0.5c0-0.3-0.2-0.5-0.5-0.5H2.3
	c0.3-4.9,4.2-8.9,9.2-9.2V4c0,0.3,0.2,0.5,0.5,0.5c0.3,0,0.5-0.2,0.5-0.5V2.3c4.9,0.3,8.9,4.2,9.2,9.2h-0.5L16,9.7
	c-0.8-1.2-2.1-2-3.6-2C10,7.7,8.1,9.6,8.1,12c0,2.4,1.9,4.3,4.3,4.3c1.5,0,2.8-0.8,3.6-2l5.1-1.8h0.5C21.4,17.5,17.5,21.4,12.5,21.7
	z M14.6,12c0,1.2-1,2.2-2.2,2.2c-1.2,0-2.2-1-2.2-2.2c0-1.2,1-2.2,2.2-2.2C13.6,9.8,14.6,10.8,14.6,12z"/>
</svg>
