<?xml version="1.0" encoding="utf-8"?>
<!-- Generator: Adobe Illustrator 25.0.0, SVG Export Plug-In . SVG Version: 6.00 Build 0)  -->
<svg version="1.1" id="Calque_1" xmlns="http://www.w3.org/2000/svg" xmlns:xlink="http://www.w3.org/1999/xlink" x="0px" y="0px"
	 viewBox="0 0 24 24" style="enable-background:new 0 0 24 24;" xml:space="preserve">
<path d="M22.6,11h-3.7c-0.2-1.2-0.6-2.2-1.3-3.1l2.7-2.7c0.4-0.4,0.4-1,0-1.4c-0.4-0.4-1-0.4-1.4,0l-2.7,2.7c-0.9-0.7-2-1.1-3.1-1.3
	V1.4c0-0.6-0.4-1-1-1c-0.6,0-1,0.4-1,1v3.7C9.8,5.3,8.8,5.8,7.9,6.5L5.2,3.8c-0.4-0.4-1-0.4-1.4,0c-0.4,0.4-0.4,1,0,1.4l2.7,2.7
	c-0.7,0.9-1.1,2-1.3,3.1H1.4c-0.6,0-1,0.4-1,1c0,0.6,0.4,1,1,1h3.7c0.2,1.2,0.6,2.2,1.3,3.1l-2.7,2.7c-0.4,0.4-0.4,1,0,1.4
	c0.2,0.2,0.5,0.3,0.7,0.3c0.3,0,0.5-0.1,0.7-0.3l2.7-2.7c0.9,0.7,2,1.1,3.1,1.3v3.7c0,0.6,0.4,1,1,1c0.6,0,1-0.4,1-1v-3.7
	c1.2-0.2,2.2-0.6,3.1-1.3l2.7,2.7c0.2,0.2,0.5,0.3,0.7,0.3c0.3,0,0.5-0.1,0.7-0.3c0.4-0.4,0.4-1,0-1.4l-2.7-2.7
	c0.7-0.9,1.1-2,1.3-3.1h3.7c0.6,0,1-0.4,1-1C23.6,11.4,23.1,11,22.6,11z M12,16.9V7.1c2.7,0,4.9,2.2,4.9,4.9S14.7,16.9,12,16.9z"/>
</svg>
