<?xml version="1.0" encoding="utf-8"?>
<!-- Generator: Adobe Illustrator 25.0.0, SVG Export Plug-In . SVG Version: 6.00 Build 0)  -->
<svg version="1.1" id="Calque_1" xmlns="http://www.w3.org/2000/svg" xmlns:xlink="http://www.w3.org/1999/xlink" x="0px" y="0px"
	 viewBox="0 0 24 24" style="enable-background:new 0 0 24 24;" xml:space="preserve">
<g>
	<path d="M9.9,11H8.4V9.5c0-0.6-0.4-1-1-1c-0.6,0-1,0.4-1,1V11H4.9c-0.6,0-1,0.4-1,1c0,0.6,0.4,1,1,1h1.5v1.5c0,0.6,0.4,1,1,1
		c0.6,0,1-0.4,1-1V13h1.5c0.6,0,1-0.4,1-1C10.9,11.4,10.5,11,9.9,11z"/>
	<path d="M17.2,5.2H6.8C3,5.2,0,8.3,0,12c0,3.7,3,6.8,6.8,6.8h10.5c3.7,0,6.8-3,6.8-6.8C24,8.3,21,5.2,17.2,5.2z M17.2,16.8H6.8
		C4.1,16.8,2,14.6,2,12c0-2.6,2.1-4.8,4.8-4.8h10.5c2.6,0,4.8,2.1,4.8,4.8C22,14.6,19.9,16.8,17.2,16.8z"/>
	<path d="M17,11.1c0.6,0,1.2-0.5,1.2-1.2c0-0.6-0.5-1.2-1.2-1.2c-0.7,0-1.2,0.5-1.2,1.2C15.8,10.5,16.4,11.1,17,11.1z"/>
	<path d="M17,12.9c-0.7,0-1.2,0.5-1.2,1.2c0,0.7,0.5,1.2,1.2,1.2c0.6,0,1.2-0.5,1.2-1.2C18.2,13.5,17.7,12.9,17,12.9z"/>
	<path d="M19.1,10.8c-0.7,0-1.2,0.5-1.2,1.2c0,0.6,0.5,1.2,1.2,1.2c0.6,0,1.2-0.5,1.2-1.2C20.3,11.3,19.8,10.8,19.1,10.8z"/>
	<path d="M14.9,10.8c-0.7,0-1.2,0.5-1.2,1.2c0,0.6,0.5,1.2,1.2,1.2c0.6,0,1.2-0.5,1.2-1.2C16.1,11.3,15.5,10.8,14.9,10.8z"/>
</g>
</svg>
