<?xml version="1.0" encoding="utf-8"?>
<!-- Generator: Adobe Illustrator 25.0.0, SVG Export Plug-In . SVG Version: 6.00 Build 0)  -->
<svg version="1.1" id="Calque_1" xmlns="http://www.w3.org/2000/svg" xmlns:xlink="http://www.w3.org/1999/xlink" x="0px" y="0px"
	 viewBox="0 0 24 24" style="enable-background:new 0 0 24 24;" xml:space="preserve">
<g>
	<path d="M1.6,10.6h1.7v7.3H2.7c-0.5,0-0.9,0.4-0.9,0.9c0,0.5,0.4,0.9,0.9,0.9h18.5c0.5,0,0.9-0.4,0.9-0.9c0-0.5-0.4-0.9-0.9-0.9
		h-0.6v-7.3h1.7c0.4,0,0.8-0.3,0.9-0.6c0.1-0.4,0-0.8-0.4-1L12.5,1.8c-0.3-0.2-0.7-0.2-1,0L1,9c-0.3,0.2-0.5,0.6-0.4,1
		C0.8,10.4,1.2,10.6,1.6,10.6z M5.1,10.6h2.1v7.3H5.1V10.6z M15,10.6v7.3h-2.1v-7.3H15z M11.1,17.9H9v-7.3h2.1V17.9z M18.9,17.9
		h-2.1v-7.3h2.1V17.9z M12,3.7l7.5,5.1h-15L12,3.7z"/>
	<path d="M23.1,20.5H0.9c-0.5,0-0.9,0.4-0.9,0.9c0,0.5,0.4,0.9,0.9,0.9h22.2c0.5,0,0.9-0.4,0.9-0.9C24,20.9,23.6,20.5,23.1,20.5z"/>
</g>
</svg>
