<?xml version="1.0" encoding="utf-8"?>
<!-- Generator: Adobe Illustrator 25.0.0, SVG Export Plug-In . SVG Version: 6.00 Build 0)  -->
<svg version="1.1" id="Calque_1" xmlns="http://www.w3.org/2000/svg" xmlns:xlink="http://www.w3.org/1999/xlink" x="0px" y="0px"
	 viewBox="0 0 24 24" style="enable-background:new 0 0 24 24;" xml:space="preserve">
<g>
	<path d="M21.2,3.6H2.8C1.5,3.6,0.4,4.7,0.4,6v2.9c0,0,0,0.1,0,0.1s0,0.1,0,0.1V18c0,1.3,1.1,2.4,2.4,2.4h18.4
		c1.3,0,2.4-1.1,2.4-2.4V6C23.6,4.7,22.5,3.6,21.2,3.6z M2.8,5.6h18.4c0.2,0,0.4,0.2,0.4,0.4v2H2.4V6C2.4,5.8,2.6,5.6,2.8,5.6z
		 M21.2,18.4H2.8c-0.2,0-0.4-0.2-0.4-0.4v-8h19.1v8C21.6,18.2,21.4,18.4,21.2,18.4z"/>
	<rect x="4.5" y="13.1" width="2.4" height="2"/>
</g>
</svg>
