<?xml version="1.0" encoding="utf-8"?>
<!-- Generator: Adobe Illustrator 25.0.0, SVG Export Plug-In . SVG Version: 6.00 Build 0)  -->
<svg version="1.1" id="Calque_1" xmlns="http://www.w3.org/2000/svg" xmlns:xlink="http://www.w3.org/1999/xlink" x="0px" y="0px"
	 viewBox="0 0 24 24" style="enable-background:new 0 0 24 24;" xml:space="preserve">
<g>
	<path d="M8.8,0.1H1c-0.6,0-1,0.4-1,1v7.8c0,0.6,0.4,1,1,1c0.6,0,1-0.4,1-1V2.1h6.8c0.6,0,1-0.4,1-1C9.8,0.5,9.4,0.1,8.8,0.1z"/>
	<path d="M23,0.1h-7.8c-0.6,0-1,0.4-1,1c0,0.6,0.4,1,1,1H22v6.8c0,0.6,0.4,1,1,1c0.6,0,1-0.4,1-1V1.1C24,0.5,23.5,0.1,23,0.1z"/>
	<path d="M8.8,21.9H2v-6.8c0-0.6-0.4-1-1-1c-0.6,0-1,0.4-1,1v7.8c0,0.6,0.4,1,1,1h7.8c0.6,0,1-0.4,1-1C9.8,22.4,9.4,21.9,8.8,21.9z"
		/>
	<path d="M23,14.1c-0.6,0-1,0.4-1,1v6.8h-6.8c-0.6,0-1,0.4-1,1c0,0.6,0.4,1,1,1H23c0.6,0,1-0.4,1-1v-7.8C24,14.6,23.5,14.1,23,14.1z
		"/>
</g>
</svg>
