<?xml version="1.0" encoding="utf-8"?>
<!-- Generator: Adobe Illustrator 24.3.0, SVG Export Plug-In . SVG Version: 6.00 Build 0)  -->
<svg version="1.1" id="Calque_1" xmlns="http://www.w3.org/2000/svg" xmlns:xlink="http://www.w3.org/1999/xlink" x="0px" y="0px"
	 viewBox="0 0 24 24" style="enable-background:new 0 0 24 24;" xml:space="preserve">
<g>
	<path d="M15.5,8.5c-0.4-0.4-1-0.4-1.4,0L12,10.6L9.9,8.5c-0.4-0.4-1-0.4-1.4,0c-0.4,0.4-0.4,1,0,1.4l2.1,2.1l-2.1,2.1
		c-0.4,0.4-0.4,1,0,1.4c0.2,0.2,0.5,0.3,0.7,0.3c0.3,0,0.5-0.1,0.7-0.3l2.1-2.1l2.1,2.1c0.2,0.2,0.5,0.3,0.7,0.3
		c0.3,0,0.5-0.1,0.7-0.3c0.4-0.4,0.4-1,0-1.4L13.4,12l2.1-2.1C15.9,9.5,15.9,8.9,15.5,8.5z"/>
	<path d="M20.3,3.7c-2.2-2.2-5.2-3.4-8.3-3.4S5.9,1.4,3.7,3.7C1.5,5.9,0.2,8.9,0.2,12c0,3.1,1.2,6.1,3.4,8.3
		c2.2,2.2,5.2,3.4,8.3,3.4c3.1,0,6.1-1.2,8.3-3.4C24.9,15.7,24.9,8.3,20.3,3.7z M18.9,18.9c-1.8,1.8-4.3,2.9-6.9,2.9
		c-2.6,0-5.1-1-6.9-2.9c-1.8-1.8-2.9-4.3-2.9-6.9s1-5.1,2.9-6.9C6.9,3.2,9.4,2.2,12,2.2c2.6,0,5.1,1,6.9,2.9
		C22.7,8.9,22.7,15.1,18.9,18.9z"/>
</g>
</svg>
