<?xml version="1.0" encoding="utf-8"?>
<!-- Generator: Adobe Illustrator 25.0.0, SVG Export Plug-In . SVG Version: 6.00 Build 0)  -->
<svg version="1.1" id="Calque_1" xmlns="http://www.w3.org/2000/svg" xmlns:xlink="http://www.w3.org/1999/xlink" x="0px" y="0px"
	 viewBox="0 0 24 24" style="enable-background:new 0 0 24 24;" xml:space="preserve">
<g>
	<path d="M23,1.7H1c-0.6,0-1,0.4-1,1v14c0,0.6,0.4,1,1,1h7.5v2.5H8.3c-0.6,0-1,0.4-1,1c0,0.6,0.4,1,1,1h7.4c0.6,0,1-0.4,1-1
		c0-0.6-0.4-1-1-1h-0.1v-2.5H23c0.6,0,1-0.4,1-1v-14C24,2.2,23.6,1.7,23,1.7z M13.5,20.3h-3.1v-2.5h3.1V20.3z M22,15.7H2v-12h20
		V15.7z"/>
	<path d="M3,15.2h18c0.3,0,0.5-0.2,0.5-0.5v-10c0-0.3-0.2-0.5-0.5-0.5H3c-0.3,0-0.5,0.2-0.5,0.5v10C2.5,15,2.7,15.2,3,15.2z
		 M3.5,5.2h17v9h-17V5.2z"/>
</g>
</svg>
