<?xml version="1.0" encoding="utf-8"?>
<!-- Generator: Adobe Illustrator 25.0.0, SVG Export Plug-In . SVG Version: 6.00 Build 0)  -->
<svg version="1.1" id="Calque_1" xmlns="http://www.w3.org/2000/svg" xmlns:xlink="http://www.w3.org/1999/xlink" x="0px" y="0px"
	 viewBox="0 0 24 24" style="enable-background:new 0 0 24 24;" xml:space="preserve">
<g>
	<path d="M22.5,6.4C22.5,6.4,22.5,6.4,22.5,6.4c0-0.3-0.2-0.6-0.5-0.7l-9.6-5.5c-0.3-0.2-0.6-0.2-0.9,0L1.9,5.7
		C1.7,5.8,1.5,6.1,1.5,6.3c0,0,0,0,0,0c0,0,0,0,0,0.1v11.1c0,0.3,0.2,0.6,0.5,0.8l9.6,5.5c0,0,0,0,0.1,0c0,0,0.1,0,0.1,0
		c0.1,0,0.2,0.1,0.3,0.1c0.1,0,0.2,0,0.3-0.1c0,0,0.1,0,0.1,0c0,0,0,0,0.1,0l9.6-5.5c0.3-0.2,0.5-0.5,0.5-0.8L22.5,6.4
		C22.5,6.4,22.5,6.4,22.5,6.4z M12,2l7.8,4.5L12,11L4.2,6.5L12,2z M3.3,8.1l7.8,4.5v8.9L3.3,17V8.1z M12.9,21.5v-8.9l7.8-4.5V17
		L12.9,21.5z"/>
	<path d="M11.9,6.9c0.8,0,1.4-0.4,1.4-0.9c0-0.5-0.6-0.9-1.4-0.9c-0.8,0-1.4,0.4-1.4,0.9C10.5,6.5,11.1,6.9,11.9,6.9z"/>
	<path d="M5.1,10.7c-0.5,0.2-0.7,0.9-0.5,1.5c0.2,0.7,0.8,1.1,1.3,0.9c0.5-0.2,0.7-0.9,0.5-1.5C6.2,11,5.6,10.6,5.1,10.7z"/>
	<path d="M9,14.7c0.5-0.2,0.7-0.9,0.5-1.5c-0.2-0.7-0.8-1.1-1.3-0.9c-0.5,0.2-0.7,0.9-0.5,1.5C7.9,14.5,8.5,14.9,9,14.7z"/>
	<path d="M5.1,14.8c-0.5,0.2-0.7,0.9-0.5,1.5C4.9,17,5.5,17.4,6,17.3c0.5-0.2,0.7-0.9,0.5-1.5C6.2,15.1,5.6,14.7,5.1,14.8z"/>
	<path d="M8.1,16.4c-0.5,0.2-0.7,0.9-0.5,1.5C7.9,18.6,8.5,19,9,18.8c0.5-0.2,0.7-0.9,0.5-1.5C9.2,16.6,8.6,16.2,8.1,16.4z"/>
	<path d="M13.9,18c-0.4,0.7-0.4,1.4,0,1.7c0.4,0.3,1.1,0,1.6-0.7c0.4-0.7,0.4-1.4,0-1.7C15,17.1,14.3,17.4,13.9,18z"/>
	<path d="M15.9,14.5c-0.4,0.7-0.4,1.4,0,1.7c0.4,0.3,1.1,0,1.6-0.7c0.4-0.7,0.4-1.4,0-1.7C17.1,13.5,16.4,13.8,15.9,14.5z"/>
	<path d="M17.9,10.9c-0.4,0.7-0.4,1.4,0,1.7s1.1,0,1.6-0.7c0.4-0.7,0.4-1.4,0-1.7C19.1,10,18.4,10.3,17.9,10.9z"/>
</g>
</svg>
