<?xml version="1.0" encoding="utf-8"?>
<!-- Generator: Adobe Illustrator 25.0.0, SVG Export Plug-In . SVG Version: 6.00 Build 0)  -->
<svg version="1.1" id="Calque_1" xmlns="http://www.w3.org/2000/svg" xmlns:xlink="http://www.w3.org/1999/xlink" x="0px" y="0px"
	 viewBox="0 0 24 24" style="enable-background:new 0 0 24 24;" xml:space="preserve">
<path d="M22.1,0.6H9.6c-1.1,0-1.9,0.9-1.9,1.9v5H1.9C0.9,7.6,0,8.4,0,9.5v8.4c0,1.1,0.9,1.9,1.9,1.9h0.9v2.6c0,0.4,0.2,0.7,0.5,0.9
	c0.1,0.1,0.3,0.1,0.4,0.1c0.2,0,0.4-0.1,0.6-0.2l4.3-3.4h5.7c1.1,0,1.9-0.9,1.9-1.9v-4.2l3.2,2.6c0.2,0.1,0.4,0.2,0.6,0.2
	c0.1,0,0.3,0,0.4-0.1c0.3-0.2,0.5-0.5,0.5-0.9v-2.6h0.9c1.1,0,1.9-0.9,1.9-1.9V2.5C24,1.4,23.1,0.6,22.1,0.6z M14.4,17.9H8.4
	c-0.2,0-0.4,0.1-0.6,0.2l-3,2.4v-1.6c0-0.5-0.4-1-1-1H1.9V9.5h12.5V17.9z M22.1,10.9h-1.9c-0.5,0-1,0.4-1,1v1.6l-2.9-2.3V9.5
	c0-1.1-0.9-1.9-1.9-1.9H9.6v-5h12.5V10.9z"/>
</svg>
