<?xml version="1.0" encoding="utf-8"?>
<!-- Generator: Adobe Illustrator 25.0.0, SVG Export Plug-In . SVG Version: 6.00 Build 0)  -->
<svg version="1.1" id="Calque_1" xmlns="http://www.w3.org/2000/svg" xmlns:xlink="http://www.w3.org/1999/xlink" x="0px" y="0px"
	 viewBox="0 0 24 24" style="enable-background:new 0 0 24 24;" xml:space="preserve">
<path d="M22.6,20.2c-0.5-0.2-0.9-0.4-1.3-0.7c2-1.6,3.1-4,2.7-6.3c-0.3-2.2-1.9-4-4.1-4.9c-0.2-0.1-0.4-0.1-0.5,0
	c-0.9-3.6-4.8-6.4-9.5-6.4C4.4,1.7,0,5.3,0,9.6c0,2.7,1.8,5.3,4.6,6.7c-0.4,0.5-1,1-1.7,1.3c-0.4,0.2-0.6,0.6-0.5,1
	c0.1,0.4,0.4,0.7,0.9,0.8c0.2,0,0.5,0,0.7,0c1.9,0,3.5-0.5,4.9-1.5c1.5,2.6,4.8,4,8.3,3.4c0.1,0,0.1,0,0.2,0c1,0.6,2.1,1,3.3,1
	c0.6,0,1.2-0.1,1.9-0.2c0.4-0.1,0.7-0.5,0.7-0.9C23.2,20.7,23,20.3,22.6,20.2z M6.3,17.1c0.1-0.1,0.2-0.3,0.3-0.4
	c0.1-0.1,0.1-0.2,0.2-0.3l0-0.1c0.1-0.2,0.1-0.5,0-0.8c-0.1-0.2-0.3-0.4-0.5-0.5c-2.7-1-4.4-3.1-4.4-5.4c0-3.3,3.5-6,7.8-6
	c4.3,0,7.8,2.7,7.8,6s-3.5,6-7.8,6c-0.2,0-0.4,0-0.6,0c-0.3,0-0.5,0.1-0.7,0.3C7.8,16.4,7.1,16.8,6.3,17.1z M19.3,18.5
	c-0.2,0.1-0.3,0.4-0.4,0.6c-0.1,0.3,0,0.6,0.2,0.8c0.1,0.1,0.1,0.2,0.2,0.3c0,0,0,0,0,0c-0.4-0.1-0.9-0.3-1.2-0.6
	c-0.2-0.2-0.5-0.2-0.8-0.2c-0.2,0-0.3,0.1-0.5,0.1c-2.4,0.4-4.8-0.4-6-2c4.7-0.4,8.4-3.5,8.6-7.3c1.5,0.7,2.4,1.9,2.6,3.3
	C22.4,15.3,21.3,17.3,19.3,18.5z"/>
</svg>
