<?xml version="1.0" encoding="utf-8"?>
<!-- Generator: Adobe Illustrator 24.3.0, SVG Export Plug-In . SVG Version: 6.00 Build 0)  -->
<svg version="1.1" id="Calque_1" xmlns="http://www.w3.org/2000/svg" xmlns:xlink="http://www.w3.org/1999/xlink" x="0px" y="0px"
	 viewBox="0 0 24 24" style="enable-background:new 0 0 24 24;" xml:space="preserve">
<path d="M23.4,9.2c-0.2-0.7-0.6-1.3-1.2-1.7c0-0.2-0.1-0.5-0.2-0.7c-0.3-0.7-0.8-1.3-1.5-1.6c0,0,0,0,0,0c-0.3-0.9-1.1-1.6-2-1.9
	c0-0.1-0.1-0.1-0.1-0.2c-0.3-0.4-0.8-0.8-1.9-0.8c-0.4,0-0.8,0.1-1.3,0.2c-0.3,0.1-0.5,0.2-0.8,0.3c-0.6,0.2-1.4,0.6-2.4,1l-1.5,0.6
	c-0.5,0.2-0.9,0.3-1.3,0.5C9.1,4.8,8.9,4.8,8.8,4.9l0-2.3c0-0.6-0.4-1-1-1l-6.3,0c-0.6,0-1,0.4-1,1l0,12.5c0,0.6,0.4,1,1,1h0l6.3,0
	c0.3,0,0.5-0.1,0.7-0.3c0.1-0.1,0.2-0.3,0.3-0.5c1.5,0.8,3.2,1.9,4,2.7c0.8,1.3,1.1,3,1.1,3.1c0.1,0.3,0.4,1.3,1.9,1.3
	c0.5,0,0.9-0.1,1.1-0.2c0.5-0.1,0.9-0.5,1.2-1.1c0.5-1.1,0.4-2.8-0.3-4.6c-0.1-0.2-0.2-0.5-0.3-0.7c-0.1-0.1-0.1-0.3-0.2-0.4
	c-0.1-0.2-0.2-0.4-0.2-0.6c0.4-0.3,1.5-0.9,3.6-1.5l0.4-0.1c0.8-0.3,1.5-0.8,2-1.6C23.5,10.9,23.6,10,23.4,9.2z M2.5,14.1l0-10.5
	l4.3,0l0,2.2c0,0.1-0.1,0.2-0.1,0.3l0,7.6c0,0.1,0,0.2,0.1,0.3l0,0.1L2.5,14.1z M21.3,10.7c-0.2,0.3-0.4,0.5-0.8,0.6l-0.4,0.1
	c-4.2,1.2-4.7,2.2-4.9,2.6c-0.2,0.4-0.2,0.8-0.1,1.1c0.1,0.3,0.2,0.7,0.4,1.1c0.1,0.2,0.1,0.3,0.2,0.5c0.1,0.2,0.2,0.4,0.3,0.6
	c0.7,1.7,0.5,2.8,0.3,3c-0.1,0-0.3,0.1-0.5,0.1c-0.2-0.7-0.6-2.3-1.4-3.6c0-0.1-0.1-0.1-0.1-0.2c-1.1-1.1-3.7-2.7-5.5-3.6l0-6.1
	c0.3-0.1,0.7-0.2,1.1-0.3c0.5-0.1,1-0.3,1.5-0.5l1.4-0.6c1-0.4,1.9-0.7,2.5-1c0.2-0.1,0.3-0.1,0.5-0.2c0.5-0.2,1-0.1,1-0.1
	c0.1,0.1,0.1,0.2,0.2,0.3c0.2,0.4,0.5,0.6,0.9,0.6c0.4,0,0.7,0.3,0.9,0.6c0,0.1,0,0.1,0,0.2c0,0.4,0.3,0.8,0.8,0.9
	C19.8,7,20,7.2,20.2,7.5c0,0.1,0.1,0.3,0,0.4c-0.1,0.4,0.2,0.8,0.6,1c0.3,0.2,0.6,0.4,0.7,0.8C21.5,10.1,21.5,10.4,21.3,10.7z"/>
</svg>
