<?xml version="1.0" encoding="utf-8"?>
<!-- Generator: Adobe Illustrator 24.3.0, SVG Export Plug-In . SVG Version: 6.00 Build 0)  -->
<svg version="1.1" id="Calque_1" xmlns="http://www.w3.org/2000/svg" xmlns:xlink="http://www.w3.org/1999/xlink" x="0px" y="0px"
	 viewBox="0 0 24 24" style="enable-background:new 0 0 24 24;" xml:space="preserve">
<g>
	<path d="M24,10.8c0,0.3-0.1,0.6-0.3,0.9c-0.5,0.7-1.4,0.8-2.1,0.3L12,5l-9.6,7c-0.7,0.5-1.6,0.3-2.1-0.3c-0.5-0.7-0.3-1.6,0.3-2.1
		L11.1,2c0.5-0.4,1.2-0.4,1.8,0l10.5,7.6C23.8,9.9,24,10.4,24,10.8L24,10.8z"/>
	<path d="M24,20.8c0,0.3-0.1,0.6-0.3,0.9c-0.5,0.7-1.4,0.8-2.1,0.3L12,15l-9.6,7c-0.7,0.5-1.6,0.3-2.1-0.3c-0.5-0.7-0.3-1.6,0.3-2.1
		l10.5-7.6c0.5-0.4,1.2-0.4,1.8,0l10.5,7.6C23.8,19.9,24,20.3,24,20.8L24,20.8z"/>
</g>
</svg>
