<?xml version="1.0" encoding="utf-8"?>
<!-- Generator: Adobe Illustrator 24.3.0, SVG Export Plug-In . SVG Version: 6.00 Build 0)  -->
<svg version="1.1" id="Calque_1" xmlns="http://www.w3.org/2000/svg" xmlns:xlink="http://www.w3.org/1999/xlink" x="0px" y="0px"
	 viewBox="0 0 24 24" style="enable-background:new 0 0 24 24;" xml:space="preserve">
<g>
	<path d="M0,13.2c0-0.3,0.1-0.6,0.3-0.9c0.5-0.7,1.4-0.8,2.1-0.3l9.6,7l9.6-7c0.7-0.5,1.6-0.3,2.1,0.3c0.5,0.7,0.3,1.6-0.3,2.1
		L12.9,22c-0.5,0.4-1.2,0.4-1.8,0L0.6,14.4C0.2,14.1,0,13.6,0,13.2L0,13.2z"/>
	<path d="M0,3.2c0-0.3,0.1-0.6,0.3-0.9C0.8,1.7,1.7,1.5,2.4,2L12,9l9.6-7c0.7-0.5,1.6-0.3,2.1,0.3c0.5,0.7,0.3,1.6-0.3,2.1
		l-10.5,7.6c-0.5,0.4-1.2,0.4-1.8,0L0.6,4.4C0.2,4.1,0,3.7,0,3.2L0,3.2z"/>
</g>
</svg>
