<?xml version="1.0" encoding="utf-8"?>
<!-- Generator: Adobe Illustrator 24.3.0, SVG Export Plug-In . SVG Version: 6.00 Build 0)  -->
<svg version="1.1" id="Calque_1" xmlns="http://www.w3.org/2000/svg" xmlns:xlink="http://www.w3.org/1999/xlink" x="0px" y="0px"
	 viewBox="0 0 24 24" style="enable-background:new 0 0 24 24;" xml:space="preserve">
<g>
	<path d="M13.2,24c-0.3,0-0.6-0.1-0.9-0.3c-0.7-0.5-0.8-1.4-0.3-2.1l7-9.6l-7-9.6c-0.5-0.7-0.3-1.6,0.3-2.1c0.7-0.5,1.6-0.3,2.1,0.3
		L22,11.1c0.4,0.5,0.4,1.2,0,1.8l-7.6,10.5C14.1,23.8,13.6,24,13.2,24L13.2,24z"/>
	<path d="M3.2,24c-0.3,0-0.6-0.1-0.9-0.3c-0.7-0.5-0.8-1.4-0.3-2.1L9,12L2,2.4C1.5,1.7,1.7,0.8,2.3,0.3C3-0.2,3.9-0.1,4.4,0.6
		l7.6,10.5c0.4,0.5,0.4,1.2,0,1.8L4.4,23.4C4.1,23.8,3.7,24,3.2,24L3.2,24z"/>
</g>
</svg>
