<?xml version="1.0" encoding="utf-8"?>
<!-- Generator: Adobe Illustrator 24.3.0, SVG Export Plug-In . SVG Version: 6.00 Build 0)  -->
<svg version="1.1" id="Calque_1" xmlns="http://www.w3.org/2000/svg" xmlns:xlink="http://www.w3.org/1999/xlink" x="0px" y="0px"
	 viewBox="0 0 24 24" style="enable-background:new 0 0 24 24;" xml:space="preserve">
<g>
	<path d="M10.8,0c0.3,0,0.6,0.1,0.9,0.3c0.7,0.5,0.8,1.4,0.3,2.1L5,12l7,9.6c0.5,0.7,0.3,1.6-0.3,2.1c-0.7,0.5-1.6,0.3-2.1-0.3
		L2,12.9c-0.4-0.5-0.4-1.2,0-1.8L9.6,0.6C9.9,0.2,10.4,0,10.8,0L10.8,0z"/>
	<path d="M20.8,0c0.3,0,0.6,0.1,0.9,0.3c0.7,0.5,0.8,1.4,0.3,2.1L15,12l7,9.6c0.5,0.7,0.3,1.6-0.3,2.1c-0.7,0.5-1.6,0.3-2.1-0.3
		l-7.6-10.5c-0.4-0.5-0.4-1.2,0-1.8l7.6-10.5C19.9,0.2,20.3,0,20.8,0L20.8,0z"/>
</g>
</svg>
