<?xml version="1.0" encoding="utf-8"?>
<!-- Generator: Adobe Illustrator 24.3.0, SVG Export Plug-In . SVG Version: 6.00 Build 0)  -->
<svg version="1.1" id="Calque_1" xmlns="http://www.w3.org/2000/svg" xmlns:xlink="http://www.w3.org/1999/xlink" x="0px" y="0px"
	 viewBox="0 0 24 24" style="enable-background:new 0 0 24 24;" xml:space="preserve">
<g>
	<path d="M12,3.4c2.1,2.4,6.4,7.3,6.4,10.8c0,2.9-1.7,7.4-6.4,7.4c-4.7,0-6.4-4.6-6.4-7.5C5.6,10.7,9.8,5.8,12,3.4 M12,0.3
		C12,0.3,12,0.3,12,0.3C12,0.3,12,0.3,12,0.3L12,0.3z M12,0.4c-0.4,0.9-8.4,8.2-8.4,13.9c0,4.3,2.8,9.4,8.4,9.4
		c5.6,0,8.4-5.1,8.4-9.4C20.4,8.5,12.4,1.3,12,0.4L12,0.4z"/>
	<g>
		<path d="M12,19.7C12,19.7,12,19.7,12,19.7c-3.6,0-5-3.5-5-5.8c0-0.2,0.2-0.4,0.4-0.4l0,0c0.2,0,0.4,0.2,0.4,0.4c0,2,1.1,4.9,4.1,5
			c0.2,0,0.4,0.2,0.4,0.4C12.4,19.5,12.2,19.7,12,19.7L12,19.7z"/>
	</g>
</g>
</svg>
