<?xml version="1.0" encoding="utf-8"?>
<!-- Generator: Adobe Illustrator 25.0.0, SVG Export Plug-In . SVG Version: 6.00 Build 0)  -->
<svg version="1.1" id="Calque_1" xmlns="http://www.w3.org/2000/svg" xmlns:xlink="http://www.w3.org/1999/xlink" x="0px" y="0px"
	 viewBox="0 0 24 24" style="enable-background:new 0 0 24 24;" xml:space="preserve">
<g>
	<path d="M3.5,2.1h4.7c0.6,0,1-0.4,1-1s-0.4-1-1-1H1.1c0,0,0,0,0,0c-0.1,0-0.2,0-0.4,0.1c-0.1,0-0.2,0.1-0.3,0.2c0,0,0,0,0,0
		c0,0,0,0,0,0C0.3,0.4,0.2,0.6,0.1,0.7C0.1,0.8,0.1,0.9,0.1,1.1v0v7.1c0,0.6,0.4,1,1,1c0.6,0,1-0.4,1-1V3.5l7.1,7.1
		c0.2,0.2,0.5,0.3,0.7,0.3c0.3,0,0.5-0.1,0.7-0.3c0.4-0.4,0.4-1,0-1.4L3.5,2.1z"/>
	<path d="M23.9,1c0-0.1,0-0.2-0.1-0.3c-0.1-0.1-0.1-0.2-0.2-0.3c0,0,0,0,0,0c0,0,0,0,0,0c-0.1-0.1-0.2-0.2-0.3-0.2
		c-0.1,0-0.2-0.1-0.4-0.1c0,0,0,0,0,0h-7.1c-0.6,0-1,0.4-1,1s0.4,1,1,1h4.7l-7.1,7.2c-0.4,0.4-0.4,1,0,1.4c0.2,0.2,0.5,0.3,0.7,0.3
		c0.3,0,0.5-0.1,0.7-0.3l7.1-7.1v4.7c0,0.6,0.4,1,1,1c0.6,0,1-0.4,1-1L23.9,1C23.9,1,23.9,1,23.9,1z"/>
	<path d="M9.2,13.4l-7.1,7.1v-4.7c0-0.6-0.4-1-1-1c-0.6,0-1,0.4-1,1v7.1v0c0,0.1,0,0.3,0.1,0.4c0,0.1,0.1,0.2,0.2,0.3c0,0,0,0,0,0
		c0,0,0,0,0,0c0.1,0.1,0.2,0.2,0.3,0.2c0.1,0.1,0.3,0.1,0.4,0.1h7.1c0.6,0,1-0.4,1-1s-0.4-1-1-1H3.5l7.1-7.2c0.4-0.4,0.4-1,0-1.4
		C10.2,13,9.6,13,9.2,13.4z"/>
	<path d="M22.9,14.8c-0.6,0-1,0.4-1,1v4.7l-7.1-7.1c-0.4-0.4-1-0.4-1.4,0c-0.4,0.4-0.4,1,0,1.4l7.1,7.2h-4.7c-0.6,0-1,0.4-1,1
		s0.4,1,1,1h7.1c0.1,0,0.3,0,0.4-0.1c0.1,0,0.2-0.1,0.3-0.2c0,0,0,0,0,0c0,0,0,0,0,0c0.1-0.1,0.2-0.2,0.2-0.3c0-0.1,0.1-0.2,0.1-0.3
		c0,0,0,0,0,0v-7.1C23.9,15.3,23.5,14.8,22.9,14.8z"/>
</g>
</svg>
