<?xml version="1.0" encoding="utf-8"?>
<!-- Generator: Adobe Illustrator 25.0.0, SVG Export Plug-In . SVG Version: 6.00 Build 0)  -->
<svg version="1.1" id="Calque_1" xmlns="http://www.w3.org/2000/svg" xmlns:xlink="http://www.w3.org/1999/xlink" x="0px" y="0px"
	 viewBox="0 0 24 24" style="enable-background:new 0 0 24 24;" xml:space="preserve">
<g>
	<path d="M5.5,9.8C5.5,9.8,5.5,9.7,5.5,9.8l0-8.5c0-0.6-0.4-1-1-1c-0.6,0-1,0.4-1,1v8.5c0,0,0,0,0,0c-1.3,0.4-2.3,1.6-2.3,3.1
		c0,1.4,0.9,2.7,2.2,3.1v6.8c0,0.6,0.4,1,1,1c0.6,0,1-0.4,1-1v-6.8c1.3-0.4,2.2-1.6,2.2-3.1C7.8,11.4,6.8,10.2,5.5,9.8z M4.5,14.1
		c-0.7,0-1.2-0.6-1.2-1.2s0.6-1.2,1.2-1.2c0.7,0,1.2,0.6,1.2,1.2S5.2,14.1,4.5,14.1z"/>
	<path d="M13,13.8V1.2c0-0.6-0.4-1-1-1c-0.6,0-1,0.4-1,1v12.5c-1.3,0.4-2.2,1.6-2.2,3.1s0.9,2.7,2.2,3.1v2.8c0,0.6,0.4,1,1,1
		c0.6,0,1-0.4,1-1v-2.8c1.3-0.4,2.2-1.6,2.2-3.1S14.3,14.2,13,13.8z M12,18.1c-0.7,0-1.2-0.6-1.2-1.2s0.6-1.2,1.2-1.2
		c0.7,0,1.2,0.6,1.2,1.2S12.7,18.1,12,18.1z"/>
	<path d="M22.7,7.2c0-1.4-0.9-2.7-2.2-3.1V1.2c0-0.6-0.4-1-1-1c-0.6,0-1,0.4-1,1v2.8c-1.3,0.4-2.2,1.6-2.2,3.1
		c0,1.4,0.9,2.7,2.2,3.1v12.5c0,0.6,0.4,1,1,1c0.6,0,1-0.4,1-1V10.2C21.8,9.8,22.7,8.6,22.7,7.2z M19.5,8.4c-0.7,0-1.2-0.6-1.2-1.2
		s0.6-1.2,1.2-1.2s1.2,0.6,1.2,1.2S20.2,8.4,19.5,8.4z"/>
</g>
</svg>
