<?xml version="1.0" encoding="utf-8"?>
<!-- Generator: Adobe Illustrator 25.0.0, SVG Export Plug-In . SVG Version: 6.00 Build 0)  -->
<svg version="1.1" id="Calque_1" xmlns="http://www.w3.org/2000/svg" xmlns:xlink="http://www.w3.org/1999/xlink" x="0px" y="0px"
	 viewBox="0 0 24 24" style="enable-background:new 0 0 24 24;" xml:space="preserve">
<path d="M23.4,5.4c0-1.2-0.4-2.4-1.3-3.2l-0.3-0.3c-1.7-1.7-4.6-1.7-6.5,0.1l-4.2,4.2l-0.6-0.6c-0.4-0.4-1-0.4-1.4,0
	C8.9,6,8.9,6.7,9.3,7l1.5,1.5l-8.7,8.7c-0.5,0.5-0.8,1.2-0.9,1.9l-0.3,0.3c-0.4,0.4-0.4,1,0,1.4c0.2,0.2,0.5,0.3,0.7,0.3
	c0.3,0,0.5-0.1,0.7-0.3l0.4-0.4c0,0,0.1-0.1,0.1-0.1c0.2-0.2,0.3-0.4,0.3-0.7c0-0.4,0.1-0.7,0.4-1l8.6-8.6L14,12l-8.6,8.6
	c-0.3,0.3-0.6,0.4-1,0.4c0,0-0.1,0-0.1,0c-0.3-0.1-0.7,0-0.9,0.3l-0.4,0.4c-0.4,0.4-0.4,1,0,1.4c0.2,0.2,0.5,0.3,0.7,0.3
	c0.3,0,0.5-0.1,0.7-0.3L4.6,23c0.9,0,1.6-0.4,2.3-1l8.7-8.7l1.5,1.5c0.2,0.2,0.5,0.3,0.7,0.3c0.3,0,0.5-0.1,0.7-0.3
	c0.4-0.4,0.4-1,0-1.4l-0.6-0.6L22,8.7C22.9,7.8,23.4,6.7,23.4,5.4z M20.6,7.3l-4.2,4.2l-3.8-3.8l4.2-4.1c1-1,2.7-1.1,3.6-0.2
	l0.3,0.3c0.5,0.5,0.7,1.1,0.7,1.8C21.4,6.1,21.1,6.7,20.6,7.3z"/>
</svg>
