<?xml version="1.0" encoding="utf-8"?>
<!-- Generator: Adobe Illustrator 25.0.0, SVG Export Plug-In . SVG Version: 6.00 Build 0)  -->
<svg version="1.1" id="Calque_1" xmlns="http://www.w3.org/2000/svg" xmlns:xlink="http://www.w3.org/1999/xlink" x="0px" y="0px"
	 viewBox="0 0 24 24" style="enable-background:new 0 0 24 24;" xml:space="preserve">
<g>
	<path d="M21.1,2.5H2.9c-1.1,0-2,0.9-2,2v11.2c0,1.1,0.9,2,2,2h2.3v2.7c0,0.4,0.2,0.7,0.6,0.9c0.1,0.1,0.3,0.1,0.4,0.1
		c0.2,0,0.4-0.1,0.6-0.2l4.5-3.5h9.9c1.1,0,2-0.9,2-2V4.5C23.1,3.4,22.2,2.5,21.1,2.5z M21.1,15.8H10.9c-0.2,0-0.4,0.1-0.6,0.2
		l-3.1,2.5v-1.7c0-0.6-0.4-1-1-1H2.9V4.5h18.2V15.8z"/>
	<path d="M5,13.1c0.2,0,0.3-0.1,0.4-0.2c0.1-0.1,0.2-0.3,0.2-0.6v-2h2c0.2,0,0.3,0,0.4-0.1c0.1-0.1,0.1-0.2,0.1-0.3s0-0.3-0.1-0.3
		C8,9.4,7.8,9.4,7.6,9.4h-2V7.8H8c0.2,0,0.3,0,0.4-0.1c0.1-0.1,0.1-0.2,0.1-0.3c0-0.1,0-0.3-0.1-0.3C8.4,6.9,8.2,6.9,8,6.9H5.1
		C5,6.9,4.8,6.9,4.7,7C4.6,7,4.5,7.1,4.5,7.2C4.4,7.3,4.4,7.5,4.4,7.6v4.7c0,0.3,0.1,0.4,0.2,0.6C4.7,13,4.8,13.1,5,13.1z"/>
	<path d="M8.1,12.3c0,0.1,0,0.2,0,0.3c0,0.1,0.1,0.3,0.2,0.4c0.1,0.1,0.3,0.2,0.4,0.2c0.2,0,0.3-0.1,0.4-0.2
		c0.1-0.1,0.2-0.3,0.3-0.6l0.3-0.8h2.5l0.3,0.8c0,0.1,0.1,0.2,0.1,0.3c0.1,0.1,0.1,0.2,0.2,0.3c0,0.1,0.1,0.1,0.2,0.1
		c0.1,0,0.2,0.1,0.2,0.1c0.2,0,0.3-0.1,0.4-0.2c0.1-0.1,0.2-0.2,0.2-0.4c0-0.1-0.1-0.4-0.2-0.7l-1.6-3.9c-0.1-0.2-0.1-0.4-0.2-0.5
		c0-0.1-0.1-0.2-0.2-0.3c-0.1-0.1-0.2-0.2-0.3-0.3c-0.1-0.1-0.3-0.1-0.4-0.1c-0.2,0-0.3,0-0.4,0.1c-0.1,0.1-0.2,0.2-0.3,0.3
		C10.1,7.2,10,7.4,9.9,7.5C9.9,7.7,9.8,7.8,9.8,7.9l-1.6,4C8.2,12.1,8.1,12.2,8.1,12.3z M10.8,8.1l0.9,2.5H9.9L10.8,8.1z"/>
	<path d="M14.6,12.2c0.3,0.3,0.6,0.5,0.9,0.7c0.4,0.2,0.8,0.2,1.3,0.2c0.6,0,1.1-0.1,1.5-0.3c0.2,0.2,0.4,0.3,0.6,0.4
		c0.2,0.1,0.3,0.2,0.5,0.3c0.1,0.1,0.2,0.1,0.3,0.1c0.1,0,0.2,0,0.3-0.1c0.1-0.1,0.1-0.2,0.1-0.3c0-0.1,0-0.2-0.1-0.3
		c-0.1-0.1-0.2-0.2-0.4-0.3c-0.2-0.1-0.4-0.2-0.6-0.4c0.5-0.6,0.8-1.3,0.8-2.3c0-0.6-0.1-1.2-0.3-1.7c-0.2-0.5-0.6-0.8-1-1.1
		c-0.5-0.3-1-0.4-1.6-0.4c-0.5,0-0.9,0.1-1.2,0.2c-0.4,0.1-0.7,0.4-0.9,0.6c-0.3,0.3-0.5,0.6-0.6,1c-0.1,0.4-0.2,0.8-0.2,1.3
		c0,0.5,0.1,0.9,0.2,1.3C14.1,11.6,14.3,11.9,14.6,12.2z M15.2,9c0.1-0.3,0.2-0.5,0.4-0.7c0.2-0.2,0.3-0.3,0.5-0.4
		c0.2-0.1,0.4-0.1,0.7-0.1c0.3,0,0.7,0.1,0.9,0.3c0.3,0.2,0.5,0.4,0.6,0.7c0.1,0.3,0.2,0.7,0.2,1.2c0,0.4,0,0.7-0.1,0.9
		c-0.1,0.3-0.2,0.5-0.4,0.7c-0.6-0.4-1-0.6-1.3-0.6c-0.1,0-0.2,0-0.2,0.1c-0.1,0.1-0.1,0.1-0.1,0.2c0,0.1,0,0.2,0.1,0.2
		c0.1,0.1,0.2,0.1,0.4,0.2c0.2,0.1,0.4,0.2,0.5,0.3c-0.2,0.1-0.4,0.1-0.6,0.1c-0.5,0-0.9-0.2-1.2-0.6c-0.3-0.4-0.5-0.9-0.5-1.6
		C15,9.6,15.1,9.3,15.2,9z"/>
</g>
</svg>
