<?xml version="1.0" encoding="utf-8"?>
<!-- Generator: Adobe Illustrator 25.0.0, SVG Export Plug-In . SVG Version: 6.00 Build 0)  -->
<svg version="1.1" id="Calque_1" xmlns="http://www.w3.org/2000/svg" xmlns:xlink="http://www.w3.org/1999/xlink" x="0px" y="0px"
	 viewBox="0 0 24 24" style="enable-background:new 0 0 24 24;" xml:space="preserve">
<g>
	<path d="M19.3,9.3H4.7c-0.3,0-0.5,0.2-0.5,0.5v11.4c0,0.3,0.2,0.5,0.5,0.5h14.6c0.3,0,0.5-0.2,0.5-0.5V9.8
		C19.8,9.5,19.6,9.3,19.3,9.3z M18.8,20.7H5.2V10.3h13.6V20.7z"/>
	<polygon points="0.2,2.3 0.2,13.5 3.4,13.5 3.4,11.5 2.2,11.5 2.2,4.3 21.8,4.3 21.8,11.5 20.6,11.5 20.6,13.5 23.8,13.5 23.8,2.3 
			"/>
	<path d="M19.1,6.9c0-0.7-0.5-1.2-1.2-1.2c-0.7,0-1.2,0.5-1.2,1.2c0,0.7,0.5,1.2,1.2,1.2C18.5,8.1,19.1,7.6,19.1,6.9z"/>
	<path d="M15,7.2c0.3,0,0.5-0.2,0.5-0.5c0-0.3-0.2-0.5-0.5-0.5H8.8c-0.3,0-0.5,0.2-0.5,0.5c0,0.3,0.2,0.5,0.5,0.5H15z"/>
	<path d="M11,16.8C11,16.8,11,16.8,11,16.8c1.1,1.1,2.3,1.9,3.5,2.3c0.1,0,0.3-0.1,0.4-0.2c0.4-0.2,0.7-0.5,1-0.9l-1.7-1.7l-0.3,0.3
		c-0.1,0.1-0.2,0.1-0.3,0.1c-0.1,0-0.2,0-0.3-0.1l-2.1-2.1c-0.2-0.2-0.2-0.4,0-0.6l0.3-0.3l-1.7-1.7c-0.4,0.3-0.7,0.6-0.9,1
		c-0.1,0.1-0.1,0.2-0.2,0.4C9.1,14.5,9.9,15.7,11,16.8C10.9,16.8,11,16.8,11,16.8z"/>
</g>
</svg>
