<?xml version="1.0" encoding="utf-8"?>
<!-- Generator: Adobe Illustrator 25.0.0, SVG Export Plug-In . SVG Version: 6.00 Build 0)  -->
<svg version="1.1" id="Calque_1" xmlns="http://www.w3.org/2000/svg" xmlns:xlink="http://www.w3.org/1999/xlink" x="0px" y="0px"
	 viewBox="0 0 24 24" style="enable-background:new 0 0 24 24;" xml:space="preserve">
<path d="M20.9,3.1c-1.9-1.9-4.4-2.9-7-2.9c-2.7,0-5.2,1-7,2.9c-1.9,1.9-2.9,4.4-2.9,7c0,2.3,0.8,4.5,2.2,6.3l-1.8,1.8l-2.4-2.4
	c-0.4-0.4-1-0.4-1.4,0c-0.4,0.4-0.4,1,0,1.4l2.4,2.4l-2.4,2.4c-0.4,0.4-0.4,1,0,1.4c0.2,0.2,0.5,0.3,0.7,0.3c0.3,0,0.5-0.1,0.7-0.3
	l2.4-2.4l2.4,2.4c0.2,0.2,0.5,0.3,0.7,0.3c0.3,0,0.5-0.1,0.7-0.3c0.4-0.4,0.4-1,0-1.4l-2.4-2.4l1.8-1.8c1.8,1.5,4,2.2,6.3,2.2
	c2.7,0,5.2-1,7-2.9c1.9-1.9,2.9-4.4,2.9-7C23.8,7.5,22.8,5,20.9,3.1z M19.5,15.8c-1.5,1.5-3.5,2.3-5.6,2.3c-2.1,0-4.1-0.8-5.6-2.3
	c-1.5-1.5-2.3-3.5-2.3-5.6C5.9,8,6.7,6,8.2,4.5c1.5-1.5,3.5-2.3,5.6-2.3C16,2.2,18,3,19.5,4.5C21,6,21.8,8,21.8,10.2
	C21.8,12.3,21,14.3,19.5,15.8z"/>
</svg>
