<?xml version="1.0" encoding="utf-8"?>
<!-- Generator: Adobe Illustrator 25.0.0, SVG Export Plug-In . SVG Version: 6.00 Build 0)  -->
<svg version="1.1" id="Calque_1" xmlns="http://www.w3.org/2000/svg" xmlns:xlink="http://www.w3.org/1999/xlink" x="0px" y="0px"
	 viewBox="0 0 24 24" style="enable-background:new 0 0 24 24;" xml:space="preserve">
<g>
	<path d="M20.2,0.7H3.8c-0.6,0-1,0.4-1,1c0,0.6,0.4,1,1,1h15.3v13h-5c-0.3,0-0.5,0.2-0.5,0.5v5H4.8v-5c0-0.6-0.4-1-1-1
		c-0.6,0-1,0.4-1,1v6c0,0.6,0.4,1,1,1h10.3c0.3,0,0.5-0.1,0.7-0.3l6-6c0.2-0.2,0.3-0.4,0.3-0.7V1.7C21.2,1.2,20.7,0.7,20.2,0.7z
		 M14.7,20.4v-3.6h3.6L14.7,20.4z"/>
	<path d="M4.7,10h0.7c1.4,0,2.1-0.8,2.1-2.2V6.6c0-1.5-0.7-2.2-2.1-2.2H3.2v9.1h1.4V10z M4.7,5.6h0.7C5.8,5.6,6,5.9,6,6.5v1.4
		c0,0.7-0.2,0.9-0.7,0.9H4.7V5.6z"/>
	<polygon points="11.2,13.4 12.7,13.4 12.7,4.3 11.4,4.3 11.4,9.8 9.9,4.3 8.1,4.3 8.1,13.4 9.4,13.4 9.4,6.9 	"/>
	<path d="M17.8,7.4V6.5c0-1.5-0.7-2.3-2.1-2.3s-2.1,0.8-2.1,2.3v4.7c0,1.5,0.7,2.3,2.1,2.3s2.1-0.8,2.1-2.3V8.4h-2v1.3h0.7v1.7
		c0,0.6-0.3,0.9-0.7,0.9c-0.5,0-0.7-0.2-0.7-0.9V6.4c0-0.7,0.3-0.9,0.7-0.9c0.5,0,0.7,0.2,0.7,0.9v1H17.8z"/>
</g>
</svg>
