<?xml version="1.0" encoding="utf-8"?>
<!-- Generator: Adobe Illustrator 25.0.0, SVG Export Plug-In . SVG Version: 6.00 Build 0)  -->
<svg version="1.1" id="Calque_1" xmlns="http://www.w3.org/2000/svg" xmlns:xlink="http://www.w3.org/1999/xlink" x="0px" y="0px"
	 viewBox="0 0 24 24" style="enable-background:new 0 0 24 24;" xml:space="preserve">
<g>
	<path d="M21,2.8H5.6c-0.5,0-0.9,0.4-0.9,0.9v19.3c0,0.5,0.4,0.9,0.9,0.9h9.7c0.3,0,0.5-0.1,0.7-0.3l5.6-5.6
		c0.2-0.2,0.3-0.4,0.3-0.7V3.7C22,3.2,21.5,2.8,21,2.8z M6.6,4.7h13.5v12.3h-4.7c-0.3,0-0.5,0.2-0.5,0.5v4.7H6.6V4.7z M15.8,21.3
		v-3.4h3.4L15.8,21.3z"/>
	<path d="M8.8,7.8h5.5c0.3,0,0.5-0.2,0.5-0.5c0-0.3-0.2-0.5-0.5-0.5H8.8C8.6,6.8,8.3,7,8.3,7.3C8.3,7.6,8.6,7.8,8.8,7.8z"/>
	<path d="M8.8,10.1H18c0.3,0,0.5-0.2,0.5-0.5c0-0.3-0.2-0.5-0.5-0.5H8.8c-0.3,0-0.5,0.2-0.5,0.5C8.3,9.8,8.6,10.1,8.8,10.1z"/>
	<path d="M8.8,12.3H18c0.3,0,0.5-0.2,0.5-0.5c0-0.3-0.2-0.5-0.5-0.5H8.8c-0.3,0-0.5,0.2-0.5,0.5C8.3,12.1,8.6,12.3,8.8,12.3z"/>
	<path d="M12.7,13.7H8.8c-0.3,0-0.5,0.2-0.5,0.5c0,0.3,0.2,0.5,0.5,0.5h3.8c0.3,0,0.5-0.2,0.5-0.5C13.1,13.9,12.9,13.7,12.7,13.7z"
		/>
	<path d="M19.3,0.9c0-0.5-0.4-0.9-0.9-0.9H3.9C2.9,0,2,0.8,2,1.9v18.9c0,0.5,0.4,0.9,0.9,0.9c0.5,0,0.9-0.4,0.9-0.9V1.9h14.4
		C18.9,1.9,19.3,1.5,19.3,0.9z"/>
</g>
</svg>
