<?xml version="1.0" encoding="utf-8"?>
<!-- Generator: Adobe Illustrator 25.0.0, SVG Export Plug-In . SVG Version: 6.00 Build 0)  -->
<svg version="1.1" id="Calque_1" xmlns="http://www.w3.org/2000/svg" xmlns:xlink="http://www.w3.org/1999/xlink" x="0px" y="0px"
	 viewBox="0 0 24 24" style="enable-background:new 0 0 24 24;" xml:space="preserve">
<g>
	<path d="M20.2,0.7H3.8c-0.6,0-1,0.4-1,1c0,0.6,0.4,1,1,1h15.3v13h-5c-0.3,0-0.5,0.2-0.5,0.5v5H4.8v-5c0-0.6-0.4-1-1-1
		c-0.6,0-1,0.4-1,1v6c0,0.6,0.4,1,1,1h10.3c0.3,0,0.5-0.1,0.7-0.3l6-6c0.2-0.2,0.3-0.4,0.3-0.7V1.7C21.2,1.2,20.7,0.7,20.2,0.7z
		 M14.7,20.3v-3.6h3.6L14.7,20.3z"/>
	<path d="M5.6,11.2V4.3H4.2v6.9c0,0.7-0.4,0.9-0.8,0.9c-0.2,0-0.3,0-0.5,0v1.3c0.2,0,0.4,0,0.7,0C4.6,13.5,5.6,13,5.6,11.2z"/>
	<path d="M8.7,10c1.4,0,2.1-0.8,2.1-2.2V6.6c0-1.5-0.7-2.2-2.1-2.2H6.6v9.1H8V10H8.7z M8,5.6h0.7c0.5,0,0.7,0.2,0.7,0.9v1.4
		c0,0.7-0.2,0.9-0.7,0.9H8V5.6z"/>
	<path d="M15.6,7.4V6.5c0-1.5-0.7-2.3-2.1-2.3s-2.1,0.8-2.1,2.3v4.7c0,1.5,0.7,2.3,2.1,2.3s2.1-0.8,2.1-2.3V8.4h-2v1.3h0.7v1.7
		c0,0.6-0.3,0.9-0.7,0.9c-0.5,0-0.7-0.2-0.7-0.9V6.4c0-0.7,0.3-0.9,0.7-0.9c0.5,0,0.7,0.2,0.7,0.9v1H15.6z"/>
</g>
</svg>
