<?xml version="1.0" encoding="utf-8"?>
<!-- Generator: Adobe Illustrator 25.0.0, SVG Export Plug-In . SVG Version: 6.00 Build 0)  -->
<svg version="1.1" id="Calque_1" xmlns="http://www.w3.org/2000/svg" xmlns:xlink="http://www.w3.org/1999/xlink" x="0px" y="0px"
	 viewBox="0 0 24 24" style="enable-background:new 0 0 24 24;" xml:space="preserve">
<path d="M23.5,19.1L20.3,16c0.9-1.2,1.5-2.7,1.5-4.3c0-2.5-1.3-4.7-3.3-5.9v-4c0-0.6-0.4-1-1-1H1.2c-0.6,0-1,0.4-1,1v14.5
	c0,0.3,0.1,0.5,0.3,0.7l6,6c0.2,0.2,0.4,0.3,0.7,0.3h10.3c0.6,0,1-0.4,1-1v-4.7c0.1-0.1,0.2-0.1,0.3-0.2l3.2,3.2
	c0.2,0.2,0.5,0.3,0.7,0.3c0.3,0,0.5-0.1,0.7-0.3C23.9,20.2,23.9,19.5,23.5,19.1z M19.8,11.7c0,2.7-2.2,5-5,5c-2.7,0-5-2.2-5-5
	c0-2.8,2.2-5,5-5C17.6,6.7,19.8,8.9,19.8,11.7z M3.1,16.8h3.6v3.6L3.1,16.8z M16.5,21.3H7.7v-5c0-0.3-0.2-0.5-0.5-0.5h-5v-13h14.3
	v2.1c-0.5-0.1-1.1-0.2-1.7-0.2c-3.9,0-7,3.1-7,7c0,3.9,3.1,7,7,7c0.6,0,1.1-0.1,1.7-0.2V21.3z"/>
</svg>
