<?xml version="1.0" encoding="utf-8"?>
<!-- Generator: Adobe Illustrator 25.0.0, SVG Export Plug-In . SVG Version: 6.00 Build 0)  -->
<svg version="1.1" id="Calque_1" xmlns="http://www.w3.org/2000/svg" xmlns:xlink="http://www.w3.org/1999/xlink" x="0px" y="0px"
	 viewBox="0 0 24 24" style="enable-background:new 0 0 24 24;" xml:space="preserve">
<g>
	<path d="M20.2,0.7H3.8c-0.6,0-1,0.4-1,1c0,0.6,0.4,1,1,1h15.3v13h-5c-0.3,0-0.5,0.2-0.5,0.5v5H4.8v-5c0-0.6-0.4-1-1-1
		c-0.6,0-1,0.4-1,1v6c0,0.6,0.4,1,1,1h10.3c0.3,0,0.5-0.1,0.7-0.3l6-6c0.2-0.2,0.3-0.4,0.3-0.7V1.7C21.2,1.2,20.7,0.7,20.2,0.7z
		 M14.7,20.4v-3.6h3.6L14.7,20.4z"/>
	<path d="M4.7,10h0.7c1.4,0,2.1-0.8,2.1-2.2V6.6c0-1.5-0.7-2.2-2.1-2.2H3.2v9.1h1.4V10z M4.7,5.6h0.7C5.8,5.6,6,5.9,6,6.5v1.4
		c0,0.7-0.2,0.9-0.7,0.9H4.7V5.6z"/>
	<path d="M12.5,11.2V6.6c0-1.5-0.7-2.2-2.1-2.2H8.1v9.1h2.3C11.8,13.4,12.5,12.7,12.5,11.2z M11.1,11.3c0,0.7-0.3,0.9-0.7,0.9H9.6
		V5.6h0.8c0.5,0,0.7,0.2,0.7,0.9V11.3z"/>
	<polygon points="17.2,5.6 17.2,4.3 13.4,4.3 13.4,13.4 14.9,13.4 14.9,9.7 16.7,9.7 16.7,8.4 14.9,8.4 14.9,5.6 	"/>
</g>
</svg>
