<?xml version="1.0" encoding="utf-8"?>
<!-- Generator: Adobe Illustrator 25.0.0, SVG Export Plug-In . SVG Version: 6.00 Build 0)  -->
<svg version="1.1" id="Calque_1" xmlns="http://www.w3.org/2000/svg" xmlns:xlink="http://www.w3.org/1999/xlink" x="0px" y="0px"
	 viewBox="0 0 24 24" style="enable-background:new 0 0 24 24;" xml:space="preserve">
<g>
	<path d="M20.2,0.7H3.8c-0.6,0-1,0.4-1,1v20.5c0,0.6,0.4,1,1,1h10.3c0.3,0,0.5-0.1,0.7-0.3l6-6c0.2-0.2,0.3-0.4,0.3-0.7V1.7
		C21.2,1.2,20.7,0.7,20.2,0.7z M4.8,2.7h14.3v13h-5c-0.3,0-0.5,0.2-0.5,0.5v5H4.8V2.7z M14.7,20.4v-3.6h3.6L14.7,20.4z"/>
	<path d="M7.2,6h5.9c0.3,0,0.5-0.2,0.5-0.5c0-0.3-0.2-0.5-0.5-0.5H7.2C6.9,5,6.7,5.3,6.7,5.5C6.7,5.8,6.9,6,7.2,6z"/>
	<path d="M7.2,8.4H17c0.3,0,0.5-0.2,0.5-0.5c0-0.3-0.2-0.5-0.5-0.5H7.2c-0.3,0-0.5,0.2-0.5,0.5C6.7,8.2,6.9,8.4,7.2,8.4z"/>
	<path d="M7.2,10.9H17c0.3,0,0.5-0.2,0.5-0.5c0-0.3-0.2-0.5-0.5-0.5H7.2c-0.3,0-0.5,0.2-0.5,0.5C6.7,10.6,6.9,10.9,7.2,10.9z"/>
	<path d="M11.3,12.3H7.2c-0.3,0-0.5,0.2-0.5,0.5c0,0.3,0.2,0.5,0.5,0.5h4.1c0.3,0,0.5-0.2,0.5-0.5C11.8,12.5,11.6,12.3,11.3,12.3z"
		/>
</g>
</svg>
