<?xml version="1.0" encoding="utf-8"?>
<!-- Generator: Adobe Illustrator 25.0.0, SVG Export Plug-In . SVG Version: 6.00 Build 0)  -->
<svg version="1.1" id="Calque_1" xmlns="http://www.w3.org/2000/svg" xmlns:xlink="http://www.w3.org/1999/xlink" x="0px" y="0px"
	 viewBox="0 0 24 24" style="enable-background:new 0 0 24 24;" xml:space="preserve">
<g>
	<rect x="18.3" y="6" width="2" height="1.8"/>
	<rect x="18.3" y="9.4" width="2" height="1.8"/>
	<rect x="18.3" y="12.8" width="2" height="1.8"/>
	<rect x="18.3" y="16.2" width="2" height="1.8"/>
	<rect x="3.7" y="6" width="2" height="1.8"/>
	<rect x="3.7" y="9.4" width="2" height="1.8"/>
	<rect x="3.7" y="12.8" width="2" height="1.8"/>
	<rect x="3.7" y="16.2" width="2" height="1.8"/>
	<path d="M22.6,0c-0.5,0-1,0.4-1,1v1.6H2.4V1c0-0.5-0.4-1-1-1c-0.5,0-1,0.4-1,1v3.5v15V23c0,0.5,0.4,1,1,1c0.5,0,1-0.4,1-1v-1.6
		h19.2V23c0,0.5,0.4,1,1,1c0.5,0,1-0.4,1-1v-3.5v-15V1C23.5,0.4,23.1,0,22.6,0z M2.4,19.5v-15h19.2v15H2.4z"/>
</g>
</svg>
