<?xml version="1.0" encoding="utf-8"?>
<!-- Generator: Adobe Illustrator 25.0.0, SVG Export Plug-In . SVG Version: 6.00 Build 0)  -->
<svg version="1.1" id="Calque_1" xmlns="http://www.w3.org/2000/svg" xmlns:xlink="http://www.w3.org/1999/xlink" x="0px" y="0px"
	 viewBox="0 0 24 24" style="enable-background:new 0 0 24 24;" xml:space="preserve">
<g>
	<path d="M21.7,5H17V3.3c0-1.2-0.9-2.1-2.1-2.1H9.1C7.9,1.2,7,2.1,7,3.3V5H2.3C1.1,5,0.2,6,0.2,7.1v13.6c0,1.2,0.9,2.1,2.1,2.1h19.5
		c1.2,0,2.1-0.9,2.1-2.1V7.1C23.8,6,22.9,5,21.7,5z M9,3.3c0-0.1,0-0.1,0.1-0.1h5.8c0.1,0,0.1,0,0.1,0.1V5H9V3.3z M21.8,20.7
		c0,0.1,0,0.1-0.1,0.1H2.3c-0.1,0-0.1,0-0.1-0.1V7.1c0-0.1,0-0.1,0.1-0.1h19.5c0.1,0,0.1,0,0.1,0.1V20.7z"/>
	<polygon points="13.3,10 10.7,10 10.7,12.6 8.1,12.6 8.1,15.3 10.7,15.3 10.7,17.8 13.3,17.8 13.3,15.3 15.9,15.3 15.9,12.6 
		13.3,12.6 	"/>
</g>
</svg>
