<?xml version="1.0" encoding="utf-8"?>
<!-- Generator: Adobe Illustrator 24.3.0, SVG Export Plug-In . SVG Version: 6.00 Build 0)  -->
<svg version="1.1" id="Calque_1" xmlns="http://www.w3.org/2000/svg" xmlns:xlink="http://www.w3.org/1999/xlink" x="0px" y="0px"
	 viewBox="0 0 24 24" style="enable-background:new 0 0 24 24;" xml:space="preserve">
<g>
	<path d="M23.8,11.6c-1.3-2.2-3.3-3.9-5.6-4.8c-1.4-1.7-3.4-2.8-5.7-3.1c-2.1-0.2-4.2,0.3-5.9,1.6C6.5,5.4,6.4,5.5,6.4,5.7
		c0,0.2,0.1,0.3,0.2,0.4c0.3,0.2,0.5,0.5,0.8,0.8c0.3,0.3,0.5,0.7,0.7,1c-1,0.6-1.8,1.4-2.5,2.3c-1.1-1.3-2.4-2.4-4-3.1
		c-0.3-0.2-0.7-0.1-1,0.1C0.3,7.3,0.1,7.7,0.1,8v8.2c0,0.4,0.2,0.7,0.5,0.9c0.2,0.1,0.4,0.2,0.6,0.2c0.2,0,0.3,0,0.5-0.1
		c1.6-0.7,2.9-1.8,4-3.1c1.3,1.6,3,2.8,5,3.5c0.1,0.4,0,0.8-0.1,1.2c0,0,0,0.1-0.1,0.1c0,0,0,0.1,0,0.1c-0.1,0.1-0.1,0.3,0,0.4
		c0.1,0.1,0.2,0.2,0.3,0.3c0.3,0.1,0.7,0.2,1,0.2c1.3,0,2.4-0.7,2.8-1.6c0.2,0.3,0.4,0.8,0.4,1.3c0,0.1,0,0.1,0,0.2c0,0,0,0.1,0,0.1
		c0,0.1,0.1,0.3,0.2,0.4c0.1,0.1,0.2,0.1,0.3,0.1c0,0,0,0,0.1,0c0.4,0,0.7-0.1,1-0.3c0.7-0.3,1.3-0.8,1.6-1.4
		c0.2-0.4,0.3-0.8,0.3-1.2c2.3-0.9,4.2-2.6,5.4-4.8C24,12.4,24,12,23.8,11.6z M15.7,12.3c0-1.3,0.4-2.6,1.1-3.7
		c2,0.6,3.7,1.9,4.8,3.6c-1.2,1.8-3,3-5,3.6C16,14.7,15.7,13.5,15.7,12.3z M8.1,6.2C8,6,7.9,5.9,7.7,5.8c1.4-0.9,3.1-1.2,4.7-1.1
		c1.4,0.2,2.7,0.7,3.8,1.5c-0.7-0.1-1.3-0.2-2-0.2c-1.9,0-3.6,0.5-5.2,1.3C8.7,7,8.4,6.5,8.1,6.2z M2.2,14.4V9.9
		c0.8,0.6,1.6,1.4,2.1,2.2C3.8,13,3.1,13.8,2.2,14.4z M6.7,12.2c1.6-2.5,4.4-4,7.4-4c0.5,0,1.1,0.1,1.6,0.2c-0.7,1.3-1,2.6-1,4
		c0,1.3,0.3,2.5,0.9,3.7c-0.5,0.1-1,0.1-1.4,0.1C11.2,16.2,8.4,14.6,6.7,12.2z M11.4,18.9c0.1-0.3,0.1-0.6,0.1-1
		c0.6,0.1,1.2,0.2,1.8,0.3C13,18.7,12.2,19,11.4,18.9z M17.2,18.1c-0.2,0.4-0.6,0.8-1.1,1c-0.1,0-0.1,0.1-0.2,0.1
		c-0.1-0.4-0.2-0.7-0.3-1c0.6-0.1,1.2-0.2,1.8-0.4C17.3,17.9,17.2,18,17.2,18.1z"/>
	<path d="M17.9,11c-0.5,0-0.8,0.4-0.8,0.8c0,0.5,0.4,0.8,0.8,0.8c0.5,0,0.8-0.4,0.8-0.8C18.8,11.3,18.4,11,17.9,11z"/>
</g>
</svg>
