<?xml version="1.0" encoding="utf-8"?>
<!-- Generator: Adobe Illustrator 24.3.0, SVG Export Plug-In . SVG Version: 6.00 Build 0)  -->
<svg version="1.1" id="Calque_1" xmlns="http://www.w3.org/2000/svg" xmlns:xlink="http://www.w3.org/1999/xlink" x="0px" y="0px"
	 viewBox="0 0 24 24" style="enable-background:new 0 0 24 24;" xml:space="preserve">
<path d="M20,12.1c1-2.8,2-5.7,2.9-8.9c0.1-0.4,0-0.8-0.4-1c-0.3-0.2-0.7-0.2-1,0.1c-1.1,1.1-2.3,1.6-3.6,1.6c-1.7,0-3.5-0.8-5.4-1.7
	c-2-0.9-4-1.9-6.1-1.9c-1.2,0-2.2,0.3-3.2,0.9c0-0.5-0.5-1-1-1c-0.6,0-1,0.4-1,1v21.7c0,0.6,0.4,1,1,1c0.6,0,1-0.4,1-1v-4.7
	c1-0.8,2-1.2,3.2-1.2c1.7,0,3.5,0.8,5.4,1.7c2,0.9,4,1.9,6.1,1.9c1.8,0,3.3-0.7,4.8-2c0.3-0.3,0.4-0.7,0.1-1.1
	C21.9,16.1,21,14.3,20,12.1z M17.9,18.9c-1.7,0-3.5-0.8-5.4-1.7c-2-0.9-4-1.9-6.1-1.9c-1.2,0-2.2,0.3-3.2,0.9V3.2
	C4.1,2.4,5.1,2,6.3,2C8,2,9.8,2.8,11.7,3.7c2,0.9,4,1.9,6.1,1.9c1,0,1.9-0.2,2.7-0.6c-0.7,2.4-1.5,4.6-2.3,6.8
	c-0.1,0.2-0.1,0.4,0,0.6c0.9,2.1,1.8,3.9,2.7,5.3C20,18.5,19,18.9,17.9,18.9z"/>
</svg>
