<?xml version="1.0" encoding="utf-8"?>
<!-- Generator: Adobe Illustrator 24.3.0, SVG Export Plug-In . SVG Version: 6.00 Build 0)  -->
<svg version="1.1" id="Calque_1" xmlns="http://www.w3.org/2000/svg" xmlns:xlink="http://www.w3.org/1999/xlink" x="0px" y="0px"
	 viewBox="0 0 24 24" style="enable-background:new 0 0 24 24;" xml:space="preserve">
<path d="M21.1,13.3c-0.1,0-0.2,0-0.2,0c-3.3,0-6.1,1.6-7.9,4.1v-3.9c4.4-0.5,7.9-4.2,7.9-8.8V3.1c0-0.5-0.3-0.8-0.8-0.9
	c-1.3-0.3-2.6-0.2-3.9,0.1c-1.1-1-2.6-1.8-4.2-2.2c-0.1,0-0.3,0-0.4,0c-1.5,0.4-2.8,1.2-3.9,2.2c-1.2-0.3-2.5-0.3-3.8,0
	C3.4,2.3,3.1,2.7,3.1,3.1v1.5c0,4.6,3.5,8.3,7.9,8.8v3.9c-1.8-2.5-4.7-4.1-7.9-4.1c-0.1,0-0.2,0-0.3,0c-0.5,0-0.9,0.4-0.9,1
	c0,5.4,4.4,9.8,9.8,9.8c0.1,0,0.1,0,0.3,0c0,0,0,0,0.1,0c0,0,0,0,0.1,0c0,0,0,0,0,0c0.1,0,0.1,0,0.2,0c5.4,0,9.8-4.4,9.8-9.8
	C22.1,13.7,21.6,13.3,21.1,13.3z M11.8,1.7c1,0.3,1.8,0.7,2.6,1.2c-0.9,0.4-1.7,1-2.4,1.7c-0.7-0.7-1.6-1.3-2.5-1.7
	C10.2,2.4,11,2,11.8,1.7z M5,4.6V3.9c2.4-0.2,4.7,0.8,6.2,2.7c0.4,0.5,1.1,0.5,1.5,0c1.5-1.9,3.8-2.9,6.2-2.7v0.7c0,3.8-3.1,7-7,7
	S5,8.4,5,4.6z M3.9,15.2c3.7,0.3,6.6,3.2,7.1,6.9C7.3,21.7,4.3,18.8,3.9,15.2z M13,22.1c0.5-3.6,3.4-6.5,7.1-6.9
	C19.7,18.8,16.7,21.7,13,22.1z"/>
</svg>
