<?xml version="1.0" encoding="utf-8"?>
<!-- Generator: Adobe Illustrator 25.0.0, SVG Export Plug-In . SVG Version: 6.00 Build 0)  -->
<svg version="1.1" id="Calque_1" xmlns="http://www.w3.org/2000/svg" xmlns:xlink="http://www.w3.org/1999/xlink" x="0px" y="0px"
	 viewBox="0 0 24 24" style="enable-background:new 0 0 24 24;" xml:space="preserve">
<g>
	<path d="M1,17.5H23c0.5,0,1-0.4,1-1c0-0.5-0.4-1-1-1H1c-0.5,0-1,0.4-1,1C0.1,17.1,0.5,17.5,1,17.5z"/>
	<path d="M23,19H1c-0.5,0-1,0.4-1,1c0,0.5,0.4,1,1,1H23c0.5,0,1-0.4,1-1C23.9,19.4,23.5,19,23,19z"/>
	<path d="M1,14.3c0.5,0,1-0.4,1-1c0-1.7,1.4-3.1,3.1-3.1c0.2,0,0.4,0,0.6,0.1l1.1,0.2l0-1.2C6.9,7,8.9,5,11.3,5
		c2.1,0,3.9,1.4,4.4,3.5l0.2,1l1-0.4c0.4-0.1,0.8-0.2,1.3-0.2c2.1,0,3.7,1.7,3.7,3.7c0,0.5,0.4,1,1,1c0.5,0,1-0.4,1-1
		c0-3.1-2.5-5.6-5.6-5.6c-0.3,0-0.6,0-0.9,0.1c-1-2.4-3.3-4-6-4C8.2,3.1,5.6,5.4,5,8.4c-2.7,0-4.9,2.2-4.9,5
		C0.1,13.9,0.5,14.3,1,14.3z"/>
</g>
</svg>
