<?xml version="1.0" encoding="utf-8"?>
<!-- Generator: Adobe Illustrator 25.0.0, SVG Export Plug-In . SVG Version: 6.00 Build 0)  -->
<svg version="1.1" id="Calque_1" xmlns="http://www.w3.org/2000/svg" xmlns:xlink="http://www.w3.org/1999/xlink" x="0px" y="0px"
	 viewBox="0 0 24 24" style="enable-background:new 0 0 24 24;" xml:space="preserve">
<path d="M22.3,4.2H11.7V3.5c0-1.1-0.9-2-2-2h-7c-1.1,0-2,0.9-2,2v5.3c0,0,0,0.1,0,0.1s0,0.1,0,0.1v12.5c0,0.6,0.4,1,1,1h20.5
	c0.6,0,1-0.4,1-1V5.2C23.3,4.6,22.8,4.2,22.3,4.2z M9.7,3.5v1.7c0,0.6,0.4,1,1,1h10.5v1.7H2.7V3.5H9.7z M2.7,20.5V9.9h18.5v10.6H2.7
	z"/>
</svg>
