<?xml version="1.0" encoding="utf-8"?>
<!-- Generator: Adobe Illustrator 25.0.0, SVG Export Plug-In . SVG Version: 6.00 Build 0)  -->
<svg version="1.1" id="Calque_1" xmlns="http://www.w3.org/2000/svg" xmlns:xlink="http://www.w3.org/1999/xlink" x="0px" y="0px"
	 viewBox="0 0 24 24" style="enable-background:new 0 0 24 24;" xml:space="preserve">
<path d="M23.8,8.3c-0.2-0.2-0.4-0.4-0.7-0.4H5.2c-0.4,0-0.7,0.2-0.8,0.6l-2.6,8.2V4.6h6.1v1.5c0,0.5,0.4,0.9,0.9,0.9h10.1
	c0.5,0,0.9-0.4,0.9-0.9c0-0.5-0.4-0.9-0.9-0.9H9.6V4.6c0-1-0.8-1.7-1.7-1.7H1.7C0.8,2.8,0,3.6,0,4.6v15.8c0,0.5,0.4,0.9,0.9,0.9
	c0.1,0,0.2,0,0.3-0.1c0.1,0,0.2,0.1,0.3,0.1h17.9c0.4,0,0.7-0.2,0.8-0.6L24,9.1C24,8.8,24,8.5,23.8,8.3z M18.8,19.4H2.7l3.1-9.8
	h16.1L18.8,19.4z"/>
</svg>
