<?xml version="1.0" encoding="utf-8"?>
<!-- Generator: Adobe Illustrator 25.0.0, SVG Export Plug-In . SVG Version: 6.00 Build 0)  -->
<svg version="1.1" id="Calque_1" xmlns="http://www.w3.org/2000/svg" xmlns:xlink="http://www.w3.org/1999/xlink" x="0px" y="0px"
	 viewBox="0 0 24 24" style="enable-background:new 0 0 24 24;" xml:space="preserve">
<g>
	<path d="M10.1,16.1c-0.3-0.6-0.4-1.8-0.2-2.4l0.8-2.2c0.4-1,0.3-2.7,0-3.8L10.4,7C10,5.6,8.2,4.8,7,5.7L2.8,9.1
		c-1,0.7-1.5,2.2-1.2,3.5l0.5,1.9c0.2,1,1.6,4,2.4,4.8L6.6,22c0.5,0.6,1.2,0.9,2,0.9c0.6,0,1.1-0.2,1.5-0.5l0.6-0.4
		c1-0.8,1.3-2.4,0.6-3.6L10.1,16.1z M9.6,20.6L9,21c-0.1,0.1-0.3,0.1-0.4,0.1c-0.3,0-0.5-0.1-0.7-0.3l-2.2-2.6
		c-0.5-0.6-1.8-3.3-2-4.1l-0.5-1.9c-0.1-0.6,0.2-1.5,0.6-1.8L8,7.1c0,0,0.1,0,0.1,0c0.2,0,0.5,0.2,0.6,0.5L9,8.2
		c0.2,0.7,0.2,2,0,2.7l-0.8,2.2c-0.4,1.1-0.2,2.7,0.3,3.8l1.2,2.3C10,19.7,9.9,20.4,9.6,20.6z"/>
	<path d="M8.1,4.2c0.8-0.2,1.2-1,1.1-1.8S8.2,1,7.5,1.1c-0.8,0.2-1.2,1-1.1,1.8C6.6,3.8,7.3,4.4,8.1,4.2z"/>
	<path d="M5.2,5.7c0.7-0.1,1.1-0.8,0.9-1.6C6,3.3,5.3,2.8,4.7,3C4,3.1,3.6,3.8,3.7,4.6C3.9,5.3,4.5,5.8,5.2,5.7z"/>
	<path d="M3.1,7.6c0.6-0.1,1-0.8,0.8-1.4c-0.1-0.7-0.7-1.1-1.3-1C2,5.3,1.6,6,1.8,6.6C1.9,7.3,2.5,7.7,3.1,7.6z"/>
	<path d="M2,8.5c-0.1-0.6-0.6-1-1.2-0.9C0.3,7.7,0,8.3,0.1,8.9c0.1,0.6,0.6,1,1.2,0.9C1.8,9.6,2.1,9.1,2,8.5z"/>
	<path d="M21.2,9.1L17,5.7c-0.3-0.2-0.7-0.4-1.2-0.4c-1,0-2,0.7-2.3,1.7l-0.2,0.7c-0.4,1.1-0.4,2.7,0,3.8l0.8,2.2
		c0.2,0.6,0.1,1.8-0.2,2.4l-1.2,2.3c-0.6,1.2-0.3,2.8,0.6,3.6l0.6,0.4c0.4,0.3,0.9,0.5,1.5,0.5c0.8,0,1.5-0.3,2-0.9l2.2-2.6
		c0.7-0.8,2.1-3.8,2.4-4.8l0.5-2C22.6,11.3,22.1,9.8,21.2,9.1z M20.7,12.2l-0.5,2c-0.2,0.8-1.5,3.4-2,4L16,20.9
		c-0.2,0.2-0.4,0.3-0.7,0.3c-0.1,0-0.3,0-0.4-0.1l-0.6-0.4c-0.3-0.2-0.4-0.9-0.2-1.4l1.2-2.3c0.5-1.1,0.7-2.7,0.3-3.8L15,10.9
		c-0.2-0.7-0.2-1.9,0-2.7l0.2-0.7C15.3,7.2,15.6,7,15.8,7c0.1,0,0.1,0,0.1,0l4.2,3.5C20.5,10.8,20.8,11.6,20.7,12.2z"/>
	<path d="M15.9,4.2c0.8,0.2,1.5-0.4,1.7-1.3c0.2-0.9-0.3-1.7-1.1-1.8C15.8,1,15,1.5,14.8,2.4C14.7,3.2,15.1,4.1,15.9,4.2z"/>
	<path d="M18.8,5.7c0.7,0.1,1.3-0.4,1.5-1.1C20.4,3.8,20,3.1,19.3,3c-0.7-0.1-1.3,0.4-1.5,1.1C17.7,4.8,18.1,5.5,18.8,5.7z"/>
	<path d="M20.9,7.6c0.6,0.1,1.2-0.3,1.3-1C22.4,6,22,5.3,21.4,5.2c-0.6-0.1-1.2,0.3-1.3,1C20,6.8,20.3,7.5,20.9,7.6z"/>
	<path d="M23.2,7.6c-0.5-0.1-1,0.3-1.2,0.9c-0.1,0.6,0.2,1.2,0.7,1.3c0.5,0.1,1-0.3,1.2-0.9C24,8.3,23.7,7.7,23.2,7.6z"/>
</g>
</svg>
