<?xml version="1.0" encoding="utf-8"?>
<!-- Generator: Adobe Illustrator 25.0.0, SVG Export Plug-In . SVG Version: 6.00 Build 0)  -->
<svg version="1.1" id="Calque_1" xmlns="http://www.w3.org/2000/svg" xmlns:xlink="http://www.w3.org/1999/xlink" x="0px" y="0px"
	 viewBox="0 0 24 24" style="enable-background:new 0 0 24 24;" xml:space="preserve">
<g>
	<path d="M8.7,22.7c-0.6,0-1.1-0.3-1.5-0.8c-0.3-0.4-0.4-0.9-0.4-1.5v-0.5l-3.6,2.3c-0.4,0.3-0.8,0.4-1.2,0.4
		c-0.9,0-1.9-0.7-1.9-2.3V3.6c0-1.6,1-2.3,1.9-2.3c0.4,0,0.8,0.1,1.2,0.4l3.6,2.3V3.6c0-1.6,1-2.3,1.9-2.3c0.4,0,0.8,0.1,1.2,0.4
		l12.9,8.4c0.7,0.5,1.1,1.1,1.1,1.9c0,0.7-0.4,1.4-1.1,1.9L9.9,22.3C9.5,22.5,9.1,22.7,8.7,22.7L8.7,22.7z M7.8,17.1
		c0.2,0,0.3,0,0.5,0.1c0.3,0.2,0.5,0.5,0.5,0.9v2.3c0,0.1,0,0.2,0,0.2c0,0,0,0,0,0l12.9-8.4c0.1-0.1,0.2-0.2,0.2-0.2
		c0,0-0.1-0.1-0.2-0.2L8.8,3.4c0,0,0,0,0,0c0,0.1,0,0.1,0,0.2v2.3c0,0.4-0.2,0.7-0.5,0.9c-0.3,0.2-0.7,0.2-1,0L2.1,3.4c0,0,0,0,0,0
		c0,0.1,0,0.1,0,0.2v16.8c0,0.1,0,0.2,0,0.2c0,0,0,0,0,0l5.1-3.3C7.4,17.1,7.6,17.1,7.8,17.1L7.8,17.1z"/>
</g>
</svg>
