<?xml version="1.0" encoding="utf-8"?>
<!-- Generator: Adobe Illustrator 25.0.0, SVG Export Plug-In . SVG Version: 6.00 Build 0)  -->
<svg version="1.1" id="Calque_1" xmlns="http://www.w3.org/2000/svg" xmlns:xlink="http://www.w3.org/1999/xlink" x="0px" y="0px"
	 viewBox="0 0 24 24" style="enable-background:new 0 0 24 24;" xml:space="preserve">
<g>
	<path d="M1,6.3c0.6,0,1-0.4,1-1V2.1h3.2c0.6,0,1-0.4,1-1c0-0.6-0.4-1-1-1H1c-0.6,0-1,0.4-1,1v4.2C0,5.9,0.5,6.3,1,6.3z"/>
	<path d="M23,0.1h-4.2c-0.6,0-1,0.4-1,1c0,0.6,0.4,1,1,1H22v3.2c0,0.6,0.4,1,1,1c0.6,0,1-0.4,1-1V1.1C24,0.5,23.5,0.1,23,0.1z"/>
	<path d="M5.2,21.9H2v-3.2c0-0.6-0.4-1-1-1c-0.6,0-1,0.4-1,1v4.2c0,0.6,0.4,1,1,1h4.2c0.6,0,1-0.4,1-1C6.2,22.4,5.8,21.9,5.2,21.9z"
		/>
	<path d="M23,17.7c-0.6,0-1,0.4-1,1v3.2h-3.2c-0.6,0-1,0.4-1,1c0,0.6,0.4,1,1,1H23c0.6,0,1-0.4,1-1v-4.2C24,18.1,23.5,17.7,23,17.7z
		"/>
	<path d="M4.1,5.1v13.9c0,0.6,0.4,1,1,1h13.9c0.6,0,1-0.4,1-1V5.1c0-0.6-0.4-1-1-1H5.1C4.5,4.1,4.1,4.5,4.1,5.1z M6.1,6.1h11.9v11.9
		H6.1V6.1z"/>
</g>
</svg>
