<?xml version="1.0" encoding="utf-8"?>
<!-- Generator: Adobe Illustrator 25.0.0, SVG Export Plug-In . SVG Version: 6.00 Build 0)  -->
<svg version="1.1" id="Calque_1" xmlns="http://www.w3.org/2000/svg" xmlns:xlink="http://www.w3.org/1999/xlink" x="0px" y="0px"
	 viewBox="0 0 24 24" style="enable-background:new 0 0 24 24;" xml:space="preserve">
<g>
	<path d="M12,7.6c-2.4,0-4.4,2-4.4,4.4s2,4.4,4.4,4.4c2.4,0,4.4-2,4.4-4.4S14.4,7.6,12,7.6z M12,14.4c-1.3,0-2.4-1.1-2.4-2.4
		s1.1-2.4,2.4-2.4c1.3,0,2.4,1.1,2.4,2.4S13.3,14.4,12,14.4z"/>
	<path d="M22.1,9l-1.7,0L20,8.2L21.2,7c0.3-0.3,0.5-0.7,0.5-1.2c0-0.5-0.2-0.9-0.5-1.2l-1.8-1.8c-0.3-0.3-0.7-0.5-1.2-0.5
		c-0.5,0-0.9,0.2-1.2,0.5l-1.2,1.1L15,3.6V2c0-0.9-0.8-1.7-1.7-1.7h-2.6C9.8,0.2,9,1,9,2l0,1.7L8.2,4L7,2.8c-0.6-0.6-1.8-0.6-2.4,0
		L2.8,4.6C2.5,4.9,2.3,5.3,2.3,5.8c0,0.5,0.2,0.9,0.5,1.2l1.1,1.2L3.6,9H2C1,9,0.2,9.8,0.2,10.7v2.6C0.2,14.2,1,15,2,15l1.7,0
		L4,15.8L2.8,17c-0.3,0.3-0.5,0.7-0.5,1.2s0.2,0.9,0.5,1.2l1.8,1.8c0.6,0.6,1.8,0.6,2.4,0l1.2-1.1L9,20.4V22c0,0.9,0.8,1.7,1.7,1.7
		h2.6c0.9,0,1.7-0.8,1.7-1.7l0-1.7l0.8-0.3l1.2,1.2c0.6,0.6,1.8,0.6,2.4,0l1.8-1.8c0.3-0.3,0.5-0.7,0.5-1.2s-0.2-0.9-0.5-1.2
		l-1.1-1.2l0.3-0.8h1.7c0.9,0,1.7-0.8,1.7-1.7v-2.6C23.8,9.8,23,9,22.1,9z M21.8,13h-1.4c-0.8,0-1.6,0.6-1.8,1.3L18.3,15
		c-0.4,0.7-0.2,1.7,0.4,2.3l1,1l-1.4,1.4l-1-1c-0.4-0.4-0.9-0.6-1.4-0.6c-0.3,0-0.6,0.1-0.8,0.2l-0.7,0.3c-0.8,0.3-1.3,1.1-1.3,1.9
		v1.4h-2v-1.4c0-0.8-0.6-1.6-1.3-1.8L9,18.3c-0.7-0.4-1.7-0.2-2.3,0.4l-1,1l-1.4-1.4l1-1c0.6-0.6,0.7-1.6,0.4-2.2l-0.3-0.7
		C5.2,13.6,4.4,13,3.6,13H2.2v-2h1.4c0.8,0,1.6-0.6,1.8-1.3L5.7,9c0.4-0.7,0.2-1.7-0.4-2.3l-1-1l1.4-1.4l1,1
		c0.4,0.4,0.9,0.6,1.4,0.6c0.3,0,0.6-0.1,0.8-0.2l0.7-0.3C10.4,5.2,11,4.4,11,3.6V2.2h2v1.4c0,0.8,0.6,1.6,1.3,1.8L15,5.7
		c0.7,0.4,1.7,0.2,2.3-0.4l1-1l1.4,1.4l-1,1c-0.6,0.6-0.7,1.6-0.4,2.2l0.3,0.7c0.3,0.8,1.1,1.4,1.9,1.4h1.4V13z"/>
</g>
</svg>
