<?xml version="1.0" encoding="utf-8"?>
<!-- Generator: Adobe Illustrator 25.0.0, SVG Export Plug-In . SVG Version: 6.00 Build 0)  -->
<svg version="1.1" id="Calque_1" xmlns="http://www.w3.org/2000/svg" xmlns:xlink="http://www.w3.org/1999/xlink" x="0px" y="0px"
	 viewBox="0 0 24 24" style="enable-background:new 0 0 24 24;" xml:space="preserve">
<path d="M21.3,6.1h-2.8c0.5-0.7,0.9-1.5,0.9-2.4c0-1-0.4-1.9-1.1-2.7c-1.4-1.4-3.9-1.4-5.3,0c-0.5,0.5-0.7,1.2-0.9,2
	c-0.2-0.8-0.4-1.5-0.9-2c-1.4-1.4-3.9-1.4-5.3,0c-1.4,1.4-1.4,3.5-0.2,5H2.7c-1,0-1.8,0.8-1.8,1.8v1.6c0,0.8,0.6,1.5,1.3,1.7v10.9
	C2.2,23.2,3,24,4,24h16c1,0,1.8-0.8,1.8-1.8V11.2c0.8-0.2,1.3-0.9,1.3-1.7V7.9C23.1,6.9,22.3,6.1,21.3,6.1z M21.2,9.4h-6.8V8h6.8
	V9.4z M10.5,9.4V8h3v1.5H10.5z M13.5,11.3v10.8h-3V11.3H13.5z M14.2,2.4c0.7-0.7,1.9-0.7,2.6,0c0.4,0.4,0.5,0.8,0.5,1.3
	c0,0.5-0.2,1-0.5,1.3c-0.3,0.3-1.2,0.6-3,0.6c-0.1,0-0.1,0-0.2,0C13.7,4.3,13.8,2.8,14.2,2.4z M7.1,2.4c0.4-0.4,0.8-0.5,1.3-0.5
	c0.5,0,1,0.2,1.3,0.5c0.4,0.4,0.6,1.8,0.6,3.2c-0.1,0-0.1,0-0.2,0c-1.8,0-2.8-0.3-3-0.6C6.4,4.3,6.4,3.1,7.1,2.4z M2.8,8h6.8v1.5
	H2.8V8z M4.1,11.3h5.5v10.8H4.1V11.3z M14.5,22.1V11.3h5.5v10.8H14.5z"/>
</svg>
