<?xml version="1.0" encoding="utf-8"?>
<!-- Generator: Adobe Illustrator 24.3.0, SVG Export Plug-In . SVG Version: 6.00 Build 0)  -->
<svg version="1.1" id="Calque_1" xmlns="http://www.w3.org/2000/svg" xmlns:xlink="http://www.w3.org/1999/xlink" x="0px" y="0px"
	 viewBox="0 0 24 24" style="enable-background:new 0 0 24 24;" xml:space="preserve">
<g>
	<path d="M21.7,16.9c0.4-0.4,0.4-1,0-1.4c-0.4-0.4-1-0.4-1.4,0c-1.8,1.8-4.2,2.8-6.7,2.8c0,0,0,0,0,0s0,0,0,0c-2.5,0-4.9-1-6.7-2.8
		C5,13.7,4,11.3,4,8.8C4,6.2,5,3.8,6.8,2c0.4-0.4,0.4-1,0-1.4c-0.4-0.4-1-0.4-1.4,0C3.2,2.8,2,5.7,2,8.8c0,3.1,1.2,6,3.4,8.2
		c1.9,1.9,4.5,3.1,7.2,3.3v1.4h-1.9c-0.6,0-1,0.4-1,1c0,0.6,0.4,1,1,1h5.8c0.6,0,1-0.4,1-1c0-0.6-0.4-1-1-1h-1.9v-1.4
		C17.2,20,19.8,18.9,21.7,16.9z"/>
	<path d="M13.5,17.1c4.6,0,8.3-3.7,8.3-8.3c0-4.6-3.7-8.3-8.3-8.3C9,0.4,5.2,4.2,5.2,8.8C5.2,13.4,9,17.1,13.5,17.1z M13.5,2.4
		c3.5,0,6.3,2.8,6.3,6.3c0,3.5-2.8,6.3-6.3,6.3c-3.5,0-6.3-2.8-6.3-6.3C7.2,5.3,10.1,2.4,13.5,2.4z"/>
</g>
</svg>
