<?xml version="1.0" encoding="utf-8"?>
<!-- Generator: Adobe Illustrator 25.0.0, SVG Export Plug-In . SVG Version: 6.00 Build 0)  -->
<svg version="1.1" id="Calque_1" xmlns="http://www.w3.org/2000/svg" xmlns:xlink="http://www.w3.org/1999/xlink" x="0px" y="0px"
	 viewBox="0 0 24 24" style="enable-background:new 0 0 24 24;" xml:space="preserve">
<path d="M22.7,0.2H1.3c-0.6,0-1.1,0.5-1.1,1.1v21.4c0,0.6,0.5,1.1,1.1,1.1h21.4c0.6,0,1.1-0.5,1.1-1.1V1.3
	C23.8,0.7,23.3,0.2,22.7,0.2z M9,15V8.9H15V15H9z M15,16v5.6H9V16H15z M2.4,8.9h5.6V15H2.4V8.9z M9,7.8V2.4H15v5.5H9z M16.1,8.9h5.6
	V15h-5.6V8.9z M21.6,7.8h-5.6V2.4h5.6V7.8z M7.9,2.4v5.5H2.4V2.4H7.9z M2.4,16h5.6v5.6H2.4V16z M16.1,21.6V16h5.6v5.6H16.1z"/>
</svg>
