<?xml version="1.0" encoding="utf-8"?>
<!-- Generator: Adobe Illustrator 25.0.0, SVG Export Plug-In . SVG Version: 6.00 Build 0)  -->
<svg version="1.1" id="Calque_1" xmlns="http://www.w3.org/2000/svg" xmlns:xlink="http://www.w3.org/1999/xlink" x="0px" y="0px"
	 viewBox="0 0 24 24" style="enable-background:new 0 0 24 24;" xml:space="preserve">
<path d="M23.7,2.3l-0.5-0.5c0-0.3-0.1-0.5-0.3-0.7c-0.2-0.2-0.5-0.3-0.7-0.3l-0.5-0.5c-0.2-0.2-0.5-0.2-0.7,0
	c-0.2,0.2-0.2,0.5,0,0.7l0.3,0.3l-0.4,0.4l-0.3-0.3c-0.2-0.2-0.5-0.2-0.7,0c-0.2,0.2-0.2,0.5,0,0.7l0.3,0.3l-0.5,0.5l-0.3-0.3
	c-0.2-0.2-0.5-0.2-0.7,0c-0.2,0.2-0.2,0.5,0,0.7L19,3.6l-4.8,4.8C12,6.7,9.1,6.7,7.4,8.4c-0.4,0.4-0.8,1-1,1.6c0,0,0,0.1,0,0.1
	c-0.1,0.3-0.4,0.4-1.3,0.4c-1.3,0-2.6,0.5-3.4,1.4c-2.1,2.1-1.9,5.8,0.6,8.2l1,1l0.7,0.7c1.3,1.3,2.9,2,4.6,2c1.4,0,2.7-0.5,3.6-1.4
	c0.9-0.9,1.4-2.1,1.4-3.5c0-0.8,0.1-1.2,0.4-1.3c0,0,0.1,0,0.1,0c0.6-0.2,1.1-0.6,1.6-1c1.7-1.7,1.7-4.6,0.1-6.8L20.4,5l0.3,0.3
	c0.1,0.1,0.2,0.1,0.4,0.1c0.1,0,0.3,0,0.4-0.1c0.2-0.2,0.2-0.5,0-0.7l-0.3-0.3l0.5-0.5l0.3,0.3c0.1,0.1,0.2,0.1,0.4,0.1
	c0.1,0,0.3,0,0.4-0.1c0.2-0.2,0.2-0.5,0-0.7l-0.3-0.3l0.4-0.4L23,3c0.1,0.1,0.2,0.1,0.4,0.1c0.1,0,0.3,0,0.4-0.1
	C23.9,2.9,23.9,2.5,23.7,2.3z M14.3,15.3c-0.2,0.2-0.5,0.4-0.9,0.6c-1.7,0.4-1.7,2.3-1.8,3.1c0,0.9-0.3,1.6-0.9,2.2
	C10.2,21.7,9.3,22,8.4,22c-1.2,0-2.4-0.5-3.3-1.5l-1.5-1.5l0,0l-0.2-0.2c-1.7-1.7-1.9-4.2-0.6-5.6c0.6-0.6,1.3-0.9,2.3-0.9
	c0.7,0,2.5-0.1,3-1.8c0.1-0.3,0.3-0.6,0.6-0.9c1-1,2.8-1,4.2,0l-2.7,2.7c-0.1,0-0.3,0-0.4,0c-0.5,0-1,0.2-1.3,0.5
	C8,13.3,7.9,14,8,14.6l-1.3,1.3l-0.3-0.3c-0.2-0.2-0.5-0.2-0.7,0c-0.2,0.2-0.2,0.5,0,0.7l0.4,0.4c-0.1,0.3,0,0.7,0.2,1
	C6.5,17.9,6.8,18,7,18c0.1,0,0.2,0,0.2,0l0.4,0.4c0.1,0.1,0.2,0.1,0.4,0.1c0.1,0,0.3,0,0.4-0.1c0.2-0.2,0.2-0.5,0-0.7l-0.3-0.3
	L9.4,16c0.1,0,0.3,0,0.4,0c0.5,0,1-0.2,1.3-0.5c0.5-0.5,0.6-1.1,0.5-1.7l2.7-2.7C15.3,12.5,15.3,14.3,14.3,15.3z"/>
</svg>
