<?xml version="1.0" encoding="utf-8"?>
<!-- Generator: Adobe Illustrator 25.0.0, SVG Export Plug-In . SVG Version: 6.00 Build 0)  -->
<svg version="1.1" id="Calque_1" xmlns="http://www.w3.org/2000/svg" xmlns:xlink="http://www.w3.org/1999/xlink" x="0px" y="0px"
	 viewBox="0 0 24 24" style="enable-background:new 0 0 24 24;" xml:space="preserve">
<g>
	<path d="M10.6,8.4c-0.2,0-0.3,0.1-0.5,0.2C10,8.7,10,8.9,10,9.2V11H7.1V9.2c0-0.3-0.1-0.5-0.2-0.6C6.8,8.4,6.7,8.4,6.5,8.4
		C6.3,8.4,6.1,8.4,6,8.6C5.9,8.7,5.8,8.9,5.8,9.2v5.1c0,0.3,0.1,0.5,0.2,0.6C6.1,15,6.3,15,6.5,15C6.7,15,6.8,15,7,14.8
		c0.1-0.1,0.2-0.3,0.2-0.6v-2.2H10v2.2c0,0.3,0.1,0.5,0.2,0.6c0.1,0.1,0.3,0.2,0.5,0.2c0.2,0,0.4-0.1,0.5-0.2
		c0.1-0.1,0.2-0.3,0.2-0.6V9.2c0-0.3-0.1-0.5-0.2-0.6C11,8.4,10.8,8.4,10.6,8.4z"/>
	<path d="M16.3,8.6c-0.3-0.1-0.7-0.1-1.1-0.1h-1.7c-0.3,0-0.5,0.1-0.6,0.2c-0.1,0.1-0.2,0.3-0.2,0.6V14c0,0.2,0,0.4,0.1,0.5
		c0,0.1,0.1,0.2,0.2,0.3c0.1,0.1,0.3,0.1,0.5,0.1h1.7c0.3,0,0.6,0,0.8-0.1c0.2,0,0.5-0.1,0.7-0.2c0.2-0.1,0.4-0.2,0.6-0.4
		c0.2-0.2,0.4-0.4,0.5-0.7c0.1-0.3,0.2-0.5,0.3-0.9c0.1-0.3,0.1-0.7,0.1-1.1c0-1.2-0.3-2-1-2.6C16.9,8.8,16.6,8.7,16.3,8.6z
		 M16.2,13.6c-0.1,0.1-0.2,0.2-0.3,0.2c-0.1,0-0.3,0.1-0.4,0.1c-0.1,0-0.3,0-0.5,0h-1V9.5h0.9c0.4,0,0.7,0,1,0.1
		c0.3,0.1,0.5,0.3,0.7,0.6c0.2,0.3,0.3,0.8,0.3,1.4C16.9,12.6,16.6,13.2,16.2,13.6z"/>
	<path d="M23.1,4.6c-0.1-0.4-0.4-0.7-0.9-0.8C15.5,3,8.5,3,1.7,3.8C1.3,3.8,1,4.1,0.9,4.6c-1.2,4.9-1.2,9.9,0,14.9
		c0.1,0.4,0.4,0.7,0.9,0.8c3.4,0.4,6.9,0.6,10.3,0.6s6.9-0.2,10.3-0.6c0.4-0.1,0.8-0.4,0.9-0.8C24.3,14.5,24.3,9.5,23.1,4.6z
		 M21.3,18.3C15.1,19,8.9,19,2.7,18.3c-0.9-4.2-0.9-8.4,0-12.6C8.9,5,15.1,5,21.3,5.7C22.2,9.9,22.2,14.1,21.3,18.3z"/>
</g>
</svg>
