<?xml version="1.0" encoding="utf-8"?>
<!-- Generator: Adobe Illustrator 25.0.0, SVG Export Plug-In . SVG Version: 6.00 Build 0)  -->
<svg version="1.1" id="Calque_1" xmlns="http://www.w3.org/2000/svg" xmlns:xlink="http://www.w3.org/1999/xlink" x="0px" y="0px"
	 viewBox="0 0 24 24" style="enable-background:new 0 0 24 24;" xml:space="preserve">
<path d="M17.1,1.7l-0.1,0c-1.9,0-3.7,0.9-5,2.3c-1.3-1.4-3.1-2.2-5-2.2h0c-1.7,0-3.4,0.7-4.6,2C0.9,5.2,0.1,7.2,0.1,9.3
	c0,0.8,0.1,1.5,0.3,2.1c0.4,1.9,2.7,4.4,7.1,7.8c1.2,0.9,2.9,2.1,3.7,2.6l0.3,0.2c0,0,0.1,0.1,0.1,0.1c0.1,0.1,0.3,0.1,0.5,0.1
	c0.2,0,0.4,0,0.5-0.1c1-0.6,2.3-1.6,4-3c4.3-3.5,6.5-6.1,6.9-7.9c0.2-0.7,0.3-1.5,0.3-2.2C23.8,5,20.8,1.7,17.1,1.7z M21.7,10.7
	c-0.2,0.8-1.2,2.8-6.3,6.9c-1.3,1.1-2.4,1.9-3.3,2.5c-0.8-0.6-2.4-1.6-3.4-2.4c-5.2-4-6.3-6-6.5-6.8c-0.2-0.5-0.3-1.1-0.3-1.7
	c0-1.5,0.6-3,1.6-4.1c0.9-0.9,2-1.4,3.3-1.4c1.7,0,3.3,0.9,4.2,2.4c0.2,0.3,0.5,0.5,0.8,0.5c0,0,0,0,0,0c0.3,0,0.7-0.2,0.8-0.5
	c0.9-1.5,2.4-2.5,4.2-2.5c0,0,0.1,0,0.1,0c2.7,0,4.8,2.4,4.9,5.3C21.9,9.6,21.9,10.1,21.7,10.7z"/>
</svg>
