<?xml version="1.0" encoding="utf-8"?>
<!-- Generator: Adobe Illustrator 24.3.0, SVG Export Plug-In . SVG Version: 6.00 Build 0)  -->
<svg version="1.1" id="Calque_1" xmlns="http://www.w3.org/2000/svg" xmlns:xlink="http://www.w3.org/1999/xlink" x="0px" y="0px"
	 viewBox="0 0 24 24" style="enable-background:new 0 0 24 24;" xml:space="preserve">
<path d="M12.2,22.4c-0.2,0-0.3,0-0.5-0.1c0,0-0.1-0.1-0.1-0.1L11.2,22c-0.8-0.5-2.5-1.7-3.7-2.7c-4.5-3.5-6.8-6-7.2-7.9
	C0.1,10.8,0,10,0,9.2c0-2.1,0.8-4.1,2.2-5.5c1.3-1.3,2.9-2,4.7-2h0c2,0,3.8,0.8,5.1,2.2c1.3-1.4,3.1-2.3,5-2.3l0.1,0
	c3.8,0,6.8,3.3,6.9,7.3c0,0.8-0.1,1.5-0.3,2.3c-0.4,1.8-2.6,4.5-7,8c-1.7,1.4-3,2.4-4,3C12.5,22.4,12.4,22.4,12.2,22.4L12.2,22.4z
	 M6.9,3.7c-1.3,0-2.4,0.5-3.3,1.4C2.6,6.2,2,7.7,2,9.2c0,0.6,0.1,1.1,0.3,1.7c0.2,0.9,1.3,2.8,6.5,6.9c1,0.8,2.6,1.9,3.4,2.4
	c0.9-0.6,2-1.5,3.3-2.5c5.1-4.2,6.1-6.1,6.3-6.9C21.9,10.1,22,9.5,22,9c0-2.9-2.2-5.3-4.9-5.3c0,0-0.1,0-0.1,0c-1.7,0-3.3,1-4.2,2.5
	c-0.2,0.3-0.5,0.5-0.9,0.5c-0.3,0-0.7-0.2-0.9-0.5C10.2,4.6,8.6,3.7,6.9,3.7L6.9,3.7z"/>
<path d="M19.7,10.8c0,0-0.1,0-0.1,0c-0.3-0.1-0.5-0.3-0.4-0.6l0.1-0.3c0.1-0.3,0.1-0.6,0.1-0.9c0-1.6-1.1-2.8-2.4-2.8
	c-0.3,0-0.5-0.2-0.5-0.5c0-0.3,0.2-0.5,0.5-0.5c1.9,0,3.4,1.7,3.4,3.8c0,0.4,0,0.8-0.2,1.2l-0.1,0.2C20.2,10.7,20,10.8,19.7,10.8
	L19.7,10.8z"/>
</svg>
