<?xml version="1.0" encoding="utf-8"?>
<!-- Generator: Adobe Illustrator 24.3.0, SVG Export Plug-In . SVG Version: 6.00 Build 0)  -->
<svg version="1.1" id="Calque_1" xmlns="http://www.w3.org/2000/svg" xmlns:xlink="http://www.w3.org/1999/xlink" x="0px" y="0px"
	 viewBox="0 0 24 24" style="enable-background:new 0 0 24 24;" xml:space="preserve">
<path d="M23.6,11.1L12.5,3.2c-0.3-0.2-0.8-0.2-1.1,0L0.4,11.1C0,11.4-0.1,12,0.2,12.4c0.3,0.4,0.9,0.5,1.3,0.2l1.3-0.9v8.5
	c0,0.5,0.4,0.9,0.9,0.9h5.9c0.5,0,0.9-0.4,0.9-0.9v-5.8h3v5.8c0,0.5,0.4,0.9,0.9,0.9h5.9c0.5,0,0.9-0.4,0.9-0.9v-8.5l1.3,0.9
	c0.2,0.1,0.4,0.2,0.5,0.2c0.3,0,0.6-0.1,0.8-0.4C24.1,12,24,11.4,23.6,11.1z M19.4,10.5v8.7h-4.1v-5.8c0-0.5-0.4-0.9-0.9-0.9H9.6
	c-0.5,0-0.9,0.4-0.9,0.9v5.8H4.6v-8.7c0-0.1,0-0.1,0-0.2L12,5l7.4,5.3C19.4,10.4,19.4,10.5,19.4,10.5z"/>
</svg>
