<?xml version="1.0" encoding="utf-8"?>
<!-- Generator: Adobe Illustrator 25.0.0, SVG Export Plug-In . SVG Version: 6.00 Build 0)  -->
<svg version="1.1" id="Calque_1" xmlns="http://www.w3.org/2000/svg" xmlns:xlink="http://www.w3.org/1999/xlink" x="0px" y="0px"
	 viewBox="0 0 24 24" style="enable-background:new 0 0 24 24;" xml:space="preserve">
<g>
	<path d="M22.9,0.1H1.1c-0.6,0-1,0.4-1,1v21.8c0,0.6,0.4,1,1,1h21.8c0.6,0,1-0.4,1-1V1.1C23.9,0.5,23.5,0.1,22.9,0.1z M21.9,21.9
		H2.1V2.1h19.8V21.9z"/>
	<path d="M5,19.8h4.4c0.6,0,1-0.4,1-1v-3.6h3.2v3.6c0,0.6,0.4,1,1,1H19c0.6,0,1-0.4,1-1V5.2c0-0.6-0.4-1-1-1h-4.4c-0.6,0-1,0.4-1,1
		v3.6h-3.2V5.2c0-0.6-0.4-1-1-1H5c-0.6,0-1,0.4-1,1v13.7C4,19.4,4.4,19.8,5,19.8z M6,6.2h2.4v3.6c0,0.6,0.4,1,1,1h5.2
		c0.6,0,1-0.4,1-1V6.2H18v11.7h-2.4v-3.6c0-0.6-0.4-1-1-1H9.4c-0.6,0-1,0.4-1,1v3.6H6V6.2z"/>
</g>
</svg>
