<?xml version="1.0" encoding="utf-8"?>
<!-- Generator: Adobe Illustrator 25.0.0, SVG Export Plug-In . SVG Version: 6.00 Build 0)  -->
<svg version="1.1" id="Calque_1" xmlns="http://www.w3.org/2000/svg" xmlns:xlink="http://www.w3.org/1999/xlink" x="0px" y="0px"
	 viewBox="0 0 24 24" style="enable-background:new 0 0 24 24;" xml:space="preserve">
<path d="M19.9,8.3c0-2.2-1.6-4.1-3.6-4.7c-0.2-1-0.7-1.8-1.4-2.5c-0.9-0.8-2.1-1.2-3.3-1.1c-1.2,0.1-2.3,0.6-3.1,1.5
	c-0.7,0.8-1.1,1.9-1.1,3C5.5,5.2,4.1,7,4.1,9.1c0,1.7,0.9,3.2,2.2,4c0,0,0,0.1,0,0.1l2.4,5.3l2.2,5c0.1,0.3,0.5,0.5,0.8,0.5
	c0.3,0,0.7-0.2,0.8-0.5l2.2-5l2.5-5.9C18.8,11.8,19.9,10.2,19.9,8.3z M11.7,1.8c0.7-0.1,1.4,0.2,2,0.7c0.3,0.3,0.6,0.7,0.7,1.1
	c-1.1,0.2-2.1,0.7-2.9,1.5C10.8,4.5,10,4.3,9.1,4.2c0.1-0.6,0.3-1.1,0.7-1.5C10.2,2.1,10.9,1.8,11.7,1.8z M10.2,17.6l1-0.5l0.5,1
	l-1,0.5L10.2,17.6z M9.4,15.9l0.9-0.4l0.4,0.9l-1,0.5L9.4,15.9z M11.7,13.1l0.3,0.6l-1.2,0.6l-0.3-0.6
	C10.9,13.5,11.3,13.3,11.7,13.1z M12.3,14.4l0.4,0.9l-1.2,0.6L11.1,15L12.3,14.4z M11.9,16.7l1.2-0.6l0.3,0.6l-0.2,0.6l-0.8,0.4
	L11.9,16.7z M13.6,15L13.1,14l1.9-0.9l-0.6,1.4L13.6,15z M12.7,13.3l-0.4-0.8c0,0,0.1-0.1,0.1-0.2c0.3,0.2,0.7,0.4,1.1,0.5
	L12.7,13.3z M8.9,6c0.6,0,1.2,0.2,1.6,0.5c-0.2,0.6-0.3,1.2-0.3,1.8c0,1.1,0.4,2.1,1,2.9c-0.6,0.6-1.4,1-2.3,1
	c-1.7,0-3.1-1.4-3.1-3.1C5.9,7.4,7.3,6,8.9,6z M8.9,13.9c0.2,0,0.4,0,0.6,0l0.4,0.8L9,15.1l-0.5-1.2C8.7,13.9,8.8,13.9,8.9,13.9z
	 M11,19.4l1-0.5l0.3,0.6l-0.6,1.5L11,19.4z M15.1,11.3c-1.7,0-3.1-1.4-3.1-3.1c0-1.7,1.4-3.1,3.1-3.1c1.7,0,3.1,1.4,3.1,3.1
	C18.1,9.9,16.8,11.3,15.1,11.3z"/>
</svg>
