<?xml version="1.0" encoding="utf-8"?>
<!-- Generator: Adobe Illustrator 25.0.0, SVG Export Plug-In . SVG Version: 6.00 Build 0)  -->
<svg version="1.1" id="Calque_1" xmlns="http://www.w3.org/2000/svg" xmlns:xlink="http://www.w3.org/1999/xlink" x="0px" y="0px"
	 viewBox="0 0 24 24" style="enable-background:new 0 0 24 24;" xml:space="preserve">
<g>
	<path d="M22.3,3.2h-4.8c-0.3-0.5-0.9-0.8-1.5-0.8H8.5C7.9,2.4,7.3,2.8,7,3.2H1.7c-0.6,0-1,0.4-1,1v16.3c0,0.6,0.4,1,1,1h20.5
		c0.6,0,1-0.4,1-1V4.2C23.3,3.7,22.8,3.2,22.3,3.2z M21.3,19.6H2.7V5.2h4.3c0.3,0.4,0.8,0.7,1.4,0.7H16c0.6,0,1.1-0.3,1.4-0.7h3.9
		V19.6z"/>
	<path d="M10.6,13.1c-0.5-0.2-1-0.3-1.6-0.4c0.9-0.4,1.6-1.5,1.6-2.6c0-1.6-1.2-2.9-2.6-2.9c-1.4,0-2.6,1.3-2.6,2.9
		c0,1.2,0.7,2.2,1.6,2.6c-0.5,0.1-1.1,0.2-1.6,0.4c-1,0.4-1.7,1.4-1.6,2.4l0.1,2c0,0.5,0.5,0.9,1,0.9h6.3c0.5,0,1-0.4,1-0.9l0.1-2
		C12.3,14.5,11.6,13.5,10.6,13.1z M7.9,9.2c0.3,0,0.6,0.4,0.6,0.9c0,0.5-0.3,0.9-0.6,0.9c-0.3,0-0.6-0.4-0.6-0.9
		C7.3,9.6,7.6,9.2,7.9,9.2z M10.1,16.5H5.8l-0.1-1.1C5.7,15.3,5.8,15,6,15c1.3-0.4,2.6-0.4,3.9,0c0.2,0.1,0.3,0.3,0.3,0.4L10.1,16.5
		z"/>
	<path d="M14.1,9.5c-0.6,0-1,0.4-1,1c0,0.6,0.4,1,1,1h4.2c0.6,0,1-0.4,1-1c0-0.6-0.4-1-1-1H14.1z"/>
	<path d="M18.3,12.7h-4.2c-0.6,0-1,0.4-1,1c0,0.6,0.4,1,1,1h4.2c0.6,0,1-0.4,1-1C19.3,13.1,18.9,12.7,18.3,12.7z"/>
</g>
</svg>
