<?xml version="1.0" encoding="utf-8"?>
<!-- Generator: Adobe Illustrator 25.0.0, SVG Export Plug-In . SVG Version: 6.00 Build 0)  -->
<svg version="1.1" id="Calque_1" xmlns="http://www.w3.org/2000/svg" xmlns:xlink="http://www.w3.org/1999/xlink" x="0px" y="0px"
	 viewBox="0 0 24 24" style="enable-background:new 0 0 24 24;" xml:space="preserve">
<g>
	<path d="M22.8,2H1.2c-0.6,0-1,0.4-1,1v12c0,0,0,0,0,0V21c0,0.6,0.4,1,1,1h21.7c0.6,0,1-0.4,1-1V3C23.8,2.4,23.4,2,22.8,2z M21.8,4
		v11.8l-4.2-3.6l-4.8,3.2L6.2,8.3l-4,4.2V4H21.8z M2.2,20v-4.7l4-4.1l6.3,6.8l5-3.3l4,3.4c0.1,0.1,0.2,0.1,0.3,0.2V20H2.2z"/>
	<path d="M13.2,11.9c2,0,3.6-1.6,3.6-3.6c0-2-1.6-3.6-3.6-3.6c-2,0-3.6,1.6-3.6,3.6C9.6,10.3,11.2,11.9,13.2,11.9z M13.2,6.7
		c0.9,0,1.6,0.7,1.6,1.6c0,0.9-0.7,1.6-1.6,1.6c-0.9,0-1.6-0.7-1.6-1.6C11.6,7.4,12.3,6.7,13.2,6.7z"/>
</g>
</svg>
