<?xml version="1.0" encoding="utf-8"?>
<!-- Generator: Adobe Illustrator 24.3.0, SVG Export Plug-In . SVG Version: 6.00 Build 0)  -->
<svg version="1.1" id="Calque_1" xmlns="http://www.w3.org/2000/svg" xmlns:xlink="http://www.w3.org/1999/xlink" x="0px" y="0px"
	 viewBox="0 0 24 24" style="enable-background:new 0 0 24 24;" xml:space="preserve">
<g>
	<path d="M8.4,18c-0.3,0.4-0.2,1.1,0.2,1.4c0.2,0.1,0.4,0.2,0.6,0.2c0.3,0,0.6-0.1,0.8-0.4l4.8-6.6c0,0,0-0.1,0.1-0.1
		c0,0,0-0.1,0.1-0.1c0.1-0.2,0.1-0.5,0-0.7c0,0,0-0.1-0.1-0.1c0,0,0-0.1-0.1-0.1L10,4.8c-0.3-0.4-1-0.5-1.4-0.2
		C8.2,4.9,8.1,5.5,8.4,6l3.6,5H1.6c-0.6,0-1,0.4-1,1c0,0.6,0.4,1,1,1h10.4L8.4,18z"/>
	<path d="M22.4,0.4H9c-0.6,0-1,0.4-1,1s0.4,1,1,1h12.4v19.3H9c-0.6,0-1,0.4-1,1c0,0.6,0.4,1,1,1h13.4c0.6,0,1-0.4,1-1V1.4
		C23.4,0.8,22.9,0.4,22.4,0.4z"/>
</g>
</svg>
