<?xml version="1.0" encoding="utf-8"?>
<!-- Generator: Adobe Illustrator 22.1.0, SVG Export Plug-In . SVG Version: 6.00 Build 0)  -->
<svg version="1.1" id="Calque_1" xmlns="http://www.w3.org/2000/svg" xmlns:xlink="http://www.w3.org/1999/xlink" x="0px" y="0px"
	 viewBox="0 0 24 24" style="enable-background:new 0 0 24 24;" xml:space="preserve">
<g>
	<path d="M16.9,0.1H7.2c-4,0-7.2,3.3-7.2,7.2v9.7c0,3.9,3.3,7,7.2,7h9.7c3.9,0,7.2-3.3,7.2-7.2V7.2C24,3.2,20.8,0.1,16.9,0.1
		L16.9,0.1z M21.5,17.1c0,2.7-2.1,4.8-4.8,4.8H7.2c-2.7,0-4.8-2.1-4.8-4.8V7.2c0-2.7,2.1-4.8,4.8-4.8h9.7c2.7,0,4.8,2.1,4.8,4.8
		C21.5,7.2,21.5,17.1,21.5,17.1z"/>
	<path d="M12,5.9c-3.4,0-6.3,2.8-6.3,6.3s2.8,6.3,6.3,6.3s6.1-2.8,6.1-6.3S15.4,5.9,12,5.9L12,5.9z M12,15.9c-2.1,0-3.9-1.6-3.9-3.9
		c0-2.1,1.6-3.9,3.9-3.9c2.1,0,3.9,1.6,3.9,3.9C15.7,14.1,14.1,15.9,12,15.9L12,15.9z"/>
	<path id="SVGID_9_" d="M19.7,5.9c0,0.9-0.7,1.5-1.5,1.5c-0.7,0-1.5-0.7-1.5-1.5c0-0.9,0.7-1.5,1.5-1.5C19,4.4,19.7,5.1,19.7,5.9
		L19.7,5.9z"/>
</g>
</svg>
