<?xml version="1.0" encoding="utf-8"?>
<!-- Generator: Adobe Illustrator 25.0.0, SVG Export Plug-In . SVG Version: 6.00 Build 0)  -->
<svg version="1.1" id="Calque_1" xmlns="http://www.w3.org/2000/svg" xmlns:xlink="http://www.w3.org/1999/xlink" x="0px" y="0px"
	 viewBox="0 0 24 24" style="enable-background:new 0 0 24 24;" xml:space="preserve">
<path d="M22.6,0.4H1.4c-0.5,0-1,0.4-1,1v21.3c0,0.5,0.4,1,1,1h21.3c0.5,0,1-0.4,1-1V1.4C23.6,0.8,23.2,0.4,22.6,0.4z M21.7,2.3v6.2
	H2.3V2.3H21.7z M8.2,16.8v-6.3h2.4v6.3h1v4.8H7.3v-4.8H8.2z M12.6,16.8h1v-6.3H16v6.3h1v4.8h-4.4V16.8z M2.3,10.5h3v6.3h1v4.8h-4
	V10.5z M17.9,21.7v-4.8h1v-6.3h2.7v11.2H17.9z"/>
</svg>
