<?xml version="1.0" encoding="utf-8"?>
<!-- Generator: Adobe Illustrator 25.0.0, SVG Export Plug-In . SVG Version: 6.00 Build 0)  -->
<svg version="1.1" id="Calque_1" xmlns="http://www.w3.org/2000/svg" xmlns:xlink="http://www.w3.org/1999/xlink" x="0px" y="0px"
	 viewBox="0 0 24 24" style="enable-background:new 0 0 24 24;" xml:space="preserve">
<g>
	<path d="M23.1,5.1H0.9C0.4,5.1,0,5.4,0,5.9v12.1c0,0.5,0.4,0.9,0.9,0.9h22.3c0.5,0,0.9-0.4,0.9-0.9V5.9C24,5.4,23.6,5.1,23.1,5.1z
		 M22.3,17.2H1.7V6.8h20.5V17.2z"/>
	<rect x="2.9" y="8" width="1.9" height="1.9"/>
	<rect x="5.6" y="8" width="1.9" height="1.9"/>
	<rect x="8.3" y="8" width="1.9" height="1.9"/>
	<rect x="11" y="8" width="1.9" height="1.9"/>
	<rect x="13.7" y="8" width="1.9" height="1.9"/>
	<rect x="16.4" y="8" width="1.9" height="1.9"/>
	<rect x="19.1" y="8" width="1.9" height="1.9"/>
	<rect x="2.9" y="10.7" width="1.9" height="1.9"/>
	<rect x="5.6" y="10.7" width="1.9" height="1.9"/>
	<rect x="8.3" y="10.7" width="1.9" height="1.9"/>
	<rect x="11" y="10.7" width="1.9" height="1.9"/>
	<rect x="13.7" y="10.7" width="1.9" height="1.9"/>
	<rect x="16.4" y="10.7" width="1.9" height="1.9"/>
	<rect x="19.1" y="10.7" width="1.9" height="1.9"/>
	<rect x="2.9" y="13.3" width="1.9" height="1.9"/>
	<polygon points="17.5,15.3 18.3,15.3 18.3,13.3 17.5,13.3 16.4,13.3 5.6,13.3 5.6,15.3 16.4,15.3 	"/>
	<rect x="19.1" y="13.3" width="1.9" height="1.9"/>
</g>
</svg>
