<?xml version="1.0" encoding="utf-8"?>
<!-- Generator: Adobe Illustrator 25.0.0, SVG Export Plug-In . SVG Version: 6.00 Build 0)  -->
<svg version="1.1" id="Calque_1" xmlns="http://www.w3.org/2000/svg" xmlns:xlink="http://www.w3.org/1999/xlink" x="0px" y="0px"
	 viewBox="0 0 24 24" style="enable-background:new 0 0 24 24;" xml:space="preserve">
<g>
	<path d="M3,17.3h17.7c0.4,0,0.8-0.4,0.8-0.8V5.2c0-0.4-0.4-0.8-0.8-0.8H3c-0.4,0-0.8,0.4-0.8,0.8v11.3C2.2,16.9,2.6,17.3,3,17.3z
		 M3.8,6h16.1v9.7H3.8V6z"/>
	<path d="M19.1,6.4H4.6c-0.2,0-0.4,0.2-0.4,0.4v8c0,0.2,0.2,0.4,0.4,0.4h14.5c0.2,0,0.4-0.2,0.4-0.4v-8C19.5,6.6,19.3,6.4,19.1,6.4z
		 M18.7,14.4H5V7.2h13.7V14.4z"/>
	<path d="M23.2,18H0.8C0.4,18,0,18.4,0,18.8c0,0.4,0.4,0.8,0.8,0.8h22.4c0.4,0,0.8-0.4,0.8-0.8C24,18.4,23.6,18,23.2,18z"/>
</g>
</svg>
