<?xml version="1.0" encoding="utf-8"?>
<!-- Generator: Adobe Illustrator 25.0.0, SVG Export Plug-In . SVG Version: 6.00 Build 0)  -->
<svg version="1.1" id="Calque_1" xmlns="http://www.w3.org/2000/svg" xmlns:xlink="http://www.w3.org/1999/xlink" x="0px" y="0px"
	 viewBox="0 0 24 24" style="enable-background:new 0 0 24 24;" xml:space="preserve">
<g>
	<path d="M0.5,8.5l11.1,6.2c0.1,0.1,0.3,0.1,0.5,0.1c0.2,0,0.3,0,0.5-0.1l11-6.2C23.8,8.4,24,8.1,24,7.7c0-0.3-0.2-0.7-0.5-0.8
		L12.4,0.7c-0.3-0.2-0.6-0.2-0.9,0l-11,6.2C0.2,7,0,7.3,0,7.7S0.2,8.4,0.5,8.5z M12,2.6l9.1,5.1L12,12.8L2.9,7.7L12,2.6z"/>
	<path d="M22.6,11.2L12,17.1L1.4,11.1c-0.5-0.3-1-0.1-1.3,0.4c-0.3,0.5-0.1,1,0.4,1.3L11.6,19c0.1,0.1,0.3,0.1,0.5,0.1
		c0.2,0,0.3,0,0.5-0.1l11-6.2c0.5-0.3,0.6-0.8,0.4-1.3C23.6,11.1,23,10.9,22.6,11.2z"/>
	<path d="M22.6,15.5L12,21.4L1.4,15.4c-0.5-0.3-1-0.1-1.3,0.4c-0.3,0.5-0.1,1,0.4,1.3l11.1,6.2c0.1,0.1,0.3,0.1,0.5,0.1
		c0.2,0,0.3,0,0.5-0.1l11-6.2c0.5-0.3,0.6-0.8,0.4-1.3C23.6,15.4,23,15.2,22.6,15.5z"/>
</g>
</svg>
