<?xml version="1.0" encoding="utf-8"?>
<!-- Generator: Adobe Illustrator 24.3.0, SVG Export Plug-In . SVG Version: 6.00 Build 0)  -->
<svg version="1.1" id="Calque_1" xmlns="http://www.w3.org/2000/svg" xmlns:xlink="http://www.w3.org/1999/xlink" x="0px" y="0px"
	 viewBox="0 0 24 24" style="enable-background:new 0 0 24 24;" xml:space="preserve">
<path d="M21.8,2.7c-0.1-0.2-0.3-0.4-0.5-0.5c-1.8-0.9-3.9-1.3-5.9-1.3c-3.7,0-7.2,1.4-9.8,4c-3.9,3.9-5.1,9.9-3,15l-1.4,1.4
	c-0.4,0.4-0.4,1,0,1.4c0.2,0.2,0.5,0.3,0.7,0.3c0.3,0,0.5-0.1,0.7-0.3L4,21.4c1.7,0.7,3.4,1,5.2,1c0,0,0,0,0,0c3.7,0,7.2-1.4,9.8-4
	C23.1,14.3,24.2,8,21.8,2.7z M8.1,5.8c0-0.1,0-0.2-0.1-0.2c1.2-1,2.5-1.7,4-2.1l0.3,7.4c0,0.1,0,0.1,0,0.2l-3.9,3.9L8.1,5.8z
	 M20.3,4.4c0.8,2.2,1,4.5,0.5,6.6L14,10.7L20.3,4.4z M19.6,3.7L13.3,10l-0.3-6.8c0.8-0.2,1.6-0.3,2.5-0.3
	C16.8,2.9,18.3,3.2,19.6,3.7z M7.1,6.4C7.1,6.4,7.1,6.4,7.1,6.4l0.5,9.3c0,0,0,0.1,0,0.1l-3.2,3.2C2.7,14.6,3.8,9.7,7.1,6.4z
	 M9.3,20.4C9.3,20.4,9.3,20.4,9.3,20.4c-1.4,0-2.9-0.3-4.2-0.8l3.2-3.2c0,0,0.1,0,0.1,0l9.3,0.4c0,0,0,0,0,0
	C15.4,19.2,12.4,20.4,9.3,20.4z M18.5,16c-0.1,0-0.1-0.1-0.2-0.1l-9.1-0.4l3.9-3.9c0.1,0,0.1,0,0.2,0l7.3,0.3
	C20.1,13.5,19.4,14.8,18.5,16z"/>
</svg>
