<?xml version="1.0" encoding="utf-8"?>
<!-- Generator: Adobe Illustrator 25.0.0, SVG Export Plug-In . SVG Version: 6.00 Build 0)  -->
<svg version="1.1" id="Calque_1" xmlns="http://www.w3.org/2000/svg" xmlns:xlink="http://www.w3.org/1999/xlink" x="0px" y="0px"
	 viewBox="0 0 24 24" style="enable-background:new 0 0 24 24;" xml:space="preserve">
<path d="M12,0.2C5.5,0.2,0.2,5.5,0.2,12c0,6.5,5.3,11.8,11.8,11.8c6.5,0,11.8-5.3,11.8-11.8C23.8,5.5,18.5,0.2,12,0.2z M17.6,10.5
	h4.1c0.1,0.5,0.1,1,0.1,1.5c0,0.5-0.1,1-0.1,1.6h-4.1c0.1-0.5,0.2-1,0.2-1.6C17.8,11.5,17.7,11,17.6,10.5z M21.4,9.5h-4.2
	c-0.6-1.2-1.5-2.1-2.6-2.7V2.6C17.9,3.5,20.5,6.1,21.4,9.5z M12,15.8c-2.1,0-3.8-1.7-3.8-3.8S9.9,8.2,12,8.2c2.1,0,3.8,1.7,3.8,3.8
	S14.1,15.8,12,15.8z M13.5,2.4v4.1c-0.5-0.1-1-0.2-1.5-0.2c-0.5,0-1,0.1-1.5,0.2V2.4c0.5-0.1,1-0.1,1.5-0.1
	C12.5,2.2,13,2.3,13.5,2.4z M9.5,2.6v4.2C8.3,7.4,7.4,8.3,6.8,9.5H2.6C3.5,6.1,6.1,3.5,9.5,2.6z M2.2,12c0-0.5,0.1-1,0.1-1.5h4.1
	c-0.1,0.5-0.2,1-0.2,1.5c0,0.5,0.1,1.1,0.2,1.6H2.4C2.3,13,2.2,12.5,2.2,12z M2.6,14.6h4.3c0.6,1.1,1.5,2.1,2.6,2.6v4.2
	C6.1,20.5,3.5,17.9,2.6,14.6z M10.5,21.6v-4.1c0.5,0.1,1,0.2,1.5,0.2c0.5,0,1-0.1,1.5-0.2v4.1c-0.5,0.1-1,0.1-1.5,0.1
	C11.5,21.8,11,21.7,10.5,21.6z M14.5,21.4v-4.3c1.1-0.6,2.1-1.5,2.6-2.6h4.3C20.5,17.9,17.9,20.5,14.5,21.4z"/>
</svg>
