<?xml version="1.0" encoding="utf-8"?>
<!-- Generator: Adobe Illustrator 25.0.0, SVG Export Plug-In . SVG Version: 6.00 Build 0)  -->
<svg version="1.1" id="Calque_1" xmlns="http://www.w3.org/2000/svg" xmlns:xlink="http://www.w3.org/1999/xlink" x="0px" y="0px"
	 viewBox="0 0 24 24" style="enable-background:new 0 0 24 24;" xml:space="preserve">
<g>
	<path d="M22.6,6.3l-3.9,0.4c-0.2,0-0.4,0.1-0.6,0.3l-9.3,9.3c-1-0.5-2.2-0.4-3.2,0.2l-2.3-2.2c-0.4-0.4-1-0.4-1.4,0
		c-0.4,0.4-0.4,1,0,1.4L4.3,18c-0.1,0.3-0.2,0.7-0.2,1.1c0,0.8,0.3,1.6,0.9,2.2c0.6,0.6,1.4,0.9,2.2,0.9c0.8,0,1.6-0.3,2.2-0.9
		c0.6-0.6,0.9-1.4,0.9-2.2c0-0.5-0.1-1-0.3-1.4l9-9l3.6-0.4c0.5-0.1,0.9-0.5,0.9-1.1C23.6,6.6,23.1,6.2,22.6,6.3z M8.2,19.9
		c-0.4,0.4-1.2,0.4-1.7,0c-0.2-0.2-0.3-0.5-0.3-0.8c0-0.3,0.1-0.6,0.3-0.8C6.7,18,7,17.9,7.3,17.9c0.3,0,0.6,0.1,0.8,0.3
		C8.6,18.7,8.6,19.4,8.2,19.9z"/>
	<path d="M7.2,15.6c0.3,0,0.5-0.1,0.7-0.3l5.9-5.9c0.4-0.4,0.4-1,0-1.4L7.9,2.1c-0.4-0.4-1-0.4-1.4,0L0.6,8C0.4,8.2,0.3,8.4,0.3,8.7
		s0.1,0.5,0.3,0.7l5.9,5.9C6.7,15.5,7,15.6,7.2,15.6z M7.2,4.2l1.5,1.5L7.2,7.3l1.4,1.4l1.5-1.5l1.5,1.5l-4.5,4.5L2.7,8.7L7.2,4.2z"
		/>
</g>
</svg>
