<?xml version="1.0" encoding="utf-8"?>
<!-- Generator: Adobe Illustrator 25.0.0, SVG Export Plug-In . SVG Version: 6.00 Build 0)  -->
<svg version="1.1" id="Calque_1" xmlns="http://www.w3.org/2000/svg" xmlns:xlink="http://www.w3.org/1999/xlink" x="0px" y="0px"
	 viewBox="0 0 24 24" style="enable-background:new 0 0 24 24;" xml:space="preserve">
<g>
	<path d="M12,0C7.4,0,3.7,3.7,3.7,8.3c0,0,0,3.8,3.1,7.7c0.4,0.6,0.5,1.9,0.5,2.6c0,0.3,0.1,0.5,0.3,0.7c0.2,0.2,0.4,0.3,0.7,0.3
		h7.4c0.3,0,0.5-0.1,0.7-0.3c0.2-0.2,0.3-0.5,0.3-0.7c0-0.6,0-2,0.4-2.5c3.1-4,3.1-7.7,3.1-7.8C20.3,3.7,16.6,0,12,0z M12.9,17.7
		h-1.8l-0.8-7c0.2,0,0.4-0.2,0.4-0.3c0.1,0.2,0.3,0.3,0.6,0.3c0.3,0,0.5-0.2,0.6-0.4c0.1,0.2,0.3,0.4,0.6,0.4c0.3,0,0.5-0.2,0.6-0.4
		c0.1,0.2,0.3,0.3,0.6,0.4L12.9,17.7z M15.6,14.8c-0.6,0.8-0.8,2-0.8,2.8h-0.9L15,8.2l-1-0.1l-0.1,1.1c-0.1,0.1-0.1,0.1-0.1,0.2
		C13.6,9.2,13.4,9,13.1,9c-0.3,0-0.5,0.2-0.6,0.4C12.4,9.2,12.2,9,11.9,9c-0.3,0-0.5,0.2-0.6,0.4C11.2,9.2,11,9,10.7,9
		c-0.3,0-0.5,0.2-0.6,0.3c0,0,0,0,0,0L10,8.1L9,8.2l1.1,9.5H9.3c-0.1-0.8-0.3-2-0.9-2.8c-2.6-3.3-2.7-6.5-2.7-6.5
		C5.7,4.8,8.5,2,12,2c3.5,0,6.3,2.8,6.3,6.3C18.3,8.3,18.2,11.5,15.6,14.8z"/>
	<path d="M15.9,19.9H8.1c-0.5,0-1,0.4-1,1c0,0.5,0.4,1,1,1h7.7c0.5,0,1-0.4,1-1C16.9,20.3,16.4,19.9,15.9,19.9z"/>
	<path d="M14.9,22H9.1c-0.5,0-1,0.4-1,1s0.4,1,1,1h5.9c0.5,0,1-0.4,1-1S15.5,22,14.9,22z"/>
</g>
</svg>
