<?xml version="1.0" encoding="utf-8"?>
<!-- Generator: Adobe Illustrator 25.0.0, SVG Export Plug-In . SVG Version: 6.00 Build 0)  -->
<svg version="1.1" id="Calque_1" xmlns="http://www.w3.org/2000/svg" xmlns:xlink="http://www.w3.org/1999/xlink" x="0px" y="0px"
	 viewBox="0 0 24 24" style="enable-background:new 0 0 24 24;" xml:space="preserve">
<path d="M18.8,9.6c-0.2-0.3-0.5-0.5-0.8-0.5h-3.8l2.2-7.9c0.1-0.4-0.1-0.9-0.5-1.1c-0.4-0.2-0.9-0.1-1.1,0.3l-9.4,13
	c-0.2,0.3-0.2,0.7-0.1,1c0.2,0.3,0.5,0.5,0.8,0.5h3.8l-2.2,7.9c-0.1,0.4,0.1,0.9,0.5,1.1C8.2,23.9,8.4,24,8.5,24
	c0.3,0,0.6-0.1,0.7-0.4l9.4-13C18.9,10.3,18.9,9.9,18.8,9.6z M10.8,18.3l1.2-4.1c0.1-0.3,0-0.6-0.2-0.8c-0.2-0.2-0.4-0.4-0.7-0.4
	H7.9l5.4-7.4l-1.2,4.1c-0.1,0.3,0,0.6,0.2,0.8c0.2,0.2,0.4,0.4,0.7,0.4h3.2L10.8,18.3z"/>
</svg>
