<?xml version="1.0" encoding="utf-8"?>
<!-- Generator: Adobe Illustrator 24.3.0, SVG Export Plug-In . SVG Version: 6.00 Build 0)  -->
<svg version="1.1" id="Calque_1" xmlns="http://www.w3.org/2000/svg" xmlns:xlink="http://www.w3.org/1999/xlink" x="0px" y="0px"
	 viewBox="0 0 24 24" style="enable-background:new 0 0 24 24;" xml:space="preserve">
<path d="M23.7,10.6c0-1.8-1.5-3.3-3.3-3.3l-0.4,0c-2.1,0-3.3-0.2-3.8-0.4c0-0.2,0-0.4,0-0.6c0-0.2,0-0.3,0.1-0.5
	c0-0.3,0.1-0.5,0.1-0.8c0.2-1.9-0.2-3.6-1.1-4.4C14.9,0.2,14.4,0,13.9,0c-0.1,0-1.5,0-2.1,0.8c-0.3,0.3-0.4,0.8-0.4,1.2
	c0,0.1,0.2,1.8-0.2,3.2c-0.6,1-1.9,2.5-3.1,3.7C8,8.7,7.9,8.6,7.7,8.5C7.5,8.3,7.2,8.3,7,8.4l-6,1.8c-0.5,0.2-0.8,0.7-0.7,1.2
	l3.5,11.9c0.1,0.4,0.5,0.7,1,0.7c0.1,0,0.2,0,0.3,0l6-1.8c0.3-0.1,0.5-0.2,0.6-0.5c0.1-0.2,0.2-0.5,0.1-0.8l-0.6-2.2
	c0.5,0,1.1,0,1.9,0.1l1.6,0.1c1,0.1,1.9,0.2,2.5,0.2c0.2,0,0.5,0.1,0.8,0.1c1.5,0,2.5-0.5,2.8-1.5c0-0.1,0-0.1,0.1-0.2
	c0.8-0.5,1.4-1.4,1.4-2.3c0,0,0,0,0,0c0.5-0.5,0.9-1.2,0.9-2c0-0.2,0-0.5,0-0.7C23.5,12,23.7,11.3,23.7,10.6z M5.4,21.8l-2.9-9.9
	l0-0.1l4.1-1.2l0,0.1c0,0.1,0,0.2,0,0.3l2.1,7.3c0,0.1,0.1,0.2,0.1,0.3l0.6,2.1L5.4,21.8z M21.3,11.6c-0.3,0.3-0.4,0.7-0.2,1.1
	c0.1,0.1,0.1,0.3,0.1,0.4c0,0.3-0.2,0.6-0.5,0.7c-0.4,0.2-0.6,0.6-0.5,1c0,0.1,0,0.1,0,0.2c0,0.4-0.3,0.7-0.6,0.8
	c-0.4,0.1-0.6,0.4-0.7,0.8c0,0.1,0,0.2-0.1,0.3c0,0-0.3,0.2-1,0.2c-0.2,0-0.4,0-0.5,0c-0.6-0.1-1.6-0.2-2.6-0.2l-1.5-0.1
	c-0.6-0.1-1.1-0.1-1.6-0.1c-0.4,0-0.8,0-1.1,0.1L8.8,11c1.5-1.3,3.5-3.6,4.2-4.9C13,6,13,6,13.1,5.9c0.5-1.5,0.4-3.1,0.3-3.8
	C13.5,2,13.7,2,13.8,2c0.2,0.2,0.7,1.1,0.6,3c0,0.2,0,0.4-0.1,0.6c0,0.2-0.1,0.3-0.1,0.6c0,0.4,0,0.8-0.1,1.1c0,0.4,0.1,0.8,0.4,1
	c0.3,0.3,1,1.1,5.4,1.1c0.3,0,0.4,0,0.4,0c0.7,0,1.3,0.6,1.3,1.3C21.7,11,21.6,11.3,21.3,11.6z"/>
</svg>
