<?xml version="1.0" encoding="utf-8"?>
<!-- Generator: Adobe Illustrator 25.0.0, SVG Export Plug-In . SVG Version: 6.00 Build 0)  -->
<svg version="1.1" id="Calque_1" xmlns="http://www.w3.org/2000/svg" xmlns:xlink="http://www.w3.org/1999/xlink" x="0px" y="0px"
	 viewBox="0 0 24 24" style="enable-background:new 0 0 24 24;" xml:space="preserve">
<g>
	<path d="M6.8,17.2c0.2,0.2,0.5,0.3,0.7,0.3s0.5-0.1,0.7-0.3l8.7-8.7c0.4-0.4,0.4-1,0-1.4s-1-0.4-1.4,0l-8.7,8.7
		C6.4,16.2,6.4,16.8,6.8,17.2z"/>
	<path d="M22.4,1.9l-0.3-0.3c-2.1-2.1-5.5-2.1-7.6,0L12,4.1c-1.1,1.1-1.7,2.7-1.5,4.3c0,0.6,0.5,1,1.1,0.9c0.5,0,1-0.5,0.9-1.1
		c-0.1-1,0.3-2,1-2.7L15.9,3c1.3-1.3,3.4-1.3,4.8,0L21,3.3c1.3,1.3,1.3,3.4,0,4.8l-2.5,2.5c-0.7,0.7-1.7,1-2.7,1
		c-0.5,0-1,0.4-1.1,0.9s0.4,1,0.9,1.1c0.2,0,0.3,0,0.5,0c1.4,0,2.8-0.6,3.8-1.6l2.5-2.5C24.5,7.4,24.5,4,22.4,1.9z"/>
	<path d="M12.4,14.7c-0.5,0-1,0.5-0.9,1.1c0.1,1-0.3,2-1,2.7L8.1,21c-1.3,1.3-3.4,1.3-4.8,0l-0.3-0.3c-0.6-0.6-1-1.5-1-2.4
		c0-0.9,0.3-1.7,1-2.4l2.5-2.5c0.7-0.7,1.7-1,2.7-1c0.6,0,1-0.4,1.1-0.9c0-0.6-0.4-1-0.9-1.1c-1.6-0.1-3.1,0.4-4.3,1.5l-2.5,2.5
		c-1,1-1.6,2.4-1.6,3.8c0,1.4,0.6,2.8,1.6,3.8l0.3,0.3c1,1,2.4,1.6,3.8,1.6c1.4,0,2.7-0.5,3.8-1.6l2.5-2.5c1.1-1.1,1.7-2.7,1.5-4.3
		C13.5,15.1,13,14.7,12.4,14.7z"/>
</g>
</svg>
