<?xml version="1.0" encoding="utf-8"?>
<!-- Generator: Adobe Illustrator 22.1.0, SVG Export Plug-In . SVG Version: 6.00 Build 0)  -->
<svg version="1.1" id="Calque_1" xmlns="http://www.w3.org/2000/svg" xmlns:xlink="http://www.w3.org/1999/xlink" x="0px" y="0px"
	 viewBox="0 0 24 24" style="enable-background:new 0 0 24 24;" xml:space="preserve">
<g>
	<path d="M18.2,7.6c-2.7,0-3.9,1.5-4.7,2.5v0.2l0,0c0,0,0,0,0-0.2V7.9H8.2c0.2,1.3,0,15.4,0,15.4h5.1v-8.7c0-0.5,0-0.9,0.2-1.2
		c0.3-0.9,1.2-1.8,2.7-1.8c1.8,0,2.7,1.3,2.7,3.6v8.3H24v-8.9C24,9.9,21.4,7.6,18.2,7.6z"/>
	<path d="M2.9,0.6C1.2,0.6,0,1.6,0,3.1s1.2,2.7,2.9,2.7l0,0c1.8,0,2.9-1.2,2.9-2.7S4.6,0.6,2.9,0.6z"/>
	<rect x="0.3" y="8.1" width="5.1" height="15.5"/>
</g>
</svg>
