<?xml version="1.0" encoding="utf-8"?>
<!-- Generator: Adobe Illustrator 25.0.0, SVG Export Plug-In . SVG Version: 6.00 Build 0)  -->
<svg version="1.1" id="Calque_1" xmlns="http://www.w3.org/2000/svg" xmlns:xlink="http://www.w3.org/1999/xlink" x="0px" y="0px"
	 viewBox="0 0 24 24" style="enable-background:new 0 0 24 24;" xml:space="preserve">
<g>
	<path d="M9.3,4h13.5c0.6,0,1-0.4,1-1c0-0.6-0.4-1-1-1H9.3c-0.6,0-1,0.4-1,1C8.3,3.6,8.7,4,9.3,4z"/>
	<path d="M4.6,0.3H1.2c-0.6,0-1,0.4-1,1v3.3c0,0.6,0.4,1,1,1h3.3c0.6,0,1-0.4,1-1V1.3C5.6,0.8,5.1,0.3,4.6,0.3z M3.6,3.7H2.2V2.3
		h1.3V3.7z"/>
	<path d="M22.8,11H9.3c-0.6,0-1,0.4-1,1c0,0.6,0.4,1,1,1h13.5c0.6,0,1-0.4,1-1C23.8,11.4,23.3,11,22.8,11z"/>
	<path d="M4.6,9.3H1.2c-0.6,0-1,0.4-1,1v3.3c0,0.6,0.4,1,1,1h3.3c0.6,0,1-0.4,1-1v-3.3C5.6,9.8,5.1,9.3,4.6,9.3z M3.6,12.7H2.2v-1.3
		h1.3V12.7z"/>
	<path d="M22.8,20H9.3c-0.6,0-1,0.4-1,1c0,0.6,0.4,1,1,1h13.5c0.6,0,1-0.4,1-1C23.8,20.4,23.3,20,22.8,20z"/>
	<path d="M4.6,18.3H1.2c-0.6,0-1,0.4-1,1v3.3c0,0.6,0.4,1,1,1h3.3c0.6,0,1-0.4,1-1v-3.3C5.6,18.8,5.1,18.3,4.6,18.3z M3.6,21.7H2.2
		v-1.3h1.3V21.7z"/>
</g>
</svg>
