<?xml version="1.0" encoding="utf-8"?>
<!-- Generator: Adobe Illustrator 25.0.0, SVG Export Plug-In . SVG Version: 6.00 Build 0)  -->
<svg version="1.1" id="Calque_1" xmlns="http://www.w3.org/2000/svg" xmlns:xlink="http://www.w3.org/1999/xlink" x="0px" y="0px"
	 viewBox="0 0 24 24" style="enable-background:new 0 0 24 24;" xml:space="preserve">
<g>
	<path d="M20.2,1h-3c-0.4-0.6-1-1-1.8-1H8.7C7.9,0,7.3,0.4,6.9,1h-3c-0.5,0-1,0.4-1,1v21c0,0.5,0.4,1,1,1h16.3c0.5,0,1-0.4,1-1V2
		C21.2,1.4,20.7,1,20.2,1z M19.2,22H4.8V3h1.9c0.3,0.7,1.1,1.2,1.9,1.2h6.7c0.9,0,1.6-0.5,1.9-1.2h1.9V22z"/>
	<path d="M8.6,7.6H7.5C7.2,7.6,7,7.8,7,8v1.1c0,0.3,0.2,0.5,0.5,0.5h1.1c0.3,0,0.5-0.2,0.5-0.5V8C9.1,7.8,8.9,7.6,8.6,7.6z"/>
	<path d="M17,8.1h-6.4c-0.3,0-0.5,0.2-0.5,0.5c0,0.3,0.2,0.5,0.5,0.5H17c0.3,0,0.5-0.2,0.5-0.5C17.5,8.3,17.2,8.1,17,8.1z"/>
	<path d="M8.6,14.4H7.5c-0.3,0-0.5,0.2-0.5,0.5V16c0,0.3,0.2,0.5,0.5,0.5h1.1c0.3,0,0.5-0.2,0.5-0.5v-1.1
		C9.1,14.6,8.9,14.4,8.6,14.4z"/>
	<path d="M17,14.9h-6.4c-0.3,0-0.5,0.2-0.5,0.5c0,0.3,0.2,0.5,0.5,0.5H17c0.3,0,0.5-0.2,0.5-0.5C17.5,15.1,17.2,14.9,17,14.9z"/>
	<path d="M8.6,11H7.5C7.2,11,7,11.2,7,11.4v1.1C7,12.8,7.2,13,7.5,13h1.1c0.3,0,0.5-0.2,0.5-0.5v-1.1C9.1,11.2,8.9,11,8.6,11z"/>
	<path d="M17,11.5h-6.4c-0.3,0-0.5,0.2-0.5,0.5c0,0.3,0.2,0.5,0.5,0.5H17c0.3,0,0.5-0.2,0.5-0.5C17.5,11.7,17.2,11.5,17,11.5z"/>
</g>
</svg>
