<?xml version="1.0" encoding="utf-8"?>
<!-- Generator: Adobe Illustrator 25.0.0, SVG Export Plug-In . SVG Version: 6.00 Build 0)  -->
<svg version="1.1" id="Calque_1" xmlns="http://www.w3.org/2000/svg" xmlns:xlink="http://www.w3.org/1999/xlink" x="0px" y="0px"
	 viewBox="0 0 24 24" style="enable-background:new 0 0 24 24;" xml:space="preserve">
<path d="M23,1.5C23,1.5,23,1.5,23,1.5c0-0.6-0.4-1-1-1h-5c-0.6,0-1,0.4-1,1c0,0.1,0,0.1,0,0.2c0,0,0,0,0,0l0,10.8
	c0,1.1-0.4,2.1-1.2,2.8C14,16.1,13,16.5,12,16.5c0,0,0,0,0,0c-2.2,0-4-1.8-4-4L8,1.7c0,0,0-0.1,0-0.1c0,0,0-0.1,0-0.1
	c0-0.6-0.4-1-1-1l-5,0h0c-0.6,0-1,0.4-1,1c0,0,0,0,0,0.1c0,0,0,0.1,0,0.1l0,10.8c0,6.1,4.9,11,11,11c0,0,0,0,0,0
	c2.9,0,5.7-1.1,7.8-3.2c2.1-2.1,3.2-4.8,3.2-7.8l0-10.8C23,1.7,23,1.6,23,1.5z M18,2.5h3l0,2.3h-3L18,2.5z M3,2.5l3,0l0,2.3l-3,0
	L3,2.5z M18.3,18.9c-1.7,1.7-4,2.6-6.3,2.6c0,0,0,0,0,0c-5,0-9-4.1-9-9l0-6.6l3,0l0,6.6c0,3.3,2.7,6,6,6c0,0,0,0,0,0
	c1.6,0,3.1-0.6,4.2-1.7c1.1-1.1,1.8-2.6,1.8-4.2l0-6.7h3l0,6.7C21,14.9,20,17.2,18.3,18.9z"/>
</svg>
