<?xml version="1.0" encoding="utf-8"?>
<!-- Generator: Adobe Illustrator 25.0.0, SVG Export Plug-In . SVG Version: 6.00 Build 0)  -->
<svg version="1.1" id="Calque_1" xmlns="http://www.w3.org/2000/svg" xmlns:xlink="http://www.w3.org/1999/xlink" x="0px" y="0px"
	 viewBox="0 0 24 24" style="enable-background:new 0 0 24 24;" xml:space="preserve">
<g>
	<path d="M11.4,12.8c0,0,0.1,0,0.1,0.1c0,0,0.1,0,0.1,0.1c0.1,0,0.2,0.1,0.4,0.1c0.1,0,0.2,0,0.3-0.1c0,0,0.1,0,0.1-0.1
		c0,0,0.1,0,0.1-0.1L18,8.9c0.4-0.3,0.5-1,0.2-1.4c-0.3-0.4-0.9-0.5-1.4-0.2L13,10V1.2c0-0.6-0.4-1-1-1c-0.6,0-1,0.4-1,1V10L7.2,7.2
		C6.8,6.9,6.1,7,5.8,7.5C5.5,7.9,5.6,8.5,6,8.9L11.4,12.8z"/>
	<path d="M23.5,15.7L23.5,15.7c0,0,0-0.1,0-0.1c0-0.1,0-0.2-0.1-0.3c0-0.1-0.1-0.1-0.1-0.2c0,0,0-0.1-0.1-0.1l-4-4.2
		c-0.4-0.4-1-0.4-1.4,0c-0.4,0.4-0.4,1,0,1.4l2.4,2.5H16c-0.6,0-1,0.4-1,1v1.4H9v-1.4c0-0.6-0.4-1-1-1H3.9l2.4-2.5
		c0.4-0.4,0.4-1,0-1.4c-0.4-0.4-1-0.4-1.4,0l-4,4.2c0,0,0,0,0,0l0,0c0,0,0,0,0,0.1c-0.1,0.1-0.1,0.2-0.2,0.3c0,0.1,0,0.1,0,0.2
		c0,0.1,0,0.1,0,0.2v7.1c0,0.6,0.4,1,1,1h21c0.6,0,1-0.4,1-1V15.7C23.5,15.7,23.5,15.7,23.5,15.7z M21.5,21.8h-19v-5.1H7v0.4
		c0,1.1,0.9,2,2,2h6c1.1,0,2-0.9,2-2v-0.4h4.5V21.8z"/>
</g>
</svg>
