<?xml version="1.0" encoding="utf-8"?>
<!-- Generator: Adobe Illustrator 25.0.0, SVG Export Plug-In . SVG Version: 6.00 Build 0)  -->
<svg version="1.1" id="Calque_1" xmlns="http://www.w3.org/2000/svg" xmlns:xlink="http://www.w3.org/1999/xlink" x="0px" y="0px"
	 viewBox="0 0 24 24" style="enable-background:new 0 0 24 24;" xml:space="preserve">
<path d="M21.1,3.7H2.9c-1.3,0-2.4,1.1-2.4,2.4v11.9c0,1.3,1.1,2.4,2.4,2.4h18.2c1.3,0,2.4-1.1,2.4-2.4V6.1
	C23.4,4.8,22.4,3.7,21.1,3.7z M21.1,18.3H2.9c-0.1,0-0.2,0-0.3-0.1l6.2-5.5l2.8,2.5c0.1,0.1,0.2,0.1,0.3,0.1c0.1,0,0.2,0,0.3-0.1
	l2.8-2.5l6.2,5.5C21.3,18.3,21.2,18.3,21.1,18.3z M12,14.1L2.7,5.8c0.1-0.1,0.2-0.1,0.3-0.1h18.2c0.1,0,0.2,0,0.3,0.1L12,14.1z
	 M2.6,7.1L8.1,12l-5.5,4.9V7.1z M15.9,12l5.5-4.9v9.9L15.9,12z"/>
</svg>
