<?xml version="1.0" encoding="utf-8"?>
<!-- Generator: Adobe Illustrator 25.0.0, SVG Export Plug-In . SVG Version: 6.00 Build 0)  -->
<svg version="1.1" id="Calque_1" xmlns="http://www.w3.org/2000/svg" xmlns:xlink="http://www.w3.org/1999/xlink" x="0px" y="0px"
	 viewBox="0 0 24 24" style="enable-background:new 0 0 24 24;" xml:space="preserve">
<g>
	<path d="M22.5,13.5h-0.1V6.4c0-0.6-0.4-1-1-1H2.9c-0.6,0-1,0.4-1,1v7.2H1.5c-0.6,0-1,0.4-1,1v7.1c0,0.6,0.4,1,1,1h21
		c0.6,0,1-0.4,1-1v-7.1C23.5,14,23.1,13.5,22.5,13.5z M3.9,7.4h16.5v6.2H16c-0.6,0-1,0.4-1,1V16H9v-1.4c0-0.6-0.4-1-1-1H3.9V7.4z
		 M21.5,20.6h-19v-5.1H7V16c0,1.1,0.9,2,2,2h6c1.1,0,2-0.9,2-2v-0.4h4.5V20.6z"/>
	<path d="M4,4.4h16.2c0.3,0,0.5-0.2,0.5-0.5c0-0.3-0.2-0.5-0.5-0.5H4c-0.3,0-0.5,0.2-0.5,0.5C3.5,4.2,3.8,4.4,4,4.4z"/>
	<path d="M5,2.4h14.2c0.3,0,0.5-0.2,0.5-0.5c0-0.3-0.2-0.5-0.5-0.5H5c-0.3,0-0.5,0.2-0.5,0.5C4.5,2.2,4.7,2.4,5,2.4z"/>
</g>
</svg>
