<?xml version="1.0" encoding="utf-8"?>
<!-- Generator: Adobe Illustrator 25.0.0, SVG Export Plug-In . SVG Version: 6.00 Build 0)  -->
<svg version="1.1" id="Calque_1" xmlns="http://www.w3.org/2000/svg" xmlns:xlink="http://www.w3.org/1999/xlink" x="0px" y="0px"
	 viewBox="0 0 24 24" style="enable-background:new 0 0 24 24;" xml:space="preserve">
<g>
	<path d="M7.2,5.9L11,3.2V12c0,0.6,0.4,1,1,1c0.6,0,1-0.4,1-1V3.2l3.8,2.7c0.2,0.1,0.4,0.2,0.6,0.2c0.3,0,0.6-0.1,0.8-0.4
		c0.3-0.4,0.2-1.1-0.2-1.4l-5.4-3.9c0,0-0.1,0-0.1-0.1c0,0-0.1,0-0.1-0.1c-0.1,0-0.2-0.1-0.3-0.1c0,0,0,0,0,0c0,0,0,0,0,0
		c-0.1,0-0.2,0-0.3,0.1c0,0-0.1,0-0.1,0.1c0,0-0.1,0-0.1,0.1L6,4.3c-0.4,0.3-0.5,1-0.2,1.4C6.1,6.1,6.8,6.2,7.2,5.9z"/>
	<path d="M23.5,15.6c0-0.1,0-0.2-0.1-0.3c0-0.1-0.1-0.2-0.1-0.2c0,0,0-0.1-0.1-0.1l0,0c0,0,0,0,0,0l-4-4.2c-0.4-0.4-1-0.4-1.4,0
		c-0.4,0.4-0.4,1,0,1.4l2.4,2.5H16c-0.6,0-1,0.4-1,1v1.4H9v-1.4c0-0.6-0.4-1-1-1H3.9l2.4-2.5c0.4-0.4,0.4-1,0-1.4
		c-0.4-0.4-1-0.4-1.4,0l-4,4.2c0,0,0,0.1-0.1,0.1c-0.1,0.1-0.1,0.1-0.1,0.2c0,0.1,0,0.2-0.1,0.3c0,0,0,0.1,0,0.1v7.1
		c0,0.6,0.4,1,1,1h21c0.6,0,1-0.4,1-1v-7.1C23.5,15.7,23.5,15.6,23.5,15.6z M21.5,21.8h-19v-5.1H7v0.4c0,1.1,0.9,2,2,2h6
		c1.1,0,2-0.9,2-2v-0.4h4.5V21.8z"/>
</g>
</svg>
