<?xml version="1.0" encoding="utf-8"?>
<!-- Generator: Adobe Illustrator 25.0.0, SVG Export Plug-In . SVG Version: 6.00 Build 0)  -->
<svg version="1.1" id="Calque_1" xmlns="http://www.w3.org/2000/svg" xmlns:xlink="http://www.w3.org/1999/xlink" x="0px" y="0px"
	 viewBox="0 0 24 24" style="enable-background:new 0 0 24 24;" xml:space="preserve">
<path d="M22.4,8.6l-9.8-8.4c-0.4-0.3-0.9-0.3-1.2,0L1.6,8.6C1.4,8.8,1.2,9.1,1.2,9.3v12.5c0,1.2,1,2.2,2.2,2.2h17.1
	c1.2,0,2.2-1,2.2-2.2V9.3C22.8,9.1,22.6,8.8,22.4,8.6z M3.1,11.5l5.2,4.6l-5.2,4.6V11.5z M20.8,22c-0.1,0.1-0.1,0.1-0.2,0.1H3.5
	c-0.1,0-0.2,0-0.2-0.1l6-5.4c0.1,0,0.1-0.1,0.1-0.1c0,0,0,0,0,0l2.6-2.3L20.8,22z M15.7,16.2l5.2-4.6v9.3L15.7,16.2z M12,2.2
	l8.8,7.6v0.5L15,15.6l-2.6-2.4c-0.2-0.2-0.4-0.2-0.6,0L9,15.6l-5.9-5.3V9.8L12,2.2z"/>
</svg>
