<?xml version="1.0" encoding="utf-8"?>
<!-- Generator: Adobe Illustrator 25.0.0, SVG Export Plug-In . SVG Version: 6.00 Build 0)  -->
<svg version="1.1" id="Calque_1" xmlns="http://www.w3.org/2000/svg" xmlns:xlink="http://www.w3.org/1999/xlink" x="0px" y="0px"
	 viewBox="0 0 24 24" style="enable-background:new 0 0 24 24;" xml:space="preserve">
<path d="M22.9,0.1h-7.2c-0.6,0-1,0.4-1,1c0,0.6,0.4,1,1,1h4.8l-4,4c-1.8-1.5-4-2.2-6.3-2.2c-2.7,0-5.2,1-7,2.9
	c-1.9,1.9-2.9,4.4-2.9,7c0,2.7,1,5.2,2.9,7c1.9,1.9,4.4,2.9,7,2.9c2.7,0,5.2-1,7-2.9c1.9-1.9,2.9-4.4,2.9-7c0-2.3-0.8-4.5-2.2-6.3
	l4-4v4.8c0,0.6,0.4,1,1,1s1-0.4,1-1V1.1C23.9,0.6,23.4,0.1,22.9,0.1z M15.7,19.5c-1.5,1.5-3.5,2.3-5.6,2.3S6,21,4.5,19.5
	C3,18,2.1,16,2.1,13.9c0-2.1,0.8-4.1,2.3-5.6C6,6.8,8,5.9,10.1,5.9c2.1,0,4.1,0.8,5.6,2.3c1.5,1.5,2.3,3.5,2.3,5.6
	C18.1,16,17.2,18,15.7,19.5z"/>
</svg>
