<?xml version="1.0" encoding="utf-8"?>
<!-- Generator: Adobe Illustrator 25.0.0, SVG Export Plug-In . SVG Version: 6.00 Build 0)  -->
<svg version="1.1" id="Calque_1" xmlns="http://www.w3.org/2000/svg" xmlns:xlink="http://www.w3.org/1999/xlink" x="0px" y="0px"
	 viewBox="0 0 24 24" style="enable-background:new 0 0 24 24;" xml:space="preserve">
<g>
	<path d="M20.2,12.9l-3.7-4.7c-0.1-0.2-0.2-0.4-0.4-0.5c-0.4-0.4-1-0.7-1.7-0.7H9.5c-0.6,0-1.2,0.3-1.7,0.7C7.7,7.8,7.6,8,7.5,8.2
		l-3.7,4.7C3.4,13.3,3.5,14,4,14.4c0.2,0.2,0.4,0.2,0.7,0.2c0.3,0,0.6-0.1,0.9-0.4l2-2.5l0.3,4c0.1,0.9,0.6,1.6,1.4,1.9c0,0,0,0,0,0
		v5.2c0,0.6,0.5,1.1,1.1,1.1c0.6,0,1.1-0.5,1.1-1.1v-5h1.3v5c0,0.6,0.5,1.1,1.1,1.1s1.1-0.5,1.1-1.1v-5.2c0,0,0,0,0,0
		c0.8-0.3,1.3-1.1,1.4-2l0.3-4l2,2.5c0.2,0.3,0.5,0.4,0.9,0.4c0.2,0,0.5-0.1,0.7-0.2C20.5,14,20.6,13.3,20.2,12.9z M14,15.6
		C14,15.6,14,15.7,14,15.6l-4,0.1c0,0,0,0,0-0.1L9.5,9.2l0,0L14.4,9c0,0,0,0,0,0.1l0.1,0.1L14,15.6z"/>
	<path d="M12,6.3c1.7,0,3.1-1.4,3.1-3.1C15.1,1.4,13.7,0,12,0c-1.7,0-3.1,1.4-3.1,3.1C8.9,4.9,10.3,6.3,12,6.3z M12,2.2
		c0.5,0,1,0.4,1,1c0,0.5-0.4,1-1,1c-0.5,0-1-0.4-1-1C11,2.6,11.5,2.2,12,2.2z"/>
</g>
</svg>
