<?xml version="1.0" encoding="utf-8"?>
<!-- Generator: Adobe Illustrator 25.0.0, SVG Export Plug-In . SVG Version: 6.00 Build 0)  -->
<svg version="1.1" id="Calque_1" xmlns="http://www.w3.org/2000/svg" xmlns:xlink="http://www.w3.org/1999/xlink" x="0px" y="0px"
	 viewBox="0 0 24 24" style="enable-background:new 0 0 24 24;" xml:space="preserve">
<g>
	<path d="M0.8,23.5h2c0-2.6,2.3-4.8,5.2-4.8v-2C4,16.8,0.8,19.8,0.8,23.5z"/>
	<path d="M16,16.8v2c2.9,0,5.2,2.1,5.2,4.8h2C23.2,19.8,20,16.8,16,16.8z"/>
	<path d="M17.5,13.8C17.5,13.8,17.6,13.8,17.5,13.8c0.4,0,0.9-0.7,1.2-1.9c0.4-1.3,0.3-2.6-0.2-2.8c0,0-0.1,0-0.1,0c0,0,0,0,0,0
		c0.3-2.5-0.2-4.8-1.6-6.5c-0.3-0.4-0.6-0.7-1-0.9c-0.3-0.3-0.6-0.5-0.9-0.6c-0.8-0.4-1.7-0.6-2.6-0.6c-0.1,0-0.2,0-0.3,0
		c-1-0.1-1.9,0.1-2.8,0.5C8.6,1.2,8,1.7,7.6,2.2C7.3,2.4,7.1,2.7,6.9,3C5.7,4.6,5.3,6.8,5.6,9.1c0,0,0,0,0,0c0,0-0.1,0-0.1,0
		c-0.5,0.1-0.6,1.4-0.2,2.8c0.3,1.2,0.8,1.9,1.2,1.9c0,0,0.1,0,0.1,0c0.1,0,0.2-0.2,0.3-0.4c1.2,2.7,3,4.2,5.2,4.2
		c2.2,0,4-1.5,5.2-4.2C17.3,13.6,17.4,13.7,17.5,13.8z M13,8.2l-0.3,0.1l-0.1,0.3c0,0.1,0,0.2-0.1,0.4l0,0.1h-1.2l0,0
		c0-0.1,0-0.3-0.1-0.4l-0.1-0.3L11,8.3C9.6,7.8,8,7.7,6.5,8.2c0-0.2,0-0.4,0-0.6c0.1-0.1,0.3-0.4,0.3-0.9c0.1-0.5,0-1,0.1-1.5
		C6.9,5.1,7,5,7,4.8c0.5-0.4,1.3-1,2.2-1c0,0,0,0,0,0c0.5,0.3,1,0.4,1.5,0.6c0.2,0.1,0.7,0.2,1.2,0.2c0.5,0,1-0.1,1.2-0.2
		c0.5-0.3,0.9-0.4,1.5-0.6c0,0,0,0,0,0c1,0,1.8,0.7,2.4,1.1c0,0,0,0,0,0c0.1,0.6,0,1.2,0.1,1.8c0.1,0.6,0.3,0.9,0.4,1
		c0,0.2,0,0.3,0,0.5C16,7.8,14.4,7.7,13,8.2z M10.4,9.5c0,0.3-0.1,0.5-0.3,0.7c-0.3,0.3-0.6,0.4-1,0.5l-0.8,0c-0.4,0-0.8-0.2-1-0.4
		C7.1,10,7,9.7,7,9.4l0-0.4c1.1-0.3,2.3-0.3,3.3,0L10.4,9.5z M13.6,9.1c1.1-0.3,2.3-0.3,3.3,0l0,0.4c0,0.2-0.1,0.5-0.3,0.7
		c-0.3,0.3-0.6,0.4-1,0.5l-0.8,0c-0.4,0-0.8-0.2-1-0.4c-0.2-0.2-0.3-0.5-0.3-0.8L13.6,9.1z M12,16.5c-2.2,0-3.9-1.9-4.9-5.3
		c0.4,0.2,0.8,0.4,1.3,0.4h0l0.8,0c0.7,0,1.3-0.3,1.7-0.8c0.2-0.2,0.4-0.5,0.5-0.8h1.3c0.1,0.3,0.2,0.6,0.5,0.9
		c0.4,0.5,1.1,0.7,1.7,0.7h0l0.8,0c0.5,0,0.9-0.2,1.3-0.4C15.9,14.6,14.2,16.5,12,16.5z"/>
</g>
</svg>
