<?xml version="1.0" encoding="utf-8"?>
<!-- Generator: Adobe Illustrator 25.0.0, SVG Export Plug-In . SVG Version: 6.00 Build 0)  -->
<svg version="1.1" id="Calque_1" xmlns="http://www.w3.org/2000/svg" xmlns:xlink="http://www.w3.org/1999/xlink" x="0px" y="0px"
	 viewBox="0 0 24 24" style="enable-background:new 0 0 24 24;" xml:space="preserve">
<path d="M22.2,0.2C22,0,21.6,0,21.3,0.2l-6,3.6l-6-3.6C9.1,0.1,8.9,0.1,8.8,0.1c-0.2,0-0.4,0-0.5,0.1L1.7,4.1
	C1.5,4.2,1.3,4.5,1.3,4.9V23c0,0.3,0.2,0.6,0.5,0.8c0.1,0.1,0.3,0.1,0.5,0.1c0.2,0,0.3,0,0.5-0.1l6.1-3.6l5.9,3.5
	c0,0,0.1,0.1,0.1,0.1c0.1,0.1,0.2,0.1,0.3,0.1c0.2,0,0.4,0,0.6-0.1c0,0,0.1-0.1,0.1-0.1l6.4-3.8c0.3-0.2,0.4-0.5,0.4-0.8V1
	C22.7,0.7,22.5,0.3,22.2,0.2z M7.8,18.6l-4.7,2.8v-16l4.7-2.8V18.6z M14.4,21.4l-4.6-2.8v-16l4.6,2.8V21.4z M20.9,18.6l-4.6,2.8v-16
	l4.6-2.8V18.6z"/>
</svg>
