<?xml version="1.0" encoding="utf-8"?>
<!-- Generator: Adobe Illustrator 25.0.0, SVG Export Plug-In . SVG Version: 6.00 Build 0)  -->
<svg version="1.1" id="Calque_1" xmlns="http://www.w3.org/2000/svg" xmlns:xlink="http://www.w3.org/1999/xlink" x="0px" y="0px"
	 viewBox="0 0 24 24" style="enable-background:new 0 0 24 24;" xml:space="preserve">
<path d="M16.1,7.3l4.6-4.7c0.4-0.4,0.4-1,0-1.4c-0.4-0.4-1-0.4-1.4,0L16,4.5c-0.3-2-2-3.5-4-3.5C9.8,1,7.9,2.8,7.9,5v4.5H6.1
	C6.1,9.1,5.7,8.8,5.2,8.8c-0.5,0-0.9,0.4-0.9,0.9v3.2c0,1.1,0.2,2.1,0.7,3l-1.6,1.7c-0.4,0.4-0.4,1,0,1.4c0.2,0.2,0.4,0.3,0.7,0.3
	c0.3,0,0.5-0.1,0.7-0.3l1.3-1.3c1.2,1.4,3,2.2,5,2.3v1.4H7.7c-0.5,0-0.9,0.4-0.9,0.9c0,0.5,0.4,0.9,0.9,0.9h8.7
	c0.5,0,0.9-0.4,0.9-0.9c0-0.5-0.4-0.9-0.9-0.9H13v-1.4c3.7-0.1,6.7-3.2,6.7-6.9V9.7c0-0.5-0.4-0.9-0.9-0.9c-0.5,0-0.8,0.3-0.9,0.8
	h-1.8V7.3z M12,2.8c1.2,0,2.2,1,2.2,2.2v1.3l-4.4,4.5V5C9.8,3.8,10.8,2.8,12,2.8z M14.2,9.2V12c0,1.2-1,2.2-2.2,2.2
	c-0.7,0-1.4-0.4-1.8-0.9L14.2,9.2z M6.2,12.9v-2.3h1.8V12c0,0.2,0,0.5,0.1,0.7l-1.6,1.6C6.3,13.9,6.2,13.4,6.2,12.9z M17.8,10.6v2.3
	c0,2.8-2.3,5.1-5.1,5.1h-1.5c-1.5,0-2.9-0.7-3.8-1.8l1.5-1.6c0.7,0.9,1.8,1.4,3.1,1.4c2.2,0,4.1-1.8,4.1-4.1v-1.5H17.8z"/>
</svg>
