<?xml version="1.0" encoding="utf-8"?>
<!-- Generator: Adobe Illustrator 25.0.0, SVG Export Plug-In . SVG Version: 6.00 Build 0)  -->
<svg version="1.1" id="Calque_1" xmlns="http://www.w3.org/2000/svg" xmlns:xlink="http://www.w3.org/1999/xlink" x="0px" y="0px"
	 viewBox="0 0 24 24" style="enable-background:new 0 0 24 24;" xml:space="preserve">
<path d="M18.7,8.8c-0.5,0-0.8,0.3-0.9,0.8h-1.8V5c0-2.2-1.8-4.1-4.1-4.1S7.9,2.7,7.9,5v4.5H6.1C6.1,9.1,5.7,8.8,5.2,8.8
	c-0.5,0-0.9,0.4-0.9,0.9v3.2c0,3.8,3,6.8,6.8,6.9v1.4H7.7c-0.5,0-0.9,0.4-0.9,0.9c0,0.5,0.4,0.9,0.9,0.9h8.7c0.5,0,0.9-0.4,0.9-0.9
	c0-0.5-0.4-0.9-0.9-0.9H13v-1.4c3.7-0.1,6.7-3.2,6.7-6.9V9.7C19.7,9.2,19.3,8.8,18.7,8.8z M9.8,5c0-1.2,1-2.2,2.2-2.2
	c1.2,0,2.2,1,2.2,2.2v7c0,1.2-1,2.2-2.2,2.2c-1.2,0-2.2-1-2.2-2.2V5z M12.7,17.9h-1.5c-2.8,0-5.1-2.3-5.1-5.1v-2.3h1.8V12
	c0,2.2,1.8,4.1,4.1,4.1s4.1-1.8,4.1-4.1v-1.5h1.8v2.3C17.8,15.6,15.5,17.9,12.7,17.9z"/>
</svg>
