<?xml version="1.0" encoding="utf-8"?>
<!-- Generator: Adobe Illustrator 24.3.0, SVG Export Plug-In . SVG Version: 6.00 Build 0)  -->
<svg version="1.1" id="Calque_1" xmlns="http://www.w3.org/2000/svg" xmlns:xlink="http://www.w3.org/1999/xlink" x="0px" y="0px"
	 viewBox="0 0 24 24" style="enable-background:new 0 0 24 24;" xml:space="preserve">
<g>
	<g>
		<g>
			<path d="M15.9,13H8.1c-0.6,0-1-0.4-1-1c0-0.6,0.4-1,1-1h7.9c0.6,0,1,0.4,1,1C16.9,12.6,16.5,13,15.9,13L15.9,13z"/>
		</g>
	</g>
	<g>
		<path d="M12,23.8c-3.1,0-6.1-1.2-8.3-3.4c-2.2-2.2-3.4-5.2-3.4-8.3c0-3.1,1.2-6.1,3.5-8.3C5.9,1.4,8.9,0.2,12,0.2s6.1,1.2,8.3,3.4
			c4.6,4.6,4.6,12.1,0,16.7C18.1,22.6,15.1,23.8,12,23.8L12,23.8z M12,2.2c-2.6,0-5.1,1-6.9,2.9C3.2,6.9,2.2,9.4,2.2,12
			s1,5.1,2.9,6.9c1.8,1.8,4.3,2.9,6.9,2.9c2.6,0,5.1-1,6.9-2.9c3.8-3.8,3.8-10,0-13.8C17.1,3.2,14.6,2.2,12,2.2L12,2.2z"/>
	</g>
</g>
</svg>
