<?xml version="1.0" encoding="utf-8"?>
<!-- Generator: Adobe Illustrator 25.0.0, SVG Export Plug-In . SVG Version: 6.00 Build 0)  -->
<svg version="1.1" id="Calque_1" xmlns="http://www.w3.org/2000/svg" xmlns:xlink="http://www.w3.org/1999/xlink" x="0px" y="0px"
	 viewBox="0 0 24 24" style="enable-background:new 0 0 24 24;" xml:space="preserve">
<g>
	<path d="M18.9,0.2H5.1c-0.5,0-1,0.4-1,1v21.6c0,0.5,0.4,1,1,1h13.8c0.5,0,1-0.4,1-1V1.2C19.9,0.6,19.4,0.2,18.9,0.2z M17.9,21.8
		H6.1V2.2h11.8V21.8z"/>
	<path d="M7.1,17.4h9.8c0.3,0,0.5-0.2,0.5-0.5V4.5c0-0.3-0.2-0.5-0.5-0.5H7.1C6.8,4,6.6,4.2,6.6,4.5v12.4
		C6.6,17.2,6.8,17.4,7.1,17.4z M7.6,5h8.8v11.5H7.6V5z"/>
	<circle cx="12" cy="19.6" r="1.2"/>
</g>
</svg>
