<?xml version="1.0" encoding="utf-8"?>
<!-- Generator: Adobe Illustrator 25.0.0, SVG Export Plug-In . SVG Version: 6.00 Build 0)  -->
<svg version="1.1" id="Calque_1" xmlns="http://www.w3.org/2000/svg" xmlns:xlink="http://www.w3.org/1999/xlink" x="0px" y="0px"
	 viewBox="0 0 24 24" style="enable-background:new 0 0 24 24;" xml:space="preserve">
<g>
	<path d="M14.4,13.6c-0.2-0.2-0.5-0.4-0.8-0.5c-0.3-0.1-0.7-0.2-1.2-0.4v-2.5c0.5,0.2,0.8,0.5,1,1c0.1,0.4,0.4,0.6,0.8,0.6
		c0.2,0,0.4-0.1,0.5-0.2c0.1-0.1,0.2-0.3,0.2-0.5c0-0.2,0-0.4-0.1-0.6c-0.1-0.2-0.2-0.4-0.4-0.6c-0.2-0.3-0.5-0.5-0.8-0.6
		c-0.3-0.1-0.7-0.2-1.1-0.3V8.4c0-0.3-0.1-0.5-0.4-0.5c-0.3,0-0.4,0.2-0.4,0.5v0.6c-0.8,0.1-1.5,0.3-1.9,0.8c-0.4,0.4-0.7,1-0.7,1.7
		c0,0.5,0.1,1,0.3,1.3c0.2,0.3,0.5,0.6,0.9,0.8c0.4,0.2,0.8,0.3,1.3,0.5v2.8c-0.3-0.1-0.5-0.2-0.6-0.3c-0.2-0.1-0.3-0.3-0.4-0.5
		c-0.1-0.2-0.2-0.4-0.3-0.8c0-0.2-0.1-0.3-0.3-0.4c-0.1-0.1-0.3-0.1-0.5-0.1c-0.2,0-0.4,0.1-0.6,0.2c-0.2,0.2-0.2,0.3-0.2,0.5
		c0,0.3,0.1,0.5,0.2,0.8c0.1,0.3,0.3,0.5,0.5,0.8c0.2,0.2,0.5,0.5,0.9,0.6c0.4,0.2,0.8,0.3,1.2,0.3v1.6c0,0.2,0,0.3,0.1,0.4
		c0.1,0.1,0.2,0.1,0.3,0.1c0.2,0,0.3-0.1,0.3-0.2c0-0.1,0.1-0.3,0.1-0.5v-1.5c0.6,0,1.1-0.2,1.5-0.5c0.4-0.3,0.7-0.6,0.9-1
		c0.2-0.4,0.3-0.8,0.3-1.3c0-0.4-0.1-0.7-0.2-1C14.8,14.1,14.6,13.8,14.4,13.6z M11.6,12.5c-0.4-0.1-0.6-0.3-0.8-0.4
		c-0.2-0.2-0.3-0.4-0.3-0.7c0-0.3,0.1-0.6,0.3-0.7c0.2-0.2,0.5-0.3,0.8-0.4V12.5z M13.3,16.5c-0.2,0.2-0.5,0.4-0.9,0.5v-2.6
		c0.4,0.1,0.7,0.3,0.9,0.5c0.2,0.2,0.3,0.5,0.3,0.8C13.7,15.9,13.6,16.2,13.3,16.5z"/>
	<path d="M21.8,19.1c0-0.1-0.1-0.2-0.1-0.3c0-0.2-0.1-1.1-0.1-2c-0.2-3.1-0.3-5.9-0.6-7.1C20.5,8,17.4,6,15.6,4.9l2.3-2.6
		c0.3-0.3,0.3-0.7,0.2-1.1c-0.2-0.4-0.5-0.6-0.9-0.6c-0.1,0-0.1,0-0.3-0.1C16.6,0.3,16.2,0,15.4,0c-0.8,0-1.2,0.3-1.5,0.5
		c-0.2,0.1-0.2,0.1-0.3,0.1c-0.1,0-0.1,0-0.3-0.1C13.2,0.3,12.8,0,12,0c-0.8,0-1.2,0.3-1.5,0.5c-0.2,0.1-0.2,0.1-0.3,0.1
		c-0.1,0-0.1,0-0.3-0.1C9.8,0.3,9.3,0,8.6,0C7.8,0,7.4,0.3,7.1,0.5C6.9,0.7,6.9,0.7,6.8,0.7c-0.4,0-0.7,0.2-0.9,0.6
		C5.8,1.6,5.8,2,6.1,2.3l2.3,2.6C6.6,6,3.5,8,3.1,9.7c-0.3,1.2-0.5,4.1-0.6,7.2c0,0.9-0.1,1.8-0.1,2c0,0.1-0.1,0.2-0.1,0.3
		c-0.3,0.6-1.1,2.4,1.1,3.5C4.4,23.2,7.6,24,12,24c4,0,7.7-0.9,8.7-1.3C22.8,21.6,22,19.8,21.8,19.1z M8.6,2c0.1,0,0.1,0,0.3,0.1
		c0.3,0.2,0.7,0.5,1.5,0.5c0.8,0,1.2-0.3,1.5-0.5C11.9,2,11.9,2,12,2c0.1,0,0.1,0,0.3,0.1c0.3,0.2,0.7,0.5,1.5,0.5
		c0.8,0,1.2-0.3,1.5-0.5C15.3,2,15.3,2,15.4,2c0.1,0,0.1,0,0.1,0l-1.9,2.2h-3.3L8.4,2C8.5,2,8.5,2,8.6,2z M19.8,20.9
		C19.3,21.2,15.9,22,12,22c-4.6,0-7.3-0.9-7.8-1.1c-0.5-0.2-0.5-0.2-0.1-1c0.1-0.2,0.2-0.5,0.3-0.7c0-0.2,0.1-0.9,0.1-2.2
		c0.1-2.1,0.3-5.7,0.6-6.8c0.2-0.8,2.7-2.6,5-3.9h4c2.3,1.2,4.8,3.1,5,3.9c0.3,1.1,0.5,4.7,0.6,6.8c0.1,1.4,0.1,2,0.2,2.2
		c0,0.3,0.2,0.5,0.3,0.8C20.3,20.7,20.3,20.7,19.8,20.9z"/>
</g>
</svg>
