<?xml version="1.0" encoding="utf-8"?>
<!-- Generator: Adobe Illustrator 25.0.0, SVG Export Plug-In . SVG Version: 6.00 Build 0)  -->
<svg version="1.1" id="Calque_1" xmlns="http://www.w3.org/2000/svg" xmlns:xlink="http://www.w3.org/1999/xlink" x="0px" y="0px"
	 viewBox="0 0 24 24" style="enable-background:new 0 0 24 24;" xml:space="preserve">
<g>
	<path d="M17.4,9c0.7,0,1.3-0.6,1.3-1.3c0-0.7-0.6-1.3-1.3-1.3c-0.7,0-1.3,0.6-1.3,1.3C16.1,8.4,16.7,9,17.4,9z M17.4,7.4
		c0.2,0,0.3,0.1,0.3,0.3c0,0.2-0.1,0.3-0.3,0.3c-0.2,0-0.3-0.1-0.3-0.3C17.1,7.5,17.2,7.4,17.4,7.4z"/>
	<path d="M17,13.1c-1.1,0-2,0.9-2,2c0,1.1,0.9,2,2,2c1.1,0,2-0.9,2-2C19,14,18.1,13.1,17,13.1z M17,16.1c-0.5,0-1-0.4-1-1
		c0-0.5,0.4-1,1-1c0.5,0,1,0.4,1,1C18,15.7,17.6,16.1,17,16.1z"/>
	<path d="M8.6,8.3c0-1.1-0.9-2-2-2c-1.1,0-2,0.9-2,2c0,1.1,0.9,2,2,2C7.7,10.3,8.6,9.4,8.6,8.3z M6.6,9.3c-0.5,0-1-0.4-1-1
		c0-0.5,0.4-1,1-1c0.5,0,1,0.4,1,1C7.6,8.8,7.2,9.3,6.6,9.3z"/>
	<path d="M8.2,16.9c-0.7,0-1.3,0.6-1.3,1.3c0,0.7,0.6,1.3,1.3,1.3c0.7,0,1.3-0.6,1.3-1.3C9.5,17.5,9,16.9,8.2,16.9z M8.2,18.6
		c-0.2,0-0.3-0.1-0.3-0.3c0-0.2,0.1-0.3,0.3-0.3c0.2,0,0.3,0.1,0.3,0.3C8.5,18.4,8.4,18.6,8.2,18.6z"/>
	<path d="M4,13.2c-0.5,0-0.9,0.4-0.9,0.9c0,0.5,0.4,0.9,0.9,0.9c0.5,0,0.9-0.4,0.9-0.9C4.9,13.6,4.5,13.2,4,13.2z"/>
	<path d="M10.2,12.6c-0.7,0-1.2,0.5-1.2,1.2c0,0.7,0.5,1.2,1.2,1.2c0.7,0,1.2-0.5,1.2-1.2C11.4,13.1,10.9,12.6,10.2,12.6z"/>
	<path d="M12.3,2.8c-0.5,0-0.9,0.4-0.9,0.9c0,0.5,0.4,0.9,0.9,0.9c0.5,0,0.9-0.4,0.9-0.9C13.2,3.2,12.8,2.8,12.3,2.8z"/>
	<path d="M12,0.2C5.5,0.2,0.2,5.5,0.2,12S5.5,23.8,12,23.8S23.8,18.5,23.8,12S18.5,0.2,12,0.2z M15.5,21.1c-0.1-0.4-0.5-0.6-0.9-0.6
		c-0.5,0-0.9,0.4-0.9,0.9c0,0.1,0,0.1,0,0.2c-0.5,0.1-1.1,0.2-1.7,0.2c-5.4,0-9.7-4.4-9.7-9.7c0-5.4,4.4-9.7,9.7-9.7
		s9.7,4.4,9.7,9.7C21.7,16.1,19.1,19.7,15.5,21.1z"/>
</g>
</svg>
