<?xml version="1.0" encoding="utf-8"?>
<!-- Generator: Adobe Illustrator 25.0.0, SVG Export Plug-In . SVG Version: 6.00 Build 0)  -->
<svg version="1.1" id="Calque_1" xmlns="http://www.w3.org/2000/svg" xmlns:xlink="http://www.w3.org/1999/xlink" x="0px" y="0px"
	 viewBox="0 0 24 24" style="enable-background:new 0 0 24 24;" xml:space="preserve">
<g>
	<path d="M13.5,23.6C7,23.6,1.7,18.3,1.7,11.8c0-5.5,3.7-10.2,9-11.4c0.4-0.1,0.9,0.1,1.1,0.5c0.2,0.4,0.2,0.9-0.1,1.2
		C10,3.9,9,6.3,9,8.8c0,5.4,4.4,9.8,9.8,9.8c0.7,0,1.5-0.1,2.3-0.3c0.4-0.1,0.9,0.1,1.1,0.5c0.2,0.4,0.2,0.9-0.1,1.2
		C19.7,22.3,16.7,23.6,13.5,23.6L13.5,23.6z M8.2,3.6c-2.7,1.8-4.5,4.8-4.5,8.2c0,5.4,4.4,9.8,9.8,9.8c1.5,0,3-0.4,4.4-1
		C11.8,20.1,7,15,7,8.8C7,7,7.4,5.2,8.2,3.6L8.2,3.6z"/>
</g>
</svg>
