<?xml version="1.0" encoding="utf-8"?>
<!-- Generator: Adobe Illustrator 25.0.0, SVG Export Plug-In . SVG Version: 6.00 Build 0)  -->
<svg version="1.1" id="Calque_1" xmlns="http://www.w3.org/2000/svg" xmlns:xlink="http://www.w3.org/1999/xlink" x="0px" y="0px"
	 viewBox="0 0 24 24" style="enable-background:new 0 0 24 24;" xml:space="preserve">
<path d="M15.3,0.8l-3.5,0c0,0,0,0,0,0c0,0,0,0,0,0l-3.2,0C5.5,1,3,3.5,3,6.5v7c0,2.4,1.5,7.5,4.9,8.9c1.3,0.5,2.7,0.8,4.1,0.8
	s2.8-0.3,4.1-0.8c3.4-1.5,4.8-6.5,4.9-9V6.5C21,3.5,18.5,1,15.3,0.8z M19,13.4c0,2.3-1.5,6.2-3.6,7.1c-2.1,0.9-4.5,0.9-6.6,0
	c-2.2-1-3.6-4.9-3.7-7.1v-7c0-1.9,1.6-3.5,3.6-3.6l2.2,0V7c0,0.6,0.4,1,1,1c0.6,0,1-0.4,1-1V2.8l2.4,0c2,0.1,3.7,1.7,3.7,3.6V13.4z"
	/>
</svg>
