<?xml version="1.0" encoding="utf-8"?>
<!-- Generator: Adobe Illustrator 25.0.0, SVG Export Plug-In . SVG Version: 6.00 Build 0)  -->
<svg version="1.1" id="Calque_1" xmlns="http://www.w3.org/2000/svg" xmlns:xlink="http://www.w3.org/1999/xlink" x="0px" y="0px"
	 viewBox="0 0 24 24" style="enable-background:new 0 0 24 24;" xml:space="preserve">
<g>
	<path d="M20.4,0.1H6.3c-1.2,0-2.1,0.9-2.1,2.1v1c-1.1,0-1.7,0-2.3,0.5C1.5,4.2,1.5,4.8,1.5,5.3v16.5c0,1.2,0.9,2.1,2.1,2.1h2.7H12
		h8.5c1.2,0,2.1-0.9,2.1-2.1V2.2C22.5,1.1,21.6,0.1,20.4,0.1z M20.5,21.8C20.5,21.8,20.5,21.9,20.5,21.8L12,21.9H6.3H3.6
		c-0.1,0-0.1,0-0.1-0.1V5.3c0,0,0-0.1,0-0.1c0.2,0,0.5,0,0.7,0v14.6c0,0.6,0.4,1,1,1c0.6,0,1-0.4,1-1V2.2c0-0.1,0-0.1,0.1-0.1h14.2
		c0.1,0,0.1,0,0.1,0.1V21.8z"/>
	<path d="M12.3,8.8H8c-0.3,0-0.5,0.2-0.5,0.5c0,0.3,0.2,0.5,0.5,0.5h4.3c0.3,0,0.5-0.2,0.5-0.5C12.8,9.1,12.6,8.8,12.3,8.8z"/>
	<path d="M12.3,11.4H8c-0.3,0-0.5,0.2-0.5,0.5c0,0.3,0.2,0.5,0.5,0.5h4.3c0.3,0,0.5-0.2,0.5-0.5C12.8,11.6,12.6,11.4,12.3,11.4z"/>
	<path d="M12.3,14H8c-0.3,0-0.5,0.2-0.5,0.5C7.5,14.8,7.7,15,8,15h4.3c0.3,0,0.5-0.2,0.5-0.5C12.8,14.2,12.6,14,12.3,14z"/>
	<path d="M12.3,16.6H8c-0.3,0-0.5,0.2-0.5,0.5c0,0.3,0.2,0.5,0.5,0.5h4.3c0.3,0,0.5-0.2,0.5-0.5C12.8,16.8,12.6,16.6,12.3,16.6z"/>
	<path d="M12.3,19.2H8c-0.3,0-0.5,0.2-0.5,0.5c0,0.3,0.2,0.5,0.5,0.5h4.3c0.3,0,0.5-0.2,0.5-0.5C12.8,19.4,12.6,19.2,12.3,19.2z"/>
	<path d="M18.5,8.8h-4.3c-0.3,0-0.5,0.2-0.5,0.5c0,0.3,0.2,0.5,0.5,0.5h4.3c0.3,0,0.5-0.2,0.5-0.5C19,9.1,18.8,8.8,18.5,8.8z"/>
	<path d="M18.5,11.4h-4.3c-0.3,0-0.5,0.2-0.5,0.5c0,0.3,0.2,0.5,0.5,0.5h4.3c0.3,0,0.5-0.2,0.5-0.5C19,11.6,18.8,11.4,18.5,11.4z"/>
	<path d="M18.5,14h-4.3c-0.3,0-0.5,0.2-0.5,0.5c0,0.3,0.2,0.5,0.5,0.5h4.3c0.3,0,0.5-0.2,0.5-0.5C19,14.2,18.8,14,18.5,14z"/>
	<path d="M18.5,16.6h-4.3c-0.3,0-0.5,0.2-0.5,0.5c0,0.3,0.2,0.5,0.5,0.5h4.3c0.3,0,0.5-0.2,0.5-0.5C19,16.8,18.8,16.6,18.5,16.6z"/>
	<path d="M18.5,19.2h-4.3c-0.3,0-0.5,0.2-0.5,0.5c0,0.3,0.2,0.5,0.5,0.5h4.3c0.3,0,0.5-0.2,0.5-0.5C19,19.4,18.8,19.2,18.5,19.2z"/>
	<path d="M18.5,3.3H8.1c-0.3,0-0.5,0.2-0.5,0.5v2.7c0,0.3,0.2,0.5,0.5,0.5h10.4c0.3,0,0.5-0.2,0.5-0.5V3.8C19,3.6,18.8,3.3,18.5,3.3
		z M18,6.1H8.6V4.3H18V6.1z"/>
</g>
</svg>
