<?xml version="1.0" encoding="utf-8"?>
<!-- Generator: Adobe Illustrator 25.0.0, SVG Export Plug-In . SVG Version: 6.00 Build 0)  -->
<svg version="1.1" id="Calque_1" xmlns="http://www.w3.org/2000/svg" xmlns:xlink="http://www.w3.org/1999/xlink" x="0px" y="0px"
	 viewBox="0 0 24 24" style="enable-background:new 0 0 24 24;" xml:space="preserve">
<g>
	<g>
		<path d="M2.9,22.7c-1.2,0-2-0.9-2-2.3V3.6c0-1.3,0.8-2.3,2-2.3c0.4,0,0.9,0.1,1.3,0.4l14.5,8.4c0.8,0.5,1.2,1.1,1.2,1.9
			c0,0.8-0.4,1.4-1.2,1.9L4.2,22.3C3.7,22.5,3.3,22.7,2.9,22.7L2.9,22.7z M2.9,3.3c0,0,0,0.1,0,0.3v16.8c0,0.1,0,0.2,0,0.3
			c0,0,0.1,0,0.2-0.1l14.5-8.4c0.1-0.1,0.2-0.1,0.2-0.2c0,0-0.1-0.1-0.2-0.2L3.2,3.4C3,3.4,2.9,3.3,2.9,3.3L2.9,3.3z"/>
	</g>
	<g>
		<path d="M22.1,23c-0.6,0-1-0.4-1-1V2c0-0.6,0.4-1,1-1c0.6,0,1,0.4,1,1v20C23.1,22.6,22.7,23,22.1,23L22.1,23z"/>
	</g>
</g>
</svg>
