<?xml version="1.0" encoding="utf-8"?>
<!-- Generator: Adobe Illustrator 24.3.0, SVG Export Plug-In . SVG Version: 6.00 Build 0)  -->
<svg version="1.1" id="Calque_1" xmlns="http://www.w3.org/2000/svg" xmlns:xlink="http://www.w3.org/1999/xlink" x="0px" y="0px"
	 viewBox="0 0 24 24" style="enable-background:new 0 0 24 24;" xml:space="preserve">
<path d="M23.7,11l-2.6-2.2c-0.1,0-0.1-0.1-0.2-0.1l2-2c0.2-0.2,0.3-0.5,0.2-0.8c-0.1-0.3-0.3-0.5-0.5-0.6l-7.4-3
	c-0.3-0.1-0.7-0.1-0.9,0.2l-2.6,2.5C11.7,5,11.6,5,11.6,5.1c0,0,0,0,0,0L8.9,2.8C8.7,2.6,8.4,2.5,8.1,2.7l-7.4,3
	C0.4,5.7,0.2,6,0.1,6.3c0,0.3,0.1,0.6,0.3,0.8l2.3,2l-2.5,2.4C0.1,11.7,0,12,0,12.3c0.1,0.3,0.3,0.5,0.5,0.6l2.5,1c0,0,0,0.1,0,0.1
	v4.1c0,0.3,0.2,0.7,0.5,0.8l6.9,2.8c0.1,0,0.2,0.1,0.3,0.1c0,0,0,0,0.1,0c0,0,0,0,0.1,0c0.1,0,0.2,0,0.3,0L20,19
	c0.4-0.1,0.6-0.4,0.6-0.8v-4.5c0-0.1,0-0.1,0-0.1l2.9-1.1c0.3-0.1,0.5-0.4,0.5-0.7C24,11.4,23.9,11.1,23.7,11z M15.1,4l5.7,2.3
	l-1.2,1.2l-5.7-2.3L15.1,4z M8.2,4.4l1.1,1L3.7,7.7l-1.1-1L8.2,4.4z M3.6,10.6l5.7,2.3l-1.2,1.2l-5.7-2.3L3.6,10.6z M4.7,14.5
	L8,15.9c0.1,0,0.2,0.1,0.3,0.1c0.2,0,0.4-0.1,0.6-0.2l1.1-1.1v5.1l-5.3-2.2V14.5z M18.9,17.5l-7.2,2.3v-7.2c0,0,0,0,0,0
	c0,0,0-0.1,0-0.1c0,0,0-0.1,0-0.1c0,0,0,0,0,0c0-0.1-0.1-0.2-0.2-0.2c0,0,0,0,0,0c-0.1-0.1-0.1-0.1-0.2-0.1c0,0,0,0,0,0c0,0,0,0,0,0
	L4.6,9.2l6.7-2.7c0.2-0.1,0.3-0.2,0.4-0.4c0.1,0.1,0.2,0.1,0.3,0.2l6.9,2.8l-6.1,2.5c-0.3,0.1-0.5,0.4-0.5,0.7
	c0,0.3,0.1,0.6,0.3,0.8l2.6,2.2c0.2,0.1,0.4,0.2,0.6,0.2c0.1,0,0.2,0,0.3-0.1l2.9-1.2V17.5z M15.9,13.6l-1.1-1l5.6-2.3l1.2,1
	L15.9,13.6z"/>
</svg>
