<?xml version="1.0" encoding="utf-8"?>
<!-- Generator: Adobe Illustrator 24.3.0, SVG Export Plug-In . SVG Version: 6.00 Build 0)  -->
<svg version="1.1" id="Calque_1" xmlns="http://www.w3.org/2000/svg" xmlns:xlink="http://www.w3.org/1999/xlink" x="0px" y="0px"
	 viewBox="0 0 24 24" style="enable-background:new 0 0 24 24;" xml:space="preserve">
<g>
	<path d="M23.3,12.4c0-0.1,0.1-0.2,0.1-0.3c0,0,0,0,0,0c0,0,0,0,0,0c0-0.1,0-0.2-0.1-0.3c0,0,0-0.1-0.1-0.1c0,0,0-0.1-0.1-0.1
		l-4.8-6.6c-0.3-0.4-1-0.5-1.4-0.2c-0.4,0.3-0.5,1-0.2,1.4l3.6,5H10c-0.6,0-1,0.4-1,1c0,0.6,0.4,1,1,1h10.4l-3.6,5
		c-0.3,0.4-0.2,1.1,0.2,1.4c0.2,0.1,0.4,0.2,0.6,0.2c0.3,0,0.6-0.1,0.8-0.4l4.8-6.6c0,0,0-0.1,0.1-0.1
		C23.3,12.4,23.3,12.4,23.3,12.4z"/>
	<path d="M15,21.6H2.6V2.4H15c0.6,0,1-0.4,1-1s-0.4-1-1-1H1.6c-0.6,0-1,0.4-1,1v21.3c0,0.6,0.4,1,1,1H15c0.6,0,1-0.4,1-1
		C16,22.1,15.5,21.6,15,21.6z"/>
</g>
</svg>
