<?xml version="1.0" encoding="utf-8"?>
<!-- Generator: Adobe Illustrator 25.0.0, SVG Export Plug-In . SVG Version: 6.00 Build 0)  -->
<svg version="1.1" id="Calque_1" xmlns="http://www.w3.org/2000/svg" xmlns:xlink="http://www.w3.org/1999/xlink" x="0px" y="0px"
	 viewBox="0 0 24 24" style="enable-background:new 0 0 24 24;" xml:space="preserve">
<path d="M22.5,7.5L2.1,0.9c-0.1,0-0.2,0-0.3,0c0,0,0,0-0.1,0c-0.1,0-0.2,0-0.3,0.1c0,0-0.1,0-0.1,0C1.3,1,1.2,1,1.1,1.1
	C1,1.2,1,1.3,0.9,1.4c0,0,0,0.1,0,0.1c0,0.1,0,0.2-0.1,0.3c0,0,0,0,0,0.1c0,0.1,0,0.2,0,0.3l6.6,20.3c0.1,0.4,0.5,0.7,0.9,0.7
	c0,0,0,0,0,0c0.4,0,0.8-0.2,0.9-0.6l3.8-9.4l9.4-3.8c0.4-0.2,0.6-0.5,0.6-1C23.2,8,22.9,7.6,22.5,7.5z M8.5,19.2L4.1,5.5l7.1,7.1
	L8.5,19.2z M12.6,11.2L5.5,4.1l13.8,4.5L12.6,11.2z"/>
</svg>
