<?xml version="1.0" encoding="utf-8"?>
<!-- Generator: Adobe Illustrator 25.0.0, SVG Export Plug-In . SVG Version: 6.00 Build 0)  -->
<svg version="1.1" id="Calque_1" xmlns="http://www.w3.org/2000/svg" xmlns:xlink="http://www.w3.org/1999/xlink" x="0px" y="0px"
	 viewBox="0 0 24 24" style="enable-background:new 0 0 24 24;" xml:space="preserve">
<path d="M20.4,2.8c-2.7-2.7-7-2.7-9.7,0l-8.8,8.8c-0.4,0.4-0.4,1,0,1.4c0.4,0.4,1,0.4,1.4,0l8.8-8.8c1.9-1.9,5-1.9,6.9,0
	c1.9,1.9,1.9,5,0,6.9l-5,5c0,0-0.1,0.1-0.1,0.1c0,0-0.1,0-0.1,0.1l-4,4c-1.2,1.2-3.2,1.2-4.4,0c-0.6-0.6-0.9-1.4-0.9-2.2
	c0-0.8,0.3-1.6,0.9-2.2l3.7-3.7c0,0,0,0,0,0l5-5c0.6-0.5,1.5-0.6,2.1,0c0.6,0.6,0.6,1.5,0,2.1L9.5,16c-0.4,0.4-0.4,1,0,1.4
	c0.2,0.2,0.5,0.3,0.7,0.3c0.3,0,0.5-0.1,0.7-0.3l6.7-6.7c1.3-1.3,1.3-3.5,0-4.9c-0.7-0.7-1.5-1-2.4-1c-0.9,0-1.8,0.4-2.4,1L8,10.5
	c0,0,0,0,0,0l-4,4c-1,1-1.5,2.2-1.5,3.6c0,1.4,0.5,2.6,1.5,3.6c1,1,2.3,1.5,3.6,1.5s2.6-0.5,3.6-1.5l4-4c0,0,0.1-0.1,0.1-0.1
	c0,0,0.1,0,0.1-0.1l5-5C23.1,9.9,23.1,5.5,20.4,2.8z"/>
</svg>
