<?xml version="1.0" encoding="utf-8"?>
<!-- Generator: Adobe Illustrator 25.0.0, SVG Export Plug-In . SVG Version: 6.00 Build 0)  -->
<svg version="1.1" id="Calque_1" xmlns="http://www.w3.org/2000/svg" xmlns:xlink="http://www.w3.org/1999/xlink" x="0px" y="0px"
	 viewBox="0 0 24 24" style="enable-background:new 0 0 24 24;" xml:space="preserve">
<g>
	<g>
		<path d="M8.8,22.6H6c-1.3,0-2.3-1-2.3-2.3V3.7c0-1.3,1-2.3,2.3-2.3h2.8c1.3,0,2.3,1,2.3,2.3v16.6C11.1,21.6,10.1,22.6,8.8,22.6
			L8.8,22.6z M6,3.4c-0.2,0-0.3,0.1-0.3,0.3v16.6c0,0.2,0.1,0.3,0.3,0.3h2.8c0.2,0,0.3-0.1,0.3-0.3V3.7c0-0.2-0.1-0.3-0.3-0.3H6
			L6,3.4z"/>
	</g>
	<g>
		<path d="M18,22.6h-2.8c-1.3,0-2.3-1-2.3-2.3V3.7c0-1.3,1-2.3,2.3-2.3H18c1.3,0,2.3,1,2.3,2.3v16.6C20.3,21.6,19.3,22.6,18,22.6
			L18,22.6z M15.2,3.4c-0.2,0-0.3,0.1-0.3,0.3v16.6c0,0.2,0.1,0.3,0.3,0.3H18c0.2,0,0.3-0.1,0.3-0.3V3.7c0-0.2-0.1-0.3-0.3-0.3H15.2
			L15.2,3.4z"/>
	</g>
</g>
</svg>
