<?xml version="1.0" encoding="utf-8"?>
<!-- Generator: Adobe Illustrator 25.0.0, SVG Export Plug-In . SVG Version: 6.00 Build 0)  -->
<svg version="1.1" id="Calque_1" xmlns="http://www.w3.org/2000/svg" xmlns:xlink="http://www.w3.org/1999/xlink" x="0px" y="0px"
	 viewBox="0 0 24 24" style="enable-background:new 0 0 24 24;" xml:space="preserve">
<path d="M23.8,10.4c-0.2-0.8-0.7-1.4-1.4-1.8c-0.4-0.2-0.8-0.3-1.2-0.3c-0.7,0-1.6,0.3-2.3,0.7c0.2-0.5,0.4-1.1,0.6-1.7
	c0.4-1.7,0-3.4-0.9-4.5c-0.6-0.8-1.5-1.2-2.5-1.2c0,0,0,0,0,0c-1.7,0-3.3,1.2-4.1,2.8c-0.8-1.6-2.4-2.7-4.1-2.8
	c-1,0-1.8,0.4-2.5,1.2C4.5,3.9,4.2,5.6,4.6,7.4C4.7,8,4.9,8.6,5.1,9.1C4.4,8.6,3.6,8.4,2.8,8.4c-0.4,0-0.9,0.1-1.2,0.3
	C0.9,9,0.4,9.6,0.2,10.4c-0.4,1.3-0.1,3,0.8,4.4c0.9,1.5,2.3,2.3,3.7,2.3c0.3,0,0.5,0,0.8-0.1c-0.5,0.8-1,1.5-1.2,2.1
	c-0.4,0.8-0.2,1.4,0,1.8c0.7,1.2,2.8,1.3,6.4,1.4l1.3,0c0,0,0,0,0,0c0,0,0,0,0,0l1.3,0c3.7-0.1,5.7-0.2,6.4-1.4
	c0.2-0.3,0.4-0.9,0.1-1.7c-0.2-0.6-0.7-1.4-1.2-2.2c0.3,0.1,0.5,0.1,0.8,0.1c1.4,0,2.8-0.8,3.7-2.3C23.9,13.4,24.2,11.7,23.8,10.4z
	 M13.3,6.4c0.1-1.6,1.4-2.9,2.9-2.9c0.4,0,0.8,0.2,1.1,0.5c0.5,0.7,0.7,1.8,0.5,3c-0.4,1.9-1.4,3-2.2,3c-0.1,0-0.2,0-0.3-0.1
	C14,9.6,13.1,7.9,13.3,6.4z M12,9.1c0.5,1.2,1.5,2.2,2.6,2.6c0.3,0.1,0.6,0.1,0.9,0.1c0.4,0,0.8-0.1,1.1-0.3
	c-0.5,0.9-0.6,1.7-0.6,2.5c-1.3-1.2-2.7-2-4-1.9c-1.3-0.1-2.7,0.7-4,1.9c0.1-0.8-0.1-1.7-0.6-2.5c0.4,0.2,0.7,0.3,1.1,0.3
	c0,0,0,0,0,0c0.3,0,0.6,0,0.9-0.1C10.5,11.3,11.5,10.3,12,9.1z M6.8,4c0.3-0.4,0.7-0.5,1.1-0.5c1.4,0,2.7,1.4,2.8,2.9
	C10.9,7.9,10,9.6,8.8,10C8.7,10,8.6,10,8.5,10c-0.8,0-1.8-1-2.2-3C6.1,5.8,6.2,4.7,6.8,4z M2.5,13.8c-0.6-1-0.8-2.1-0.6-2.9
	c0.1-0.3,0.3-0.5,0.5-0.7c0.1-0.1,0.3-0.1,0.5-0.1c0.9,0,2.2,0.9,2.9,2c0.8,1.2,0.7,2.4-0.2,2.9C4.6,15.6,3.3,15.1,2.5,13.8z
	 M13.2,20.5l-1.2,0l-1.2,0c-2-0.1-4.4-0.2-5-0.5c0,0,0-0.1,0.1-0.2c0.9-2.2,4.2-6,6-5.9c0.1,0,0.1,0,0.2,0c1.9-0.1,5.2,3.6,6.1,5.9
	c0,0.1,0,0.1,0,0.1C17.7,20.3,15.2,20.4,13.2,20.5z M21.5,13.8c-0.8,1.3-2.1,1.8-3,1.2c-0.9-0.6-1-1.7-0.2-2.9c0.7-1.1,2-2,2.9-2
	c0.2,0,0.3,0,0.5,0.1c0.2,0.1,0.4,0.3,0.5,0.6C22.4,11.7,22.1,12.9,21.5,13.8z"/>
</svg>
