<?xml version="1.0" encoding="utf-8"?>
<!-- Generator: Adobe Illustrator 25.0.0, SVG Export Plug-In . SVG Version: 6.00 Build 0)  -->
<svg version="1.1" id="Calque_1" xmlns="http://www.w3.org/2000/svg" xmlns:xlink="http://www.w3.org/1999/xlink" x="0px" y="0px"
	 viewBox="0 0 24 24" style="enable-background:new 0 0 24 24;" xml:space="preserve">
<path d="M23.9,8.3c-0.6-1.9-1.7-3.7-3.1-5.1c-1.4-1.4-3.2-2.5-5.1-3.1c-0.4-0.1-0.7,0-1,0.2L0.3,14.7C0.1,14.9,0,15.2,0,15.5
	c0.2,2.3,0.2,4.7,0.2,7.3c0,0.5,0.4,1,1,1c2.5,0,5,0.1,7.3,0.2c0,0,0.1,0,0.1,0c0.3,0,0.5-0.1,0.7-0.3L23.7,9.3
	C23.9,9.1,24,8.7,23.9,8.3z M2.3,21.7c0-0.7,0-1.3,0-2c0.9,0.3,1.7,1.1,1.9,2C3.5,21.8,2.9,21.7,2.3,21.7z M2.2,18.7
	c0-0.9-0.1-1.9-0.1-2.8c2.8,1,5,3.2,6,6c-0.9-0.1-1.9-0.1-2.9-0.1C4.9,20.3,3.7,19,2.2,18.7z M8.9,21.3c-1.1-2.8-3.4-5.1-6.2-6.2
	l11-11l6.2,6.2L8.9,21.3z M20.6,9.6l-6.2-6.2l1.2-1.2c1.4,0.5,2.7,1.4,3.7,2.4c1.1,1.1,1.9,2.3,2.4,3.7L20.6,9.6z"/>
</svg>
