<?xml version="1.0" encoding="utf-8"?>
<!-- Generator: Adobe Illustrator 25.0.0, SVG Export Plug-In . SVG Version: 6.00 Build 0)  -->
<svg version="1.1" id="Calque_1" xmlns="http://www.w3.org/2000/svg" xmlns:xlink="http://www.w3.org/1999/xlink" x="0px" y="0px"
	 viewBox="0 0 24 24" style="enable-background:new 0 0 24 24;" xml:space="preserve">
<path d="M23.7,10.1l-9.8-9.8C13.7,0.1,13.5,0,13.2,0c-0.3,0-0.5,0.1-0.7,0.3L0.3,12.5C0.1,12.7,0,13,0,13.3l0.3,9.5
	c0,0.5,0.4,0.9,0.9,0.9l9.5,0.3c0,0,0,0,0,0c0.3,0,0.5-0.1,0.7-0.3l12.3-12.3c0.2-0.2,0.3-0.4,0.3-0.7C24,10.5,23.9,10.3,23.7,10.1z
	 M12.5,19.9c-0.7-0.6-1.6-0.9-2.5-0.9l7.7-7.7l1.7,1.7L12.5,19.9z M9.4,18.3c0-1-0.4-1.9-1.1-2.6c-0.8-0.8-1.9-1.2-3-1.1l7.8-7.8
	l3.9,3.9L9.4,18.3z M5,13.5c-0.1-0.7-0.3-1.5-0.8-2.1L11,4.6l1.5,1.5L5,13.5z M2.2,21.8l-0.1-3.1c1.6,0.3,2.9,1.6,3.1,3.2L2.2,21.8z
	 M10.4,22l-4.2-0.1c-0.2-2.2-1.9-4-4.1-4.2l-0.1-4l1.5-1.5c0.7,0.9,0.8,2,0.3,3c-0.1,0.2-0.1,0.4,0.1,0.6c0.2,0.2,0.4,0.2,0.6,0.1
	c1.1-0.6,2.4-0.4,3.3,0.5c0.9,0.9,1.1,2.2,0.5,3.3c-0.1,0.2-0.1,0.4,0.1,0.6c0.2,0.2,0.4,0.2,0.6,0.1c1-0.5,2.2-0.4,3,0.3L10.4,22z
	 M20.1,12.3l-8.4-8.4l1.6-1.6l8.4,8.4L20.1,12.3z"/>
</svg>
