<?xml version="1.0" encoding="utf-8"?>
<!-- Generator: Adobe Illustrator 24.3.0, SVG Export Plug-In . SVG Version: 6.00 Build 0)  -->
<svg version="1.1" id="Calque_1" xmlns="http://www.w3.org/2000/svg" xmlns:xlink="http://www.w3.org/1999/xlink" x="0px" y="0px"
	 viewBox="0 0 24 24" style="enable-background:new 0 0 24 24;" xml:space="preserve">
<g>
	<path d="M18.9,24c-4.6,0-9.4-2.1-13-5.8l-0.1-0.1l0,0C2,14.2-0.1,9.4,0,4.7l0-0.3l0.2-0.3c0.3-0.4,0.7-0.8,1-1.1
		C2.5,1.7,4,0.8,5.6,0.1C5.8,0,6,0,6.3,0c0.6,0,1.8,0.3,2.1,1.2C9,2.7,9.7,4.8,10.2,6.7c0.1,0.5,0,1.9-0.8,2.4l-1.8,1.2
		c0,0,0,0.3,0.2,0.6c0.7,1,1.5,1.9,2.4,2.9c0.9,0.9,1.9,1.7,2.8,2.4c0.2,0.1,0.4,0.2,0.6,0.2l0.6-0.9l0.6-0.9
		c0.5-0.8,1.8-0.8,1.9-0.8c0.1,0,0.3,0,0.4,0c2.4,0.5,3.8,1,5.7,1.8c0.8,0.4,1.3,1.8,1,2.8c-0.6,1.6-1.6,3.1-2.8,4.4
		c-0.4,0.4-0.7,0.7-1.1,1L19.6,24L18.9,24L18.9,24z M2.1,5.1c0,4,1.9,8.3,5.2,11.5l0.1,0.1c3.3,3.3,7.5,5.2,11.5,5.2
		c0.2-0.2,0.5-0.4,0.7-0.6c1-1,1.8-2.3,2.4-3.7c0,0-0.1-0.1-0.1-0.2c-1.6-0.7-2.9-1.1-5.1-1.6c-0.1,0-0.2,0-0.2,0.1l-1,1.6
		c-0.6,1-2.4,1.2-3.6,0.3c-1-0.8-2.1-1.6-3.1-2.6c-1-1-1.9-2-2.6-3.1c-0.5-0.7-0.7-1.5-0.6-2.3c0.1-0.6,0.4-1,0.9-1.3l1.6-1
		c0-0.1,0-0.2,0-0.3c-0.5-1.7-1.1-3.6-1.6-5c-0.1,0-0.2-0.1-0.3-0.1C5,2.6,3.7,3.4,2.7,4.4C2.5,4.6,2.3,4.9,2.1,5.1L2.1,5.1z"/>
</g>
</svg>
