<?xml version="1.0" encoding="utf-8"?>
<!-- Generator: Adobe Illustrator 25.0.0, SVG Export Plug-In . SVG Version: 6.00 Build 0)  -->
<svg version="1.1" id="Calque_1" xmlns="http://www.w3.org/2000/svg" xmlns:xlink="http://www.w3.org/1999/xlink" x="0px" y="0px"
	 viewBox="0 0 24 24" style="enable-background:new 0 0 24 24;" xml:space="preserve">
<g>
	<path d="M23,0.2H6.7c-0.5,0-1,0.4-1,1v4.5H1c-0.5,0-1,0.4-1,1v16.1c0,0.5,0.4,1,1,1h16.4c0.5,0,1-0.4,1-1v-4.5H23c0.5,0,1-0.4,1-1
		V1.2C24,0.7,23.6,0.2,23,0.2z M16.4,21.8H1.9V7.7h14.4V21.8z M17.3,5.7H9.6V4.1h10.5v7.8h-1.8V6.7C18.3,6.2,17.9,5.7,17.3,5.7z
		 M22.1,16.3h-3.8v-3.4h2.3c0.3,0,0.5-0.2,0.5-0.5V3.7c0-0.3-0.2-0.5-0.5-0.5H9.1c-0.3,0-0.5,0.2-0.5,0.5v2.1h-1V2.2h14.4V16.3z"/>
	<path d="M3.4,18.4h11.5c0.3,0,0.5-0.2,0.5-0.5V9.1c0-0.3-0.2-0.5-0.5-0.5H3.4c-0.3,0-0.5,0.2-0.5,0.5v8.8
		C2.9,18.2,3.1,18.4,3.4,18.4z M3.9,9.6h10.5v7.8H3.9V9.6z"/>
</g>
</svg>
