<?xml version="1.0" encoding="utf-8"?>
<!-- Generator: Adobe Illustrator 25.0.0, SVG Export Plug-In . SVG Version: 6.00 Build 0)  -->
<svg version="1.1" id="Calque_1" xmlns="http://www.w3.org/2000/svg" xmlns:xlink="http://www.w3.org/1999/xlink" x="0px" y="0px"
	 viewBox="0 0 24 24" style="enable-background:new 0 0 24 24;" xml:space="preserve">
<g>
	<path d="M22.9,0.3H1.1c-0.6,0-1,0.4-1,1v21.3c0,0.6,0.4,1,1,1h21.7c0.6,0,1-0.4,1-1V1.3C23.9,0.8,23.4,0.3,22.9,0.3z M21.9,21.7
		H2.1V2.3h19.7V21.7z"/>
	<path d="M4.4,16.7h15.2c0.3,0,0.5-0.2,0.5-0.5V4.6c0-0.3-0.2-0.5-0.5-0.5H4.4c-0.3,0-0.5,0.2-0.5,0.5v11.6
		C3.9,16.5,4.1,16.7,4.4,16.7z M4.9,5.1h14.2v10.6H4.9V5.1z"/>
</g>
</svg>
