<?xml version="1.0" encoding="utf-8"?>
<!-- Generator: Adobe Illustrator 25.0.0, SVG Export Plug-In . SVG Version: 6.00 Build 0)  -->
<svg version="1.1" id="Calque_1" xmlns="http://www.w3.org/2000/svg" xmlns:xlink="http://www.w3.org/1999/xlink" x="0px" y="0px"
	 viewBox="0 0 24 24" style="enable-background:new 0 0 24 24;" xml:space="preserve">
<g>
	<path d="M23.5,12c-0.2-0.2-0.5-0.3-0.7-0.3H12.3V1.2c0-0.3-0.1-0.5-0.3-0.7c-0.2-0.2-0.5-0.3-0.7-0.3C5,0.6,0.2,5.8,0.2,12
		c0,6.5,5.3,11.8,11.8,11.8c6.2,0,11.4-4.8,11.8-11C23.8,12.5,23.7,12.2,23.5,12z M12,21.8c-5.4,0-9.8-4.4-9.8-9.8
		c0-4.8,3.5-8.8,8.1-9.7v10.4c0,0.6,0.4,1,1,1h10.4C20.9,18.3,16.8,21.8,12,21.8z"/>
	<path d="M14.2,10.5h8.1c0.3,0,0.5-0.2,0.5-0.5c0-4.7-3.9-8.6-8.6-8.6c-0.3,0-0.5,0.2-0.5,0.5V10C13.7,10.3,13.9,10.5,14.2,10.5z
		 M14.7,2.4c3.8,0.2,6.8,3.3,7.1,7.1h-7.1V2.4z"/>
</g>
</svg>
