<?xml version="1.0" encoding="utf-8"?>
<!-- Generator: Adobe Illustrator 25.0.0, SVG Export Plug-In . SVG Version: 6.00 Build 0)  -->
<svg version="1.1" id="Calque_1" xmlns="http://www.w3.org/2000/svg" xmlns:xlink="http://www.w3.org/1999/xlink" x="0px" y="0px"
	 viewBox="0 0 24 24" style="enable-background:new 0 0 24 24;" xml:space="preserve">
<path d="M23.2,9.9l-9.1-9.1c-0.3-0.3-0.8-0.4-1.1-0.2c-0.4,0.2-0.6,0.6-0.6,1c0.1,0.9,0.4,1.8,0.8,2.8L10.6,7C9,6.2,7.3,5.9,5.4,5.9
	C4.7,5.9,4,5.9,3.3,6C2.9,6.1,2.6,6.4,2.5,6.7c-0.1,0.4,0,0.7,0.2,1l6.1,6.1l-8,8c-0.4,0.4-0.4,1,0,1.4c0.2,0.2,0.5,0.3,0.7,0.3
	c0.3,0,0.5-0.1,0.7-0.3l8-8l6.1,6.1c0.2,0.2,0.4,0.3,0.7,0.3c0.1,0,0.2,0,0.3,0c0.4-0.1,0.6-0.4,0.7-0.8c0.4-2.5,0.1-5.1-0.9-7.4
	l2.5-2.5c0.9,0.4,1.9,0.7,2.8,0.8c0,0,0.1,0,0.1,0c0.4,0,0.7-0.2,0.9-0.6C23.5,10.7,23.5,10.2,23.2,9.9z M10.9,13.1
	C10.9,13.1,10.9,13.1,10.9,13.1C10.9,13.1,10.9,13.1,10.9,13.1L5.7,7.9C8.5,7.9,11.1,9,13,11c2,2,3.1,4.6,3.1,7.3L10.9,13.1z
	 M16,11.6c-0.5-0.7-1-1.4-1.6-2c-0.6-0.6-1.3-1.1-2-1.6l1.7-1.7c0.5,0.7,1,1.3,1.6,1.9c0.6,0.6,1.3,1.2,1.9,1.6L16,11.6z"/>
</svg>
