<?xml version="1.0" encoding="utf-8"?>
<!-- Generator: Adobe Illustrator 25.0.0, SVG Export Plug-In . SVG Version: 6.00 Build 0)  -->
<svg version="1.1" id="Calque_1" xmlns="http://www.w3.org/2000/svg" xmlns:xlink="http://www.w3.org/1999/xlink" x="0px" y="0px"
	 viewBox="0 0 24 24" style="enable-background:new 0 0 24 24;" xml:space="preserve">
<g>
	<g>
		<path d="M12,24c-0.2,0-0.5-0.1-0.6-0.2c-1-0.8-9.5-8.3-9.5-13.6C1.9,4.6,6.4,0,12,0c5.6,0,10.1,4.6,10.1,10.1
			c0,5.4-8.5,12.8-9.5,13.6C12.5,23.9,12.2,24,12,24L12,24z M12,2c-4.5,0-8.2,3.7-8.2,8.2c0,3.5,5.4,9.1,8.2,11.5
			c2.8-2.5,8.2-8.1,8.2-11.5C20.2,5.6,16.5,2,12,2L12,2z"/>
	</g>
	<g>
		<path d="M12,15.1c-2.7,0-4.9-2.2-4.9-4.9c0-2.7,2.2-4.9,4.9-4.9c2.7,0,4.9,2.2,4.9,4.9C16.9,12.9,14.7,15.1,12,15.1L12,15.1z
			 M12,7.2c-1.6,0-3,1.3-3,3s1.3,3,3,3s3-1.3,3-3S13.6,7.2,12,7.2L12,7.2z"/>
	</g>
</g>
</svg>
