<?xml version="1.0" encoding="utf-8"?>
<!-- Generator: Adobe Illustrator 22.1.0, SVG Export Plug-In . SVG Version: 6.00 Build 0)  -->
<svg version="1.1" id="Calque_1" xmlns="http://www.w3.org/2000/svg" xmlns:xlink="http://www.w3.org/1999/xlink" x="0px" y="0px"
	 viewBox="0 0 24 24" style="enable-background:new 0 0 24 24;" xml:space="preserve">
<path d="M12.6-0.1c-6.7,0-10,4.7-10,8.7c0,2.4,0.9,4.6,2.9,5.3C5.7,14,6,13.9,6,13.6c0.2-0.3,0.3-0.9,0.3-1.1
	c0.2-0.3,0.2-0.5-0.2-0.8C5.6,11,5.3,10.2,5.3,8.9c0-3.5,2.6-6.7,6.8-6.7c3.8,0,5.8,2.3,5.8,5.3c0,4.1-1.8,7.4-4.4,7.4
	c-1.4,0-2.6-1.2-2.1-2.7c0.5-1.8,1.2-3.6,1.2-5c0-1.2-0.6-2.1-1.8-2.1C9.2,5.1,8,6.6,8,8.7c0,1.4,0.5,2.1,0.5,2.1s-1.5,6.5-1.8,7.6
	c-0.5,2.3-0.2,5,0,5.3c0,0.2,0.3,0.2,0.3,0.2c0.2-0.2,2-2.3,2.6-4.6c0.2-0.6,1.1-3.8,1.1-3.8c0.5,0.9,2,1.8,3.5,1.8
	c4.6,0,7.6-4.1,7.6-9.6C21.4,3.7,17.9-0.1,12.6-0.1z"/>
</svg>
