<?xml version="1.0" encoding="utf-8"?>
<!-- Generator: Adobe Illustrator 25.0.0, SVG Export Plug-In . SVG Version: 6.00 Build 0)  -->
<svg version="1.1" id="Calque_1" xmlns="http://www.w3.org/2000/svg" xmlns:xlink="http://www.w3.org/1999/xlink" x="0px" y="0px"
	 viewBox="0 0 24 24" style="enable-background:new 0 0 24 24;" xml:space="preserve">
<g>
	<circle cx="15" cy="8.1" r="1.8"/>
	<circle cx="12.5" cy="11.1" r="0.9"/>
	<circle cx="9.7" cy="7.3" r="0.9"/>
	<path d="M21.9,3.2C19,1.1,15.6,0,12,0C8.4,0,5,1.1,2.1,3.2C1.6,3.5,1.5,4.1,1.8,4.5c1.4,2.1,2.9,5,4.5,8.3
		c1.8,3.7,3.6,7.8,4.7,10.6c0.2,0.4,0.5,0.6,0.9,0.6c0.4,0,0.8-0.2,0.9-0.6c1.2-2.8,3-6.9,4.7-10.6c1.6-3.3,3.2-6.2,4.5-8.3
		C22.5,4.1,22.4,3.5,21.9,3.2z M12,2c2.8,0,5.6,0.8,8,2.3c-0.2,0.3-0.3,0.5-0.5,0.8c-4.7-2.2-10.3-2.2-15,0C4.3,4.8,4.2,4.5,4,4.3
		C6.4,2.8,9.2,2,12,2z M15.9,11.9c-0.4,0.9-0.9,1.8-1.3,2.7c-0.3-0.4-0.8-0.6-1.3-0.6c-1,0-1.8,0.8-1.8,1.8s0.8,1.8,1.8,1.8
		c0,0,0,0,0,0c-0.5,1-0.9,2-1.3,2.9c-1-2.2-2.1-4.9-3.4-7.4c0.8-0.1,1.5-0.8,1.5-1.7c0-1-0.8-1.8-1.8-1.8c-0.5,0-0.9,0.2-1.2,0.5
		C6.6,8.9,6,7.8,5.5,6.8c4.1-1.9,9-1.9,13,0C17.7,8.4,16.8,10.1,15.9,11.9z"/>
</g>
</svg>
