<?xml version="1.0" encoding="utf-8"?>
<!-- Generator: Adobe Illustrator 25.0.0, SVG Export Plug-In . SVG Version: 6.00 Build 0)  -->
<svg version="1.1" id="Calque_1" xmlns="http://www.w3.org/2000/svg" xmlns:xlink="http://www.w3.org/1999/xlink" x="0px" y="0px"
	 viewBox="0 0 24 24" style="enable-background:new 0 0 24 24;" xml:space="preserve">
<path d="M22.9,11H13V1.1c0-0.6-0.4-1-1-1c-0.6,0-1,0.4-1,1V11H1.1c-0.6,0-1,0.4-1,1c0,0.6,0.4,1,1,1H11v9.9c0,0.6,0.4,1,1,1
	c0.6,0,1-0.4,1-1V13h9.9c0.6,0,1-0.4,1-1C23.9,11.4,23.5,11,22.9,11z"/>
</svg>
