<?xml version="1.0" encoding="utf-8"?>
<!-- Generator: Adobe Illustrator 24.3.0, SVG Export Plug-In . SVG Version: 6.00 Build 0)  -->
<svg version="1.1" id="Calque_1" xmlns="http://www.w3.org/2000/svg" xmlns:xlink="http://www.w3.org/1999/xlink" x="0px" y="0px"
	 viewBox="0 0 24 24" style="enable-background:new 0 0 24 24;" xml:space="preserve">
<g>
	<path d="M15.9,11H13V8.1c0-0.6-0.4-1-1-1c-0.6,0-1,0.4-1,1V11H8.1c-0.6,0-1,0.4-1,1c0,0.6,0.4,1,1,1H11v2.9c0,0.6,0.4,1,1,1
		c0.6,0,1-0.4,1-1V13h2.9c0.6,0,1-0.4,1-1C16.9,11.4,16.5,11,15.9,11z"/>
	<path d="M20.3,3.7c-2.2-2.2-5.2-3.4-8.3-3.4c-3.1,0-6.1,1.2-8.3,3.4c-4.6,4.6-4.6,12.1,0,16.7c2.2,2.2,5.2,3.4,8.3,3.4
		s6.1-1.2,8.3-3.4C24.9,15.7,24.9,8.3,20.3,3.7z M18.9,18.9c-1.8,1.8-4.3,2.9-6.9,2.9c-2.6,0-5.1-1-6.9-2.9c-3.8-3.8-3.8-10,0-13.8
		C6.9,3.2,9.4,2.2,12,2.2c2.6,0,5.1,1,6.9,2.9C22.7,8.9,22.7,15.1,18.9,18.9z"/>
</g>
</svg>
