<?xml version="1.0" encoding="utf-8"?>
<!-- Generator: Adobe Illustrator 24.3.0, SVG Export Plug-In . SVG Version: 6.00 Build 0)  -->
<svg version="1.1" id="Calque_1" xmlns="http://www.w3.org/2000/svg" xmlns:xlink="http://www.w3.org/1999/xlink" x="0px" y="0px"
	 viewBox="0 0 24 24" style="enable-background:new 0 0 24 24;" xml:space="preserve">
<g>
	<g>
		<path d="M12,9.5c-0.6,0-1-0.4-1-1V1.2c0-0.6,0.4-1,1-1c0.6,0,1,0.4,1,1v7.3C13,9,12.6,9.5,12,9.5L12,9.5z"/>
	</g>
	<g>
		<path d="M12,23.8c-5.8,0-10.5-4.7-10.5-10.5c0-4.5,2.8-8.4,7.1-9.9C9.1,3.2,9.6,3.5,9.8,4C10,4.5,9.7,5.1,9.2,5.3
			c-3.4,1.2-5.7,4.4-5.7,8c0,4.7,3.8,8.5,8.5,8.5c4.7,0,8.5-3.8,8.5-8.5c0-3.6-2.3-6.8-5.7-8C14.3,5.1,14,4.5,14.2,4
			c0.2-0.5,0.7-0.8,1.3-0.6c4.2,1.5,7.1,5.5,7.1,9.9C22.5,19.1,17.8,23.8,12,23.8L12,23.8z"/>
	</g>
</g>
</svg>
