<?xml version="1.0" encoding="utf-8"?>
<!-- Generator: Adobe Illustrator 25.0.0, SVG Export Plug-In . SVG Version: 6.00 Build 0)  -->
<svg version="1.1" id="Calque_1" xmlns="http://www.w3.org/2000/svg" xmlns:xlink="http://www.w3.org/1999/xlink" x="0px" y="0px"
	 viewBox="0 0 24 24" style="enable-background:new 0 0 24 24;" xml:space="preserve">
<g>
	<g>
		<path d="M21.1,22.7L21.1,22.7c-0.4,0-0.9-0.1-1.3-0.4L5.3,13.9c-0.8-0.5-1.2-1.1-1.2-1.9c0-0.8,0.5-1.4,1.2-1.9l14.5-8.4
			c0.4-0.2,0.9-0.4,1.3-0.4c1.2,0,2,0.9,2,2.3v16.8c0,0.6-0.2,1.2-0.5,1.6C22.3,22.4,21.7,22.7,21.1,22.7L21.1,22.7z M6.1,12
			c0,0,0.1,0.1,0.2,0.2l14.5,8.4c0.1,0.1,0.2,0.1,0.3,0.1c0,0,0-0.1,0-0.3V3.6c0-0.2,0-0.3,0-0.3c0,0-0.1,0-0.2,0.1L6.3,11.8
			C6.2,11.9,6.1,12,6.1,12L6.1,12z"/>
	</g>
	<g>
		<path d="M1.9,23c-0.6,0-1-0.4-1-1V2c0-0.6,0.4-1,1-1c0.6,0,1,0.4,1,1v20C2.9,22.6,2.4,23,1.9,23L1.9,23z"/>
	</g>
</g>
</svg>
