<?xml version="1.0" encoding="utf-8"?>
<!-- Generator: Adobe Illustrator 25.0.0, SVG Export Plug-In . SVG Version: 6.00 Build 0)  -->
<svg version="1.1" id="Calque_1" xmlns="http://www.w3.org/2000/svg" xmlns:xlink="http://www.w3.org/1999/xlink" x="0px" y="0px"
	 viewBox="0 0 24 24" style="enable-background:new 0 0 24 24;" xml:space="preserve">
<g>
	<path d="M14.3,14.7c-0.2-0.2-0.5-0.4-0.8-0.5c-0.3-0.1-0.7-0.2-1.2-0.4v-2.5c0.5,0.2,0.8,0.5,0.9,1c0.1,0.4,0.4,0.6,0.7,0.6
		c0.2,0,0.4-0.1,0.5-0.2c0.1-0.1,0.2-0.3,0.2-0.5c0-0.2,0-0.4-0.1-0.6c-0.1-0.2-0.2-0.4-0.4-0.6c-0.2-0.3-0.5-0.5-0.8-0.6
		c-0.3-0.1-0.7-0.2-1.1-0.3V9.6c0-0.3-0.1-0.5-0.4-0.5c-0.2,0-0.4,0.2-0.4,0.5v0.6c-0.8,0.1-1.4,0.3-1.9,0.8c-0.4,0.4-0.6,1-0.6,1.7
		c0,0.5,0.1,0.9,0.3,1.3c0.2,0.3,0.5,0.6,0.9,0.8c0.4,0.2,0.8,0.3,1.3,0.5v2.7c-0.3-0.1-0.5-0.2-0.6-0.3c-0.2-0.1-0.3-0.3-0.4-0.5
		c-0.1-0.2-0.2-0.4-0.3-0.7c0-0.2-0.1-0.3-0.3-0.3C10,16,9.9,15.9,9.7,15.9c-0.2,0-0.4,0.1-0.5,0.2c-0.1,0.1-0.2,0.3-0.2,0.5
		c0,0.3,0.1,0.5,0.2,0.8c0.1,0.3,0.3,0.5,0.5,0.8c0.2,0.2,0.5,0.4,0.9,0.6c0.3,0.2,0.7,0.3,1.2,0.3v0.7c0,0.2,0,0.3,0.1,0.4
		c0.1,0.1,0.2,0.1,0.3,0.1c0.2,0,0.3-0.1,0.3-0.2c0-0.1,0.1-0.3,0.1-0.5v-0.6c0.6,0,1-0.2,1.5-0.4c0.4-0.2,0.7-0.6,0.9-1
		c0.2-0.4,0.3-0.8,0.3-1.3c0-0.4-0.1-0.7-0.2-1C14.8,15.2,14.6,14.9,14.3,14.7z M11.6,13.7c-0.4-0.1-0.6-0.3-0.8-0.4
		c-0.2-0.2-0.3-0.4-0.3-0.7c0-0.3,0.1-0.6,0.3-0.7c0.2-0.2,0.4-0.3,0.8-0.4V13.7z M13.3,17.5c-0.2,0.2-0.5,0.4-0.9,0.5v-2.6
		c0.4,0.1,0.7,0.3,0.9,0.5c0.2,0.2,0.3,0.5,0.3,0.8C13.6,17,13.5,17.3,13.3,17.5z"/>
	<path d="M20.8,7c0-0.9-0.5-1.8-1.3-2.3L18.4,4c0.4-0.3,0.8-0.7,1.1-1c0.9-1.1,0.9-1.8,0.6-2.2C20,0.3,19.4-0.2,18,0.1
		c-1,0.1-2.1,0.6-3.2,1.2c-0.1,0.1-0.2,0.2-0.2,0.3l-1.2-0.8c-0.7-0.5-1.9-0.5-2.6,0l-6.3,4C3.7,5.2,3.2,6.1,3.2,7l0,15.1
		C3.2,23.1,4,24,5.1,24h13.9c1.1,0,1.9-0.9,1.9-1.9L20.8,7z M18.1,1c0.7-0.1,1.2,0,1.3,0.2c0.1,0.2,0,0.6-0.5,1.2
		c-0.3,0.4-0.8,0.7-1.2,1.1L15.3,2C16.3,1.5,17.3,1.1,18.1,1z M18.9,22.1H5.1L5.1,7c0-0.2,0.2-0.6,0.4-0.7l6.3-4
		c0,0,0.2-0.1,0.3-0.1c0.1,0,0.3,0,0.3,0.1l3.4,2.2c-1,0.5-1.9,0.7-2.5,0.8C13,4.8,12.6,4.4,12,4.4c-0.7,0-1.3,0.6-1.3,1.3
		C10.7,6.5,11.3,7,12,7c0.6,0,1-0.3,1.2-0.8c1-0.1,2.3-0.5,3.4-1.1l1.9,1.2c0.2,0.1,0.4,0.5,0.4,0.7V22.1z"/>
</g>
</svg>
