<?xml version="1.0" encoding="utf-8"?>
<!-- Generator: Adobe Illustrator 25.0.0, SVG Export Plug-In . SVG Version: 6.00 Build 0)  -->
<svg version="1.1" id="Calque_1" xmlns="http://www.w3.org/2000/svg" xmlns:xlink="http://www.w3.org/1999/xlink" x="0px" y="0px"
	 viewBox="0 0 24 24" style="enable-background:new 0 0 24 24;" xml:space="preserve">
<g>
	<path d="M19.3,17.3H4.7c-0.3,0-0.5,0.2-0.5,0.5v4.9c0,0.3,0.2,0.5,0.5,0.5h14.6c0.3,0,0.5-0.2,0.5-0.5v-4.9
		C19.8,17.5,19.6,17.3,19.3,17.3z M18.8,22.2H5.2v-3.9h13.6V22.2z"/>
	<path d="M19.8,10.3v-9c0-0.3-0.2-0.5-0.5-0.5h-9.2c-0.1,0-0.1,0-0.2,0c-0.1,0-0.1,0.1-0.2,0.1c0,0,0,0,0,0L4.3,6.3
		c0,0-0.1,0.1-0.1,0.2c0,0.1,0,0.1,0,0.2v3.6H0.3v11.3h3.1v-2H2.3v-7.3h19.5v7.3h-1.1v2h3.1V10.3H19.8z M9.6,2.5v3.7H5.9L9.6,2.5z
		 M5.2,7.1h4.9c0.3,0,0.5-0.2,0.5-0.5V1.8h8.2v8.5H5.2V7.1z"/>
	<path d="M19,14.9c0-0.6-0.5-1.2-1.2-1.2c-0.6,0-1.2,0.5-1.2,1.2c0,0.6,0.5,1.2,1.2,1.2C18.5,16.1,19,15.6,19,14.9z"/>
	<path d="M15,15.2c0.3,0,0.5-0.2,0.5-0.5c0-0.3-0.2-0.5-0.5-0.5H8.8c-0.3,0-0.5,0.2-0.5,0.5c0,0.3,0.2,0.5,0.5,0.5H15z"/>
</g>
</svg>
