<?xml version="1.0" encoding="utf-8"?>
<!-- Generator: Adobe Illustrator 25.0.0, SVG Export Plug-In . SVG Version: 6.00 Build 0)  -->
<svg version="1.1" id="Calque_1" xmlns="http://www.w3.org/2000/svg" xmlns:xlink="http://www.w3.org/1999/xlink" x="0px" y="0px"
	 viewBox="0 0 24 24" style="enable-background:new 0 0 24 24;" xml:space="preserve">
<g>
	<path d="M12,23.7C12,23.7,12,23.7,12,23.7c-0.6,0-1.1-0.2-1.5-0.6l-9.6-9.6c-0.4-0.4-0.6-0.9-0.6-1.5c0-0.6,0.2-1.1,0.6-1.5l3-3
		c0.3-0.3,0.6-0.4,1-0.3C5.3,7.3,5.5,7.6,5.6,8c0.1,0.4,0.3,0.8,0.6,1.1c0.9,0.9,2.3,0.9,3.2,0c0.9-0.9,0.9-2.3,0-3.2
		C9.1,5.6,8.7,5.4,8.3,5.3C7.9,5.2,7.6,4.9,7.5,4.6c-0.1-0.4,0-0.7,0.3-1l2.7-2.7c0.8-0.8,2.2-0.8,3,0l2,2C15.7,2.4,16,2,16.3,1.6
		c0.8-0.8,1.9-1.2,3-1.2c1.1,0,2.2,0.4,3,1.2c1.7,1.7,1.7,4.4,0,6C22,8,21.6,8.3,21.1,8.5l2,2c0.4,0.4,0.6,0.9,0.6,1.5
		c0,0.6-0.2,1.1-0.6,1.5l-2.7,2.7c-0.3,0.3-0.6,0.4-1,0.3c-0.4-0.1-0.6-0.4-0.7-0.8c-0.1-0.4-0.3-0.8-0.6-1.1
		c-0.9-0.9-2.3-0.9-3.2,0c-0.9,0.9-0.9,2.3,0,3.2c0.3,0.3,0.7,0.5,1.1,0.6c0.4,0.1,0.6,0.3,0.8,0.7c0.1,0.4,0,0.7-0.3,1l-3,3
		C13.1,23.5,12.6,23.7,12,23.7L12,23.7z M4.3,9.9l-2,2c0,0,0,0.1,0,0.1c0,0,0,0.1,0,0.1l9.6,9.6c0.1,0.1,0.1,0.1,0.2,0l2-2
		c-0.2-0.1-0.4-0.3-0.6-0.5c-1.7-1.7-1.7-4.4,0-6c0.8-0.8,1.9-1.2,3-1.2s2.2,0.4,3,1.2c0.2,0.2,0.4,0.4,0.5,0.6l1.7-1.7
		c0,0,0-0.1,0-0.1c0,0,0-0.1,0-0.1l-3.3-3.3c-0.3-0.3-0.4-0.7-0.2-1.1c0.2-0.4,0.6-0.6,1-0.6c0.7,0,1.3-0.2,1.8-0.6
		c0.9-0.9,0.9-2.3,0-3.2c-0.9-0.9-2.3-0.9-3.2,0c-0.5,0.5-0.7,1.1-0.6,1.8c0,0.4-0.2,0.8-0.6,1c-0.4,0.2-0.8,0.1-1.1-0.2l-3.3-3.3
		c-0.1-0.1-0.1-0.1-0.2,0L10.2,4c0.2,0.1,0.4,0.3,0.6,0.5c1.7,1.7,1.7,4.4,0,6c-0.8,0.8-1.9,1.2-3,1.2c-1.1,0-2.2-0.4-3-1.2
		C4.6,10.3,4.4,10.1,4.3,9.9L4.3,9.9z"/>
</g>
</svg>
