<?xml version="1.0" encoding="utf-8"?>
<!-- Generator: Adobe Illustrator 24.3.0, SVG Export Plug-In . SVG Version: 6.00 Build 0)  -->
<svg version="1.1" id="Calque_1" xmlns="http://www.w3.org/2000/svg" xmlns:xlink="http://www.w3.org/1999/xlink" x="0px" y="0px"
	 viewBox="0 0 24 24" style="enable-background:new 0 0 24 24;" xml:space="preserve">
<g>
	<g>
		<path d="M8.2,9.5c0-0.5,0.2-0.9,0.5-1.4C9,7.6,9.4,7.2,10,6.9c0.6-0.3,1.3-0.5,2-0.5c0.7,0,1.4,0.1,1.9,0.4c0.6,0.3,1,0.6,1.3,1.1
			c0.3,0.5,0.4,1,0.4,1.5c0,0.4-0.1,0.8-0.3,1.1c-0.2,0.3-0.4,0.6-0.6,0.8c-0.2,0.2-0.7,0.6-1.3,1.2c-0.2,0.2-0.3,0.3-0.4,0.4
			C13,13,13,13.1,12.9,13.2c0,0.1-0.1,0.2-0.1,0.3c0,0.1-0.1,0.3-0.1,0.5c-0.1,0.5-0.4,0.8-0.9,0.8c-0.3,0-0.5-0.1-0.7-0.3
			c-0.2-0.2-0.3-0.4-0.3-0.8c0-0.4,0.1-0.8,0.2-1.1c0.1-0.3,0.3-0.6,0.5-0.8c0.2-0.2,0.5-0.5,0.9-0.8c0.3-0.3,0.5-0.5,0.7-0.6
			c0.1-0.1,0.3-0.3,0.4-0.5c0.1-0.2,0.1-0.4,0.1-0.6c0-0.4-0.1-0.7-0.4-1C12.9,8.1,12.5,8,12,8c-0.5,0-0.9,0.1-1.2,0.4
			c-0.3,0.3-0.5,0.7-0.7,1.2c-0.2,0.6-0.5,0.8-1,0.8c-0.3,0-0.5-0.1-0.7-0.3C8.3,10,8.2,9.8,8.2,9.5z M11.9,17.7
			c-0.3,0-0.6-0.1-0.8-0.3c-0.2-0.2-0.3-0.5-0.3-0.8c0-0.3,0.1-0.6,0.3-0.8c0.2-0.2,0.5-0.3,0.8-0.3c0.3,0,0.6,0.1,0.8,0.3
			c0.2,0.2,0.3,0.5,0.3,0.8c0,0.3-0.1,0.6-0.3,0.8C12.4,17.6,12.2,17.7,11.9,17.7z"/>
	</g>
	<g>
		<path d="M12,23.8c-3.1,0-6.1-1.2-8.3-3.4c-2.2-2.2-3.4-5.2-3.4-8.3s1.2-6.1,3.5-8.3C5.9,1.4,8.9,0.2,12,0.2c3.1,0,6.1,1.2,8.3,3.4
			c4.6,4.6,4.6,12.1,0,16.7C18.1,22.6,15.1,23.8,12,23.8L12,23.8z M12,2.2c-2.6,0-5.1,1-6.9,2.9C3.2,6.9,2.2,9.4,2.2,12
			s1,5.1,2.9,6.9c1.8,1.8,4.3,2.9,6.9,2.9c2.6,0,5.1-1,6.9-2.9c3.8-3.8,3.8-10,0-13.8C17.1,3.2,14.6,2.2,12,2.2L12,2.2z"/>
	</g>
</g>
</svg>
