<?xml version="1.0" encoding="utf-8"?>
<!-- Generator: Adobe Illustrator 25.0.0, SVG Export Plug-In . SVG Version: 6.00 Build 0)  -->
<svg version="1.1" id="Calque_1" xmlns="http://www.w3.org/2000/svg" xmlns:xlink="http://www.w3.org/1999/xlink" x="0px" y="0px"
	 viewBox="0 0 24 24" style="enable-background:new 0 0 24 24;" xml:space="preserve">
<g>
	<path d="M18.1,16c0.5,0,0.9-0.1,1.3-0.2c-1.4,1.2-3.1,1.9-5.1,1.9c-0.5,0-1,0.4-1,1c0,0.5,0.4,1,1,1c5.3,0,9.6-4.3,9.6-9.6
		c0-3.3-2.6-5.9-5.9-5.9c-3.3,0-5.9,2.6-5.9,5.9C12.2,13.4,14.8,16,18.1,16z M18.1,6.2c2.2,0,3.9,1.8,3.9,3.9c0,2.2-1.8,3.9-3.9,3.9
		c-2.2,0-3.9-1.8-3.9-3.9C14.2,8,15.9,6.2,18.1,6.2z"/>
	<path d="M5.9,16c0.5,0,0.9-0.1,1.3-0.2c-1.4,1.2-3.1,1.9-5.1,1.9c-0.5,0-1,0.4-1,1c0,0.5,0.4,1,1,1c5.1,0,9.3-4,9.6-9
		c0-0.2,0-0.4,0-0.6c0-3.3-2.6-5.9-5.9-5.9C2.6,4.2,0,6.9,0,10.1C0,13.4,2.6,16,5.9,16z M5.9,6.2c2.2,0,3.9,1.8,3.9,3.9
		c0,2.2-1.8,3.9-3.9,3.9c-2.2,0-3.9-1.8-3.9-3.9C2,8,3.7,6.2,5.9,6.2z"/>
</g>
</svg>
