<?xml version="1.0" encoding="utf-8"?>
<!-- Generator: Adobe Illustrator 25.0.0, SVG Export Plug-In . SVG Version: 6.00 Build 0)  -->
<svg version="1.1" id="Calque_1" xmlns="http://www.w3.org/2000/svg" xmlns:xlink="http://www.w3.org/1999/xlink" x="0px" y="0px"
	 viewBox="0 0 24 24" style="enable-background:new 0 0 24 24;" xml:space="preserve">
<g>
	<path d="M5.9,8C5.4,8,5,8,4.6,8.1c1.4-1.2,3.1-1.9,5.1-1.9c0.5,0,1-0.4,1-1c0-0.5-0.4-1-1-1C4.3,4.2,0,8.6,0,13.9
		c0,3.3,2.6,5.9,5.9,5.9c3.3,0,5.9-2.6,5.9-5.9C11.8,10.6,9.2,8,5.9,8z M5.9,17.8C3.7,17.8,2,16,2,13.9c0-2.2,1.8-3.9,3.9-3.9
		c2.2,0,3.9,1.8,3.9,3.9C9.8,16,8.1,17.8,5.9,17.8z"/>
	<path d="M18.1,8c-0.5,0-0.9,0.1-1.3,0.2c1.4-1.2,3.1-1.9,5.1-1.9c0.5,0,1-0.4,1-1c0-0.5-0.4-1-1-1c-5.1,0-9.3,4-9.6,9
		c0,0.2,0,0.4,0,0.6c0,3.3,2.6,5.9,5.9,5.9c3.3,0,5.9-2.6,5.9-5.9C24,10.6,21.4,8,18.1,8z M18.1,17.8c-2.2,0-3.9-1.8-3.9-3.9
		c0-2.2,1.8-3.9,3.9-3.9c2.2,0,3.9,1.8,3.9,3.9C22,16,20.3,17.8,18.1,17.8z"/>
</g>
</svg>
