<?xml version="1.0" encoding="utf-8"?>
<!-- Generator: Adobe Illustrator 25.0.0, SVG Export Plug-In . SVG Version: 6.00 Build 0)  -->
<svg version="1.1" id="Calque_1" xmlns="http://www.w3.org/2000/svg" xmlns:xlink="http://www.w3.org/1999/xlink" x="0px" y="0px"
	 viewBox="0 0 24 24" style="enable-background:new 0 0 24 24;" xml:space="preserve">
<g>
	<path d="M18.3,5.8c-0.3,0-0.6,0-1,0.1c-1-2.4-3.3-4.1-6-4.1C8.2,1.8,5.5,4.1,5,7.1c-2.7,0-5,2.3-5,5c0,2.2,1.5,4.2,3.5,4.8
		c0.4,0.1,0.9,0.2,1.4,0.2h13.6c0.5,0,1-0.1,1.5-0.3c2.4-0.7,4-2.9,4-5.4C24,8.3,21.4,5.8,18.3,5.8z M19.4,15.1
		c-0.3,0.1-0.6,0.2-0.8,0.2H4.9c-0.3,0-0.5,0-0.8-0.1c-1.3-0.4-2.2-1.6-2.2-2.9C1.9,10.4,3.3,9,5,9c0.2,0,0.4,0,0.6,0.1l1.1,0.2
		l0-1.2c0-2.5,2.1-4.5,4.5-4.5c2.1,0,3.9,1.4,4.4,3.5L16,8.3l1-0.4c0.4-0.1,0.8-0.2,1.3-0.2c2.1,0,3.8,1.7,3.8,3.8
		C22.1,13.1,21,14.5,19.4,15.1z"/>
	<path d="M7.2,18.5c-0.5-0.3-1.1-0.1-1.3,0.4l-1.1,1.9c-0.3,0.5-0.1,1.1,0.4,1.3c0.2,0.1,0.3,0.1,0.5,0.1c0.3,0,0.7-0.2,0.8-0.5
		l1.1-1.9C7.9,19.4,7.7,18.8,7.2,18.5z"/>
	<path d="M12.4,18.5c-0.5-0.3-1.1-0.1-1.3,0.4L10,20.8c-0.3,0.5-0.1,1.1,0.4,1.3c0.2,0.1,0.3,0.1,0.5,0.1c0.3,0,0.7-0.2,0.8-0.5
		l1.1-1.9C13,19.4,12.8,18.8,12.4,18.5z"/>
	<path d="M17.5,18.5c-0.5-0.3-1.1-0.1-1.3,0.4l-1.1,1.9c-0.3,0.5-0.1,1.1,0.4,1.3c0.2,0.1,0.3,0.1,0.5,0.1c0.3,0,0.7-0.2,0.8-0.5
		l1.1-1.9C18.1,19.4,18,18.8,17.5,18.5z"/>
</g>
</svg>
