<?xml version="1.0" encoding="utf-8"?>
<!-- Generator: Adobe Illustrator 24.3.0, SVG Export Plug-In . SVG Version: 6.00 Build 0)  -->
<svg version="1.1" id="Calque_1" xmlns="http://www.w3.org/2000/svg" xmlns:xlink="http://www.w3.org/1999/xlink" x="0px" y="0px"
	 viewBox="0 0 24 24" style="enable-background:new 0 0 24 24;" xml:space="preserve">
<g>
	<path d="M12,5.5c-6.6,0-12,5.4-12,12c0,0.5,0.4,0.9,0.9,0.9c0.5,0,0.9-0.4,0.9-0.9C1.8,11.9,6.4,7.4,12,7.4
		c5.6,0,10.2,4.6,10.2,10.2c0,0.5,0.4,0.9,0.9,0.9S24,18,24,17.5C24,10.9,18.6,5.5,12,5.5z"/>
	<path d="M12,8.8c-4.8,0-8.7,3.9-8.7,8.7c0,0.5,0.4,0.9,0.9,0.9c0.5,0,0.9-0.4,0.9-0.9c0-3.8,3.1-6.9,6.9-6.9c3.8,0,6.9,3.1,6.9,6.9
		c0,0.5,0.4,0.9,0.9,0.9c0.5,0,0.9-0.4,0.9-0.9C20.7,12.7,16.8,8.8,12,8.8z"/>
	<path d="M12,12.2c-2.9,0-5.3,2.4-5.3,5.3c0,0.5,0.4,0.9,0.9,0.9c0.5,0,0.9-0.4,0.9-0.9c0-1.9,1.6-3.5,3.5-3.5
		c1.9,0,3.5,1.6,3.5,3.5c0,0.5,0.4,0.9,0.9,0.9c0.5,0,0.9-0.4,0.9-0.9C17.3,14.6,14.9,12.2,12,12.2z"/>
</g>
</svg>
