<?xml version="1.0" encoding="utf-8"?>
<!-- Generator: Adobe Illustrator 25.0.0, SVG Export Plug-In . SVG Version: 6.00 Build 0)  -->
<svg version="1.1" id="Calque_1" xmlns="http://www.w3.org/2000/svg" xmlns:xlink="http://www.w3.org/1999/xlink" x="0px" y="0px"
	 viewBox="0 0 24 24" style="enable-background:new 0 0 24 24;" xml:space="preserve">
<path d="M0.1,13.1c0,3.6,1.6,6.8,4.5,9c0.2,0.1,0.4,0.2,0.6,0.2c0.3,0,0.5-0.1,0.7-0.3c0.3-0.4,0.3-0.9,0-1.3c-1.3-1.4-2-3.2-2-5.1
	c0-4.1,3.3-7.4,7.4-7.4c1.6,0,3.2,0.5,4.4,1.5l-2.8,2.8c-0.3,0.3-0.4,0.7-0.2,1.1c0.1,0.4,0.5,0.6,0.9,0.6h9.4c0.5,0,1-0.4,1-1V3.7
	c0-0.4-0.2-0.7-0.6-0.9c-0.4-0.1-0.8-0.1-1.1,0.2l-2.4,2.4c-2.1-2.4-5.2-3.8-8.4-3.8C5.2,1.7,0.1,6.8,0.1,13.1z M2,13.8
	c0-0.2,0-0.5,0-0.7c0-5.2,4.2-9.4,9.4-9.4c3,0,5.8,1.4,7.6,3.9C19.4,7.9,20,8,20.4,7.7c0.1-0.1,0.2-0.2,0.3-0.3c0,0,0,0,0,0L22,6.1
	v6.2h-6.2l1.7-1.7c0.1,0,0.1-0.1,0.2-0.1c0.4-0.4,0.4-1,0-1.4c-1.8-1.8-4.1-2.7-6.6-2.7C6.7,6.3,2.9,9.5,2,13.8z"/>
</svg>
