<?xml version="1.0" encoding="utf-8"?>
<!-- Generator: Adobe Illustrator 25.0.0, SVG Export Plug-In . SVG Version: 6.00 Build 0)  -->
<svg version="1.1" id="Calque_1" xmlns="http://www.w3.org/2000/svg" xmlns:xlink="http://www.w3.org/1999/xlink" x="0px" y="0px"
	 viewBox="0 0 24 24" style="enable-background:new 0 0 24 24;" xml:space="preserve">
<path d="M23.6,7.9l-9.8-7.7c-0.3-0.2-0.7-0.3-1-0.1c-0.3,0.2-0.5,0.5-0.5,0.9v3.4C7.7,5.1,4.4,7,2.3,9.9C0,13.2-0.6,17.9,0.6,23
	l0,0.1c0.1,0.5,0.5,0.8,1,0.8c0,0,0,0,0,0c0.5,0,0.9-0.4,1-0.9c0.9-8,6.1-10.1,9.7-10.6v3.9c0,0.4,0.2,0.7,0.5,0.9
	c0.3,0.2,0.7,0.1,1-0.1l9.8-7.7C23.9,9.3,24,9,24,8.7C24,8.4,23.9,8.1,23.6,7.9z M14.2,14.4v-2.9c0-0.3-0.1-0.5-0.3-0.7
	c-0.2-0.2-0.5-0.3-0.7-0.3c-2.7,0.2-8.5,1.3-11.2,7.3c0-2.2,0.5-4.7,2-6.8c1.9-2.7,5-4.3,9.4-4.9c0.5-0.1,0.9-0.5,0.9-1V3l7.2,5.7
	L14.2,14.4z"/>
</svg>
