<?xml version="1.0" encoding="utf-8"?>
<!-- Generator: Adobe Illustrator 25.0.0, SVG Export Plug-In . SVG Version: 6.00 Build 0)  -->
<svg version="1.1" id="Calque_1" xmlns="http://www.w3.org/2000/svg" xmlns:xlink="http://www.w3.org/1999/xlink" x="0px" y="0px"
	 viewBox="0 0 24 24" style="enable-background:new 0 0 24 24;" xml:space="preserve">
<g>
	<path d="M23.1,1.6c-0.1-0.4-0.4-0.7-0.8-0.8c-0.7-0.1-1.4-0.2-2.1-0.2c-3.3,0-6.5,1.4-9,3.9c-1.1,1.1-2,2.4-2.7,3.9
		C6.2,8.1,4,8.9,2.4,10.6c-0.7,0.7-1.2,1.5-1.6,2.4c-0.2,0.4-0.1,0.8,0.2,1.1c0.3,0.3,0.7,0.4,1.1,0.2c1.2-0.5,2.5-0.5,3.7-0.2
		c-1.3,1.5-1.9,3.5-1.6,5.4c0,0.2,0.2,0.4,0.4,0.4c0.3,0.1,0.7,0.1,1,0.1c1.5,0,3.1-0.6,4.4-1.7c0.3,1.2,0.3,2.5-0.2,3.7
		c-0.2,0.4-0.1,0.8,0.2,1.1c0.2,0.2,0.4,0.3,0.7,0.3c0.1,0,0.3,0,0.4-0.1c0.9-0.4,1.7-0.9,2.4-1.6c1.6-1.6,2.4-3.9,2.2-6.2
		c1.4-0.7,2.7-1.6,3.9-2.7C22.5,9.7,23.9,5.5,23.1,1.6z M5.1,18.9c-0.1-1.6,0.5-3.2,1.6-4.5c0.2,0.1,0.5,0.2,0.7,0.4
		c0,0.3,0.1,0.6,0.1,0.8C7.6,16,8,16.4,8.4,16.4c0.3,0.1,0.5,0.1,0.8,0.1c0.1,0.2,0.3,0.5,0.4,0.7C8.3,18.4,6.7,19,5.1,18.9z
		 M14.2,13.9c-0.5,0.2-0.7,0.7-0.6,1.1c0.4,1.8-0.1,3.7-1.4,5.1c0.1-1.8-0.5-3.6-1.6-5.1c-0.2-0.2-0.4-0.4-0.7-0.4
		c-0.1,0-0.3,0-0.4,0c0-0.1,0-0.3,0-0.4c0-0.3-0.2-0.6-0.4-0.7c-1.5-1.1-3.3-1.7-5.1-1.6c1.3-1.3,3.2-1.8,5.1-1.4
		c0.5,0.1,1-0.2,1.1-0.6c0.6-1.5,1.4-2.8,2.6-3.9c2.4-2.4,5.6-3.6,8.6-3.2c0.4,3-0.8,6.3-3.2,8.6C16.9,12.5,15.6,13.3,14.2,13.9z"/>
	<path d="M15.2,5.3c-1,1-1,2.6,0,3.5c0.5,0.5,1.1,0.7,1.8,0.7c0.7,0,1.3-0.3,1.8-0.7c0.5-0.5,0.7-1.1,0.7-1.8c0-0.7-0.3-1.3-0.7-1.8
		C17.8,4.4,16.1,4.3,15.2,5.3z M18,8.1c-0.6,0.6-1.6,0.6-2.1,0c-0.6-0.6-0.6-1.5,0-2.1c0.3-0.3,0.7-0.4,1.1-0.4
		c0.4,0,0.8,0.2,1.1,0.4c0.3,0.3,0.4,0.7,0.4,1.1C18.4,7.5,18.3,7.8,18,8.1z"/>
</g>
</svg>
