<?xml version="1.0" encoding="utf-8"?>
<!-- Generator: Adobe Illustrator 25.0.0, SVG Export Plug-In . SVG Version: 6.00 Build 0)  -->
<svg version="1.1" id="Calque_1" xmlns="http://www.w3.org/2000/svg" xmlns:xlink="http://www.w3.org/1999/xlink" x="0px" y="0px"
	 viewBox="0 0 24 24" style="enable-background:new 0 0 24 24;" xml:space="preserve">
<g>
	<path d="M22.7,0.3H1.3c-0.6,0-1,0.4-1,1v21.5c0,0.6,0.4,1,1,1h21.5c0.6,0,1-0.4,1-1V1.3C23.7,0.7,23.3,0.3,22.7,0.3z M21.7,21.7
		H2.3V2.3h19.5V21.7z"/>
	<path d="M3.9,17v2.6c0,0.3,0.2,0.5,0.5,0.5h15.1c0.3,0,0.5-0.2,0.5-0.5V4.4c0-0.3-0.2-0.5-0.5-0.5H4.4c-0.3,0-0.5,0.2-0.5,0.5V7
		C3.6,7.2,3.4,7.5,3.4,7.9v1.2c0,0.4,0.2,0.7,0.5,0.8v4.1c-0.3,0.2-0.5,0.5-0.5,0.8v1.2C3.4,16.5,3.6,16.8,3.9,17z M19.1,4.9v14.1
		H4.9V17c0.3-0.2,0.5-0.5,0.5-0.8v-1.2c0-0.4-0.2-0.7-0.5-0.8V9.9c0.3-0.2,0.5-0.5,0.5-0.8V7.9c0-0.4-0.2-0.7-0.5-0.8V4.9H19.1z"/>
	<path d="M8.3,12.5H9c0.1,0.5,0.3,0.9,0.5,1.2l-0.5,0.5c-0.2,0.2-0.2,0.5,0,0.7c0.1,0.1,0.2,0.1,0.4,0.1c0.1,0,0.3,0,0.4-0.1
		l0.5-0.5c0.4,0.3,0.8,0.4,1.2,0.5l0,0.7c0,0.3,0.2,0.5,0.5,0.5h0c0.3,0,0.5-0.2,0.5-0.5l0-0.7c0.5-0.1,0.9-0.3,1.2-0.5l0.5,0.5
		c0.1,0.1,0.2,0.1,0.4,0.1c0.1,0,0.3,0,0.4-0.1c0.2-0.2,0.2-0.5,0-0.7l-0.5-0.5c0.3-0.4,0.4-0.8,0.5-1.2h0.7c0.3,0,0.5-0.2,0.5-0.5
		c0-0.3-0.2-0.5-0.5-0.5H15c-0.1-0.5-0.3-0.9-0.5-1.2l0.5-0.5c0.2-0.2,0.2-0.5,0-0.7c-0.2-0.2-0.5-0.2-0.7,0l-0.5,0.5
		C13.4,9.3,13,9.1,12.5,9V8.3c0-0.3-0.2-0.5-0.5-0.5c-0.3,0-0.5,0.2-0.5,0.5V9c-0.5,0.1-0.9,0.3-1.2,0.5L9.8,9.1
		c-0.2-0.2-0.5-0.2-0.7,0s-0.2,0.5,0,0.7l0.5,0.5C9.3,10.6,9.1,11,9,11.5H8.3c-0.3,0-0.5,0.2-0.5,0.5C7.8,12.3,8.1,12.5,8.3,12.5z
		 M12,10c1.1,0,2,0.9,2,2c0,0.5-0.2,1-0.6,1.4c0,0,0,0,0,0c0,0,0,0,0,0C13,13.8,12.6,14,12,14c0,0,0,0,0,0h0c0,0,0,0,0,0
		c-0.5,0-1-0.2-1.4-0.6c0,0,0,0,0,0c0,0,0,0,0,0C10.2,13,10,12.6,10,12c0,0,0,0,0,0s0,0,0,0C10,10.9,10.9,10,12,10z"/>
</g>
</svg>
