<?xml version="1.0" encoding="utf-8"?>
<!-- Generator: Adobe Illustrator 25.0.0, SVG Export Plug-In . SVG Version: 6.00 Build 0)  -->
<svg version="1.1" id="Calque_1" xmlns="http://www.w3.org/2000/svg" xmlns:xlink="http://www.w3.org/1999/xlink" x="0px" y="0px"
	 viewBox="0 0 24 24" style="enable-background:new 0 0 24 24;" xml:space="preserve">
<path d="M13.9,12l8.4-8.4c0.4-0.4,0.4-1,0-1.4c0,0-0.1-0.1-0.1-0.1c0,0,0-0.1-0.1-0.1c-1.4-1.4-3.7-1.4-5.1,0l-3.4,3.4
	C12.9,6.1,12.5,7,12.5,8c0,0.7,0.2,1.4,0.6,2l-0.6,0.6l-2.4-2.4c0.4-0.6,0.6-1.3,0.6-2.1c0-1.1-0.4-2.1-1.2-2.9L8.3,2.1
	C7.6,1.4,6.6,1,5.5,1C4.4,1,3.4,1.4,2.6,2.1C1,3.7,1,6.3,2.6,7.9L3.7,9c0.8,0.8,1.8,1.2,2.9,1.2c0.7,0,1.4-0.2,2.1-0.6l2.4,2.4
	l-2.4,2.4c-0.6-0.4-1.3-0.6-2.1-0.6c-1.1,0-2.1,0.4-2.9,1.2l-1.1,1.1c-0.8,0.8-1.2,1.8-1.2,2.9c0,1.1,0.4,2.1,1.2,2.9
	C3.4,22.6,4.4,23,5.5,23c0,0,0,0,0,0c1.1,0,2.1-0.4,2.9-1.2l1.1-1.1c0.8-0.8,1.2-1.8,1.2-2.9c0-0.7-0.2-1.4-0.6-2.1l2.4-2.4l0.6,0.6
	c-0.4,0.6-0.6,1.3-0.6,2c0,1,0.4,1.9,1.1,2.5L17,22c0.7,0.7,1.6,1.1,2.5,1.1h0c1,0,1.9-0.4,2.5-1c0,0,0.1-0.1,0.1-0.1
	c0,0,0.1,0,0.1-0.1c0.4-0.4,0.4-1,0-1.4L13.9,12z M15,6.8l3.4-3.4C18.8,3,19.5,2.9,20,3l-5.4,5.4C14.4,7.9,14.5,7.3,15,6.8z
	 M5.2,7.6L4,6.4C3.2,5.6,3.2,4.3,4,3.6C4.4,3.2,4.9,3,5.5,3C6,3,6.5,3.2,6.9,3.6L8,4.7c0.4,0.4,0.6,0.9,0.6,1.4
	c0,0.5-0.2,1.1-0.6,1.4C7.3,8.3,5.9,8.3,5.2,7.6z M8,19.3l-1.1,1.1C6.5,20.8,6,21,5.5,21h0c-0.5,0-1.1-0.2-1.4-0.6
	c-0.4-0.4-0.6-0.9-0.6-1.4c0-0.5,0.2-1.1,0.6-1.4l1.1-1.1c0.4-0.4,0.9-0.6,1.4-0.6s1.1,0.2,1.4,0.6c0.4,0.4,0.6,0.9,0.6,1.4
	C8.6,18.4,8.4,18.9,8,19.3z M19.5,21c-0.4,0-0.8-0.2-1.1-0.5L15,17.2c-0.3-0.3-0.5-0.7-0.5-1.1c0-0.2,0-0.3,0.1-0.5L20,21
	C19.9,21,19.7,21,19.5,21L19.5,21z"/>
</svg>
