<?xml version="1.0" encoding="utf-8"?>
<!-- Generator: Adobe Illustrator 25.0.0, SVG Export Plug-In . SVG Version: 6.00 Build 0)  -->
<svg version="1.1" id="Calque_1" xmlns="http://www.w3.org/2000/svg" xmlns:xlink="http://www.w3.org/1999/xlink" x="0px" y="0px"
	 viewBox="0 0 24 24" style="enable-background:new 0 0 24 24;" xml:space="preserve">
<path d="M24,11.6c0-0.1,0-0.1,0-0.2c0-2-1.6-3.5-3.5-3.5h-4.8c-1.3,0-2.4,0.7-3,1.7L10.3,7c-0.2-2.2-2-3.9-4.3-3.9H4.3
	C1.9,3.1,0,5,0,7.4c0,2.4,1.9,4.3,4.3,4.3h1.7c1.7,0,3.1-1,3.8-2.3l2.2,2.4l-2.3,2.5c-0.8-1.3-2.1-2.2-3.7-2.2H4.3
	c-2.4,0-4.3,1.9-4.3,4.3c0,2.4,1.9,4.3,4.3,4.3h1.7c2.3,0,4.3-1.9,4.3-4.2l2.3-2.5c0.6,1,1.7,1.7,3,1.7h4.8c2,0,3.5-1.6,3.5-3.5
	c0-0.1,0-0.1,0-0.2c0-0.1,0-0.1,0-0.2c0,0,0-0.1,0-0.1c0,0,0-0.1,0-0.1C24,11.7,24,11.6,24,11.6z M15.7,9.9h4.8
	c0.6,0,1.2,0.4,1.4,0.9h-7.6C14.5,10.2,15,9.9,15.7,9.9z M6.1,9.8H4.3C3,9.8,2,8.7,2,7.4C2,6.1,3,5.1,4.3,5.1h1.7
	c1.3,0,2.4,1.1,2.4,2.4C8.4,8.7,7.4,9.8,6.1,9.8z M6.1,18.9H4.3C3,18.9,2,17.9,2,16.6c0-1.3,1.1-2.4,2.4-2.4h1.7
	c1.3,0,2.4,1.1,2.4,2.4C8.4,17.9,7.4,18.9,6.1,18.9z M20.5,13.9h-4.8c-0.6,0-1.2-0.4-1.4-0.9h7.6C21.6,13.5,21.1,13.9,20.5,13.9z"/>
</svg>
