<?xml version="1.0" encoding="utf-8"?>
<!-- Generator: Adobe Illustrator 25.0.0, SVG Export Plug-In . SVG Version: 6.00 Build 0)  -->
<svg version="1.1" id="Calque_1" xmlns="http://www.w3.org/2000/svg" xmlns:xlink="http://www.w3.org/1999/xlink" x="0px" y="0px"
	 viewBox="0 0 24 24" style="enable-background:new 0 0 24 24;" xml:space="preserve">
<path d="M23,11h-1.8c-0.2-1.8-0.9-3.4-2-4.8l1.3-1.3c0.4-0.4,0.4-1,0-1.4c-0.4-0.4-1-0.4-1.4,0l-1.3,1.3c-1.3-1.1-3-1.8-4.8-2V1
	c0-0.6-0.4-1-1-1c-0.6,0-1,0.4-1,1v1.8C9.2,3,7.6,3.7,6.2,4.8L4.9,3.5c-0.4-0.4-1-0.4-1.4,0c-0.4,0.4-0.4,1,0,1.4l1.3,1.3
	c-1.1,1.3-1.8,3-2,4.8H1c-0.6,0-1,0.4-1,1c0,0.6,0.4,1,1,1h1.8c0.2,1.8,0.9,3.4,2,4.8l-1.3,1.3c-0.4,0.4-0.4,1,0,1.4
	c0.2,0.2,0.5,0.3,0.7,0.3c0.3,0,0.5-0.1,0.7-0.3l1.3-1.3c1.3,1.1,3,1.8,4.8,2V23c0,0.6,0.4,1,1,1c0.6,0,1-0.4,1-1v-1.8
	c1.8-0.2,3.4-0.9,4.8-2l1.3,1.3c0.2,0.2,0.5,0.3,0.7,0.3c0.3,0,0.5-0.1,0.7-0.3c0.4-0.4,0.4-1,0-1.4l-1.3-1.3c1.1-1.3,1.8-3,2-4.8
	H23c0.6,0,1-0.4,1-1C24,11.4,23.6,11,23,11z M19.2,11h-4.7l3.3-3.3C18.5,8.6,19,9.8,19.2,11z M16.3,6.2L13,9.6V4.8
	C14.2,5,15.4,5.5,16.3,6.2z M11,4.8v4.7L7.7,6.2C8.6,5.5,9.8,5,11,4.8z M6.2,7.7L9.6,11H4.8C5,9.8,5.5,8.6,6.2,7.7z M4.9,13h4.7
	l-3.3,3.3C5.5,15.4,5,14.2,4.9,13z M7.7,17.8l3.3-3.3v4.7C9.8,19,8.6,18.5,7.7,17.8z M13,19.2v-4.7l3.3,3.3
	C15.4,18.5,14.2,19,13,19.2z M17.8,16.3L14.4,13h4.7C19,14.2,18.5,15.4,17.8,16.3z"/>
</svg>
