<?xml version="1.0" encoding="utf-8"?>
<!-- Generator: Adobe Illustrator 25.0.0, SVG Export Plug-In . SVG Version: 6.00 Build 0)  -->
<svg version="1.1" id="Calque_1" xmlns="http://www.w3.org/2000/svg" xmlns:xlink="http://www.w3.org/1999/xlink" x="0px" y="0px"
	 viewBox="0 0 24 24" style="enable-background:new 0 0 24 24;" xml:space="preserve">
<g>
	<path d="M10.8,13.7c-0.1-0.1-0.1-0.2-0.2-0.3c0,0,0,0,0,0c0,0,0,0,0,0c-0.1-0.1-0.2-0.2-0.3-0.2c-0.1,0-0.2-0.1-0.4-0.1
		c0,0,0,0,0,0H2.8c-0.6,0-1,0.4-1,1s0.4,1,1,1h4.7l-7.1,7.2c-0.4,0.4-0.4,1,0,1.4C0.5,23.9,0.8,24,1,24c0.3,0,0.5-0.1,0.7-0.3
		l7.1-7.1v4.7c0,0.6,0.4,1,1,1c0.6,0,1-0.4,1-1v-7.1c0,0,0,0,0,0C10.9,14,10.9,13.9,10.8,13.7z"/>
	<path d="M16.5,15.1h4.7c0.6,0,1-0.4,1-1s-0.4-1-1-1h-7.1c0,0,0,0,0,0c-0.1,0-0.3,0-0.4,0.1c-0.1,0-0.2,0.1-0.3,0.2c0,0,0,0,0,0
		c0,0,0,0,0,0c-0.1,0.1-0.2,0.2-0.2,0.3c-0.1,0.1-0.1,0.3-0.1,0.4c0,0,0,0,0,0v7.1c0,0.6,0.4,1,1,1c0.6,0,1-0.4,1-1v-4.7l7.1,7.1
		c0.2,0.2,0.5,0.3,0.7,0.3c0.3,0,0.5-0.1,0.7-0.3c0.4-0.4,0.4-1,0-1.4L16.5,15.1z"/>
	<path d="M13.2,10.3c0,0.1,0.1,0.2,0.2,0.3c0,0,0,0,0,0c0,0,0,0,0,0c0.1,0.1,0.2,0.2,0.3,0.2c0.1,0.1,0.3,0.1,0.4,0.1h7.1
		c0.6,0,1-0.4,1-1c0-0.6-0.4-1-1-1h-4.7l7.1-7.2c0.4-0.4,0.4-1,0-1.4c-0.4-0.4-1-0.4-1.4,0l-7.1,7.1V2.8c0-0.6-0.4-1-1-1
		c-0.6,0-1,0.4-1,1v7.1c0,0,0,0,0,0C13.1,10,13.1,10.1,13.2,10.3z"/>
	<path d="M10.9,9.9V2.8c0-0.6-0.4-1-1-1c-0.6,0-1,0.4-1,1v4.7L1.7,0.3c-0.4-0.4-1-0.4-1.4,0c-0.4,0.4-0.4,1,0,1.4l7.1,7.2H2.8
		c-0.6,0-1,0.4-1,1c0,0.6,0.4,1,1,1h7.1c0.1,0,0.3,0,0.4-0.1c0.1,0,0.2-0.1,0.3-0.2c0,0,0,0,0,0c0,0,0,0,0,0
		c0.1-0.1,0.2-0.2,0.2-0.3C10.9,10.1,10.9,10,10.9,9.9C10.9,9.9,10.9,9.9,10.9,9.9z"/>
</g>
</svg>
