<?xml version="1.0" encoding="utf-8"?>
<!-- Generator: Adobe Illustrator 25.0.0, SVG Export Plug-In . SVG Version: 6.00 Build 0)  -->
<svg version="1.1" id="Calque_1" xmlns="http://www.w3.org/2000/svg" xmlns:xlink="http://www.w3.org/1999/xlink" x="0px" y="0px"
	 viewBox="0 0 24 24" style="enable-background:new 0 0 24 24;" xml:space="preserve">
<g>
	<path d="M18.3,6.1c-0.3,0-0.6,0-0.9,0.1c-1-2.4-3.3-4-6-4C8.2,2.1,5.6,4.4,5,7.4c-2.7,0-5,2.3-5,5c0,2.2,1.5,4.2,3.5,4.8
		c0.4,0.1,0.9,0.2,1.4,0.2h13.6c0.5,0,1-0.1,1.5-0.3c2.4-0.7,4-2.9,4-5.4C23.9,8.6,21.4,6.1,18.3,6.1z M19.4,15.3
		c-0.3,0.1-0.6,0.2-0.8,0.2H4.9c-0.3,0-0.5,0-0.8-0.1C2.9,15,2,13.8,2,12.4C2,10.7,3.4,9.4,5,9.4c0.2,0,0.4,0,0.6,0.1l1.1,0.2l0-1.2
		c0-2.4,2.1-4.4,4.5-4.4c2.1,0,3.9,1.4,4.4,3.5L16,8.6l1-0.4C17.4,8.1,17.9,8,18.3,8c2.1,0,3.7,1.7,3.7,3.7
		C22,13.4,21,14.8,19.4,15.3z"/>
	<path d="M7,20H6.5v-0.4c0-0.3-0.2-0.5-0.5-0.5c-0.3,0-0.5,0.2-0.5,0.5V20H5.2c-0.3,0-0.5,0.2-0.5,0.5c0,0.3,0.2,0.5,0.5,0.5h0.4
		v0.4c0,0.3,0.2,0.5,0.5,0.5c0.3,0,0.5-0.2,0.5-0.5V21H7c0.3,0,0.5-0.2,0.5-0.5C7.4,20.2,7.2,20,7,20z"/>
	<path d="M12.3,20h-0.4v-0.4c0-0.3-0.2-0.5-0.5-0.5c-0.3,0-0.5,0.2-0.5,0.5V20h-0.4c-0.3,0-0.5,0.2-0.5,0.5c0,0.3,0.2,0.5,0.5,0.5
		h0.4v0.4c0,0.3,0.2,0.5,0.5,0.5c0.3,0,0.5-0.2,0.5-0.5V21h0.4c0.3,0,0.5-0.2,0.5-0.5C12.7,20.2,12.5,20,12.3,20z"/>
	<path d="M17.6,20h-0.4v-0.4c0-0.3-0.2-0.5-0.5-0.5c-0.3,0-0.5,0.2-0.5,0.5V20h-0.4c-0.3,0-0.5,0.2-0.5,0.5c0,0.3,0.2,0.5,0.5,0.5
		h0.4v0.4c0,0.3,0.2,0.5,0.5,0.5c0.3,0,0.5-0.2,0.5-0.5V21h0.4c0.3,0,0.5-0.2,0.5-0.5C18.1,20.2,17.8,20,17.6,20z"/>
</g>
</svg>
