<?xml version="1.0" encoding="utf-8"?>
<!-- Generator: Adobe Illustrator 25.0.0, SVG Export Plug-In . SVG Version: 6.00 Build 0)  -->
<svg version="1.1" id="Calque_1" xmlns="http://www.w3.org/2000/svg" xmlns:xlink="http://www.w3.org/1999/xlink" x="0px" y="0px"
	 viewBox="0 0 24 24" style="enable-background:new 0 0 24 24;" xml:space="preserve">
<path d="M23.5,13.8c-0.1-0.5-0.6-0.9-1.2-0.8l-4.7,1L14,12l3.6-2.1l4.7,1c0.1,0,0.1,0,0.2,0c0.5,0,0.9-0.3,1-0.8
	c0.1-0.5-0.2-1.1-0.8-1.2l-2.5-0.6l1.6-0.9c0.5-0.3,0.6-0.9,0.4-1.4c-0.3-0.5-0.9-0.6-1.4-0.4l-1.6,0.9L20,4.2
	c0.2-0.5-0.1-1.1-0.7-1.3c-0.5-0.2-1.1,0.1-1.3,0.7l-1.4,4.6L13,10.3V6.1l3.2-3.5c0.4-0.4,0.3-1-0.1-1.4c-0.4-0.4-1-0.3-1.4,0.1
	L13,3.1V1.3c0-0.6-0.4-1-1-1c-0.6,0-1,0.4-1,1v1.9L9.3,1.2c-0.4-0.4-1-0.4-1.4-0.1c-0.4,0.4-0.4,1-0.1,1.4L11,6.1v4.2L7.4,8.2
	L5.9,3.6C5.8,3.1,5.2,2.8,4.7,3C4.2,3.1,3.9,3.7,4,4.2l0.8,2.5L3.2,5.8C2.7,5.5,2.1,5.7,1.8,6.1C1.6,6.6,1.7,7.2,2.2,7.5l1.6,0.9
	L1.3,9c-0.5,0.1-0.9,0.7-0.8,1.2C0.6,10.6,1,11,1.5,11c0.1,0,0.1,0,0.2,0l4.7-1L10,12l-3.6,2.1l-4.7-1c-0.5-0.1-1.1,0.2-1.2,0.8
	c-0.1,0.5,0.2,1.1,0.8,1.2l2.5,0.6l-1.6,0.9c-0.5,0.3-0.6,0.9-0.4,1.4c0.2,0.3,0.5,0.5,0.9,0.5c0.2,0,0.3,0,0.5-0.1l1.6-0.9L4,19.8
	c-0.2,0.5,0.1,1.1,0.7,1.3c0.1,0,0.2,0,0.3,0c0.4,0,0.8-0.3,1-0.7l1.4-4.6l3.6-2.1v4.2l-3.2,3.5c-0.4,0.4-0.3,1,0.1,1.4
	C8,23,8.3,23.1,8.5,23.1c0.3,0,0.5-0.1,0.7-0.3l1.8-1.9v1.9c0,0.6,0.4,1,1,1c0.6,0,1-0.4,1-1v-1.9l1.8,1.9c0.2,0.2,0.5,0.3,0.7,0.3
	c0.2,0,0.5-0.1,0.7-0.3c0.4-0.4,0.4-1,0.1-1.4L13,17.9v-4.2l3.6,2.1l1.4,4.6c0.1,0.4,0.5,0.7,1,0.7c0.1,0,0.2,0,0.3,0
	c0.5-0.2,0.8-0.7,0.7-1.3l-0.8-2.5l1.6,0.9c0.2,0.1,0.3,0.1,0.5,0.1c0.3,0,0.7-0.2,0.9-0.5c0.3-0.5,0.1-1.1-0.4-1.4l-1.6-0.9
	l2.5-0.6C23.3,14.9,23.6,14.4,23.5,13.8z"/>
</svg>
