<?xml version="1.0" encoding="utf-8"?>
<!-- Generator: Adobe Illustrator 25.0.0, SVG Export Plug-In . SVG Version: 6.00 Build 0)  -->
<svg version="1.1" id="Calque_1" xmlns="http://www.w3.org/2000/svg" xmlns:xlink="http://www.w3.org/1999/xlink" x="0px" y="0px"
	 viewBox="0 0 24 24" style="enable-background:new 0 0 24 24;" xml:space="preserve">
<g>
	<g>
		<path d="M18.4,23.8c-0.3,0-0.5-0.1-0.7-0.3c-0.4-0.4-0.4-1,0-1.4c5.6-5.6,5.6-14.6,0-20.2c-0.4-0.4-0.4-1,0-1.4
			c0.4-0.4,1-0.4,1.4,0c6.3,6.3,6.3,16.7,0,23C18.9,23.7,18.6,23.8,18.4,23.8L18.4,23.8z"/>
	</g>
	<g>
		<path d="M15.7,21.1c-0.3,0-0.5-0.1-0.7-0.3c-0.4-0.4-0.4-1,0-1.4c4.1-4.1,4.1-10.8,0-14.9c-0.4-0.4-0.4-1,0-1.4
			c0.4-0.4,1-0.4,1.4,0c4.9,4.9,4.9,12.8,0,17.7C16.2,21,16,21.1,15.7,21.1L15.7,21.1z"/>
	</g>
	<g>
		<path d="M12.8,18.2c-0.3,0-0.5-0.1-0.7-0.3c-0.4-0.4-0.4-1,0-1.4c1.2-1.2,1.9-2.8,1.9-4.5s-0.7-3.3-1.9-4.5c-0.4-0.4-0.4-1,0-1.4
			c0.4-0.4,1-0.4,1.4,0C15.1,7.6,16,9.8,16,12s-0.9,4.4-2.5,5.9C13.3,18.1,13.1,18.2,12.8,18.2L12.8,18.2z"/>
	</g>
	<g>
		<g>
			<path d="M9.2,21.3c-0.2,0-0.4-0.1-0.6-0.2L4,17.4H1.1c-0.6,0-1-0.4-1-1V7.6c0-0.6,0.4-1,1-1H4l4.6-3.7c0.3-0.2,0.7-0.3,1.1-0.1
				c0.3,0.2,0.6,0.5,0.6,0.9v16.6c0,0.4-0.2,0.7-0.6,0.9C9.5,21.3,9.3,21.3,9.2,21.3L9.2,21.3z M2.1,15.4h2.2c0.2,0,0.4,0.1,0.6,0.2
				l3.2,2.6V5.8L4.9,8.4C4.8,8.5,4.5,8.6,4.3,8.6H2.1V15.4L2.1,15.4z"/>
		</g>
	</g>
</g>
</svg>
