<?xml version="1.0" encoding="utf-8"?>
<!-- Generator: Adobe Illustrator 25.0.0, SVG Export Plug-In . SVG Version: 6.00 Build 0)  -->
<svg version="1.1" id="Calque_1" xmlns="http://www.w3.org/2000/svg" xmlns:xlink="http://www.w3.org/1999/xlink" x="0px" y="0px"
	 viewBox="0 0 24 24" style="enable-background:new 0 0 24 24;" xml:space="preserve">
<g>
	<path d="M10.4,2.8C10,2.6,9.6,2.7,9.3,2.9L4.7,6.6H1.9c-0.6,0-1,0.4-1,1v8.8c0,0.6,0.4,1,1,1h2.8l4.6,3.7c0.2,0.1,0.4,0.2,0.6,0.2
		c0.1,0,0.3,0,0.4-0.1c0.3-0.2,0.6-0.5,0.6-0.9V3.7C10.9,3.3,10.7,3,10.4,2.8z M8.9,18.2l-3.2-2.6c-0.2-0.1-0.4-0.2-0.6-0.2H2.9V8.6
		h2.2c0.2,0,0.4-0.1,0.6-0.2l3.2-2.6V18.2z"/>
	<path d="M22.8,15.5L19.2,12l3.5-3.6c0.4-0.4,0.4-1,0-1.4c-0.4-0.4-1-0.4-1.4,0l-3.5,3.6L14.3,7c-0.4-0.4-1-0.4-1.4,0
		c-0.4,0.4-0.4,1,0,1.4l3.5,3.5l-3.5,3.6c-0.4,0.4-0.4,1,0,1.4c0.2,0.2,0.4,0.3,0.7,0.3c0.3,0,0.5-0.1,0.7-0.3l3.5-3.6l3.5,3.5
		c0.2,0.2,0.5,0.3,0.7,0.3s0.5-0.1,0.7-0.3C23.2,16.6,23.2,15.9,22.8,15.5z"/>
</g>
</svg>
