<?xml version="1.0" encoding="utf-8"?>
<!-- Generator: Adobe Illustrator 25.0.0, SVG Export Plug-In . SVG Version: 6.00 Build 0)  -->
<svg version="1.1" id="Calque_1" xmlns="http://www.w3.org/2000/svg" xmlns:xlink="http://www.w3.org/1999/xlink" x="0px" y="0px"
	 viewBox="0 0 24 24" style="enable-background:new 0 0 24 24;" xml:space="preserve">
<g>
	<g>
		<path d="M16.8,18.2c-0.3,0-0.5-0.1-0.7-0.3c-0.4-0.4-0.4-1,0-1.4c1.2-1.2,1.9-2.8,1.9-4.5S17.3,8.7,16,7.5c-0.4-0.4-0.4-1,0-1.4
			c0.4-0.4,1-0.4,1.4,0c1.6,1.6,2.5,3.7,2.5,5.9s-0.9,4.4-2.5,5.9C17.3,18.1,17,18.2,16.8,18.2L16.8,18.2z"/>
	</g>
	<g>
		<g>
			<path d="M13.1,21.3c-0.2,0-0.4-0.1-0.6-0.2l-4.6-3.7H5.1c-0.6,0-1-0.4-1-1V7.6c0-0.6,0.4-1,1-1h2.8l4.6-3.7
				c0.3-0.2,0.7-0.3,1.1-0.1c0.3,0.2,0.6,0.5,0.6,0.9v16.6c0,0.4-0.2,0.7-0.6,0.9C13.4,21.3,13.3,21.3,13.1,21.3L13.1,21.3z
				 M6.1,15.4h2.2c0.2,0,0.4,0.1,0.6,0.2l3.2,2.6V5.8L8.9,8.4C8.7,8.5,8.5,8.6,8.2,8.6H6.1V15.4L6.1,15.4z"/>
		</g>
	</g>
</g>
</svg>
