<?xml version="1.0" encoding="utf-8"?>
<!-- Generator: Adobe Illustrator 25.0.0, SVG Export Plug-In . SVG Version: 6.00 Build 0)  -->
<svg version="1.1" id="Calque_1" xmlns="http://www.w3.org/2000/svg" xmlns:xlink="http://www.w3.org/1999/xlink" x="0px" y="0px"
	 viewBox="0 0 24 24" style="enable-background:new 0 0 24 24;" xml:space="preserve">
<path d="M21.5,18.3c1.3-1.4,2.1-3.3,2.1-5.3c0-0.8-0.1-1.5-0.3-2.1c-0.4-1.8-2.6-4.3-7-7.6c-1.1-0.9-2.8-2.1-3.6-2.6l-0.3-0.2
	c0,0-0.1-0.1-0.1-0.1c-0.3-0.2-0.7-0.2-1,0C10.3,1.1,9,2,7.4,3.4c-4.2,3.4-6.4,6-6.7,7.7c-0.2,0.7-0.3,1.4-0.3,2.2
	c0,3.9,3,7.1,6.7,7.1l0.1,0c1,0,2-0.3,2.8-0.7c-0.7,1-1.7,1.7-2.8,2.1c-0.5,0.2-0.7,0.6-0.6,1.1c0.1,0.5,0.5,0.8,1,0.8h9
	c0.5,0,0.9-0.3,1-0.8c0.1-0.5-0.2-0.9-0.6-1.1c-1.2-0.4-2.3-1.3-3-2.3c0.9,0.5,2,0.8,3.1,0.8C18.7,20.2,20.3,19.6,21.5,18.3z
	 M10.8,21.8c0.4-0.4,0.8-0.9,1.2-1.5c0.3,0.5,0.7,1,1.2,1.5H10.8z M12.9,16c-0.2-0.3-0.5-0.5-0.8-0.5c0,0,0,0,0,0
	c-0.3,0-0.7,0.2-0.8,0.5c-0.8,1.5-2.3,2.4-4,2.4l-0.1,0c-2.6,0-4.7-2.3-4.7-5.1c0-0.6,0.1-1.1,0.2-1.7c0.2-0.8,1.1-2.7,6.1-6.7
	c1.3-1,2.3-1.8,3.1-2.4C12.6,3,14.1,4,15.1,4.8c5,3.9,6.1,5.8,6.3,6.6c0.2,0.5,0.3,1,0.3,1.6c0,1.5-0.5,2.9-1.5,3.9
	c-0.9,0.9-2,1.4-3.2,1.4C15.3,18.3,13.8,17.4,12.9,16z"/>
</svg>
