<?xml version="1.0" encoding="utf-8"?>
<!-- Generator: Adobe Illustrator 25.0.0, SVG Export Plug-In . SVG Version: 6.00 Build 0)  -->
<svg version="1.1" id="Calque_1" xmlns="http://www.w3.org/2000/svg" xmlns:xlink="http://www.w3.org/1999/xlink" x="0px" y="0px"
	 viewBox="0 0 24 24" style="enable-background:new 0 0 24 24;" xml:space="preserve">
<g>
	<path d="M17.9,0.6H6.1c-1.3,0-2.4,1.1-2.4,2.4v18.2c0,1.3,1.1,2.4,2.4,2.4h11.9c1.3,0,2.4-1.1,2.4-2.4V2.9
		C20.3,1.6,19.2,0.6,17.9,0.6z M18.3,21.1c0,0.2-0.2,0.4-0.4,0.4H6.1c-0.2,0-0.4-0.2-0.4-0.4V2.9c0-0.2,0.2-0.4,0.4-0.4h11.9
		c0.2,0,0.4,0.2,0.4,0.4V21.1z"/>
	<path d="M12,9.7c-2.9,0-5.3,2.4-5.3,5.3c0,2.9,2.4,5.3,5.3,5.3s5.3-2.4,5.3-5.3C17.3,12.1,14.9,9.7,12,9.7z M12,18.3
		c-1.8,0-3.3-1.5-3.3-3.3s1.5-3.3,3.3-3.3s3.3,1.5,3.3,3.3S13.8,18.3,12,18.3z"/>
	<path d="M12,13.7c-0.7,0-1.3,0.6-1.3,1.3c0,0.7,0.6,1.3,1.3,1.3c0.7,0,1.3-0.6,1.3-1.3C13.3,14.3,12.7,13.7,12,13.7z"/>
	<path d="M12,8.8c1.4,0,2.6-1.2,2.6-2.6c0-1.4-1.2-2.6-2.6-2.6c-1.4,0-2.6,1.2-2.6,2.6C9.4,7.6,10.6,8.8,12,8.8z M12,5.6
		c0.3,0,0.6,0.3,0.6,0.6c0,0.3-0.3,0.6-0.6,0.6c-0.3,0-0.6-0.3-0.6-0.6C11.4,5.9,11.7,5.6,12,5.6z"/>
</g>
</svg>
