<?xml version="1.0" encoding="utf-8"?>
<!-- Generator: Adobe Illustrator 25.0.0, SVG Export Plug-In . SVG Version: 6.00 Build 0)  -->
<svg version="1.1" id="Calque_1" xmlns="http://www.w3.org/2000/svg" xmlns:xlink="http://www.w3.org/1999/xlink" x="0px" y="0px"
	 viewBox="0 0 24 24" style="enable-background:new 0 0 24 24;" xml:space="preserve">
<path d="M22.2,13.1c-3.1-4.7-7-8.6-11.6-11.6c-0.2-0.2-0.5-0.2-0.8-0.1C9.5,1.4,9.3,1.6,9.2,1.9L4.8,11c-0.2,0.3-0.1,0.7,0.1,1
	L3,13.8c-0.9,0.9-1.4,2.1-1.4,3.4s0.5,2.5,1.4,3.4c0.9,0.9,2.1,1.4,3.4,1.4c0.9,0,1.8-0.3,2.5-0.7c0.9,0.8,2,1.3,3,1.3
	c0.8,0,1.5-0.3,2.1-0.8c0.4-0.4,0.4-1,0-1.4c-0.4-0.4-1-0.4-1.4,0c-0.4,0.4-1.3,0.3-2.1-0.4l1.3-1.3c0.2,0.1,0.4,0.2,0.5,0.2
	c0.1,0,0.3,0,0.4-0.1l9.1-4.4c0.3-0.1,0.5-0.4,0.5-0.6C22.5,13.6,22.4,13.3,22.2,13.1z M4.4,19.3c-0.5-0.5-0.8-1.3-0.8-2
	c0-0.8,0.3-1.5,0.8-2l2-2c1.5,1.2,2.9,2.5,4.1,4.1l-2,2C7.4,20.4,5.5,20.4,4.4,19.3z M12.7,16.7c-1.6-2.2-3.5-4.1-5.7-5.7l3.5-7.3
	c3.7,2.6,6.9,5.8,9.4,9.4L12.7,16.7z"/>
</svg>
