<?xml version="1.0" encoding="utf-8"?>
<!-- Generator: Adobe Illustrator 25.0.0, SVG Export Plug-In . SVG Version: 6.00 Build 0)  -->
<svg version="1.1" id="Calque_1" xmlns="http://www.w3.org/2000/svg" xmlns:xlink="http://www.w3.org/1999/xlink" x="0px" y="0px"
	 viewBox="0 0 24 24" style="enable-background:new 0 0 24 24;" xml:space="preserve">
<g>
	<path d="M20.3,3.7c-2.2-2.2-5.2-3.4-8.3-3.4c-3.1,0-6.1,1.2-8.3,3.4C1.5,5.9,0.2,8.9,0.2,12c0,3.1,1.2,6.1,3.4,8.3
		c2.2,2.2,5.2,3.4,8.3,3.4c3.1,0,6.1-1.2,8.3-3.4C24.9,15.7,24.9,8.3,20.3,3.7z M18.9,18.9c-1.8,1.8-4.3,2.9-6.9,2.9
		c-2.6,0-5.1-1-6.9-2.9c-1.8-1.8-2.9-4.3-2.9-6.9s1-5.1,2.9-6.9C6.9,3.2,9.4,2.2,12,2.2c2.6,0,5.1,1,6.9,2.9
		C22.7,8.9,22.7,15.1,18.9,18.9z"/>
	<path d="M17.9,6.1c-3-3-7.8-3.2-11-0.6c-0.3-0.1-0.7,0-1,0.2c-3.4,3.4-3.4,9,0,12.4c0.2,0.2,0.5,0.3,0.7,0.3c0.3,0,0.5-0.1,0.7-0.3
		c0.4-0.4,0.4-1,0-1.4c-2.6-2.6-2.6-6.9,0-9.6C7.5,7,7.5,6.6,7.5,6.3c2.9-2.3,7-2.1,9.7,0.5c2.8,2.8,2.8,7.5,0,10.3
		c-0.2,0.2-0.2,0.5,0,0.7c0.2,0.2,0.5,0.2,0.7,0C21.1,14.6,21.1,9.4,17.9,6.1z"/>
	<path d="M12.4,16.9L9.2,9.8C9,9.3,8.4,9.1,7.9,9.3c-0.5,0.2-0.7,0.8-0.5,1.3l3.1,6.9c-0.3,0.3-0.5,0.8-0.5,1.3c0,1.1,0.9,2,2,2
		c1.1,0,2-0.9,2-2C14,17.9,13.3,17.1,12.4,16.9z"/>
</g>
</svg>
