<?xml version="1.0" encoding="utf-8"?>
<!-- Generator: Adobe Illustrator 24.3.0, SVG Export Plug-In . SVG Version: 6.00 Build 0)  -->
<svg version="1.1" id="Calque_1" xmlns="http://www.w3.org/2000/svg" xmlns:xlink="http://www.w3.org/1999/xlink" x="0px" y="0px"
	 viewBox="0 0 24 24" style="enable-background:new 0 0 24 24;" xml:space="preserve">
<g>
	<path d="M8.4,12.5l0.3-10c0-0.6-0.2-1.2-0.7-1.7C7.6,0.3,6.8,0,6,0h0C5.2,0,4.4,0.3,3.9,0.9c-0.4,0.5-0.7,1-0.6,1.6l0.3,10
		c-1.7,0.9-2.8,2.7-2.8,4.5c0,2.4,1.8,6.9,5.2,7c0,0,0,0,0,0c0,0,0,0,0,0c3.4-0.1,5.2-4.6,5.2-7C11.3,15.1,10.1,13.4,8.4,12.5z
		 M5.2,2.4c0-0.1,0.1-0.2,0.1-0.2C5.4,2.1,5.7,2,6,2h0c0.3,0,0.5,0.1,0.7,0.3c0,0.1,0.1,0.1,0.1,0.2l-0.3,9.4c-0.2,0-0.3,0-0.5,0
		c0,0-0.1,0-0.1,0c-0.2,0-0.3,0-0.5,0L5.2,2.4z M6,22c-1.9-0.1-3.3-3.3-3.3-5.1c0-1.6,1.5-3.1,3.3-3.2c1.8,0.1,3.3,1.6,3.3,3.3
		C9.3,18.7,7.9,21.9,6,22z"/>
	<path d="M20.3,12.8c0,0,0-0.1,0-0.1l0.3-10.1c0-0.6-0.2-1.2-0.7-1.7C19.5,0.3,18.7,0,17.9,0h0c-0.8,0-1.6,0.3-2.1,0.9
		c-0.4,0.5-0.7,1-0.7,1.7l0.3,10.1c0,0.1,0,0.1,0,0.1c-1.7,0.9-2.9,2.7-2.9,4.7V23c0,0.5,0.4,1,1,1c0.5,0,1-0.4,1-1v-5.5
		c0-1.8,1.5-3.3,3.3-3.3c1.8,0,3.3,1.5,3.3,3.3V23c0,0.5,0.4,1,1,1c0.5,0,1-0.4,1-1v-5.5C23.2,15.4,22,13.6,20.3,12.8z M17.4,12.2
		l-0.3-9.8c0-0.1,0.1-0.2,0.1-0.2C17.4,2.1,17.6,2,17.9,2h0c0.3,0,0.5,0.1,0.7,0.3c0.1,0.1,0.1,0.1,0.1,0.2l-0.3,9.8
		c-0.2,0-0.3,0-0.5,0C17.8,12.2,17.6,12.2,17.4,12.2z"/>
	<path d="M16.5,17.9c-0.5,0-1,0.4-1,1V23c0,0.5,0.4,1,1,1c0.5,0,1-0.4,1-1v-4.1C17.5,18.4,17,17.9,16.5,17.9z"/>
	<path d="M19.4,17.9c-0.5,0-1,0.4-1,1V23c0,0.5,0.4,1,1,1c0.5,0,1-0.4,1-1v-4.1C20.3,18.4,19.9,17.9,19.4,17.9z"/>
</g>
</svg>
