<?xml version="1.0" encoding="utf-8"?>
<!-- Generator: Adobe Illustrator 24.3.0, SVG Export Plug-In . SVG Version: 6.00 Build 0)  -->
<svg version="1.1" id="Calque_1" xmlns="http://www.w3.org/2000/svg" xmlns:xlink="http://www.w3.org/1999/xlink" x="0px" y="0px"
	 viewBox="0 0 24 24" style="enable-background:new 0 0 24 24;" xml:space="preserve">
<path d="M18.8,23.5c-0.2,0-0.4-0.1-0.6-0.2L12,18.7l-6.3,4.6c-0.3,0.2-0.8,0.2-1.1,0c-0.3-0.2-0.5-0.7-0.3-1.1l2.4-7.4l-6.3-4.6
	C0.1,10-0.1,9.6,0,9.2c0.1-0.4,0.5-0.7,0.9-0.7h7.8l2.4-7.4c0.1-0.4,0.5-0.7,0.9-0.7c0.4,0,0.8,0.3,0.9,0.7l2.4,7.4H23
	c0.4,0,0.8,0.3,0.9,0.7c0.1,0.4,0,0.8-0.3,1.1l-6.3,4.6l2.4,7.4c0.1,0.4,0,0.8-0.3,1.1C19.2,23.4,19,23.5,18.8,23.5L18.8,23.5z
	 M12,16.6c0.2,0,0.4,0.1,0.6,0.2L17,20l-1.7-5.2c-0.1-0.4,0-0.8,0.3-1.1l4.5-3.2h-5.5c-0.4,0-0.8-0.3-0.9-0.7L12,4.6l-1.7,5.2
	c-0.1,0.4-0.5,0.7-0.9,0.7H3.9l4.5,3.2c0.3,0.2,0.5,0.7,0.3,1.1L7,20l4.5-3.2C11.6,16.7,11.8,16.6,12,16.6L12,16.6z"/>
</svg>
