<?xml version="1.0" encoding="utf-8"?>
<!-- Generator: Adobe Illustrator 25.0.0, SVG Export Plug-In . SVG Version: 6.00 Build 0)  -->
<svg version="1.1" id="Calque_1" xmlns="http://www.w3.org/2000/svg" xmlns:xlink="http://www.w3.org/1999/xlink" x="0px" y="0px"
	 viewBox="0 0 24 24" style="enable-background:new 0 0 24 24;" xml:space="preserve">
<g>
	<path d="M6.8,8.5H2.2c-0.5,0-0.9,0.4-0.9,0.9v13.8c0,0.5,0.4,0.9,0.9,0.9h4.6c0.5,0,0.9-0.4,0.9-0.9V9.4C7.6,8.9,7.2,8.5,6.8,8.5z
		 M5.9,22.3H3.1v-12h2.9V22.3z"/>
	<path d="M14.3,14.4H9.7c-0.5,0-0.9,0.4-0.9,0.9v7.9c0,0.5,0.4,0.9,0.9,0.9h4.6c0.5,0,0.9-0.4,0.9-0.9v-7.9
		C15.1,14.8,14.8,14.4,14.3,14.4z M13.4,22.3h-2.9v-6.2h2.9V22.3z"/>
	<path d="M21.8,18.7h-4.6c-0.5,0-0.9,0.4-0.9,0.9v3.6c0,0.5,0.4,0.9,0.9,0.9h4.6c0.5,0,0.9-0.4,0.9-0.9v-3.6
		C22.7,19.1,22.3,18.7,21.8,18.7z M20.9,22.3h-2.9v-1.9h2.9V22.3z"/>
	<path d="M19.2,12.9l-1.9,1.9c-0.3,0.3-0.3,0.9,0,1.2c0.2,0.2,0.4,0.3,0.6,0.3c0.2,0,0.4-0.1,0.6-0.3l3.3-3.3c0.3-0.3,0.3-0.9,0-1.2
		l-3.3-3.3c-0.3-0.3-0.9-0.3-1.2,0C17,8.4,17,9,17.3,9.3l1.8,1.8C13.4,10.7,8.6,6.5,7.5,0.7C7.4,0.2,6.9-0.1,6.5,0
		C6,0.1,5.7,0.6,5.8,1C7.1,7.6,12.7,12.5,19.2,12.9z"/>
</g>
</svg>
