<?xml version="1.0" encoding="utf-8"?>
<!-- Generator: Adobe Illustrator 25.0.0, SVG Export Plug-In . SVG Version: 6.00 Build 0)  -->
<svg version="1.1" id="Calque_1" xmlns="http://www.w3.org/2000/svg" xmlns:xlink="http://www.w3.org/1999/xlink" x="0px" y="0px"
	 viewBox="0 0 24 24" style="enable-background:new 0 0 24 24;" xml:space="preserve">
<g>
	<path d="M23,0.6h-5.2c-0.5,0-1,0.4-1,1v20.8c0,0.5,0.4,1,1,1H23c0.5,0,1-0.4,1-1V1.6C24,1.1,23.6,0.6,23,0.6z M22.1,21.4h-3.2V2.6
		h3.2V21.4z"/>
	<path d="M14.6,12.6H9.4c-0.5,0-1,0.4-1,1v8.9c0,0.5,0.4,1,1,1h5.2c0.5,0,1-0.4,1-1v-8.9C15.5,13,15.1,12.6,14.6,12.6z M13.6,21.4
		h-3.2v-6.9h3.2V21.4z"/>
	<path d="M6.1,8.2H1c-0.5,0-1,0.4-1,1v13.2c0,0.5,0.4,1,1,1h5.2c0.5,0,1-0.4,1-1V9.2C7.1,8.6,6.7,8.2,6.1,8.2z M5.2,21.4H1.9V10.1
		h3.2V21.4z"/>
</g>
</svg>
