<?xml version="1.0" encoding="utf-8"?>
<!-- Generator: Adobe Illustrator 25.0.0, SVG Export Plug-In . SVG Version: 6.00 Build 0)  -->
<svg version="1.1" id="Calque_1" xmlns="http://www.w3.org/2000/svg" xmlns:xlink="http://www.w3.org/1999/xlink" x="0px" y="0px"
	 viewBox="0 0 24 24" style="enable-background:new 0 0 24 24;" xml:space="preserve">
<g>
	<path d="M21.8,8.5h-4.6c-0.5,0-0.9,0.4-0.9,0.9v13.8c0,0.5,0.4,0.9,0.9,0.9h4.6c0.5,0,0.9-0.4,0.9-0.9V9.4
		C22.7,8.9,22.3,8.5,21.8,8.5z M20.9,22.3h-2.9v-12h2.9V22.3z"/>
	<path d="M14.3,14.4H9.7c-0.5,0-0.9,0.4-0.9,0.9v7.9c0,0.5,0.4,0.9,0.9,0.9h4.6c0.5,0,0.9-0.4,0.9-0.9v-7.9
		C15.1,14.8,14.8,14.4,14.3,14.4z M13.4,22.3h-2.9v-6.2h2.9V22.3z"/>
	<path d="M6.8,18.7H2.2c-0.5,0-0.9,0.4-0.9,0.9v3.6c0,0.5,0.4,0.9,0.9,0.9h4.6c0.5,0,0.9-0.4,0.9-0.9v-3.6
		C7.6,19.1,7.2,18.7,6.8,18.7z M5.9,22.3H3.1v-1.9h2.9V22.3z"/>
	<path d="M19.9,4.8c0.3-0.3,0.3-0.9,0-1.2l-3.3-3.3c-0.3-0.3-0.9-0.3-1.2,0c-0.3,0.3-0.3,0.9,0,1.2l1.9,1.9
		C10.7,3.8,5.1,8.6,3.8,15.2c-0.1,0.5,0.2,0.9,0.7,1c0.1,0,0.1,0,0.2,0c0.4,0,0.8-0.3,0.8-0.7c1.1-5.8,5.9-10,11.7-10.4l-1.8,1.8
		c-0.3,0.3-0.3,0.9,0,1.2c0.2,0.2,0.4,0.3,0.6,0.3c0.2,0,0.4-0.1,0.6-0.3L19.9,4.8z"/>
</g>
</svg>
