<?xml version="1.0" encoding="utf-8"?>
<!-- Generator: Adobe Illustrator 25.0.0, SVG Export Plug-In . SVG Version: 6.00 Build 0)  -->
<svg version="1.1" id="Calque_1" xmlns="http://www.w3.org/2000/svg" xmlns:xlink="http://www.w3.org/1999/xlink" x="0px" y="0px"
	 viewBox="0 0 24 24" style="enable-background:new 0 0 24 24;" xml:space="preserve">
<g>
	<path d="M19.6,22.6H4.4c-1.7,0-3.1-1.4-3.1-3.1V4.4c0-1.7,1.4-3.1,3.1-3.1h15.1c1.7,0,3.1,1.4,3.1,3.1v15.1
		C22.6,21.2,21.2,22.6,19.6,22.6L19.6,22.6z M4.4,3.4c-0.6,0-1.1,0.5-1.1,1.1v15.1c0,0.6,0.5,1.1,1.1,1.1h15.1
		c0.6,0,1.1-0.5,1.1-1.1V4.4c0-0.6-0.5-1.1-1.1-1.1H4.4L4.4,3.4z"/>
</g>
</svg>
