<?xml version="1.0" encoding="utf-8"?>
<!-- Generator: Adobe Illustrator 25.0.0, SVG Export Plug-In . SVG Version: 6.00 Build 0)  -->
<svg version="1.1" id="Calque_1" xmlns="http://www.w3.org/2000/svg" xmlns:xlink="http://www.w3.org/1999/xlink" x="0px" y="0px"
	 viewBox="0 0 24 24" style="enable-background:new 0 0 24 24;" xml:space="preserve">
<path d="M23.5,12.6V9.7c0-0.1-0.1-0.2-0.1-0.3c-0.1-0.2-0.3-0.4-0.5-0.5L12.1,4.2c-0.2-0.1-0.5-0.1-0.8,0L0.6,8.9C0.2,9,0,9.4,0,9.8
	c0,0.4,0.2,0.7,0.6,0.9l2.3,1v4.8c0,0.3,0.2,0.6,0.4,0.8c2.6,1.7,5.5,2.6,8.4,2.6c2.9,0,5.8-0.9,8.4-2.6c0.3-0.2,0.4-0.5,0.4-0.8
	v-4.8l2-0.9v1.8c-0.3,0.2-0.5,0.5-0.5,0.8v3.4c0,0.5,0.4,1,1,1c0.5,0,1-0.4,1-1v-3.4C24,13.1,23.8,12.8,23.5,12.6z M11.7,6.1
	l8.4,3.6l-8.4,3.6L3.4,9.8L11.7,6.1z M18.7,15.9c-4.3,2.7-9.5,2.7-13.9,0v-3.4l6.5,2.9c0.1,0.1,0.3,0.1,0.4,0.1c0.1,0,0.3,0,0.4-0.1
	l6.5-2.9V15.9z"/>
</svg>
