<?xml version="1.0" encoding="utf-8"?>
<!-- Generator: Adobe Illustrator 25.0.0, SVG Export Plug-In . SVG Version: 6.00 Build 0)  -->
<svg version="1.1" id="Calque_1" xmlns="http://www.w3.org/2000/svg" xmlns:xlink="http://www.w3.org/1999/xlink" x="0px" y="0px"
	 viewBox="0 0 24 24" style="enable-background:new 0 0 24 24;" xml:space="preserve">
<g>
	<path d="M19.6,12.1c-0.1-1.3-0.8-2.6-1.8-3.4c-1-0.9-2.4-1.3-3.7-1.1c-1.3,0.1-2.6,0.8-3.4,1.8c0,0,0,0,0,0.1C10,9.1,9.4,9,8.8,9
		c-2.4,0-4.5,1.8-4.9,4.1C1.7,13.1,0,14.9,0,17c0,1.7,1.1,3.3,2.8,3.8c0.4,0.1,0.7,0.2,1.1,0.2h10.4c0.4,0,0.8-0.1,1.2-0.2
		c1.9-0.6,3.1-2.3,3.1-4.2c0-0.3,0-0.5-0.1-0.7C19.3,14.7,19.7,13.4,19.6,12.1z M14.2,9.1c0.9-0.1,1.8,0.2,2.5,0.8
		c1.2,1,1.5,2.6,0.9,3.9c-0.8-1.1-2.1-1.8-3.6-1.8c-0.2,0-0.4,0-0.7,0.1c-0.3-0.7-0.8-1.4-1.3-1.9C12.6,9.6,13.4,9.2,14.2,9.1z
		 M14.9,19.1c-0.2,0.1-0.4,0.1-0.6,0.1H3.8c-0.2,0-0.4,0-0.6-0.1C2.3,18.9,1.7,18,1.7,17c0-1.2,1-2.3,2.3-2.3c0.2,0,0.3,0,0.5,0
		l1,0.2l0-1c0-1.8,1.6-3.3,3.4-3.3c1.6,0,2.9,1.1,3.3,2.6l0.2,0.9l0.9-0.3c0.3-0.1,0.6-0.2,0.9-0.2c1.5,0,2.8,1.2,2.8,2.8
		C16.9,17.7,16.1,18.8,14.9,19.1z"/>
	<path d="M19.2,8c0.2,0,0.5-0.1,0.6-0.3l1.1-1.3c0.3-0.4,0.2-0.9-0.1-1.2c-0.4-0.3-0.9-0.2-1.2,0.1l-1.1,1.3
		c-0.3,0.4-0.2,0.9,0.1,1.2C18.8,7.9,19,8,19.2,8z"/>
	<path d="M15.7,6.4c0,0,0.1,0,0.1,0c0.4,0,0.7-0.3,0.8-0.7L17,4.1c0.1-0.5-0.2-0.9-0.7-1c-0.5-0.1-0.9,0.2-1,0.7L15,5.4
		C15,5.8,15.3,6.3,15.7,6.4z"/>
	<path d="M11.4,6.1c0.1,0.3,0.4,0.5,0.8,0.5c0.1,0,0.2,0,0.3-0.1C12.9,6.4,13.1,6,13,5.5L12.4,4c-0.2-0.4-0.6-0.7-1.1-0.5
		c-0.4,0.2-0.7,0.6-0.5,1.1L11.4,6.1z"/>
	<path d="M8.6,8.5C8.8,8.7,9,8.7,9.1,8.7c0.2,0,0.5-0.1,0.6-0.3c0.3-0.4,0.2-0.9-0.1-1.2L8.4,6.2C8.1,5.9,7.5,6,7.2,6.3
		C6.9,6.7,7,7.2,7.3,7.5L8.6,8.5z"/>
	<path d="M20.5,16.5c-0.4-0.3-0.9-0.2-1.2,0.1c-0.3,0.4-0.2,0.9,0.1,1.2l1.3,1.1C20.8,19,21,19,21.2,19c0.2,0,0.5-0.1,0.6-0.3
		c0.3-0.4,0.2-0.9-0.1-1.2L20.5,16.5z"/>
	<path d="M23.3,13.3L21.7,13c-0.4-0.1-0.9,0.2-1,0.7c-0.1,0.5,0.2,0.9,0.7,1l1.6,0.3c0,0,0.1,0,0.1,0c0.4,0,0.7-0.3,0.8-0.7
		C24.1,13.8,23.8,13.4,23.3,13.3z"/>
	<path d="M20.5,10.5c0.1,0.3,0.4,0.5,0.8,0.5c0.1,0,0.2,0,0.3-0.1l1.5-0.6c0.4-0.2,0.7-0.6,0.5-1.1c-0.2-0.4-0.6-0.7-1.1-0.5L21,9.4
		C20.5,9.5,20.3,10,20.5,10.5z"/>
</g>
</svg>
