<?xml version="1.0" encoding="utf-8"?>
<!-- Generator: Adobe Illustrator 25.0.0, SVG Export Plug-In . SVG Version: 6.00 Build 0)  -->
<svg version="1.1" id="Calque_1" xmlns="http://www.w3.org/2000/svg" xmlns:xlink="http://www.w3.org/1999/xlink" x="0px" y="0px"
	 viewBox="0 0 24 24" style="enable-background:new 0 0 24 24;" xml:space="preserve">
<g>
	<path d="M5.7,12c0,3.5,2.8,6.3,6.3,6.3c3.5,0,6.3-2.8,6.3-6.3c0-3.5-2.8-6.3-6.3-6.3C8.5,5.7,5.7,8.5,5.7,12z M16.4,12
		c0,2.4-2,4.4-4.4,4.4c-2.4,0-4.4-2-4.4-4.4c0-2.4,2-4.4,4.4-4.4C14.4,7.6,16.4,9.6,16.4,12z"/>
	<path d="M12.1,3.9c0.5,0,0.9-0.4,0.9-0.9V0.9c0-0.5-0.4-0.9-0.9-0.9s-0.9,0.4-0.9,0.9V3C11.2,3.5,11.6,3.9,12.1,3.9z"/>
	<path d="M6.8,4.6C7,4.9,7.3,5.1,7.6,5.1c0.2,0,0.3,0,0.5-0.1c0.4-0.3,0.6-0.8,0.3-1.3l-1-1.8C7.1,1.4,6.6,1.3,6.1,1.5
		C5.7,1.8,5.5,2.4,5.8,2.8L6.8,4.6z"/>
	<path d="M4.8,6.6l-1.8-1c-0.4-0.3-1-0.1-1.3,0.3C1.4,6.3,1.6,6.9,2,7.2l1.8,1C4,8.3,4.1,8.3,4.3,8.3c0.3,0,0.6-0.2,0.8-0.5
		C5.4,7.4,5.2,6.8,4.8,6.6z"/>
	<path d="M4,11.9c0-0.5-0.4-0.9-0.9-0.9H0.9c-0.5,0-0.9,0.4-0.9,0.9c0,0.5,0.4,0.9,0.9,0.9H3C3.5,12.8,4,12.4,4,11.9z"/>
	<path d="M3.7,15.6l-1.8,1c-0.4,0.3-0.6,0.8-0.3,1.3c0.2,0.3,0.5,0.5,0.8,0.5c0.2,0,0.3,0,0.5-0.1l1.8-1c0.4-0.3,0.6-0.8,0.3-1.3
		C4.7,15.5,4.1,15.3,3.7,15.6z"/>
	<path d="M7.9,18.9c-0.4-0.3-1-0.1-1.3,0.3l-1,1.8c-0.3,0.4-0.1,1,0.3,1.3c0.1,0.1,0.3,0.1,0.5,0.1c0.3,0,0.6-0.2,0.8-0.5l1-1.8
		C8.5,19.7,8.3,19.2,7.9,18.9z"/>
	<path d="M11.9,20.1c-0.5,0-0.9,0.4-0.9,0.9v2.1c0,0.5,0.4,0.9,0.9,0.9c0.5,0,0.9-0.4,0.9-0.9V21C12.8,20.5,12.4,20.1,11.9,20.1z"/>
	<path d="M17.2,19.4c-0.3-0.4-0.8-0.6-1.3-0.3c-0.4,0.3-0.6,0.8-0.3,1.3l1,1.8c0.2,0.3,0.5,0.5,0.8,0.5c0.2,0,0.3,0,0.5-0.1
		c0.4-0.3,0.6-0.8,0.3-1.3L17.2,19.4z"/>
	<path d="M22,16.8l-1.8-1c-0.4-0.3-1-0.1-1.3,0.3c-0.3,0.4-0.1,1,0.3,1.3l1.8,1c0.1,0.1,0.3,0.1,0.5,0.1c0.3,0,0.6-0.2,0.8-0.5
		C22.6,17.7,22.4,17.1,22,16.8z"/>
	<path d="M23.1,11.2H21c-0.5,0-0.9,0.4-0.9,0.9c0,0.5,0.4,0.9,0.9,0.9h2.1c0.5,0,0.9-0.4,0.9-0.9C24,11.6,23.6,11.2,23.1,11.2z"/>
	<path d="M19.8,8.6c0.2,0,0.3,0,0.5-0.1l1.8-1c0.4-0.3,0.6-0.8,0.3-1.3c-0.3-0.4-0.8-0.6-1.3-0.3l-1.8,1c-0.4,0.3-0.6,0.8-0.3,1.3
		C19.2,8.4,19.5,8.6,19.8,8.6z"/>
	<path d="M18.1,1.7c-0.4-0.3-1-0.1-1.3,0.3l-1,1.8c-0.3,0.4-0.1,1,0.3,1.3c0.1,0.1,0.3,0.1,0.5,0.1c0.3,0,0.6-0.2,0.8-0.5l1-1.8
		C18.7,2.5,18.6,1.9,18.1,1.7z"/>
</g>
</svg>
