<?xml version="1.0" encoding="utf-8"?>
<!-- Generator: Adobe Illustrator 25.0.0, SVG Export Plug-In . SVG Version: 6.00 Build 0)  -->
<svg version="1.1" id="Calque_1" xmlns="http://www.w3.org/2000/svg" xmlns:xlink="http://www.w3.org/1999/xlink" x="0px" y="0px"
	 viewBox="0 0 24 24" style="enable-background:new 0 0 24 24;" xml:space="preserve">
<g>
	<path d="M12.6,13.1c0,0-0.1,0-0.1-0.1c0,0-0.1,0-0.1-0.1c-0.2-0.1-0.4-0.1-0.7,0c0,0-0.1,0-0.1,0.1c0,0-0.1,0-0.1,0.1l-3.8,2.8
		c-0.4,0.3-0.5,0.9-0.2,1.3c0.3,0.4,0.9,0.5,1.3,0.2l2.4-1.7v5.9c0,0.5,0.4,0.9,0.9,0.9c0.5,0,0.9-0.4,0.9-0.9v-5.9l2.4,1.7
		c0.2,0.1,0.4,0.2,0.5,0.2c0.3,0,0.6-0.1,0.8-0.4c0.3-0.4,0.2-1-0.2-1.3L12.6,13.1z"/>
	<path d="M18.3,13.5c0-3.5-2.8-6.3-6.3-6.3c-3.5,0-6.3,2.8-6.3,6.3c0,0.5,0.4,0.9,0.9,0.9c0.5,0,0.9-0.4,0.9-0.9
		c0-2.4,2-4.4,4.4-4.4c2.4,0,4.4,2,4.4,4.4c0,0.5,0.4,0.9,0.9,0.9C17.9,14.4,18.3,14,18.3,13.5z"/>
	<path d="M12.1,5.4c0.5,0,0.9-0.4,0.9-0.9V2.4c0-0.5-0.4-0.9-0.9-0.9c-0.5,0-0.9,0.4-0.9,0.9v2.1C11.2,5,11.6,5.4,12.1,5.4z"/>
	<path d="M6.8,6.1C7,6.4,7.3,6.6,7.6,6.6c0.2,0,0.3,0,0.5-0.1c0.4-0.3,0.6-0.8,0.3-1.3l-1-1.8C7.1,2.9,6.6,2.8,6.1,3
		C5.7,3.3,5.5,3.8,5.8,4.3L6.8,6.1z"/>
	<path d="M2,8.6l1.8,1C4,9.8,4.1,9.8,4.3,9.8c0.3,0,0.6-0.2,0.8-0.5c0.3-0.4,0.1-1-0.3-1.3L2.9,7c-0.4-0.3-1-0.1-1.3,0.3
		C1.4,7.8,1.6,8.4,2,8.6z"/>
	<path d="M3,14.3c0.5,0,0.9-0.4,0.9-0.9c0-0.5-0.4-0.9-0.9-0.9H0.9c-0.5,0-0.9,0.4-0.9,0.9c0,0.5,0.4,0.9,0.9,0.9H3z"/>
	<path d="M23.1,12.7H21c-0.5,0-0.9,0.4-0.9,0.9c0,0.5,0.4,0.9,0.9,0.9h2.1c0.5,0,0.9-0.4,0.9-0.9C24,13.1,23.6,12.7,23.1,12.7z"/>
	<path d="M19.8,10c0.2,0,0.3,0,0.5-0.1l1.8-1c0.4-0.3,0.6-0.8,0.3-1.3c-0.3-0.4-0.8-0.6-1.3-0.3l-1.8,1c-0.4,0.3-0.6,0.8-0.3,1.3
		C19.2,9.9,19.5,10,19.8,10z"/>
	<path d="M16.1,6.6c0.1,0.1,0.3,0.1,0.5,0.1c0.3,0,0.6-0.2,0.8-0.5l1-1.8c0.3-0.4,0.1-1-0.3-1.3c-0.4-0.3-1-0.1-1.3,0.3l-1,1.8
		C15.5,5.7,15.7,6.3,16.1,6.6z"/>
	<path d="M5.8,16.4H0.9c-0.3,0-0.5,0.2-0.5,0.5c0,0.3,0.2,0.5,0.5,0.5h4.9c0.3,0,0.5-0.2,0.5-0.5C6.3,16.6,6.1,16.4,5.8,16.4z"/>
	<path d="M23.1,16.4h-4.9c-0.3,0-0.5,0.2-0.5,0.5c0,0.3,0.2,0.5,0.5,0.5h4.9c0.3,0,0.5-0.2,0.5-0.5C23.5,16.6,23.3,16.4,23.1,16.4z"
		/>
</g>
</svg>
