<?xml version="1.0" encoding="utf-8"?>
<!-- Generator: Adobe Illustrator 25.0.0, SVG Export Plug-In . SVG Version: 6.00 Build 0)  -->
<svg version="1.1" id="Calque_1" xmlns="http://www.w3.org/2000/svg" xmlns:xlink="http://www.w3.org/1999/xlink" x="0px" y="0px"
	 viewBox="0 0 24 24" style="enable-background:new 0 0 24 24;" xml:space="preserve">
<g>
	<path d="M15.3,18.3L12.9,20v-5.9c0-0.5-0.4-0.9-0.9-0.9c-0.5,0-0.9,0.4-0.9,0.9V20l-2.4-1.7c-0.4-0.3-1-0.2-1.3,0.2
		c-0.3,0.4-0.2,1,0.2,1.3l3.8,2.8c0,0,0.1,0,0.1,0.1c0,0,0.1,0,0.1,0.1c0.1,0,0.2,0.1,0.3,0.1c0.1,0,0.2,0,0.3-0.1
		c0,0,0.1,0,0.1-0.1c0,0,0.1,0,0.1-0.1l3.8-2.8c0.4-0.3,0.5-0.9,0.2-1.3C16.3,18.1,15.7,18,15.3,18.3z"/>
	<path d="M12,7c-3.5,0-6.3,2.8-6.3,6.3c0,0.5,0.4,0.9,0.9,0.9c0.5,0,0.9-0.4,0.9-0.9c0-2.4,2-4.4,4.4-4.4c2.4,0,4.4,2,4.4,4.4
		c0,0.5,0.4,0.9,0.9,0.9c0.5,0,0.9-0.4,0.9-0.9C18.3,9.8,15.5,7,12,7z"/>
	<path d="M12.1,5.2c0.5,0,0.9-0.4,0.9-0.9V2.2c0-0.5-0.4-0.9-0.9-0.9c-0.5,0-0.9,0.4-0.9,0.9v2.1C11.2,4.8,11.6,5.2,12.1,5.2z"/>
	<path d="M6.8,5.9C7,6.2,7.3,6.3,7.6,6.3c0.2,0,0.3,0,0.5-0.1c0.4-0.3,0.6-0.8,0.3-1.3l-1-1.8C7.1,2.7,6.6,2.5,6.1,2.8
		C5.7,3,5.5,3.6,5.8,4.1L6.8,5.9z"/>
	<path d="M2,8.4l1.8,1C4,9.5,4.1,9.6,4.3,9.6c0.3,0,0.6-0.2,0.8-0.5c0.3-0.4,0.1-1-0.3-1.3l-1.8-1c-0.4-0.3-1-0.1-1.3,0.3
		C1.4,7.6,1.6,8.1,2,8.4z"/>
	<path d="M3,14c0.5,0,0.9-0.4,0.9-0.9c0-0.5-0.4-0.9-0.9-0.9H0.9c-0.5,0-0.9,0.4-0.9,0.9C0,13.6,0.4,14,0.9,14H3z"/>
	<path d="M23.1,12.4H21c-0.5,0-0.9,0.4-0.9,0.9c0,0.5,0.4,0.9,0.9,0.9h2.1c0.5,0,0.9-0.4,0.9-0.9C24,12.9,23.6,12.4,23.1,12.4z"/>
	<path d="M19.8,9.8c0.2,0,0.3,0,0.5-0.1l1.8-1c0.4-0.3,0.6-0.8,0.3-1.3c-0.3-0.4-0.8-0.6-1.3-0.3l-1.8,1c-0.4,0.3-0.6,0.8-0.3,1.3
		C19.2,9.6,19.5,9.8,19.8,9.8z"/>
	<path d="M16.1,6.3c0.1,0.1,0.3,0.1,0.5,0.1c0.3,0,0.6-0.2,0.8-0.5l1-1.8c0.3-0.4,0.1-1-0.3-1.3c-0.4-0.3-1-0.1-1.3,0.3l-1,1.8
		C15.5,5.5,15.7,6.1,16.1,6.3z"/>
	<path d="M10,16.6c0-0.3-0.2-0.5-0.5-0.5H0.9c-0.3,0-0.5,0.2-0.5,0.5c0,0.3,0.2,0.5,0.5,0.5h8.6C9.8,17.1,10,16.9,10,16.6z"/>
	<path d="M23.1,16.2h-8.6c-0.3,0-0.5,0.2-0.5,0.5c0,0.3,0.2,0.5,0.5,0.5h8.6c0.3,0,0.5-0.2,0.5-0.5C23.5,16.4,23.3,16.2,23.1,16.2z"
		/>
</g>
</svg>
