<?xml version="1.0" encoding="utf-8"?>
<!-- Generator: Adobe Illustrator 24.3.0, SVG Export Plug-In . SVG Version: 6.00 Build 0)  -->
<svg version="1.1" id="Calque_1" xmlns="http://www.w3.org/2000/svg" xmlns:xlink="http://www.w3.org/1999/xlink" x="0px" y="0px"
	 viewBox="0 0 24 24" style="enable-background:new 0 0 24 24;" xml:space="preserve">
<g>
	<g>
		<path d="M12.8,24L0,11.2L11.2,0H24v12.8L12.8,24L12.8,24z M2.8,11.2l10,10L22,12V2H12L2.8,11.2L2.8,11.2z"/>
	</g>
	<g>
		<g>
			<path d="M8.8,13.2c-0.1,0-0.2,0-0.3-0.1c-0.2-0.2-0.2-0.5,0-0.7l5.6-5.6c0.2-0.2,0.5-0.2,0.7,0c0.2,0.2,0.2,0.5,0,0.7L9.2,13
				C9.1,13.1,8.9,13.2,8.8,13.2L8.8,13.2z"/>
		</g>
		<g>
			<path d="M11.3,15.7c-0.1,0-0.2,0-0.3-0.1c-0.2-0.2-0.2-0.5,0-0.7l5.6-5.6c0.2-0.2,0.5-0.2,0.7,0c0.2,0.2,0.2,0.5,0,0.7l-5.6,5.6
				C11.6,15.6,11.5,15.7,11.3,15.7L11.3,15.7z"/>
		</g>
	</g>
	<path d="M18.7,4c-0.3,0-0.7,0.1-0.9,0.4c-0.5,0.5-0.5,1.4,0,1.9c0.3,0.3,0.6,0.4,0.9,0.4c0.3,0,0.7-0.1,0.9-0.4
		c0.5-0.5,0.5-1.4,0-1.9C19.4,4.1,19,4,18.7,4L18.7,4z"/>
</g>
</svg>
