<?xml version="1.0" encoding="utf-8"?>
<!-- Generator: Adobe Illustrator 25.0.0, SVG Export Plug-In . SVG Version: 6.00 Build 0)  -->
<svg version="1.1" id="Calque_1" xmlns="http://www.w3.org/2000/svg" xmlns:xlink="http://www.w3.org/1999/xlink" x="0px" y="0px"
	 viewBox="0 0 24 24" style="enable-background:new 0 0 24 24;" xml:space="preserve">
<path d="M23.5,11.5h-1.2c-0.1-2.6-1.2-5-3-6.8c-1.8-1.8-4.2-2.9-6.8-3V0.5C12.5,0.2,12.3,0,12,0c-0.3,0-0.5,0.2-0.5,0.5v1.2
	c-2.6,0.1-5,1.2-6.8,3c-1.8,1.8-2.9,4.2-3,6.8H0.5C0.2,11.5,0,11.7,0,12c0,0.3,0.2,0.5,0.5,0.5h1.2c0.1,2.6,1.2,5,3,6.8
	c1.8,1.8,4.2,2.9,6.8,3v1.2c0,0.3,0.2,0.5,0.5,0.5c0.3,0,0.5-0.2,0.5-0.5v-1.2c2.6-0.1,5-1.2,6.8-3c1.8-1.8,2.9-4.2,3-6.8h1.2
	c0.3,0,0.5-0.2,0.5-0.5C24,11.7,23.8,11.5,23.5,11.5z M17.9,6.1c1.5,1.5,2.3,3.4,2.4,5.4h-7.9V3.7C14.5,3.8,16.5,4.6,17.9,6.1z
	 M6.1,6.1c1.5-1.5,3.4-2.3,5.4-2.4v7.9H3.6C3.8,9.5,4.6,7.5,6.1,6.1z M6.1,17.9c-1.5-1.5-2.3-3.4-2.4-5.4h7.9v7.9
	C9.5,20.2,7.5,19.4,6.1,17.9z M17.9,17.9c-1.5,1.5-3.4,2.3-5.4,2.4v-7.9h7.9C20.2,14.5,19.4,16.5,17.9,17.9z"/>
</svg>
