<?xml version="1.0" encoding="utf-8"?>
<!-- Generator: Adobe Illustrator 25.0.0, SVG Export Plug-In . SVG Version: 6.00 Build 0)  -->
<svg version="1.1" id="Calque_1" xmlns="http://www.w3.org/2000/svg" xmlns:xlink="http://www.w3.org/1999/xlink" x="0px" y="0px"
	 viewBox="0 0 24 24" style="enable-background:new 0 0 24 24;" xml:space="preserve">
<g>
	<path d="M12,0.5C5.7,0.5,0.5,5.7,0.5,12S5.7,23.5,12,23.5c6.3,0,11.5-5.2,11.5-11.5S18.3,0.5,12,0.5z M13,21.4v-2.8h-2v2.8
		c-4.4-0.5-8-4-8.4-8.4h2.8v-2H2.6C3,6.6,6.6,3,11,2.6v2.8h2V2.6c4.4,0.5,8,4,8.4,8.4h-2.8v2h2.8C21,17.4,17.4,21,13,21.4z"/>
	<circle cx="12" cy="12" r="1.1"/>
</g>
</svg>
