<?xml version="1.0" encoding="utf-8"?>
<!-- Generator: Adobe Illustrator 24.3.0, SVG Export Plug-In . SVG Version: 6.00 Build 0)  -->
<svg version="1.1" id="Calque_1" xmlns="http://www.w3.org/2000/svg" xmlns:xlink="http://www.w3.org/1999/xlink" x="0px" y="0px"
	 viewBox="0 0 24 24" style="enable-background:new 0 0 24 24;" xml:space="preserve">
<g>
	<path d="M13.1,7.5c-0.2,0.2-0.1,0.5,0.1,0.7c0.1,0.1,0.2,0.1,0.3,0.1c0.1,0,0.3-0.1,0.4-0.2c0.8-1,0.4-2,0.1-2.7
		c-0.3-0.8-0.5-1.3-0.1-1.8C14,3.3,13.9,3,13.7,2.9c-0.2-0.2-0.5-0.1-0.7,0.1c-0.8,1-0.4,2-0.1,2.7C13.3,6.5,13.5,7,13.1,7.5z"/>
	<path d="M10.6,7.5c-0.2,0.2-0.1,0.5,0.1,0.7c0.1,0.1,0.2,0.1,0.3,0.1c0.1,0,0.3-0.1,0.4-0.2c0.8-1,0.4-2,0.1-2.7
		c-0.3-0.8-0.5-1.3-0.1-1.8c0.2-0.2,0.1-0.5-0.1-0.7c-0.2-0.2-0.5-0.1-0.7,0.1c-0.8,1-0.4,2-0.1,2.7C10.9,6.5,11,7,10.6,7.5z"/>
	<path d="M8.2,7.5C8,7.7,8.1,8,8.3,8.2c0.1,0.1,0.2,0.1,0.3,0.1c0.1,0,0.3-0.1,0.4-0.2c0.8-1,0.4-2,0.1-2.7C8.7,4.6,8.5,4,8.9,3.5
		C9.1,3.3,9.1,3,8.9,2.9C8.7,2.7,8.4,2.7,8.2,2.9c-0.8,1-0.4,2-0.1,2.7C8.4,6.5,8.6,7,8.2,7.5z"/>
	<path d="M18.7,16.5c0.5,0.7,1.4,1.2,2.4,1.2c1.6,0,2.9-1.3,2.9-2.9c0-1.6-1.3-2.9-2.9-2.9c-0.2,0-0.5,0-0.7,0.1
		c0-0.4,0.1-0.7,0.1-1.1c0-0.5-0.4-0.9-0.9-0.9H1.4c-0.5,0-0.9,0.4-0.9,0.9c0,3.6,1.9,6.7,4.7,8.5H0.9c-0.5,0-0.9,0.4-0.9,0.9
		c0,0.5,0.4,0.9,0.9,0.9h20.4c0.5,0,0.9-0.4,0.9-0.9c0-0.5-0.4-0.9-0.9-0.9h-5.6C16.9,18.6,18,17.6,18.7,16.5z M21.1,13.8
		c0.6,0,1,0.5,1,1c0,0.6-0.5,1-1,1s-1-0.5-1-1C20.1,14.2,20.6,13.8,21.1,13.8z M10.5,19c-4.2,0-7.6-3.1-8.1-7.2h16.1
		C18,15.8,14.6,19,10.5,19z"/>
</g>
</svg>
