<?xml version="1.0" encoding="utf-8"?>
<!-- Generator: Adobe Illustrator 25.0.0, SVG Export Plug-In . SVG Version: 6.00 Build 0)  -->
<svg version="1.1" id="Calque_1" xmlns="http://www.w3.org/2000/svg" xmlns:xlink="http://www.w3.org/1999/xlink" x="0px" y="0px"
	 viewBox="0 0 24 24" style="enable-background:new 0 0 24 24;" xml:space="preserve">
<g>
	<path d="M1.7,2.5h20.7c0.6,0,1-0.4,1-1c0-0.6-0.4-1-1-1H1.7c-0.6,0-1,0.4-1,1C0.7,2.1,1.1,2.5,1.7,2.5z"/>
	<path d="M22.3,5.8H1.7c-0.6,0-1,0.4-1,1c0,0.6,0.4,1,1,1h20.7c0.6,0,1-0.4,1-1C23.3,6.2,22.9,5.8,22.3,5.8z"/>
	<path d="M22.3,11H1.7c-0.6,0-1,0.4-1,1c0,0.6,0.4,1,1,1h20.7c0.6,0,1-0.4,1-1C23.3,11.4,22.9,11,22.3,11z"/>
	<path d="M22.3,16.2H1.7c-0.6,0-1,0.4-1,1c0,0.6,0.4,1,1,1h20.7c0.6,0,1-0.4,1-1C23.3,16.7,22.9,16.2,22.3,16.2z"/>
	<path d="M22.3,21.5H1.7c-0.6,0-1,0.4-1,1s0.4,1,1,1h20.7c0.6,0,1-0.4,1-1S22.9,21.5,22.3,21.5z"/>
</g>
</svg>
