<?xml version="1.0" encoding="utf-8"?>
<!-- Generator: Adobe Illustrator 25.0.0, SVG Export Plug-In . SVG Version: 6.00 Build 0)  -->
<svg version="1.1" id="Calque_1" xmlns="http://www.w3.org/2000/svg" xmlns:xlink="http://www.w3.org/1999/xlink" x="0px" y="0px"
	 viewBox="0 0 24 24" style="enable-background:new 0 0 24 24;" xml:space="preserve">
<g>
	<path d="M1.7,2.5h20.7c0.6,0,1-0.4,1-1c0-0.6-0.4-1-1-1H1.7c-0.6,0-1,0.4-1,1C0.7,2.1,1.1,2.5,1.7,2.5z"/>
	<path d="M1.7,7.8h16.1c0.6,0,1-0.4,1-1c0-0.6-0.4-1-1-1H1.7c-0.6,0-1,0.4-1,1C0.7,7.3,1.1,7.8,1.7,7.8z"/>
	<path d="M22.3,11H1.7c-0.6,0-1,0.4-1,1c0,0.6,0.4,1,1,1h20.7c0.6,0,1-0.4,1-1C23.3,11.4,22.9,11,22.3,11z"/>
	<path d="M19.2,16.3H1.7c-0.6,0-1,0.4-1,1c0,0.6,0.4,1,1,1h17.6c0.6,0,1-0.4,1-1C20.2,16.7,19.8,16.3,19.2,16.3z"/>
	<path d="M10.2,21.5H1.7c-0.6,0-1,0.4-1,1c0,0.6,0.4,1,1,1h8.6c0.6,0,1-0.4,1-1C11.2,21.9,10.8,21.5,10.2,21.5z"/>
</g>
</svg>
