<?xml version="1.0" encoding="utf-8"?>
<!-- Generator: Adobe Illustrator 25.0.0, SVG Export Plug-In . SVG Version: 6.00 Build 0)  -->
<svg version="1.1" id="Calque_1" xmlns="http://www.w3.org/2000/svg" xmlns:xlink="http://www.w3.org/1999/xlink" x="0px" y="0px"
	 viewBox="0 0 24 24" style="enable-background:new 0 0 24 24;" xml:space="preserve">
<g>
	<path d="M1.7,2.5h20.7c0.6,0,1-0.4,1-1c0-0.6-0.4-1-1-1H1.7c-0.6,0-1,0.4-1,1C0.7,2.1,1.1,2.5,1.7,2.5z"/>
	<path d="M4,5.8c-0.6,0-1,0.4-1,1c0,0.6,0.4,1,1,1H20c0.6,0,1-0.4,1-1c0-0.6-0.4-1-1-1H4z"/>
	<path d="M22.3,11H1.7c-0.6,0-1,0.4-1,1c0,0.6,0.4,1,1,1h20.7c0.6,0,1-0.4,1-1C23.3,11.4,22.9,11,22.3,11z"/>
	<path d="M20.8,16.3H3.2c-0.6,0-1,0.4-1,1c0,0.6,0.4,1,1,1h17.6c0.6,0,1-0.4,1-1C21.8,16.7,21.3,16.3,20.8,16.3z"/>
	<path d="M16.3,21.5H7.7c-0.6,0-1,0.4-1,1c0,0.6,0.4,1,1,1h8.6c0.6,0,1-0.4,1-1C17.3,21.9,16.8,21.5,16.3,21.5z"/>
</g>
</svg>
