<?xml version="1.0" encoding="utf-8"?>
<!-- Generator: Adobe Illustrator 25.0.0, SVG Export Plug-In . SVG Version: 6.00 Build 0)  -->
<svg version="1.1" id="Calque_1" xmlns="http://www.w3.org/2000/svg" xmlns:xlink="http://www.w3.org/1999/xlink" x="0px" y="0px"
	 viewBox="0 0 24 24" style="enable-background:new 0 0 24 24;" xml:space="preserve">
<g>
	<path d="M19.6,21.8h-0.8V18c0-2.5-1.4-4.8-3.6-5.9V12c2.2-1.2,3.6-3.4,3.6-5.9V2.2h0.8c0.6,0,1-0.4,1-1c0-0.6-0.4-1-1-1h-1.8H6.3
		H4.4c-0.6,0-1,0.4-1,1c0,0.6,0.4,1,1,1h0.8V6c0,2.5,1.4,4.8,3.6,5.9V12c-2.2,1.2-3.6,3.4-3.6,5.9v3.9H4.4c-0.6,0-1,0.4-1,1
		s0.4,1,1,1h1.8h11.5h1.8c0.6,0,1-0.4,1-1S20.1,21.8,19.6,21.8z M7.3,21.8V18c0-1.9,1.2-3.6,2.9-4.4c0.4-0.2,0.6-0.5,0.6-0.9v-1.3
		c0-0.4-0.2-0.8-0.6-0.9C8.4,9.7,7.3,8,7.3,6V2.2h9.5V6c0,1.9-1.2,3.6-2.9,4.4c-0.4,0.2-0.6,0.5-0.6,0.9v1.3c0,0.4,0.2,0.8,0.6,0.9
		c1.8,0.7,2.9,2.5,2.9,4.4v3.9H7.3z"/>
	<path d="M15.7,20.3c-1.8,0-3.2-1.4-3.2-3.2c0,0,0,0,0-0.1c0,0,0,0,0-0.1v-6.9C14.4,9.9,16,8.3,16,6.3c0-0.3-0.2-0.5-0.5-0.5H8.5
		C8.3,5.8,8,6.1,8,6.3c0,2,1.5,3.6,3.5,3.8V17c0,0,0,0,0,0.1c0,0,0,0,0,0.1c0,1.8-1.4,3.2-3.2,3.2c-0.3,0-0.5,0.2-0.5,0.5
		c0,0.3,0.2,0.5,0.5,0.5c1.6,0,3-0.9,3.7-2.3c0.7,1.3,2.1,2.3,3.7,2.3c0.3,0,0.5-0.2,0.5-0.5C16.2,20.6,16,20.3,15.7,20.3z M9.1,6.8
		h5.8c-0.2,1.3-1.4,2.3-2.8,2.3h-0.3C10.5,9.2,9.3,8.2,9.1,6.8z"/>
</g>
</svg>
