<?xml version="1.0" encoding="utf-8"?>
<!-- Generator: Adobe Illustrator 25.0.0, SVG Export Plug-In . SVG Version: 6.00 Build 0)  -->
<svg version="1.1" id="Calque_1" xmlns="http://www.w3.org/2000/svg" xmlns:xlink="http://www.w3.org/1999/xlink" x="0px" y="0px"
	 viewBox="0 0 24 24" style="enable-background:new 0 0 24 24;" xml:space="preserve">
<g>
	<path d="M19.9,6.7l1.5-2c0.3-0.4,0.2-1-0.2-1.3c-0.4-0.3-1-0.2-1.3,0.2l-1.4,1.8c-1.5-1.2-3.4-2-5.5-2.2V2h1.7c0.5,0,1-0.4,1-1
		c0-0.5-0.4-1-1-1H9.4c-0.5,0-1,0.4-1,1c0,0.5,0.4,1,1,1H11v1.2C5.8,3.7,1.6,8.1,1.6,13.5c0,5.7,4.7,10.4,10.4,10.4
		c5.7,0,10.4-4.7,10.4-10.4C22.4,10.9,21.4,8.6,19.9,6.7z M12,22c-4.7,0-8.5-3.8-8.5-8.5S7.3,5,12,5c4.7,0,8.5,3.8,8.5,8.5
		S16.7,22,12,22z"/>
	<path d="M12,6.2c-0.5,0-1,0.4-1,1v6.4c0,0.5,0.4,1,1,1c0.5,0,1-0.4,1-1V7.1C13,6.6,12.5,6.2,12,6.2z"/>
</g>
</svg>
