<?xml version="1.0" encoding="utf-8"?>
<!-- Generator: Adobe Illustrator 25.0.0, SVG Export Plug-In . SVG Version: 6.00 Build 0)  -->
<svg version="1.1" id="Calque_1" xmlns="http://www.w3.org/2000/svg" xmlns:xlink="http://www.w3.org/1999/xlink" x="0px" y="0px"
	 viewBox="0 0 24 24" style="enable-background:new 0 0 24 24;" xml:space="preserve">
<g>
	<path d="M20.5,6.9c0.6,0,1.2-0.2,1.6-0.7l1.6-1.6C23.9,4.5,24,4.2,24,4c0-0.3-0.1-0.5-0.3-0.7l-1.9-1.9c-0.4-0.4-1-0.4-1.3,0
		L18.9,3c-0.7,0.7-0.8,1.6-0.5,2.4l-4.2,4.2L12.4,8c0.3-2-0.3-4-1.7-5.4C9.5,1.4,7.9,0.7,6.3,0.7c-0.8,0-1.5,0.1-2.2,0.4
		C3.8,1.2,3.5,1.5,3.5,1.8c-0.1,0.3,0,0.6,0.3,0.9l2.6,2.6L5.9,6.6L4.5,7L2,4.4C1.7,4.2,1.4,4.1,1.1,4.2C0.8,4.2,0.5,4.5,0.4,4.8
		c-0.9,2.3-0.3,4.9,1.4,6.6c1.4,1.4,3.4,2.1,5.4,1.7l0.3,0.3l-4,4C2,18.9,1.8,20.9,3,22.1c0.5,0.5,1.2,0.8,1.9,0.8
		c1,0,2-0.5,2.8-1.2l4-4l4.6,4.6c0.7,0.7,1.6,1.1,2.6,1.1c1,0,1.9-0.4,2.6-1.1c0.7-0.7,1.1-1.6,1.1-2.6c0-1-0.4-1.9-1.1-2.6l-6-6
		l4.2-4.2C20,6.9,20.2,6.9,20.5,6.9z M6.4,20.3c-0.4,0.4-1,0.7-1.4,0.7c-0.2,0-0.4,0-0.6-0.2c-0.4-0.4-0.3-1.3,0.5-2l4-4l1.5,1.5
		L6.4,20.3z M20.7,19.6c0,0.5-0.2,0.9-0.5,1.2c-0.7,0.7-1.8,0.7-2.5,0l-9.4-9.4c-0.2-0.2-0.4-0.3-0.7-0.3c-0.1,0-0.2,0-0.2,0
		c-1.5,0.4-3.1-0.1-4.1-1.1c-0.8-0.8-1.2-1.9-1.3-3l1.7,1.7C3.8,9,4.1,9.1,4.5,9l2.4-0.7C7.2,8.2,7.5,8,7.6,7.6l0.7-2.4
		c0.1-0.3,0-0.7-0.2-0.9L6.3,2.6c1.1,0,2.2,0.5,3,1.3C10.4,5,10.8,6.5,10.5,8c-0.1,0.3,0,0.7,0.2,0.9l9.4,9.4
		C20.5,18.7,20.7,19.2,20.7,19.6z M20.2,4.3l0.9-0.9L21.7,4l-0.9,0.9c-0.2,0.2-0.4,0.2-0.6,0c0,0,0,0,0,0c0,0,0,0,0,0
		C20.1,4.7,20.1,4.5,20.2,4.3z"/>
	<path d="M18.8,20.2c0.4,0,0.8-0.4,0.8-0.8c0-0.4-0.4-0.8-0.8-0.8c-0.4,0-0.8,0.4-0.8,0.8C18,19.9,18.3,20.2,18.8,20.2z"/>
</g>
</svg>
