<?xml version="1.0" encoding="utf-8"?>
<!-- Generator: Adobe Illustrator 25.0.0, SVG Export Plug-In . SVG Version: 6.00 Build 0)  -->
<svg version="1.1" id="Calque_1" xmlns="http://www.w3.org/2000/svg" xmlns:xlink="http://www.w3.org/1999/xlink" x="0px" y="0px"
	 viewBox="0 0 24 24" style="enable-background:new 0 0 24 24;" xml:space="preserve">
<g>
	<path d="M1.6,4.1h18.9c0.6,0,1-0.4,1-1c0-0.6-0.4-1-1-1H1.6c-0.6,0-1,0.4-1,1C0.6,3.6,1,4.1,1.6,4.1z"/>
	<path d="M22.7,5.6H3.3c-0.6,0-1,0.4-1,1c0,0.6,0.4,1,1,1h19.4c0.6,0,1-0.4,1-1C23.7,6.1,23.3,5.6,22.7,5.6z"/>
	<path d="M20.5,9.2H2.3c-0.6,0-1,0.4-1,1c0,0.6,0.4,1,1,1h18.2c0.6,0,1-0.4,1-1C21.5,9.7,21,9.2,20.5,9.2z"/>
	<path d="M13.2,12.8H1.3c-0.6,0-1,0.4-1,1c0,0.6,0.4,1,1,1h11.9c0.6,0,1-0.4,1-1C14.2,13.2,13.7,12.8,13.2,12.8z"/>
	<path d="M10.9,16.4H4.3c-0.6,0-1,0.4-1,1c0,0.6,0.4,1,1,1h6.6c0.6,0,1-0.4,1-1C11.9,16.8,11.5,16.4,10.9,16.4z"/>
	<path d="M9.8,19.9H7.4c-0.6,0-1,0.4-1,1c0,0.6,0.4,1,1,1h2.4c0.6,0,1-0.4,1-1C10.8,20.4,10.4,19.9,9.8,19.9z"/>
</g>
</svg>
