<?xml version="1.0" encoding="utf-8"?>
<!-- Generator: Adobe Illustrator 24.3.0, SVG Export Plug-In . SVG Version: 6.00 Build 0)  -->
<svg version="1.1" id="Calque_1" xmlns="http://www.w3.org/2000/svg" xmlns:xlink="http://www.w3.org/1999/xlink" x="0px" y="0px"
	 viewBox="0 0 24 24" style="enable-background:new 0 0 24 24;" xml:space="preserve">
<g>
	<path d="M22.4,2.7h-6.2C15.4,1.1,13.8,0,12,0c-1.8,0-3.4,1.1-4.2,2.7H1.6c-0.6,0-1,0.4-1,1c0,0.6,0.4,1,1,1h0.6c0,0,0,0,0,0l1,17.3
		c0.1,1.1,0.9,1.9,2,1.9h13.5c0,0,0,0,0,0c1,0,1.9-0.9,2-1.9l1-17.3c0,0,0,0,0,0h0.6c0.6,0,1-0.4,1-1C23.4,3.2,22.9,2.7,22.4,2.7z
		 M12,2c0.7,0,1.3,0.3,1.8,0.7h-3.5C10.7,2.3,11.3,2,12,2z M18.7,22L5.3,21.9l-1-17.2h15.5L18.7,22z"/>
	<path d="M8.2,20.3C8.2,20.3,8.2,20.3,8.2,20.3c0.6,0,1-0.5,1-1.1L8.5,7.3c0-0.6-0.5-1-1.1-0.9c-0.6,0-1,0.5-0.9,1.1l0.7,11.9
		C7.2,19.9,7.7,20.3,8.2,20.3z"/>
	<path d="M15.7,20.3C15.8,20.3,15.8,20.3,15.7,20.3c0.6,0,1-0.4,1.1-0.9l0.7-11.9c0-0.6-0.4-1-0.9-1.1c-0.5,0-1,0.4-1.1,0.9
		l-0.7,11.9C14.8,19.8,15.2,20.3,15.7,20.3z"/>
	<path d="M12,20.3c0.6,0,1-0.4,1-1V7.4c0-0.6-0.4-1-1-1c-0.6,0-1,0.4-1,1v11.9C11,19.9,11.4,20.3,12,20.3z"/>
</g>
</svg>
