<?xml version="1.0" encoding="utf-8"?>
<!-- Generator: Adobe Illustrator 24.3.0, SVG Export Plug-In . SVG Version: 6.00 Build 0)  -->
<svg version="1.1" id="Calque_1" xmlns="http://www.w3.org/2000/svg" xmlns:xlink="http://www.w3.org/1999/xlink" x="0px" y="0px"
	 viewBox="0 0 24 24" style="enable-background:new 0 0 24 24;" xml:space="preserve">
<path d="M21.5,17.6l-1.3-1.7c0.3-0.2,0.5-0.4,0.6-0.7c0.3-0.7,0.2-1.5-0.2-2.1l-1.3-1.7c0.3-0.2,0.5-0.4,0.6-0.8
	c0.3-0.7,0.2-1.5-0.2-2.1l-3.1-3.9l-3.1-3.9C13.2,0.3,12.6,0,12,0c-0.6,0-1.2,0.3-1.6,0.8L7.4,4.7L4.3,8.6C3.9,9.2,3.8,10,4.1,10.6
	c0.1,0.3,0.4,0.6,0.6,0.8l-1.3,1.7c-0.5,0.6-0.6,1.4-0.2,2.1c0.1,0.3,0.4,0.6,0.6,0.7l-1.3,1.7C2.1,18.2,2,19,2.3,19.7
	c0.3,0.7,1,1.1,1.8,1.1h5.3V23c0,0.5,0.4,1,1,1h3.2c0.5,0,1-0.4,1-1v-2.2h5.3c0.8,0,1.4-0.4,1.8-1.1C22,19,21.9,18.2,21.5,17.6z
	 M12.6,22h-1.2v-1.2H12h0.6V22z M12,18.8H4.1l3.5-4.5H5l3.5-4.5l0,0H5.9l3.1-3.9L12,2l3.1,3.9l3.1,3.9h-2.6l0,0l3.5,4.5h-2.6
	l3.5,4.5H12z"/>
</svg>
