<?xml version="1.0" encoding="utf-8"?>
<!-- Generator: Adobe Illustrator 25.0.0, SVG Export Plug-In . SVG Version: 6.00 Build 0)  -->
<svg version="1.1" id="Calque_1" xmlns="http://www.w3.org/2000/svg" xmlns:xlink="http://www.w3.org/1999/xlink" x="0px" y="0px"
	 viewBox="0 0 24 24" style="enable-background:new 0 0 24 24;" xml:space="preserve">
<g>
	<path d="M23.1,1.3h-4.5h-0.1h-13H5.4H0.9C0.4,1.3,0,1.8,0,2.3v2.3c0,2.6,2,4.7,4.5,5c0.2,3.6,3,6.4,6.4,6.9v1.9H9
		c-0.5,0-0.9,0.4-0.9,0.9c0,0.5,0.4,0.9,0.9,0.9h5.8c0.5,0,0.9-0.4,0.9-0.9c0-0.5-0.4-0.9-0.9-0.9h-2v-1.8c3.6-0.4,6.4-3.3,6.7-7
		C22,9.3,24,7.2,24,4.6V2.3C24,1.8,23.6,1.3,23.1,1.3z M1.9,4.6V3.2h2.6v4.4C3,7.4,1.9,6.1,1.9,4.6z M17.6,9c0,3.1-2.5,5.6-5.6,5.6
		S6.4,12.1,6.4,9V3.2h11.3V9z M22.1,4.6c0,1.5-1.1,2.8-2.6,3.1V3.2h2.6V4.6z"/>
	<path d="M19.2,20.8H4.5c-0.5,0-0.9,0.4-0.9,0.9c0,0.5,0.4,0.9,0.9,0.9h14.7c0.5,0,0.9-0.4,0.9-0.9C20.2,21.2,19.8,20.8,19.2,20.8z"
		/>
</g>
</svg>
