<?xml version="1.0" encoding="utf-8"?>
<!-- Generator: Adobe Illustrator 25.0.0, SVG Export Plug-In . SVG Version: 6.00 Build 0)  -->
<svg version="1.1" id="Calque_1" xmlns="http://www.w3.org/2000/svg" xmlns:xlink="http://www.w3.org/1999/xlink" x="0px" y="0px"
	 viewBox="0 0 24 24" style="enable-background:new 0 0 24 24;" xml:space="preserve">
<g>
	<path d="M9.6,2.9v12.2H24V2.9H9.6z M22,13.1H11.6V4.9H22V13.1z"/>
	<path d="M15.9,16.2h-5.5c-0.5,0-1,0.4-1,1s0.4,1,1,1h5.5c0.6,0,1-0.4,1-1S16.4,16.2,15.9,16.2z"/>
	<path d="M20.1,16.1c-1.4,0-2.5,1.1-2.5,2.5c0,1.4,1.1,2.5,2.5,2.5c1.4,0,2.5-1.1,2.5-2.5C22.7,17.2,21.5,16.1,20.1,16.1z
		 M20.1,19.4c-0.5,0-0.8-0.4-0.8-0.8c0-0.5,0.4-0.8,0.8-0.8c0.5,0,0.8,0.4,0.8,0.8C21,19.1,20.6,19.4,20.1,19.4z"/>
	<path d="M6.4,15c0.7,0,1.4,0.2,2,0.6V6.8H2.9L0,12.4v5.8h2.8C3,16.4,4.5,15,6.4,15z M2,15.2v-2.3l2.1-4.1h2.3V13
		C4.6,13.1,3,13.9,2,15.2z"/>
	<path d="M6.4,16.1c-1.4,0-2.5,1.1-2.5,2.5c0,1.4,1.1,2.5,2.5,2.5c1.4,0,2.5-1.1,2.5-2.5C8.9,17.2,7.8,16.1,6.4,16.1z M6.4,19.4
		c-0.5,0-0.8-0.4-0.8-0.8c0-0.5,0.4-0.8,0.8-0.8c0.5,0,0.8,0.4,0.8,0.8C7.2,19.1,6.8,19.4,6.4,19.4z"/>
</g>
</svg>
