<?xml version="1.0" encoding="utf-8"?>
<!-- Generator: Adobe Illustrator 24.3.0, SVG Export Plug-In . SVG Version: 6.00 Build 0)  -->
<svg version="1.1" id="Calque_1" xmlns="http://www.w3.org/2000/svg" xmlns:xlink="http://www.w3.org/1999/xlink" x="0px" y="0px"
	 viewBox="0 0 24 24" style="enable-background:new 0 0 24 24;" xml:space="preserve">
<path d="M24,4.6c-0.9,0.5-1.8,0.6-2.9,0.8c1.1-0.6,1.8-1.7,2.3-2.7c-0.9,0.6-2,1.1-3.2,1.2c-0.9-0.9-2.3-1.7-3.6-1.7
	c-2.7,0-5,2.3-5,5c0,0.5,0.2,0.8,0.2,1.1c-4.2,0-7.8-2-10.3-5C1,4,0.9,4.8,0.9,5.7c0,1.7,0.9,3.2,2.3,4.1c-1-0.1-1.7-0.4-2.3-0.7
	c0,0,0,0,0,0.2c0,2.4,1.7,4.4,3.9,4.8c-0.5,0.2-0.9,0.2-1.2,0.2c-0.3,0-0.6,0-0.9-0.2c0.6,2,2.4,3.3,4.7,3.5
	c-1.7,1.4-3.8,2.1-6.2,2.1c-0.5,0-0.8,0-1.2-0.2c2.3,1.5,4.8,2.3,7.5,2.3c9.1,0,14-7.5,14-14c0-0.3,0-0.5,0-0.6
	C22.5,6.6,23.4,5.7,24,4.6z"/>
</svg>
