<?xml version="1.0" encoding="utf-8"?>
<!-- Generator: Adobe Illustrator 25.0.0, SVG Export Plug-In . SVG Version: 6.00 Build 0)  -->
<svg version="1.1" id="Calque_1" xmlns="http://www.w3.org/2000/svg" xmlns:xlink="http://www.w3.org/1999/xlink" x="0px" y="0px"
	 viewBox="0 0 24 24" style="enable-background:new 0 0 24 24;" xml:space="preserve">
<path d="M20.5,5.3l0.7-0.7c0.4-0.4,0.4-1,0-1.4c-0.4-0.4-1-0.4-1.4,0l-0.7,0.7c-2.6-2.3-5.9-3.4-9.2-3.4C6.8,0.5,3.6,1.5,1,3.7
	c0.6,0.3,1.2,0.6,1.6,1.1C3.8,5.9,4.3,7.5,4.2,9c0.1,0,0.3,0,0.4,0c1.4,0,2.7,0.5,3.7,1.5c0.8,0.8,1.3,1.8,1.5,2.8
	c-0.1,0-0.1,0.1-0.2,0.1l-5.5,5.5c-0.2,0.2-0.5,0.4-0.9,0.4c-0.3,0-0.6-0.1-0.9-0.4c-0.5-0.5-0.5-1.3,0-1.8c0.4-0.4,0.4-1,0-1.4
	c-0.4-0.4-1-0.4-1.4,0c-1.3,1.3-1.3,3.3,0,4.6c0.6,0.6,1.4,1,2.3,1h0c0.9,0,1.7-0.3,2.3-1l5.5-5.5c0,0,0.1-0.1,0.1-0.1
	c1.1,0.2,2.1,0.6,3,1.5c1.1,1.1,1.7,2.7,1.5,4.2c0.1,0,0.3,0,0.4,0c1.4,0,2.7,0.5,3.7,1.5c0.5,0.5,0.9,1,1.1,1.6
	C25.2,18.2,25.1,10.5,20.5,5.3z M20.7,20.1c-1-0.8-2.1-1.4-3.3-1.6c-0.3-1.4-1-2.7-2-3.7c-1-1-2.3-1.7-3.7-2c-0.3-1.4-1-2.7-2-3.7
	c-1-1-2.3-1.7-3.7-2C5.8,5.9,5.3,4.7,4.4,3.8C6.1,2.9,8,2.5,9.9,2.5c3.2,0,6.3,1.3,8.6,3.5C22.3,9.8,23.1,15.5,20.7,20.1z"/>
</svg>
