<?xml version="1.0" encoding="utf-8"?>
<!-- Generator: Adobe Illustrator 25.0.0, SVG Export Plug-In . SVG Version: 6.00 Build 0)  -->
<svg version="1.1" id="Calque_1" xmlns="http://www.w3.org/2000/svg" xmlns:xlink="http://www.w3.org/1999/xlink" x="0px" y="0px"
	 viewBox="0 0 24 24" style="enable-background:new 0 0 24 24;" xml:space="preserve">
<g>
	<path d="M20.7,0.6h-4.3c-0.6,0-1,0.4-1,1c0,0.6,0.4,1,1,1h1.2v10.8c0,3-2.5,5.5-5.5,5.5c-3,0-5.5-2.5-5.5-5.5V2.6h1.1
		c0.6,0,1-0.4,1-1c0-0.6-0.4-1-1-1H3.3c-0.6,0-1,0.4-1,1c0,0.6,0.4,1,1,1h1.2v10.8c0,4.1,3.4,7.5,7.5,7.5c4.1,0,7.5-3.4,7.5-7.5V2.6
		h1.2c0.6,0,1-0.4,1-1C21.7,1,21.2,0.6,20.7,0.6z"/>
	<path d="M20.7,22.4H3.3c-0.3,0-0.5,0.2-0.5,0.5c0,0.3,0.2,0.5,0.5,0.5h17.4c0.3,0,0.5-0.2,0.5-0.5C21.2,22.7,21,22.4,20.7,22.4z"/>
</g>
</svg>
