<?xml version="1.0" encoding="utf-8"?>
<!-- Generator: Adobe Illustrator 25.0.0, SVG Export Plug-In . SVG Version: 6.00 Build 0)  -->
<svg version="1.1" id="Calque_1" xmlns="http://www.w3.org/2000/svg" xmlns:xlink="http://www.w3.org/1999/xlink" x="0px" y="0px"
	 viewBox="0 0 24 24" style="enable-background:new 0 0 24 24;" xml:space="preserve">
<path d="M0,8.7C0,9,0.1,9.3,0.4,9.5l9.8,7.7c0.3,0.2,0.7,0.3,1,0.1c0.3-0.2,0.5-0.5,0.5-0.9v-3.9c3.6,0.5,8.8,2.6,9.7,10.6
	c0.1,0.5,0.5,0.9,1,0.9c0,0,0,0,0,0c0.5,0,0.9-0.4,1-0.8l0-0.1c1.2-5.2,0.6-9.8-1.7-13.1c-2.1-2.9-5.4-4.8-9.9-5.5V1
	c0-0.4-0.2-0.7-0.5-0.9c-0.3-0.2-0.7-0.1-1,0.1L0.4,7.9C0.1,8.1,0,8.4,0,8.7z M2.6,8.7L9.8,3v2.2c0,0.5,0.4,0.9,0.9,1
	c4.4,0.6,7.6,2.2,9.4,4.9c1.5,2.1,1.9,4.6,2,6.8c-2.7-6.1-8.5-7.2-11.2-7.3c-0.3,0-0.5,0.1-0.7,0.3c-0.2,0.2-0.3,0.4-0.3,0.7v2.9
	L2.6,8.7z"/>
</svg>
