<?xml version="1.0" encoding="utf-8"?>
<!-- Generator: Adobe Illustrator 25.0.0, SVG Export Plug-In . SVG Version: 6.00 Build 0)  -->
<svg version="1.1" id="Calque_1" xmlns="http://www.w3.org/2000/svg" xmlns:xlink="http://www.w3.org/1999/xlink" x="0px" y="0px"
	 viewBox="0 0 24 24" style="enable-background:new 0 0 24 24;" xml:space="preserve">
<path d="M12.5,1.7c-3.2,0-6.3,1.4-8.4,3.8L1.7,3.1C1.5,2.8,1,2.7,0.7,2.9C0.3,3,0.1,3.4,0.1,3.7v9.5c0,0.5,0.4,1,1,1h9.4
	c0.4,0,0.7-0.2,0.9-0.6c0.2-0.4,0.1-0.8-0.2-1.1L8.4,9.7c1.3-1,2.8-1.5,4.4-1.5c4.1,0,7.4,3.3,7.4,7.4c0,1.9-0.7,3.7-2,5.1
	c-0.3,0.4-0.4,0.9,0,1.3c0.2,0.2,0.5,0.3,0.7,0.3c0.2,0,0.4-0.1,0.6-0.2c2.8-2.2,4.5-5.5,4.5-9C23.9,6.8,18.8,1.7,12.5,1.7z
	 M12.8,6.3c-2.5,0-4.8,1-6.6,2.7c-0.4,0.4-0.4,1,0,1.4c0.1,0.1,0.1,0.1,0.2,0.1l1.7,1.7H2V6.1l1.3,1.3c0,0,0,0,0,0
	c0.1,0.1,0.2,0.2,0.3,0.3C4,8,4.6,7.9,5,7.5c1.8-2.5,4.6-3.9,7.6-3.9c5.2,0,9.4,4.2,9.4,9.4c0,0.2,0,0.5,0,0.7
	C21.1,9.5,17.3,6.3,12.8,6.3z"/>
</svg>
