<?xml version="1.0" encoding="utf-8"?>
<!-- Generator: Adobe Illustrator 24.3.0, SVG Export Plug-In . SVG Version: 6.00 Build 0)  -->
<svg version="1.1" id="Calque_1" xmlns="http://www.w3.org/2000/svg" xmlns:xlink="http://www.w3.org/1999/xlink" x="0px" y="0px"
	 viewBox="0 0 24 24" style="enable-background:new 0 0 24 24;" xml:space="preserve">
<path d="M12,0.1C5.5,0.1,0.1,5.5,0.1,12c0,6.5,5.3,11.9,11.9,11.9c6.5,0,11.9-5.3,11.9-11.9C23.9,5.5,18.5,0.1,12,0.1z M6.7,16.3
	h4.8v5.5c-0.6,0-1.1-0.1-1.6-0.2C8.5,20.7,7.4,18.7,6.7,16.3z M2.1,12c0-1.2,0.2-2.3,0.6-3.3h2.8C5.3,9.7,5.2,10.8,5.2,12
	c0,1.2,0.1,2.3,0.3,3.3H2.7C2.3,14.3,2.1,13.2,2.1,12z M6.2,12c0-1.2,0.1-2.3,0.3-3.3h5v6.7h-5C6.3,14.3,6.2,13.2,6.2,12z M9.9,2.4
	c0.5-0.1,1.1-0.2,1.6-0.2v5.5H6.7C7.4,5.3,8.5,3.3,9.9,2.4z M12.5,2.2c0.6,0,1.1,0.1,1.6,0.2c1.4,1,2.5,2.9,3.1,5.3h-4.8V2.2z
	 M20.9,7.7h-2.6c-0.4-1.8-1.2-3.4-2.1-4.6C18.2,4,19.9,5.7,20.9,7.7z M17.5,8.7c0.2,1,0.3,2.2,0.3,3.3c0,1.2-0.1,2.3-0.3,3.3h-5V8.7
	H17.5z M17.3,16.3c-0.6,2.4-1.7,4.3-3.1,5.3c-0.5,0.1-1.1,0.2-1.6,0.2v-5.5H17.3z M16.2,20.9c0.9-1.2,1.6-2.8,2.1-4.6h2.6
	C19.9,18.3,18.2,20,16.2,20.9z M18.5,15.3c0.2-1.1,0.3-2.2,0.3-3.3c0-1.2-0.1-2.3-0.3-3.3h2.8c0.4,1,0.6,2.2,0.6,3.3
	c0,1.2-0.2,2.3-0.6,3.3H18.5z M7.8,3.1C6.9,4.3,6.2,5.8,5.7,7.7H3.1C4.1,5.7,5.8,4,7.8,3.1z M3.1,16.3h2.6c0.4,1.8,1.2,3.4,2.1,4.6
	C5.8,20,4.1,18.3,3.1,16.3z"/>
</svg>
