<?xml version="1.0" encoding="utf-8"?>
<!-- Generator: Adobe Illustrator 25.0.0, SVG Export Plug-In . SVG Version: 6.00 Build 0)  -->
<svg version="1.1" id="Calque_1" xmlns="http://www.w3.org/2000/svg" xmlns:xlink="http://www.w3.org/1999/xlink" x="0px" y="0px"
	 viewBox="0 0 24 24" style="enable-background:new 0 0 24 24;" xml:space="preserve">
<g>
	<path d="M23.1,4.6c-0.1-0.4-0.4-0.7-0.9-0.8C15.5,3,8.5,3,1.7,3.8C1.3,3.8,1,4.1,0.9,4.6c-1.2,4.9-1.2,9.9,0,14.9
		c0.1,0.4,0.4,0.7,0.9,0.8c3.4,0.4,6.9,0.6,10.3,0.6s6.9-0.2,10.3-0.6c0.4-0.1,0.8-0.4,0.9-0.8C24.3,14.5,24.3,9.5,23.1,4.6z
		 M21.3,18.3C15.1,19,8.9,19,2.7,18.3c-0.9-4.2-0.9-8.4,0-12.6C8.9,5,15.1,5,21.3,5.7C22.2,9.9,22.2,14.1,21.3,18.3z"/>
	<path d="M16.6,10.7l-5.9-3.4c-0.3-0.2-0.5-0.2-0.8-0.2c-0.8,0-1.4,0.7-1.4,1.5v6.8c0,0.9,0.6,1.5,1.4,1.5c0.3,0,0.6-0.1,0.8-0.2
		l5.9-3.4c0.5-0.3,0.8-0.8,0.8-1.3C17.4,11.5,17.2,11,16.6,10.7z M10.6,14.5v-5l4.3,2.5L10.6,14.5z"/>
</g>
</svg>
