<?xml version="1.0" encoding="utf-8"?>
<!-- Generator: Adobe Illustrator 25.0.0, SVG Export Plug-In . SVG Version: 6.00 Build 0)  -->
<svg version="1.1" id="Calque_1" xmlns="http://www.w3.org/2000/svg" xmlns:xlink="http://www.w3.org/1999/xlink" x="0px" y="0px"
	 viewBox="0 0 24 24" style="enable-background:new 0 0 24 24;" xml:space="preserve">
<g>
	<g>
		<path d="M12,20.4c-5.3,0-9.9-3.2-11.5-8.1c-0.1-0.2-0.1-0.4,0-0.6C2.1,6.9,6.7,3.6,12,3.6c5.3,0,9.9,3.2,11.5,8.1
			c0.1,0.2,0.1,0.4,0,0.6C21.9,17.1,17.3,20.4,12,20.4L12,20.4z M2.5,12c1.4,3.8,5.2,6.4,9.5,6.4c4.3,0,8.1-2.5,9.5-6.4
			c-1.4-3.8-5.2-6.4-9.5-6.4C7.7,5.6,3.9,8.2,2.5,12L2.5,12z"/>
	</g>
	<g>
		<path d="M12,17.4c-3,0-5.4-2.4-5.4-5.4c0-0.6,0.4-1,1-1c0.6,0,1,0.4,1,1c0,1.9,1.5,3.4,3.4,3.4c1.9,0,3.4-1.5,3.4-3.4
			c0-1.9-1.5-3.4-3.4-3.4c-0.6,0-1-0.4-1-1c0-0.6,0.4-1,1-1c3,0,5.4,2.4,5.4,5.4C17.4,15,15,17.4,12,17.4L12,17.4z"/>
	</g>
</g>
</svg>
