<?xml version="1.0" encoding="utf-8"?>
<!-- Generator: Adobe Illustrator 25.0.0, SVG Export Plug-In . SVG Version: 6.00 Build 0)  -->
<svg version="1.1" id="Calque_1" xmlns="http://www.w3.org/2000/svg" xmlns:xlink="http://www.w3.org/1999/xlink" x="0px" y="0px"
	 viewBox="0 0 24 24" style="enable-background:new 0 0 24 24;" xml:space="preserve">
<g>
	<path d="M23.5,11.7C21.9,6.9,17.3,3.6,12,3.6c-2,0-3.9,0.5-5.6,1.3L5.6,4.2c-0.4-0.4-1-0.4-1.4,0c-0.4,0.4-0.4,1,0,1.4L4.6,6
		c-1.9,1.4-3.3,3.3-4.1,5.6c-0.1,0.2-0.1,0.4,0,0.6c1.6,4.8,6.2,8.1,11.5,8.1c2,0,3.9-0.5,5.6-1.3l0.8,0.8c0.2,0.2,0.5,0.3,0.7,0.3
		c0.3,0,0.5-0.1,0.7-0.3c0.4-0.4,0.4-1,0-1.4L19.4,18c1.9-1.4,3.3-3.3,4.1-5.6C23.5,12.1,23.5,11.9,23.5,11.7z M12,18.4
		c-4.3,0-8.1-2.5-9.5-6.4c0.7-1.9,1.9-3.4,3.5-4.5l10.1,10.1C14.9,18.1,13.5,18.4,12,18.4z M17.9,16.5L7.9,6.5
		c1.3-0.5,2.7-0.8,4.1-0.8c4.3,0,8.1,2.5,9.5,6.4C20.8,13.9,19.5,15.4,17.9,16.5z"/>
	<path d="M12,17.4c0.6,0,1-0.4,1-1c0-0.6-0.4-1-1-1c-1.9,0-3.4-1.5-3.4-3.4c0-0.6-0.4-1-1-1c-0.6,0-1,0.4-1,1C6.6,15,9,17.4,12,17.4
		z"/>
	<path d="M12,6.6c-0.6,0-1,0.4-1,1c0,0.6,0.4,1,1,1c1.9,0,3.4,1.5,3.4,3.4c0,0.6,0.4,1,1,1c0.6,0,1-0.4,1-1C17.4,9,15,6.6,12,6.6z"
		/>
</g>
</svg>
