<?xml version="1.0" encoding="utf-8"?>
<!-- Generator: Adobe Illustrator 22.1.0, SVG Export Plug-In . SVG Version: 6.00 Build 0)  -->
<svg version="1.1" id="Calque_1" xmlns="http://www.w3.org/2000/svg" xmlns:xlink="http://www.w3.org/1999/xlink" x="0px" y="0px"
	 viewBox="0 0 24 24" style="enable-background:new 0 0 24 24;" xml:space="preserve">
<path d="M0,7.2l1,1.2c0,0,1.9-1.6,2.7-0.7c0.6,0.7,3.3,10.3,4,12.1c0.7,1.5,2.7,3.6,5.1,2.1c2.2-1.3,9.7-7.9,11-15.4s-9-6-10.1,0.6
	c2.7-1.5,4.2,0.7,2.7,3.3s-2.7,4.3-3.3,4.3c-0.6,0-1.2-1.8-1.9-4.8c-0.7-3.1-0.7-8.8-4-8.2C4.1,2.5,0,7.2,0,7.2z"/>
</svg>
