<?xml version="1.0" encoding="utf-8"?>
<!-- Generator: Adobe Illustrator 25.0.0, SVG Export Plug-In . SVG Version: 6.00 Build 0)  -->
<svg version="1.1" id="Calque_1" xmlns="http://www.w3.org/2000/svg" xmlns:xlink="http://www.w3.org/1999/xlink" x="0px" y="0px"
	 viewBox="0 0 24 24" style="enable-background:new 0 0 24 24;" xml:space="preserve">
<path d="M21.4,0.9H2.6C1.2,0.9,0.2,2,0.2,3.3v5.1v0.3v12.1c0,1.3,1.1,2.4,2.4,2.4h18.9c1.3,0,2.4-1.1,2.4-2.4V8.6V8.4V3.3
	C23.8,2,22.8,0.9,21.4,0.9z M2.6,2.9h18.9c0.2,0,0.4,0.2,0.4,0.4v0.5H4C3.8,3.8,3.5,4,3.5,4.3c0,0.3,0.2,0.5,0.5,0.5h17.8V6
	c-0.1,0-0.3,0-0.4,0H2.6C2.4,6,2.3,6,2.1,6V3.3C2.1,3,2.3,2.9,2.6,2.9z M21.9,15.9h-4.2c-0.2,0-0.4-0.2-0.4-0.4v-2
	c0-0.2,0.2-0.4,0.4-0.4h4.2V15.9z M21.4,21.1H2.6c-0.2,0-0.4-0.2-0.4-0.4V8.6V8.4c0-0.2,0.2-0.4,0.4-0.4h18.9c0.2,0,0.4,0.2,0.4,0.4
	v0.3v2.5h-4.2c-1.3,0-2.3,1-2.3,2.3v2c0,1.3,1,2.3,2.3,2.3h4.2v2.8C21.9,21,21.7,21.1,21.4,21.1z"/>
</svg>
