<?xml version="1.0" encoding="utf-8"?>
<!-- Generator: Adobe Illustrator 25.0.0, SVG Export Plug-In . SVG Version: 6.00 Build 0)  -->
<svg version="1.1" id="Calque_1" xmlns="http://www.w3.org/2000/svg" xmlns:xlink="http://www.w3.org/1999/xlink" x="0px" y="0px"
	 viewBox="0 0 24 24" style="enable-background:new 0 0 24 24;" xml:space="preserve">
<path d="M23.3,11.6l-2.8-3.8l1.5-4.5c0.1-0.4,0-0.8-0.2-1c-0.3-0.3-0.7-0.4-1-0.2l-4.5,1.5l-3.8-2.8c-0.3-0.2-0.7-0.3-1.1-0.1
	c-0.3,0.2-0.6,0.5-0.5,0.9l0.1,4.7L7,9c-0.3,0.2-0.5,0.6-0.4,1c0.1,0.4,0.3,0.7,0.7,0.8l3.4,1.1l-9.9,9.9c-0.4,0.4-0.4,1,0,1.4
	c0.2,0.2,0.5,0.3,0.7,0.3s0.5-0.1,0.7-0.3l9.9-9.9l1.1,3.4c0.1,0.4,0.4,0.6,0.8,0.7c0.1,0,0.1,0,0.2,0c0.3,0,0.6-0.2,0.8-0.4
	l2.7-3.9l4.7,0.1c0.4,0,0.7-0.2,0.9-0.5C23.5,12.3,23.5,11.9,23.3,11.6z M17.2,11.1c-0.3,0-0.6,0.2-0.8,0.4l-1.9,2.6l-1-3.1
	c-0.1-0.3-0.3-0.6-0.7-0.7l-3.1-1l2.6-1.9c0.3-0.2,0.4-0.5,0.4-0.8l0-3.2l2.6,1.9c0.3,0.2,0.6,0.2,0.9,0.1l3.1-1l-1,3.1
	c-0.1,0.3-0.1,0.7,0.1,0.9l1.9,2.6L17.2,11.1z"/>
</svg>
