<?xml version="1.0" encoding="utf-8"?>
<!-- Generator: Adobe Illustrator 25.0.0, SVG Export Plug-In . SVG Version: 6.00 Build 0)  -->
<svg version="1.1" id="Calque_1" xmlns="http://www.w3.org/2000/svg" xmlns:xlink="http://www.w3.org/1999/xlink" x="0px" y="0px"
	 viewBox="0 0 24 24" style="enable-background:new 0 0 24 24;" xml:space="preserve">
<g>
	<path d="M12.4,9.4l-1.1,1.2L9.6,8.9c-0.4-0.4-1-0.4-1.4,0c-0.4,0.4-0.4,1,0,1.4l2.5,2.4c0.2,0.2,0.4,0.3,0.7,0.3
		c0.1,0,0.3,0,0.4-0.1c0.1-0.1,0.3-0.1,0.4-0.3l1.7-1.9c0.4-0.4,0.3-1-0.1-1.4C13.4,9,12.8,9,12.4,9.4z"/>
	<path d="M19,9.9c-0.1,0-0.3,0-0.4,0.1c-0.2-0.8-0.6-1.6-1.1-2.2c0-0.1,0.1-0.2,0.1-0.4V2.2c0-1.1-0.9-2-2-2H7.4c-1.1,0-2,0.9-2,2
		v5.2c0,0.1,0,0.3,0.1,0.4C4.5,8.9,4,10.4,4,12c0,1.6,0.5,3.1,1.4,4.3c0,0.1-0.1,0.2-0.1,0.4v5.2c0,1.1,0.9,2,2,2h8.2
		c1.1,0,2-0.9,2-2v-5.2c0-0.1,0-0.3-0.1-0.4c0.5-0.7,0.8-1.4,1.1-2.2c0.1,0.1,0.3,0.1,0.4,0.1c0.6,0,1-0.4,1-1v-2.2
		C20,10.3,19.5,9.9,19,9.9z M11.4,17.4C8.5,17.4,6,15,6,12c0-3,2.4-5.4,5.4-5.4c3,0,5.4,2.4,5.4,5.4C16.9,15,14.4,17.4,11.4,17.4z
		 M15.6,2.2v3.7c-1.2-0.8-2.6-1.3-4.1-1.3c-1.5,0-2.9,0.5-4.1,1.3l0-3.7L15.6,2.2z M7.3,21.8v-3.7c1.2,0.8,2.6,1.3,4.1,1.3
		c1.5,0,2.9-0.5,4.1-1.3l0,3.7L7.3,21.8z"/>
</g>
</svg>
