<?xml version="1.0" encoding="utf-8"?>
<!-- Generator: Adobe Illustrator 25.0.0, SVG Export Plug-In . SVG Version: 6.00 Build 0)  -->
<svg version="1.1" id="Calque_1" xmlns="http://www.w3.org/2000/svg" xmlns:xlink="http://www.w3.org/1999/xlink" x="0px" y="0px"
	 viewBox="0 0 24 24" style="enable-background:new 0 0 24 24;" xml:space="preserve">
<g>
	<path d="M1.8,0.8c-0.6,0-1,0.4-1,1c0,0.6,0.4,1,1,1c10.7,0,19.4,8.7,19.4,19.4c0,0.6,0.4,1,1,1c0.6,0,1-0.4,1-1
		C23.2,10.4,13.6,0.8,1.8,0.8z"/>
	<path d="M1.8,6.8c-0.6,0-1,0.4-1,1c0,0.6,0.4,1,1,1c7.4,0,13.4,6,13.4,13.4c0,0.6,0.4,1,1,1c0.6,0,1-0.4,1-1
		C17.2,13.7,10.3,6.8,1.8,6.8z"/>
	<path d="M1.8,13.1c-0.6,0-1,0.4-1,1c0,0.6,0.4,1,1,1c3.9,0,7.1,3.2,7.1,7.1c0,0.6,0.4,1,1,1c0.6,0,1-0.4,1-1
		C10.9,17.2,6.8,13.1,1.8,13.1z"/>
	<path d="M3.1,18.6c-1,0-1.8,0.8-1.8,1.8c0,1,0.8,1.8,1.8,1.8c1,0,1.8-0.8,1.8-1.8C4.9,19.4,4.1,18.6,3.1,18.6z"/>
</g>
</svg>
