<?xml version="1.0" encoding="utf-8"?>
<!-- Generator: Adobe Illustrator 25.0.0, SVG Export Plug-In . SVG Version: 6.00 Build 0)  -->
<svg version="1.1" id="Calque_1" xmlns="http://www.w3.org/2000/svg" xmlns:xlink="http://www.w3.org/1999/xlink" x="0px" y="0px"
	 viewBox="0 0 24 24" style="enable-background:new 0 0 24 24;" xml:space="preserve">
<g>
	<path d="M22.8,11.5H8.7c-2.8,0-4.1-2-4.1-3.9c0-1.1,0.4-2.1,1.2-2.9c0.9-0.9,2.1-1.4,3.6-1.4c1.4,0,2.5,1.1,2.5,2.5
		c0,0.6-0.5,1.1-1.1,1.1c-0.1,0-0.2-0.1-0.2-0.2c0-0.6-0.4-1-1-1c-0.6,0-1,0.4-1,1c0,1.2,1,2.2,2.2,2.2c1.7,0,3.1-1.4,3.1-3.1
		c0-2.5-2-4.5-4.5-4.5c-2.6,0-4.2,1.1-5.1,2C3.2,4.5,2.6,6,2.6,7.6c0,1.6,0.6,3.2,1.8,4.3c-0.5,0.1-1,0.3-1.4,0.4
		C1.9,12.9,1,13.8,0.5,15c-0.5,1.2-0.4,2.5,0.1,3.6c0.5,1.2,1.7,1.9,3,1.9c0.4,0,0.9-0.1,1.3-0.3c1.2-0.5,1.7-1.9,1.2-3.1
		c-0.2-0.4-0.5-0.8-1-1c-0.5-0.2-0.9-0.2-1.4,0c-0.5,0.2-0.7,0.8-0.5,1.3c0.2,0.4,0.6,0.7,1.1,0.6c0,0.1-0.1,0.2-0.2,0.3
		c-0.6,0.3-1.4,0-1.6-0.6c-0.3-0.7-0.3-1.4,0-2.1c0.3-0.7,0.8-1.2,1.5-1.5c1-0.4,2.5-0.7,4.1-0.7c0.1,0,0.1,0,0.1,0
		c0.2,0,0.4,0,0.6,0h14.1c0.6,0,1-0.4,1-1C23.8,11.9,23.4,11.5,22.8,11.5z"/>
	<path d="M18.2,15.1H12c-2.5,0-4.5,2-4.5,4.5c0,1.7,1.4,3.1,3.1,3.1c1.2,0,2.2-1,2.2-2.2c0-0.6-0.4-1-1-1c-0.6,0-1,0.4-1,1
		c0,0.1-0.1,0.2-0.2,0.2c-0.6,0-1.1-0.5-1.1-1.1c0-1.4,1.1-2.5,2.5-2.5h6.2c0.6,0,1-0.4,1-1C19.2,15.6,18.7,15.1,18.2,15.1z"/>
</g>
</svg>
