<?xml version="1.0" encoding="utf-8"?>
<!-- Generator: Adobe Illustrator 24.3.0, SVG Export Plug-In . SVG Version: 6.00 Build 0)  -->
<svg version="1.1" id="Calque_1" xmlns="http://www.w3.org/2000/svg" xmlns:xlink="http://www.w3.org/1999/xlink" x="0px" y="0px"
	 viewBox="0 0 24 24" style="enable-background:new 0 0 24 24;" xml:space="preserve">
<path d="M18.9,5.4c-0.5-1.5-1.1-3-2-4.8C16.8,0.2,16.4,0,16,0H8C7.6,0,7.2,0.2,7.1,0.6c-0.9,1.8-1.5,3.4-2,4.8
	C3.7,9.1,4,12.5,5.8,14.9c1.2,1.5,2.8,2.4,4.9,2.6V22H8.5c-0.6,0-1,0.4-1,1c0,0.6,0.4,1,1,1h6.3c0.6,0,1-0.4,1-1c0-0.6-0.4-1-1-1
	h-2.2v-4.5c2.3-0.2,4.2-1.1,5.5-2.7C20,12.5,20.3,9.1,18.9,5.4z M8.6,2h6.8c0.7,1.4,1.2,2.8,1.6,4c0.4,1.1,0.7,2.2,0.7,3.2H6.3
	C6.3,8.2,6.6,7.1,7,6C7.4,4.8,7.9,3.5,8.6,2z M16.6,13.6c-1,1.3-2.6,1.9-4.6,1.9c-2,0-3.6-0.7-4.6-1.9c-0.7-0.9-1.1-2.1-1.2-3.4
	h11.5C17.7,11.5,17.3,12.7,16.6,13.6z"/>
</svg>
