<?xml version="1.0" encoding="utf-8"?>
<!-- Generator: Adobe Illustrator 25.0.0, SVG Export Plug-In . SVG Version: 6.00 Build 0)  -->
<svg version="1.1" id="Calque_1" xmlns="http://www.w3.org/2000/svg" xmlns:xlink="http://www.w3.org/1999/xlink" x="0px" y="0px"
	 viewBox="0 0 24 24" style="enable-background:new 0 0 24 24;" xml:space="preserve">
<g>
	<path d="M20.8,11.1l-5.5-3.6c-1.9-1.2-4.8-1.2-6.7,0l-5.5,3.6c-0.5,0.3-0.6,1-0.3,1.5c0.3,0.5,1,0.6,1.5,0.3l3.8-2.5l-2,3.4
		c-0.6,1.1-0.7,2.2-0.2,3.1c0.5,0.9,1.5,1.4,2.7,1.4h0.4v4.6c0,0.6,0.5,1.1,1.1,1.1s1.1-0.5,1.1-1.1v-4.6h1.3v4.6
		c0,0.6,0.5,1.1,1.1,1.1c0.6,0,1.1-0.5,1.1-1.1v-4.6h0.4c1.2,0,2.2-0.5,2.7-1.4c0.5-0.9,0.4-2-0.2-3.1l-2-3.4l3.8,2.5
		c0.2,0.1,0.4,0.2,0.6,0.2c0.4,0,0.7-0.2,0.9-0.5C21.4,12.2,21.3,11.5,20.8,11.1z M16.1,15.8c-0.1,0.1-0.3,0.3-0.9,0.3H8.8
		c-0.5,0-0.8-0.1-0.9-0.3c-0.1-0.1-0.1-0.4,0.2-0.9l3.2-5.6C11.6,9,11.8,8.8,12,8.8c0,0,0,0,0,0c0.1,0,0.4,0.2,0.7,0.6l3.2,5.6
		C16.1,15.4,16.1,15.7,16.1,15.8z"/>
	<path d="M12,6.3c1.7,0,3.1-1.4,3.1-3.1C15.1,1.4,13.7,0,12,0c-1.7,0-3.1,1.4-3.1,3.1C8.9,4.9,10.3,6.3,12,6.3z M12,2.2
		c0.5,0,1,0.4,1,1c0,0.5-0.4,1-1,1c-0.5,0-1-0.4-1-1C11,2.6,11.5,2.2,12,2.2z"/>
</g>
</svg>
