<?xml version="1.0" encoding="utf-8"?>
<!-- Generator: Adobe Illustrator 25.0.0, SVG Export Plug-In . SVG Version: 6.00 Build 0)  -->
<svg version="1.1" id="Calque_1" xmlns="http://www.w3.org/2000/svg" xmlns:xlink="http://www.w3.org/1999/xlink" x="0px" y="0px"
	 viewBox="0 0 24 24" style="enable-background:new 0 0 24 24;" xml:space="preserve">
<g>
	<path d="M15.1,16.7c0.1-0.1,0.1-0.1,0.2-0.2L15,16.1l0.4,0.3c0.1-0.1,0.2-0.2,0.2-0.2c0,0,0,0,0,0c0.2-0.2,0.3-0.4,0.4-0.6L16,15.8
		c0.8,0.2,1.6,0.5,2.3,0.8c0.1,0.1,0.3,0.1,0.4,0.1c0.4,0,0.7-0.2,0.9-0.5c0.9-1.6,1.3-3.4,1.3-5.3c0-5.6-4-10.2-8.9-10.2
		S3.1,5.3,3.1,10.9c0,1.9,0.5,3.7,1.3,5.3c0.3,0.5,0.8,0.7,1.3,0.4C6.4,16.3,7.2,16,8,15.8l-0.1-0.2c0.3,0.4,0.6,0.8,1,1.1
		c-3.4,0.5-6,3.3-6,6.7h2c0-2.6,2.3-4.8,5.2-4.8v-1.1c0.5,0.2,0.9,0.4,1.4,0.4c0.2,0,0.3,0,0.5,0c0,0,0.1,0,0.1,0c0.1,0,0.3,0,0.4,0
		l0.2,0c0.1,0,0.2,0,0.3-0.1c0,0,0.1,0,0.1,0L13,17.3l0.3,0.4c0.1,0,0.2,0,0.3-0.1l0.1,0c0.1,0,0.3-0.1,0.3-0.1c0,0,0,0,0,0v1.1
		c2.9,0,5.2,2.1,5.2,4.8h2C21.1,20,18.5,17.2,15.1,16.7z M14.5,16.5l0.1,0.1c0,0,0,0-0.1,0L14.5,16.5z M5.8,14.4
		c-0.4-1.1-0.7-2.3-0.7-3.5c0-4.5,3.1-8.2,6.9-8.2s6.9,3.7,6.9,8.2c0,1.2-0.2,2.4-0.7,3.5c-0.4-0.2-0.8-0.3-1.2-0.4
		c0.4-0.9,0.7-1.9,0.9-3c0.1-0.4,0.1-0.8,0.2-1.2c0-0.1,0-0.3-0.1-0.4c-0.1-0.1-0.2-0.2-0.4-0.2H13l-0.2-1.5c0-0.3-0.2-0.5-0.5-0.5
		c-0.3,0-0.5,0.2-0.5,0.5l-0.2,1.5H11L10.6,6c0-0.2-0.2-0.4-0.5-0.4C9.8,5.6,9.6,5.8,9.6,6L9.1,9.2H6.4C6.2,9.2,6.1,9.3,6,9.4
		C5.9,9.5,5.9,9.6,5.9,9.8C5.9,10.2,6,10.6,6,11c0.2,1.1,0.6,2.1,1,3C6.6,14.1,6.1,14.2,5.8,14.4z M13.9,16.3
		c-0.1,0.1-0.2,0.1-0.4,0.2c-0.1,0-0.2,0.1-0.4,0.1c-0.1,0-0.1,0-0.3,0.1l0.1,0.5l-0.2-0.5c-0.1,0-0.2,0-0.2,0l0.1,0.5l-0.2-0.5
		c-0.1,0-0.2,0-0.4,0c-0.1,0-0.3,0-0.4,0c-2.2-0.2-3.9-2.4-4.6-6c0-0.2-0.1-0.4-0.1-0.6h2.6c0.2,0,0.5-0.2,0.5-0.4l0-0.1l0,0.1
		c0,0.2,0.2,0.4,0.5,0.4h1.6c0.1,0,0.1,0,0.2,0c0.1,0,0.1,0,0.2,0h4.5c0,0.2-0.1,0.4-0.1,0.6c-0.4,2-1.1,3.6-2.1,4.6c0,0,0,0,0,0
		c-0.1,0.1-0.1,0.1-0.2,0.2l-0.1,0.1c-0.1,0.1-0.2,0.2-0.3,0.3C14.1,16.2,14.1,16.2,13.9,16.3z"/>
	<path d="M9.9,11c-0.3,0-0.6,0.3-0.6,0.6c0,0.3,0.3,0.6,0.6,0.6c0.3,0,0.6-0.3,0.6-0.6C10.5,11.3,10.2,11,9.9,11z"/>
	<path d="M14.7,11.6c0-0.3-0.3-0.6-0.6-0.6c-0.3,0-0.6,0.3-0.6,0.6c0,0.3,0.3,0.6,0.6,0.6C14.4,12.2,14.7,11.9,14.7,11.6z"/>
</g>
</svg>
