<?xml version="1.0" encoding="utf-8"?>
<!-- Generator: Adobe Illustrator 25.0.0, SVG Export Plug-In . SVG Version: 6.00 Build 0)  -->
<svg version="1.1" id="Calque_1" xmlns="http://www.w3.org/2000/svg" xmlns:xlink="http://www.w3.org/1999/xlink" x="0px" y="0px"
	 viewBox="0 0 24 24" style="enable-background:new 0 0 24 24;" xml:space="preserve">
<path d="M23.1,16.5l-2.5-2.2c-2.3-2.1-4.6-4.1-6.9-6.2c0.2-2.2-0.5-4.3-2.1-5.8c-2-1.8-5-2.3-7.5-1.2C3.8,1.2,3.6,1.5,3.5,1.8
	C3.5,2.1,3.6,2.5,3.8,2.7L7,5.6L5.2,7.5L2.1,4.6C1.8,4.4,1.5,4.3,1.2,4.3C0.8,4.4,0.6,4.7,0.4,5c-0.9,2.6-0.2,5.5,1.8,7.4
	c1.6,1.5,3.8,2.1,5.9,1.7c2.7,2.6,5.4,5.2,8.1,7.7l1.1,1c0.4,0.4,1.2,0.7,1.9,0.7c0.1,0,0.3,0,0.4,0c2.3-0.4,4.1-2.4,4.4-4.7
	C24.1,17.9,23.6,17,23.1,16.5z M19.2,21.5L19.2,21.5c-0.2,0-0.4-0.1-0.5-0.2l-1.1-1c-2.8-2.7-5.6-5.4-8.5-8.1C9,12.1,8.7,12,8.5,12
	c-0.1,0-0.2,0-0.3,0c-1.6,0.4-3.4,0-4.6-1.1C2.6,9.9,2,8.6,2,7.3l2,1.9c0.7,0.6,1.8,0.6,2.4-0.1l2.2-2.3C9.3,6.1,9.2,5,8.5,4.4
	l-2-1.9c1.3-0.1,2.7,0.4,3.7,1.3c1.2,1.2,1.8,2.8,1.5,4.5C11.6,8.6,11.7,9,12,9.2c2.4,2.2,4.9,4.4,7.3,6.6l2.5,2.2
	c0.1,0.1,0.2,0.4,0.2,0.5C21.8,20,20.6,21.2,19.2,21.5z"/>
</svg>
