<?xml version="1.0" encoding="utf-8"?>
<!-- Generator: Adobe Illustrator 24.3.0, SVG Export Plug-In . SVG Version: 6.00 Build 0)  -->
<svg version="1.1" id="Calque_1" xmlns="http://www.w3.org/2000/svg" xmlns:xlink="http://www.w3.org/1999/xlink" x="0px" y="0px"
	 viewBox="0 0 24 24" style="enable-background:new 0 0 24 24;" xml:space="preserve">
<style type="text/css">
	.st0{fill-rule:evenodd;clip-rule:evenodd;}
</style>
<g id="black">
	<g id="slice" transform="translate(-500.000000, -100.000000)">
	</g>
	<g id="youtube" transform="translate(10.000000, 16.000000)">
		<path id="Fill-195" class="st0" d="M13.8-8.8c0,0-0.2-1.7-1-2.4c-0.9-1-1.9-1-2.4-1C7-12.4,2-12.4,2-12.4h0c0,0-5,0-8.4,0.2
			c-0.5,0.1-1.5,0.1-2.4,1c-0.7,0.7-1,2.4-1,2.4S-10-6.9-10-4.9v1.8c0,1.9,0.2,3.9,0.2,3.9s0.2,1.7,1,2.4c0.9,1,2.1,0.9,2.6,1
			C-4.2,4.4,2,4.4,2,4.4s5,0,8.4-0.3c0.5-0.1,1.5-0.1,2.4-1c0.7-0.7,1-2.4,1-2.4S14-1.2,14-3.1v-1.8C14-6.9,13.8-8.8,13.8-8.8z
			 M-0.5-0.9l0-6.7L6-4.2L-0.5-0.9z"/>
	</g>
</g>
</svg>
