<?xml version="1.0" encoding="utf-8"?>
<!-- Generator: Adobe Illustrator 25.0.0, SVG Export Plug-In . SVG Version: 6.00 Build 0)  -->
<svg version="1.1" id="Calque_1" xmlns="http://www.w3.org/2000/svg" xmlns:xlink="http://www.w3.org/1999/xlink" x="0px" y="0px"
	 viewBox="0 0 24 24" style="enable-background:new 0 0 24 24;" xml:space="preserve">
<g>
	<path d="M23.1,21.9l-5.1-5c1.5-1.7,2.4-4,2.4-6.5c0-5.5-4.5-10-10-10c-5.5,0-10,4.5-10,10c0,5.5,4.5,10,10,10
		c2.3,0,4.4-0.8,6.1-2.1l5.1,5.1c0.2,0.2,0.5,0.3,0.7,0.3c0.3,0,0.5-0.1,0.7-0.3C23.5,22.9,23.5,22.3,23.1,21.9z M2.6,10.4
		c0-4.4,3.6-8,8-8c4.4,0,8,3.6,8,8c0,4.4-3.6,8-8,8C6.2,18.3,2.6,14.7,2.6,10.4z"/>
	<path d="M14.5,9.2H6.6c-0.6,0-1,0.4-1,1c0,0.6,0.4,1,1,1h7.9c0.6,0,1-0.4,1-1C15.5,9.7,15,9.2,14.5,9.2z"/>
</g>
</svg>
