<?xml version="1.0" encoding="utf-8"?>
<!-- Generator: Adobe Illustrator 24.3.0, SVG Export Plug-In . SVG Version: 6.00 Build 0)  -->
<svg version="1.1" id="Calque_1" xmlns="http://www.w3.org/2000/svg" xmlns:xlink="http://www.w3.org/1999/xlink" x="0px" y="0px"
	 viewBox="0 0 24 24" style="enable-background:new 0 0 24 24;" xml:space="preserve">
<path d="M3.7,10.3h1c0-3.2,2.6-5.8,5.8-5.8v-1C6.7,3.5,3.7,6.5,3.7,10.3z"/>
<path d="M23.5,22.2L18.3,17c1.6-1.8,2.5-4.2,2.5-6.7C20.8,4.6,16.2,0,10.5,0C4.8,0,0.2,4.6,0.2,10.3c0,5.7,4.6,10.3,10.3,10.3
	c2.4,0,4.5-0.8,6.3-2.2l5.3,5.3c0.2,0.2,0.5,0.3,0.7,0.3c0.3,0,0.5-0.1,0.7-0.3C23.9,23.3,23.9,22.6,23.5,22.2z M2.3,10.3
	c0-4.5,3.7-8.2,8.2-8.2c4.5,0,8.2,3.7,8.2,8.2c0,4.5-3.7,8.2-8.2,8.2C6,18.5,2.3,14.8,2.3,10.3z"/>
</svg>
